<svg width="24" height="24" viewBox="0 0 24 24" fill="none" xmlns="http://www.w3.org/2000/svg">
<g clip-path="url(#clip0_236_1423)">
<path d="M18.9616 7.78418C16.7169 7.78418 14.8973 10.6301 14.8973 14.1406C14.8973 17.6511 16.7169 20.497 18.9616 20.497H5.03809C7.28279 20.497 9.10248 17.6511 9.10248 14.1406C9.10248 10.6301 7.28279 7.78418 5.03809 7.78418H18.9616Z" fill="#FFF5CC"/>
<path d="M11.9251 14.1406C11.9251 10.63 10.1055 7.78418 7.86076 7.78418H5.03809C7.28279 7.78418 9.10248 10.6301 9.10248 14.1406C9.10248 17.6511 7.28279 20.497 5.03809 20.497H7.86076C10.1055 20.497 11.9251 17.6511 11.9251 14.1406Z" fill="#FFEB99"/>
<path d="M16.3455 0H15.2508C12.655 0 10.5508 2.10427 10.5508 4.70002H13.4482C13.4482 3.43097 14.3823 2.35547 15.6388 2.17777L16.4903 2.05734C17.0002 1.9852 17.3793 1.54875 17.3793 1.03378C17.3792 0.462844 16.9165 0 16.3455 0V0Z" fill="#C68D6D"/>
<path d="M2.34189 7.7588C2.34189 8.8989 3.48606 9.69596 4.54853 9.28248C4.81136 9.1802 5.12805 9.11021 5.56136 9.11021C7.17109 9.11021 7.17109 10.076 8.78087 10.076C10.3906 10.076 10.3906 9.11021 12.0002 9.11021C13.6098 9.11021 13.6098 10.076 15.2194 10.076C16.829 10.076 16.829 9.11021 18.4385 9.11021C18.8717 9.11021 19.1883 9.18015 19.4511 9.28238C20.5136 9.69582 21.6578 8.8989 21.6578 7.75876C21.6578 7.36843 21.5177 6.99085 21.2631 6.69502C18.9196 3.97224 15.6899 2.73774 12.9937 3.85459C12.9902 3.85604 12.9866 3.85754 12.9831 3.85899C12.352 4.12196 11.6468 4.12196 11.0157 3.85899C11.0122 3.85754 11.0087 3.85604 11.0051 3.85459C8.30903 2.73784 5.07981 3.97248 2.73648 6.69502C2.48186 6.99085 2.34189 7.36848 2.34189 7.7588Z" fill="#FF8FA2"/>
<path d="M20.4388 20.2298C20.4388 19.2336 19.439 18.5371 18.5106 18.8985C18.2809 18.9878 18.0042 19.049 17.6256 19.049C16.219 19.049 16.219 18.2051 14.8124 18.2051C13.4058 18.2051 13.4058 19.049 11.9993 19.049C10.5928 19.049 10.5928 18.2051 9.18634 18.2051C7.77991 18.2051 7.77991 19.049 6.37352 19.049C5.995 19.049 5.71839 18.9878 5.48875 18.8985C4.5603 18.5372 3.56055 19.2336 3.56055 20.2298C3.56055 20.5709 3.68294 20.9009 3.90541 21.1593C5.95309 23.5385 8.77525 24.6172 11.1312 23.6413C11.1343 23.64 11.1374 23.6387 11.1405 23.6375C11.6919 23.4077 12.3081 23.4077 12.8595 23.6375C12.8626 23.6387 12.8657 23.64 12.8688 23.6413C15.2246 24.6172 18.0463 23.5383 20.0939 21.1593C20.3164 20.9008 20.4388 20.5709 20.4388 20.2298V20.2298Z" fill="#FF8FA2"/>
<path d="M10.6529 3.72395C8.03172 2.84818 4.97856 4.09065 2.73648 6.69568C2.48186 6.99151 2.3418 7.36909 2.3418 7.75941V7.75946C2.3418 8.89955 3.48597 9.69662 4.54844 9.28313C4.81127 9.18085 5.12795 9.11087 5.56127 9.11087C6.92106 9.11087 7.13228 9.79993 8.13536 10.014C6.51302 6.36863 10.6529 5.62838 10.6529 3.72395V3.72395Z" fill="#FF768D"/>
<path d="M7.99445 18.502C7.55537 18.745 7.21773 19.049 6.37352 19.049C5.995 19.049 5.71839 18.9879 5.48875 18.8986C4.5603 18.5373 3.56055 19.2337 3.56055 20.2299C3.56055 20.571 3.68294 20.9009 3.90541 21.1594C5.95309 23.5386 8.77525 24.6173 11.1312 23.6414C9.47884 24.1116 6.60667 21.174 7.99445 18.502V18.502Z" fill="#FF768D"/>
<path d="M8.41755 9.15715C9.20043 9.15715 9.83509 8.65174 9.83509 8.02828C9.83509 7.40483 9.20043 6.89941 8.41755 6.89941C7.63466 6.89941 7 7.40483 7 8.02828C7 8.65174 7.63466 9.15715 8.41755 9.15715Z" fill="white"/>
<path d="M16.1011 9.15715C16.884 9.15715 17.5187 8.65174 17.5187 8.02828C17.5187 7.40483 16.884 6.89941 16.1011 6.89941C15.3183 6.89941 14.6836 7.40483 14.6836 8.02828C14.6836 8.65174 15.3183 9.15715 16.1011 9.15715Z" fill="white"/>
<path d="M9.24401 6C9.04399 6 8.88184 6.16211 8.88184 6.36217V6.94165C8.88184 7.14171 9.04399 7.30382 9.24401 7.30382C9.44403 7.30382 9.60618 7.14171 9.60618 6.94165V6.36217C9.60618 6.16216 9.44403 6 9.24401 6Z" fill="#313D40"/>
<path d="M15.2753 6C15.0752 6 14.9131 6.16211 14.9131 6.36217V6.94165C14.9131 7.14171 15.0752 7.30382 15.2753 7.30382C15.4753 7.30382 15.6374 7.14171 15.6374 6.94165V6.36217C15.6374 6.16216 15.4753 6 15.2753 6Z" fill="#313D40"/>
<path d="M13.2928 6.65165C13.142 6.5202 12.9132 6.53595 12.7818 6.68676C12.65 6.83805 12.4598 6.92478 12.2598 6.92478C12.0598 6.92478 11.8696 6.83805 11.7378 6.68676C11.6064 6.536 11.3776 6.5203 11.2268 6.65165C11.076 6.78309 11.0603 7.01184 11.1917 7.16265C11.4611 7.47175 11.8504 7.64907 12.2598 7.64907C12.6692 7.64907 13.0585 7.47175 13.3279 7.16265C13.4593 7.01184 13.4436 6.78309 13.2928 6.65165V6.65165Z" fill="#313D40"/>
</g>
<defs>
<clipPath id="clip0_236_1423">
<rect width="24" height="24" fill="white"/>
</clipPath>
</defs>
</svg>
