<svg width="24" height="24" viewBox="0 0 24 24" fill="none" xmlns="http://www.w3.org/2000/svg">
<g clip-path="url(#clip0_127_1785)">
<path d="M9.82606 2.04755C9.00748 0.943176 7.7359 0.159426 6.24181 0.010551C4.9526 -0.118402 3.88156 0.952598 4.01056 2.2418C4.14162 3.55702 4.76993 4.72032 5.70228 5.54579C8.42009 6.60188 10.5534 4.93725 9.82606 2.04755Z" fill="#8CC357"/>
<path d="M10.4042 3.04867C10.2508 2.69425 10.0563 2.35825 9.82605 2.04761C8.00477 2.57036 6.50538 3.86144 5.70227 5.54584C5.98502 5.79615 6.29538 6.01581 6.62871 6.19867C9.42208 7.73326 11.4584 5.81003 10.4042 3.04867Z" fill="#7EAD3E"/>
<path d="M6.14496 1.6309C6.00297 1.48892 5.77272 1.48892 5.63069 1.6309C5.48866 1.77289 5.48866 2.00314 5.63069 2.14517L7.10102 3.6155C7.5821 4.09657 8.04222 3.78931 7.65513 3.14112L6.14496 1.6309Z" fill="#7EAD3E"/>
<path d="M9.92975 5.92989C10.0718 5.78791 10.0718 5.55766 9.92975 5.41563L7.65518 3.14111C7.46168 3.28896 7.27686 3.44753 7.10107 3.61549L9.41548 5.92989C9.55751 6.07193 9.78772 6.07188 9.92975 5.92989Z" fill="#6F9C3B"/>
<path d="M18.4241 21.8876C19.6904 20.3335 20.3878 18.3717 20.3878 16.3636C20.3878 14.8004 19.9704 13.2662 19.1809 11.9275C18.5431 10.8448 18.206 9.61243 18.206 8.36359C18.206 7.585 18.0707 6.82693 17.8099 6.11279C17.7276 6.25698 17.6508 6.4059 17.5805 6.55993C17.4215 6.90953 17.2383 7.24646 17.0327 7.56793C12.8161 11.9999 9.81007 17.2726 15.6611 22.8542C16.0579 23.0644 16.4651 23.2352 16.878 23.3694C17.4488 22.9424 17.9695 22.4455 18.4241 21.8876Z" fill="#7EAD3E"/>
<path d="M19.2726 16.3635C19.2726 14.9512 18.8891 13.628 18.22 12.4935C17.4825 11.2416 17.0908 9.81664 17.0908 8.36356C17.0908 5.93417 15.494 3.85648 13.2739 3.15894C9.16354 3.15894 7.82924 5.91275 7.82924 8.36356C7.82924 9.78345 7.46048 11.209 6.7102 12.4755C6.05324 13.5839 5.66826 14.8726 5.64838 16.25C5.59471 19.9315 7.20215 23.823 13.2767 23.823C16.7031 23.0728 19.2726 20.0202 19.2726 16.3635Z" fill="#A0CF76"/>
<path d="M7.27344 16.2502C7.29332 14.8727 7.6783 13.584 8.33526 12.4757C9.08554 11.2091 9.4543 9.78359 9.4543 8.3637C9.4543 5.91288 11.066 3.85249 13.2738 3.15907C12.7575 2.99688 12.2076 2.90918 11.6362 2.90918C8.63591 2.90918 6.18168 5.33927 6.18168 8.3637C6.18168 9.78359 5.81291 11.2091 5.06263 12.4757C4.40568 13.584 4.02069 14.8727 4.00082 16.2502C3.93927 20.4727 7.35936 23.9704 11.5819 24C12.164 24.0041 12.7311 23.9426 13.2766 23.8232C9.8128 23.0618 7.21977 19.9316 7.27344 16.2502Z" fill="#8CC357"/>
<path d="M17.3331 16.3635C17.3331 15.3458 17.0621 14.348 16.5491 13.4777C15.6347 11.9257 15.1513 10.1574 15.1513 8.36352C15.1513 6.96336 14.3285 5.7523 13.1411 5.1875C10.4042 5.1875 9.45414 6.96341 9.45414 8.36352C9.45414 10.1671 8.97368 11.931 8.06407 13.4646C7.56082 14.3131 7.28735 15.2862 7.27282 16.2782C7.23489 18.9235 8.99379 21.8584 13.1455 21.8584C15.5609 21.1977 17.3331 18.9897 17.3331 16.3635Z" fill="#8CC357"/>
<path d="M8.94966 16.2782C8.96419 15.2861 9.23766 14.3131 9.74091 13.4646C10.6505 11.931 11.1309 10.1672 11.1309 8.3635C11.1309 6.96334 11.9538 5.75228 13.1411 5.18748C12.6847 4.97031 12.1745 4.84839 11.6362 4.84839C9.69774 4.84839 8.121 6.42512 8.121 8.36355C8.121 10.1672 7.64054 11.9311 6.73093 13.4646C6.22768 14.3131 5.95421 15.2862 5.93968 16.2782C5.89454 19.4286 8.44716 22.0384 11.5954 22.0605H11.6362C12.1589 22.0605 12.6648 21.9899 13.1454 21.8584C10.7056 21.1873 8.91179 18.9235 8.94966 16.2782Z" fill="#7EAD3E"/>
<path d="M9.72902 8.36366C9.72902 10.1673 9.24855 11.9312 8.33894 13.4647C7.83569 14.3132 7.56223 15.2863 7.54769 16.2783C7.5168 18.4326 8.72712 20.9455 11.8612 21.3277C12.2314 21.3111 12.598 21.2544 12.9536 21.1571C15.1041 20.5689 16.6059 18.5977 16.6059 16.3637C16.6059 15.4757 16.3697 14.6055 15.9226 13.8471C14.9423 12.1832 14.4241 10.2871 14.4241 8.36371C14.4241 7.2943 13.7979 6.30547 12.8287 5.84441C12.6837 5.77546 12.5347 5.72001 12.3824 5.67749C10.0866 6.11291 9.72902 7.28708 9.72902 8.36366Z" fill="#F4E386"/>
<path d="M11.1309 8.36357C11.1309 7.287 11.6178 6.32254 12.3824 5.67736C12.1412 5.61004 11.8916 5.57568 11.6362 5.57568C11.4539 5.57568 11.2757 5.59382 11.103 5.62743C9.82004 5.877 8.84832 7.0087 8.84832 8.36357C8.84832 10.298 8.33246 12.1902 7.35653 13.8357C6.91806 14.5749 6.67961 15.4232 6.6669 16.2886C6.64782 17.6179 7.15375 18.8775 8.09139 19.8353C8.53839 20.292 9.05612 20.6516 9.61937 20.904C10.2354 21.1801 10.9058 21.328 11.5982 21.3332H11.6362C11.7113 21.3332 11.7863 21.3309 11.8611 21.3275C10.1028 20.3334 8.91873 18.4324 8.94962 16.2781C8.96415 15.2861 9.23762 14.313 9.74087 13.4646C10.6505 11.9311 11.1309 10.1672 11.1309 8.36357Z" fill="#EFD15E"/>
<path d="M14.9089 16.7272C14.9089 15.2873 13.9787 14.2962 12.6867 13.9523C10.5251 13.9523 9.34131 15.2873 9.34131 16.7272C9.34131 18.1671 9.74532 19.5022 12.6867 19.5022C13.9787 19.1583 14.9089 18.1671 14.9089 16.7272Z" fill="#C77C48"/>
<path d="M10.4646 16.7272C10.4646 15.2873 11.3948 14.2961 12.6868 13.9522C12.3569 13.8644 12.0039 13.8181 11.6362 13.8181C9.82874 13.8181 8.36353 14.9197 8.36353 16.7272C8.36353 18.5347 9.82874 19.6362 11.6362 19.6362C12.0038 19.6362 12.3569 19.5899 12.6868 19.5021C11.3948 19.1582 10.4646 18.1671 10.4646 16.7272Z" fill="#B86932"/>
<path d="M8.72286 9.375C8.52205 9.375 8.35925 9.5378 8.35925 9.73866V10.3205C8.35925 10.5213 8.52205 10.6841 8.72286 10.6841C8.92368 10.6841 9.08652 10.5213 9.08652 10.3205V9.73866C9.08647 9.5378 8.92368 9.375 8.72286 9.375Z" fill="#423E4F"/>
<path d="M14.7786 9.375C14.5778 9.375 14.4149 9.5378 14.4149 9.73866V10.3205C14.4149 10.5213 14.5777 10.6841 14.7786 10.6841C14.9794 10.6841 15.1422 10.5213 15.1422 10.3205V9.73866C15.1422 9.5378 14.9794 9.375 14.7786 9.375Z" fill="#423E4F"/>
<path d="M13.1612 10.3035C12.9604 10.3035 12.7975 10.4663 12.7975 10.6671C12.7975 10.8532 12.6462 11.0046 12.4601 11.0046C12.2743 11.0046 12.1231 10.8532 12.1231 10.6671C12.1231 10.4663 11.9603 10.3035 11.7594 10.3035C11.5586 10.3035 11.3958 10.4663 11.3958 10.6671C11.3958 10.8532 11.2444 11.0046 11.0583 11.0046C10.8725 11.0046 10.7213 10.8532 10.7213 10.6671C10.7213 10.4663 10.5585 10.3035 10.3577 10.3035C10.1569 10.3035 9.99402 10.4663 9.99402 10.6671C9.99402 11.2542 10.4714 11.7318 11.0583 11.7318C11.3266 11.7318 11.5718 11.6319 11.7593 11.4675C11.9466 11.6319 12.1918 11.7318 12.46 11.7318C13.0471 11.7318 13.5247 11.2542 13.5247 10.6671C13.5248 10.4663 13.362 10.3035 13.1612 10.3035Z" fill="#423E4F"/>
</g>
<defs>
<clipPath id="clip0_127_1785">
<rect width="24" height="24" fill="white"/>
</clipPath>
</defs>
</svg>
