<svg width="24" height="24" viewBox="0 0 24 24" fill="none" xmlns="http://www.w3.org/2000/svg">
<g clip-path="url(#clip0_239_1946)">
<path d="M19.0971 5.99686C18.4225 5.36687 17.9112 4.58709 17.5615 3.73289C17.1868 2.81766 16.5922 2.01614 15.8441 1.39234C14.8023 0.523461 13.4624 0 11.9997 0C9.48685 0 7.33457 1.54271 6.43783 3.73265C6.08957 4.58318 5.5833 5.36219 4.91086 5.9887C2.84445 7.91411 1.56284 10.6706 1.59939 13.7262C1.6684 19.5008 6.36921 24.0774 12.1437 23.999C13.9949 23.9739 15.7292 23.4648 17.2262 22.593C20.3206 20.7909 22.4006 17.438 22.4006 13.599C22.4006 10.5985 21.1297 7.89503 19.0971 5.99686V5.99686Z" fill="#00CE8E"/>
<path d="M20.1865 9.97235C19.6958 8.86676 18.9964 7.88546 18.1079 7.0557C17.3002 6.30146 16.6652 5.36826 16.2204 4.28189C15.9458 3.61124 15.5069 3.0082 14.9501 2.53443C14.9386 2.52463 14.9274 2.51458 14.9159 2.50492C14.0991 1.82385 13.0633 1.44873 11.9992 1.44873C10.1396 1.44873 8.4827 2.5607 7.77801 4.28165C7.332 5.37097 6.69945 6.3019 5.89794 7.0486C4.9941 7.89077 4.28593 8.88868 3.79319 10.0146C3.28305 11.1802 3.03214 12.4232 3.04754 13.709C3.07603 16.0919 4.01836 18.3186 5.70102 19.979C7.38203 21.6377 9.61804 22.5512 11.9972 22.5514H11.9982C12.0401 22.5514 12.0815 22.5511 12.1236 22.5505C13.6619 22.5296 15.1742 22.1114 16.4968 21.3412C16.5125 21.332 16.5278 21.3222 16.5434 21.313C17.8538 20.5391 18.9532 19.4385 19.7244 18.126C20.5272 16.7596 20.9515 15.1942 20.9515 13.5991C20.9515 12.336 20.6941 11.1158 20.1865 9.97235V9.97235Z" fill="#FCE3A0"/>
<path d="M9.80834 12.743C9.77801 10.2058 10.8083 7.80692 12.6587 6.08259C14.1876 4.65824 14.3935 3.38296 14.9504 2.53421C12.6235 0.551341 8.96911 1.37318 7.77824 4.28148C7.33224 5.3708 6.69969 6.30173 5.89818 7.04844C4.99434 7.89061 4.28617 8.88852 3.79342 10.0144C1.20915 15.9189 5.53779 22.6389 12.1237 22.5504C13.6621 22.5295 15.1743 22.1113 16.497 21.341C16.5127 21.3319 16.528 21.3221 16.5436 21.3128C12.7691 20.3643 9.85895 16.9758 9.80834 12.743Z" fill="#FFCE71"/>
<path d="M11.9987 9.03027C11.4551 9.03027 10.9336 9.12507 10.4498 9.29862C8.67835 9.93397 7.41113 11.6278 7.41113 13.6178C7.41113 16.0612 9.32152 18.0582 11.7301 18.1973H11.7303C11.8191 18.2024 11.9085 18.2053 11.9987 18.2053C14.5323 18.2053 16.5862 16.1514 16.5862 13.6178C16.5862 11.0842 14.5323 9.03027 11.9987 9.03027V9.03027Z" fill="#CE857A"/>
<path d="M10.4497 9.29883C8.67835 9.93418 7.41113 11.628 7.41113 13.618C7.41113 16.0614 9.32152 18.0584 11.7301 18.1975C10.5081 16.6553 9.83267 14.7548 9.80857 12.7434C9.79428 11.549 10.0101 10.3917 10.4497 9.29883V9.29883Z" fill="#C77464"/>
<path d="M8.75432 15.5838C9.31438 15.5838 9.7684 15.2223 9.7684 14.7763C9.7684 14.3303 9.31438 13.9688 8.75432 13.9688C8.19426 13.9688 7.74023 14.3303 7.74023 14.7763C7.74023 15.2223 8.19426 15.5838 8.75432 15.5838Z" fill="#FF8E9E"/>
<path d="M15.2208 15.6033C15.7942 15.6033 16.2591 15.2332 16.2591 14.7765C16.2591 14.3199 15.7942 13.9497 15.2208 13.9497C14.6474 13.9497 14.1826 14.3199 14.1826 14.7765C14.1826 15.2332 14.6474 15.6033 15.2208 15.6033Z" fill="#FF8E9E"/>
<path d="M8.98424 12.9541C8.78418 12.9541 8.62207 13.1162 8.62207 13.3163V13.8958C8.62207 14.0958 8.78418 14.2579 8.98424 14.2579C9.18431 14.2579 9.34642 14.0958 9.34642 13.8958V13.3163C9.34642 13.1162 9.18426 12.9541 8.98424 12.9541Z" fill="#313D40"/>
<path d="M15.0155 12.9541C14.8154 12.9541 14.6533 13.1162 14.6533 13.3163V13.8958C14.6533 14.0958 14.8154 14.2579 15.0155 14.2579C15.2156 14.2579 15.3777 14.0958 15.3777 13.8958V13.3163C15.3777 13.1162 15.2156 12.9541 15.0155 12.9541Z" fill="#313D40"/>
<path d="M13.033 13.6053C12.8822 13.4738 12.6534 13.4896 12.522 13.6404C12.3902 13.7917 12.2 13.8784 12 13.8784C11.8 13.8784 11.6098 13.7917 11.478 13.6404C11.3466 13.4896 11.1178 13.4739 10.967 13.6053C10.8162 13.7367 10.8005 13.9655 10.9319 14.1162C11.2012 14.4254 11.5906 14.6027 12 14.6027C12.4093 14.6027 12.7987 14.4254 13.068 14.1162C13.1995 13.9655 13.1838 13.7367 13.033 13.6053Z" fill="#313D40"/>
</g>
<defs>
<clipPath id="clip0_239_1946">
<rect width="24" height="24" fill="white"/>
</clipPath>
</defs>
</svg>
