<svg width="24" height="24" viewBox="0 0 24 24" fill="none" xmlns="http://www.w3.org/2000/svg">
<g clip-path="url(#clip0_171_1200)">
<path d="M1.05273 19.665L19.6651 1.05271L22.8281 4.21579L4.21582 22.8281L1.05273 19.665Z" fill="#CF7A15"/>
<path d="M23.2115 0.789791C22.1587 -0.263264 20.4505 -0.263264 19.3977 0.789791L18.4016 1.7861C18.1641 2.02369 18.2647 2.42749 18.5853 2.52798C19.3561 2.76953 19.897 3.25204 19.897 3.25204C19.897 3.25204 18.9349 4.11106 17.7482 4.11106C17.358 4.11106 16.9923 4.0181 16.6769 3.89342C16.511 3.82779 16.3222 3.86604 16.1959 3.99227L14.8239 5.36462C14.5863 5.6022 14.6869 6.006 15.0075 6.10649C15.7784 6.34804 16.3192 6.83055 16.3192 6.83055C16.3192 6.83055 15.3572 7.68957 14.1705 7.68957C13.7802 7.68957 13.4145 7.59662 13.0992 7.47193C12.9332 7.40631 12.7444 7.44455 12.6182 7.57078L11.2461 8.94313C11.0086 9.18071 11.1092 9.58451 11.4298 9.685C12.2006 9.92655 12.7415 10.4091 12.7415 10.4091C12.7415 10.4091 11.7794 11.2681 10.5927 11.2681C10.2025 11.2681 9.8368 11.1751 9.52147 11.0504C9.3555 10.9848 9.16668 11.0231 9.04045 11.1493L7.66859 12.5215C7.43105 12.7591 7.53164 13.1629 7.85224 13.2634C8.62309 13.5049 9.16393 13.9874 9.16393 13.9874C9.16393 13.9874 8.2019 14.8465 7.01518 14.8465C6.62495 14.8465 6.25925 14.7535 5.94392 14.6288C5.77795 14.5632 5.58914 14.6014 5.46291 14.7277L4.09085 16.1C3.85332 16.3376 3.9539 16.7414 4.2745 16.8419C5.04535 17.0834 5.58619 17.5659 5.58619 17.5659C5.58619 17.5659 4.62421 18.4249 3.43749 18.4249C3.04726 18.4249 2.68157 18.332 2.36623 18.2073C2.20026 18.1416 2.01145 18.1799 1.88522 18.3061L0.788559 19.403C-0.262853 20.4547 -0.262853 22.1586 0.788559 23.2102C1.84137 24.2633 3.54948 24.2633 4.60229 23.2102L23.2115 4.59695C24.2629 3.54535 24.2629 1.8414 23.2115 0.789791V0.789791Z" fill="#F0A346"/>
<path d="M23.2123 0.790214C22.4358 0.0135705 21.3032 -0.189536 20.3396 0.179349C20.6825 0.310649 21.0043 0.513756 21.2807 0.790214C22.3321 1.84187 22.3321 3.54577 21.2807 4.59743L2.67154 23.2106C2.39518 23.487 2.07342 23.6902 1.73047 23.8215C2.69404 24.1904 3.82668 23.9873 4.60313 23.2106L23.2123 4.59738C24.2637 3.54577 24.2637 1.84182 23.2123 0.790214V0.790214Z" fill="#EB8F21"/>
<path d="M9.48871 13.8764C9.35146 13.7391 9.12889 13.7391 8.99164 13.8764C8.85435 14.0137 8.85435 14.2362 8.99164 14.3735L9.45022 14.8321C9.58743 14.9693 9.81004 14.9693 9.94729 14.8321C10.0846 14.6948 10.0846 14.4723 9.94729 14.335L9.48871 13.8764Z" fill="#423E4F"/>
<path d="M14.2237 10.0586C14.3609 10.1959 14.5834 10.1959 14.7207 10.0586C14.858 9.92133 14.858 9.69881 14.7207 9.56152L14.2621 9.10294C14.1249 8.96569 13.9023 8.96569 13.7651 9.10294C13.6278 9.24019 13.6278 9.46275 13.7651 9.6L14.2237 10.0586Z" fill="#423E4F"/>
<path d="M11.4193 13.1627C11.8608 13.1931 12.2944 13.0314 12.6077 12.718C12.9207 12.4051 13.0828 11.9719 13.0524 11.5296C13.0391 11.3359 12.871 11.1897 12.6776 11.203C12.4839 11.2163 12.3377 11.3841 12.351 11.5778C12.3675 11.8173 12.2799 12.0517 12.1106 12.221C11.9413 12.3902 11.7068 12.4778 11.4674 12.4614C11.274 12.4481 11.1059 12.5943 11.0926 12.788C11.0794 12.9816 11.2256 13.1494 11.4193 13.1627V13.1627Z" fill="#423E4F"/>
</g>
<defs>
<clipPath id="clip0_171_1200">
<rect width="24" height="24" fill="white"/>
</clipPath>
</defs>
</svg>
