<svg width="24" height="24" viewBox="0 0 24 24" fill="none" xmlns="http://www.w3.org/2000/svg">
<path d="M21.997 6.05169C21.841 5.33261 21.5063 4.75236 21.0644 4.31529C20.7012 3.95621 20.4911 3.47235 20.4651 2.96453C20.4633 2.92894 20.4623 2.89321 20.4623 2.85743V1.47199C20.4623 0.686271 19.8463 0.022094 19.0608 0.000556737C18.2459 -0.0218014 17.5783 0.632138 17.5783 1.44201V2.20199C17.5783 2.88896 17.2374 3.53165 16.6673 3.91492C16.1106 4.28917 15.6469 4.84556 15.3665 5.59043C14.3941 8.17359 12.8765 10.5513 10.8807 12.5471C8.88493 14.543 6.50723 16.0605 3.92402 17.0329C2.30839 17.6411 1.57985 19.1114 1.67527 20.5228C1.77107 21.9401 2.69766 23.2981 4.39181 23.6648C6.44919 24.1102 8.61441 24.12 10.7481 23.6439C16.3514 22.3937 20.7274 18.0177 21.9776 12.4144C22.4541 10.2785 22.4438 8.11101 21.997 6.05169V6.05169Z" fill="#FFCE71"/>
<path d="M20.4651 2.96453C20.4633 2.92894 20.4623 2.89321 20.4623 2.85743V2.13071V1.47199C20.4623 0.686271 19.8463 0.022094 19.0608 0.000556737C18.2459 -0.0218014 17.5783 0.632138 17.5783 1.44201V2.14457V2.20199C17.5783 2.88896 17.2374 3.53165 16.6673 3.91492C16.1106 4.28917 15.6469 4.84556 15.3665 5.59043C14.3941 8.17359 12.8765 10.5513 10.8807 12.5471C8.88493 14.543 6.50724 16.0605 3.92402 17.0329C2.30839 17.6411 1.57985 19.1114 1.67527 20.5228C6.58793 20.9903 11.4644 19.3214 15.0606 15.9416C18.6327 12.5843 20.5979 7.86155 20.4651 2.96453V2.96453Z" fill="#FFB357"/>
<path d="M20.4621 2.13071V1.47199C20.4621 0.686271 19.8461 0.022094 19.0607 0.000556737C18.2458 -0.0218014 17.5781 0.632138 17.5781 1.44201V2.14457C18.5255 2.38332 19.518 2.37859 20.4621 2.13071Z" fill="#00C084"/>
<path d="M14.6276 12.8311C14.9197 12.3253 14.6415 11.618 14.0064 11.2513C13.3713 10.8846 12.6196 10.9973 12.3276 11.5031C12.0356 12.0089 12.3137 12.7162 12.9488 13.0829C13.584 13.4496 14.3356 13.3369 14.6276 12.8311Z" fill="#FF8E9E"/>
<path d="M20.2898 16.1001C20.5818 15.5943 20.3036 14.887 19.6685 14.5203C19.0334 14.1536 18.2817 14.2664 17.9897 14.7722C17.6977 15.278 17.9758 15.9853 18.611 16.352C19.2461 16.7187 19.9977 16.6059 20.2898 16.1001Z" fill="#FF8E9E"/>
<path d="M15.0948 10.8401C14.9216 10.7401 14.7 10.7994 14.6 10.9727L14.3103 11.4745C14.2103 11.6478 14.2696 11.8693 14.4429 11.9693C14.4999 12.0022 14.5622 12.0178 14.6236 12.0178C14.7488 12.0178 14.8705 11.9528 14.9376 11.8367L15.2273 11.3348C15.3274 11.1616 15.268 10.9401 15.0948 10.8401Z" fill="#313D40"/>
<path d="M19.4815 13.3728C19.3083 13.2728 19.0868 13.3322 18.9868 13.5054L18.697 14.0073C18.597 14.1805 18.6564 14.402 18.8296 14.502C18.8866 14.5349 18.9489 14.5506 19.0103 14.5506C19.1355 14.5506 19.2572 14.4856 19.3243 14.3694L19.614 13.8675C19.714 13.6943 19.6547 13.4728 19.4815 13.3728Z" fill="#313D40"/>
<path d="M17.3972 12.9621C17.2074 13.0272 16.9993 13.0072 16.8261 12.9072C16.6529 12.8073 16.5315 12.637 16.493 12.4401C16.4546 12.2438 16.2642 12.1159 16.0681 12.1543C15.8718 12.1926 15.7438 12.3829 15.7822 12.5792C15.8609 12.9816 16.1094 13.3298 16.464 13.5345C16.6815 13.6601 16.9259 13.7241 17.1718 13.7241C17.3267 13.7241 17.4823 13.6987 17.6322 13.6473C17.8214 13.5824 17.9222 13.3764 17.8573 13.1872C17.7924 12.998 17.5865 12.8973 17.3972 12.9621V12.9621Z" fill="#313D40"/>
</svg>
