<svg width="24" height="24" viewBox="0 0 24 24" fill="none" xmlns="http://www.w3.org/2000/svg">
<g clip-path="url(#clip0_236_1225)">
<path fill-rule="evenodd" clip-rule="evenodd" d="M4.7002 16.3326V20.5898H5.77532C5.9339 20.5898 6.06482 20.6869 6.06482 20.806V22.1694H9.88396V20.806C9.88396 20.6869 10.0149 20.5898 10.1753 20.5898H11.2505V16.3326H10.1753C10.0149 16.3326 9.88396 16.2354 9.88396 16.1177V14.7529H6.06482V16.1177C6.06482 16.2354 5.9339 16.3326 5.77532 16.3326H4.7002Z" fill="#B6B1B7"/>
<path fill-rule="evenodd" clip-rule="evenodd" d="M12.5967 16.3326V20.5898H13.7217C13.8896 20.5898 14.0266 20.6869 14.0266 20.806V22.1694H18.023V20.806C18.023 20.6869 18.16 20.5898 18.3279 20.5898H19.4529V16.3326H18.3279C18.1599 16.3326 18.023 16.2354 18.023 16.1177V14.7529H14.0266V16.1177C14.0266 16.2354 13.8895 16.3326 13.7217 16.3326H12.5967Z" fill="#B6B1B7"/>
<path fill-rule="evenodd" clip-rule="evenodd" d="M1.62793 7.10784V13.2741H22.3724V7.10784L11.9994 1.11914L1.62793 7.10784Z" fill="white"/>
<path fill-rule="evenodd" clip-rule="evenodd" d="M0.126456 7.84305C0.387878 8.29614 0.971003 8.45219 1.4241 8.19072L1.62805 8.07302L11.9996 2.08427L22.3724 8.07302L22.5764 8.19072C23.0281 8.45219 23.6126 8.29614 23.8727 7.84305C24.1341 7.39131 23.9781 6.80683 23.525 6.54536L12.5211 0.192531C12.3705 0.104922 12.1858 0.0625 11.9996 0.0625C11.8148 0.0625 11.6286 0.104922 11.478 0.192531L0.474128 6.54536C0.0224408 6.80683 -0.134965 7.39131 0.126456 7.84305V7.84305Z" fill="#9FD4FE"/>
<path fill-rule="evenodd" clip-rule="evenodd" d="M18.4561 15.6006H21.6427V21.3224H18.4561V15.6006Z" fill="#FFE07D"/>
<path fill-rule="evenodd" clip-rule="evenodd" d="M10.4062 15.6006H13.5929V21.3224H10.4062V15.6006Z" fill="#FFE07D"/>
<path fill-rule="evenodd" clip-rule="evenodd" d="M2.35645 15.6006H5.54441V21.3224H2.35645V15.6006Z" fill="#FFE07D"/>
<path fill-rule="evenodd" clip-rule="evenodd" d="M1.34375 22.1695L3.67845 23.0538L6.55756 22.1695V20.8061C6.55756 20.687 6.46039 20.5898 6.34264 20.5898H5.54464H2.35667H1.55867C1.44097 20.5898 1.34375 20.687 1.34375 20.8061V22.1695Z" fill="white"/>
<path fill-rule="evenodd" clip-rule="evenodd" d="M17.4424 22.1695L20.2579 23.0538L22.6576 22.1695V20.8061C22.6576 20.687 22.5604 20.5898 22.4413 20.5898H21.6433H18.4567H17.6587C17.5396 20.5898 17.4424 20.687 17.4424 20.8061V22.1695Z" fill="white"/>
<path fill-rule="evenodd" clip-rule="evenodd" d="M9.3916 22.1695L11.9999 22.8011L14.6068 22.1695V20.8061C14.6068 20.687 14.5096 20.5898 14.3905 20.5898H13.5925H10.4059H9.60788C9.48877 20.5898 9.3916 20.687 9.3916 20.8061V22.1695Z" fill="white"/>
<path fill-rule="evenodd" clip-rule="evenodd" d="M0.222742 23.9375H23.7787C23.9005 23.9375 24.0005 23.8376 24.0005 23.7158V22.3907C24.0005 22.2689 23.9005 22.1689 23.7787 22.1689H22.6576H17.4425H14.6076H9.39243H6.55762H1.3438H0.222742C0.100914 22.1689 0.000976562 22.2689 0.000976562 22.3907V23.7158C0.000976562 23.8376 0.100914 23.9375 0.222742 23.9375V23.9375Z" fill="#9FD4FE"/>
<path fill-rule="evenodd" clip-rule="evenodd" d="M10.8936 5.38499C10.8936 6.02563 11.4123 6.5444 12.053 6.5444C12.6922 6.5444 13.2124 6.02559 13.2124 5.38499C13.2124 4.7444 12.6922 4.22559 12.053 4.22559C11.4124 4.22554 10.8936 4.74435 10.8936 5.38499V5.38499Z" fill="#FFE07D"/>
<path fill-rule="evenodd" clip-rule="evenodd" d="M11.9994 2.08398L1.62793 8.07273V9.41969L11.9994 3.43094L22.3724 9.41969V8.07273L11.9994 2.08398Z" fill="#DAD8DB"/>
<path fill-rule="evenodd" clip-rule="evenodd" d="M12.053 4.22559C11.4124 4.22559 10.8936 4.7444 10.8936 5.38499C10.8936 5.51779 10.9154 5.6437 10.9565 5.7628C11.1276 5.33709 11.5451 5.03732 12.031 5.03732C12.5389 5.03732 12.9714 5.36446 13.1274 5.81891C13.1822 5.68476 13.2123 5.53832 13.2123 5.38499C13.2124 4.7444 12.6922 4.22559 12.053 4.22559V4.22559Z" fill="#FFC269"/>
<path fill-rule="evenodd" clip-rule="evenodd" d="M2.35645 16.333H5.54441V17.4911H2.35645V16.333Z" fill="#FFC269"/>
<path fill-rule="evenodd" clip-rule="evenodd" d="M10.4062 16.333H13.5929V17.4911H10.4062V16.333Z" fill="#FFC269"/>
<path fill-rule="evenodd" clip-rule="evenodd" d="M18.4561 16.333H21.6427V17.4911H18.4561V16.333Z" fill="#FFC269"/>
<path fill-rule="evenodd" clip-rule="evenodd" d="M2.35667 16.3323H5.54464H6.34264C6.46034 16.3323 6.55756 16.2351 6.55756 16.1174V14.4629H1.34375V16.1174C1.34375 16.2351 1.44092 16.3323 1.55867 16.3323H2.35667Z" fill="white"/>
<path fill-rule="evenodd" clip-rule="evenodd" d="M10.4059 16.3323H13.5925H14.3905C14.5096 16.3323 14.6068 16.2351 14.6068 16.1174V14.4629H9.3916V16.1174C9.3916 16.2351 9.48877 16.3323 9.60788 16.3323H10.4059Z" fill="white"/>
<path fill-rule="evenodd" clip-rule="evenodd" d="M17.6587 16.3323H18.4567H21.6433H22.4413C22.5603 16.3323 22.6576 16.2351 22.6576 16.1174V14.4629H17.4424V16.1174C17.4424 16.2351 17.5396 16.3323 17.6587 16.3323V16.3323Z" fill="white"/>
<path fill-rule="evenodd" clip-rule="evenodd" d="M1.34375 14.7529H6.55756V15.6002H1.34375V14.7529Z" fill="#DAD8DB"/>
<path fill-rule="evenodd" clip-rule="evenodd" d="M9.3916 14.7529H14.6068V15.6002H9.3916V14.7529Z" fill="#DAD8DB"/>
<path fill-rule="evenodd" clip-rule="evenodd" d="M17.4424 14.7529H22.6576V15.6002H17.4424V14.7529Z" fill="#DAD8DB"/>
<path fill-rule="evenodd" clip-rule="evenodd" d="M1.3438 14.753H6.55762H9.39243H14.6076H17.4425H22.6576H23.7787C23.9005 14.753 24.0005 14.653 24.0005 14.5312V13.2061C24.0005 13.0843 23.9005 12.9844 23.7787 12.9844H22.3729H1.62852H0.222742C0.100914 12.9844 0.000976562 13.0843 0.000976562 13.2061V14.5312C0.000976562 14.653 0.100914 14.753 0.222742 14.753H1.3438Z" fill="#9FD4FE"/>
<path d="M8.41755 12.1464C9.20044 12.1464 9.83509 11.641 9.83509 11.0175C9.83509 10.3941 9.20044 9.88867 8.41755 9.88867C7.63466 9.88867 7 10.3941 7 11.0175C7 11.641 7.63466 12.1464 8.41755 12.1464Z" fill="white"/>
<path d="M16.1011 12.1464C16.884 12.1464 17.5187 11.641 17.5187 11.0175C17.5187 10.3941 16.884 9.88867 16.1011 9.88867C15.3183 9.88867 14.6836 10.3941 14.6836 11.0175C14.6836 11.641 15.3183 12.1464 16.1011 12.1464Z" fill="white"/>
<path d="M9.24414 10.2826C9.04994 10.2826 8.89258 10.1252 8.89258 9.93103V9.35156C8.89258 9.15736 9.04994 9 9.24414 9C9.43834 9 9.5957 9.15736 9.5957 9.35156V9.93103C9.5957 10.1252 9.43834 10.2826 9.24414 10.2826Z" fill="#4E5660"/>
<path d="M15.2754 10.2826C15.0812 10.2826 14.9238 10.1252 14.9238 9.93103V9.35156C14.9238 9.15736 15.0812 9 15.2754 9C15.4696 9 15.627 9.15736 15.627 9.35156V9.93103C15.627 10.1252 15.4696 10.2826 15.2754 10.2826Z" fill="#4E5660"/>
<path d="M12.2599 10.6278C11.8535 10.6278 11.4672 10.4518 11.1998 10.1451C11.0722 9.99866 11.0875 9.77661 11.2339 9.64902C11.3802 9.52147 11.6023 9.53671 11.7299 9.6831C11.8637 9.83661 12.0569 9.92469 12.2599 9.92469C12.4629 9.92469 12.6561 9.83661 12.7899 9.6831C12.9175 9.53675 13.1395 9.52147 13.286 9.64902C13.4323 9.77661 13.4476 9.99866 13.3201 10.1451C13.0526 10.4518 12.6662 10.6278 12.2599 10.6278V10.6278Z" fill="#4E5660"/>
</g>
<defs>
<clipPath id="clip0_236_1225">
<rect width="24" height="24" fill="white"/>
</clipPath>
</defs>
</svg>
