<svg width="24" height="24" viewBox="0 0 24 24" fill="none" xmlns="http://www.w3.org/2000/svg">
<path d="M9.65771 11.1301C9.57812 11.0923 9.49782 11.0557 9.4165 11.0209C8.60113 10.6723 7.70347 10.479 6.76056 10.479C3.0268 10.479 0 13.5058 0 17.2396C0 20.9733 3.0268 24.0001 6.76056 24.0001C7.70347 24.0001 8.60113 23.8069 9.4165 23.4582C9.49777 23.4234 9.57808 23.3868 9.65771 23.349C11.9417 22.264 13.5211 19.9365 13.5211 17.2396C13.5211 14.5427 11.9417 12.2151 9.65771 11.1301V11.1301Z" fill="#53A3EC"/>
<path d="M5.79477 17.2396C5.79477 14.5428 7.37384 12.2152 9.65766 11.1301C9.57808 11.0923 9.49777 11.0557 9.41645 11.0209C8.60113 10.6723 7.70347 10.479 6.76056 10.479C3.0268 10.479 0 13.5058 0 17.2396C0 20.9733 3.0268 24.0001 6.76056 24.0001C7.70347 24.0001 8.60113 23.8069 9.4165 23.4582C9.49777 23.4234 9.57808 23.3868 9.65771 23.349C7.37389 22.2639 5.79477 19.9363 5.79477 17.2396V17.2396Z" fill="#4293DD"/>
<path d="M5.64018 16.0013C4.6427 16.0013 3.8312 15.2188 3.8312 14.2569C3.8312 14.1541 3.84066 14.0498 3.8593 13.947L3.90575 13.6909L3.70062 13.5018C3.33825 13.1677 3.13867 12.7199 3.13867 12.2409C3.13867 11.3578 3.79261 10.627 4.69365 10.5032L5.01144 10.4596L5.14622 10.2014C5.45552 9.60879 6.07401 9.24072 6.7604 9.24072C7.44679 9.24072 8.06529 9.60879 8.37458 10.2013V10.2014L8.50936 10.4596L8.82711 10.5032C9.72814 10.627 10.3821 11.3578 10.3821 12.2409C10.3821 12.7199 10.1826 13.1677 9.82023 13.5017L9.615 13.6909L9.6615 13.9472C9.6801 14.0497 9.68956 14.1539 9.68956 14.2569C9.68956 15.2188 8.87805 16.0013 7.88063 16.0013C7.59311 16.0013 7.31486 15.9355 7.05367 15.8056L6.76045 15.6598L6.46733 15.8056C6.20589 15.9355 5.92765 16.0013 5.64018 16.0013V16.0013Z" fill="#64B3FB"/>
<path d="M8.38996 11.9053C7.95279 11.8452 7.60308 11.8534 7.39843 11.4613L7.24327 11.164C7.03973 10.774 6.48097 10.7755 6.2782 11.164L6.12305 11.4613C5.91834 11.8534 5.56863 11.8452 5.13151 11.9053C4.77649 11.9541 4.63818 12.3953 4.90156 12.6381C5.16073 12.877 5.48615 13.097 5.40266 13.5575L5.34824 13.8575C5.27532 14.2596 5.69341 14.5726 6.05834 14.3911L6.43823 14.2022C6.64134 14.1012 6.88008 14.1012 7.08319 14.2022L7.46328 14.3911C7.82849 14.5727 8.24615 14.2594 8.17328 13.8576C8.03995 13.1224 8.11727 13.1013 8.61991 12.6381C8.88358 12.3951 8.74455 11.9541 8.38996 11.9053V11.9053Z" fill="#4293DD"/>
<path d="M2.91852 19.6894C3.70141 19.6894 4.33607 19.184 4.33607 18.5605C4.33607 17.9371 3.70141 17.4316 2.91852 17.4316C2.13563 17.4316 1.50098 17.9371 1.50098 18.5605C1.50098 19.184 2.13563 19.6894 2.91852 19.6894Z" fill="#FF8E9E"/>
<path d="M10.6021 19.6894C11.385 19.6894 12.0197 19.184 12.0197 18.5605C12.0197 17.9371 11.385 17.4316 10.6021 17.4316C9.81923 17.4316 9.18457 17.9371 9.18457 18.5605C9.18457 19.184 9.81923 19.6894 10.6021 19.6894Z" fill="#FF8E9E"/>
<path d="M3.74499 16.5322C3.54497 16.5322 3.38281 16.6943 3.38281 16.8944V17.4739C3.38281 17.6739 3.54497 17.836 3.74499 17.836C3.945 17.836 4.10716 17.6739 4.10716 17.4739V16.8944C4.10716 16.6944 3.945 16.5322 3.74499 16.5322Z" fill="#313D40"/>
<path d="M9.77624 16.5322C9.57622 16.5322 9.41406 16.6943 9.41406 16.8944V17.4739C9.41406 17.6739 9.57622 17.836 9.77624 17.836C9.97625 17.836 10.1384 17.6739 10.1384 17.4739V16.8944C10.1384 16.6944 9.97625 16.5322 9.77624 16.5322Z" fill="#313D40"/>
<path d="M7.79385 17.1839C7.64309 17.0525 7.41429 17.0682 7.28285 17.219C7.15102 17.3702 6.96075 17.4569 6.76079 17.4569C6.56082 17.4569 6.37056 17.3702 6.23873 17.219C6.10723 17.0681 5.87853 17.0525 5.72772 17.1839C5.57692 17.3154 5.56127 17.5441 5.69267 17.6949C5.96212 18.004 6.35139 18.1812 6.76074 18.1812C7.17009 18.1812 7.5594 18.004 7.82881 17.6949C7.9603 17.5441 7.94461 17.3153 7.79385 17.1839Z" fill="#313D40"/>
<path d="M20.1362 0.65109C20.0566 0.61328 19.9763 0.576676 19.895 0.541907C19.0796 0.193256 18.182 0 17.2391 0C13.5053 0 10.4785 3.0268 10.4785 6.76056C10.4785 10.4943 13.5053 13.5211 17.2391 13.5211C18.182 13.5211 19.0796 13.3279 19.895 12.9792C19.9763 12.9444 20.0566 12.9078 20.1362 12.87C22.4202 11.785 23.9996 9.45745 23.9996 6.76056C23.9996 4.06368 22.4202 1.73611 20.1362 0.65109V0.65109Z" fill="#53A3EC"/>
<path d="M16.2733 6.76056C16.2733 4.06382 17.8524 1.73621 20.1362 0.65109C20.0566 0.61328 19.9763 0.576676 19.895 0.541907C19.0796 0.193256 18.182 0 17.2391 0C13.5053 0 10.4785 3.0268 10.4785 6.76056C10.4785 10.4943 13.5053 13.5211 17.2391 13.5211C18.182 13.5211 19.0796 13.3279 19.895 12.9792C19.9763 12.9444 20.0566 12.9078 20.1362 12.87C17.8524 11.7849 16.2733 9.4573 16.2733 6.76056V6.76056Z" fill="#4293DD"/>
<path d="M15.572 6.67732C14.8667 7.38264 13.7395 7.40312 13.0594 6.72296C12.9867 6.65023 12.9197 6.56983 12.8602 6.48397L12.7119 6.27L12.4332 6.28135C11.9407 6.30139 11.4829 6.12585 11.1442 5.7871C10.5198 5.16272 10.4655 4.18355 11.015 3.45886L11.2089 3.20326L11.1216 2.9254C10.9213 2.28774 11.0984 1.5901 11.5837 1.10478C12.0691 0.619425 12.7667 0.442346 13.4044 0.642604C13.4044 0.642652 13.4044 0.642604 13.4044 0.642604L13.6823 0.729863L13.9378 0.536076C14.6626 -0.013509 15.6417 0.0408169 16.2661 0.665203C16.6048 1.00391 16.7804 1.46169 16.7604 1.9541L16.749 2.23298L16.9631 2.38132C17.0488 2.44067 17.1291 2.50765 17.202 2.58047C17.8821 3.26063 17.8617 4.38776 17.1563 5.09308C16.953 5.29638 16.7098 5.44656 16.4332 5.53952L16.1227 5.64378L16.0185 5.95414C15.9255 6.23079 15.7753 6.47407 15.572 6.67732Z" fill="#64B3FB"/>
<path d="M14.6195 1.83683C14.2679 2.10348 14.0263 2.35652 13.6044 2.22397L13.2845 2.12347C12.8647 1.9916 12.4708 2.38776 12.6021 2.80586L12.7025 3.12578C12.8351 3.54778 12.582 3.78933 12.3154 4.14087C12.0989 4.42641 12.3131 4.83625 12.671 4.82162C13.0231 4.80727 13.4088 4.73271 13.6754 5.11739L13.849 5.36801C14.0818 5.70392 14.5987 5.62955 14.7285 5.24318L14.8636 4.84098C14.9358 4.62595 15.1046 4.45712 15.3196 4.38493L15.722 4.24977C16.1086 4.11992 16.1824 3.60307 15.8468 3.37046C15.2327 2.94483 15.2724 2.87525 15.3003 2.19234C15.3148 1.83412 14.9047 1.62059 14.6195 1.83683V1.83683Z" fill="#4293DD"/>
<path d="M16.2527 11.2097C16.8062 10.6562 16.8976 9.85021 16.4568 9.40942C16.016 8.96864 15.21 9.06002 14.6565 9.61352C14.103 10.167 14.0116 10.973 14.4524 11.4138C14.8932 11.8546 15.6992 11.7632 16.2527 11.2097Z" fill="#FF8E9E"/>
<path d="M21.6853 5.77761C22.2388 5.22411 22.3302 4.41808 21.8894 3.9773C21.4486 3.53651 20.6426 3.62789 20.0891 4.18139C19.5356 4.73489 19.4442 5.54092 19.885 5.9817C20.3258 6.42249 21.1318 6.33111 21.6853 5.77761Z" fill="#FF8E9E"/>
<path d="M15.1192 8.39218C14.9778 8.25078 14.7484 8.25078 14.6071 8.39218C14.4656 8.53367 14.4656 8.76295 14.6071 8.90439L15.0168 9.31412C15.0875 9.38482 15.1802 9.42017 15.2729 9.42017C15.3655 9.42017 15.4583 9.38482 15.529 9.31412C15.6704 9.17264 15.6704 8.94336 15.529 8.80192L15.1192 8.39218Z" fill="#313D40"/>
<path d="M19.7936 4.53727L19.3839 4.12753C19.2424 3.98614 19.0131 3.98614 18.8717 4.12753C18.7303 4.26902 18.7303 4.4983 18.8717 4.63974L19.2814 5.04948C19.3521 5.12017 19.4449 5.15552 19.5375 5.15552C19.6302 5.15552 19.7229 5.12017 19.7936 5.04948C19.935 4.90804 19.935 4.67876 19.7936 4.53727Z" fill="#313D40"/>
<path d="M17.9305 5.99009C17.7309 6.00381 17.5803 6.17668 17.594 6.37622C17.6078 6.57638 17.5346 6.77219 17.3931 6.91363C17.2518 7.05498 17.056 7.12809 16.8558 7.11442C16.6562 7.10075 16.4833 7.25132 16.4696 7.4509C16.4559 7.65049 16.6065 7.82336 16.8061 7.83708C16.8387 7.8393 16.8712 7.84041 16.9037 7.84041C17.2784 7.84041 17.639 7.69221 17.9054 7.42579C18.1949 7.13634 18.3448 6.73568 18.3167 6.32657C18.3029 6.12704 18.13 5.97667 17.9305 5.99009V5.99009Z" fill="#313D40"/>
</svg>
