<svg width="24" height="24" viewBox="0 0 24 24" fill="none" xmlns="http://www.w3.org/2000/svg">
<path d="M16.0323 3.74219C11.6318 3.74219 8.06445 7.3095 8.06445 11.71L19.4125 15.3317L16.0323 3.74219Z" fill="#FFB25A"/>
<path d="M16.0326 3.74219C15.1696 3.74219 14.3388 3.87996 13.5605 4.13377C15.8803 5.84888 17.3848 8.60361 17.3848 11.71H24.0005C24.0005 7.3095 20.4331 3.74219 16.0326 3.74219Z" fill="#F68A2F"/>
<path d="M16.0312 3.74219L20.9696 18.0842H22.4183C23.4023 16.9624 23.9991 15.4925 23.9991 13.883V11.71C23.9991 7.3095 20.4317 3.74219 16.0312 3.74219Z" fill="#FFB25A"/>
<path d="M16.0322 3.74219C15.1692 3.74219 14.3384 3.87996 13.5601 4.13377C15.8798 5.84888 17.3843 8.60361 17.3843 11.71C17.3843 12.11 17.06 12.4343 16.66 12.4343C16.2599 12.4343 15.9356 12.11 15.9356 11.71C15.9356 7.3095 12.3683 3.74219 7.96781 3.74219C3.56731 3.74219 0 7.3095 0 11.71V13.883C0 15.4925 0.596765 16.9624 1.58076 18.0842H20.9705C21.9545 16.9624 22.5513 15.4925 22.5513 13.883V11.71C22.5513 7.3095 19.6326 3.74219 16.0322 3.74219Z" fill="#FFCA8A"/>
<path d="M21.5722 17.2793L16.1777 20.2571H17.6264C19.5373 20.2571 21.2516 19.416 22.4199 18.084C22.1626 17.7907 21.8788 17.5213 21.5722 17.2793Z" fill="#FFD88A"/>
<path d="M6.37356 15.9111C4.46264 15.9111 2.74835 16.7522 1.58008 18.0842C2.74835 19.4161 4.46264 20.2572 6.37356 20.2572H16.1764C18.4482 20.2572 20.4421 19.0685 21.5709 17.2794C20.4856 16.4226 19.1151 15.9111 17.6251 15.9111H6.37356Z" fill="#FFE8BB"/>
<path d="M6.37389 18.447C6.57391 18.447 6.73606 18.2849 6.73606 18.0848C6.73606 17.8848 6.57391 17.7227 6.37389 17.7227C6.17387 17.7227 6.01172 17.8848 6.01172 18.0848C6.01172 18.2849 6.17387 18.447 6.37389 18.447Z" fill="#FFD88A"/>
<path d="M9.27038 18.447C9.4704 18.447 9.63255 18.2849 9.63255 18.0848C9.63255 17.8848 9.4704 17.7227 9.27038 17.7227C9.07035 17.7227 8.9082 17.8848 8.9082 18.0848C8.9082 18.2849 9.07035 18.447 9.27038 18.447Z" fill="#FFD88A"/>
<path d="M12.2072 13C11.5405 13 11 13.4305 11 13.9614C11 14.4924 11.5405 14.9228 12.2072 14.9228C12.874 14.9228 13.4145 14.4923 13.4145 13.9614C13.4145 13.4305 12.874 13 12.2072 13V13Z" fill="#FF8E9E"/>
<path d="M19.0861 13C18.4194 13 17.8789 13.4305 17.8789 13.9614C17.8789 14.4924 18.4194 14.9228 19.0861 14.9228C19.7529 14.9228 20.2934 14.4923 20.2934 13.9614C20.2934 13.4305 19.7529 13 19.0861 13V13Z" fill="#FF8E9E"/>
<path d="M13.9822 12.6002C14.1136 12.4494 14.0979 12.2206 13.9471 12.0892C13.7963 11.9577 13.5676 11.9735 13.4361 12.1243C13.224 12.3677 12.8472 12.3675 12.6352 12.1243C12.5038 11.9734 12.275 11.9578 12.1242 12.0892C11.9734 12.2206 11.9577 12.4494 12.0892 12.6002C12.59 13.1748 13.4818 13.1743 13.9822 12.6002Z" fill="#313D40"/>
<path d="M17.6438 12.6002C18.1446 13.1748 19.0365 13.1743 19.5368 12.6002C19.6683 12.4493 19.6525 12.2206 19.5017 12.0891C19.3509 11.9577 19.1222 11.9734 18.9907 12.1243C18.7787 12.3677 18.4018 12.3675 18.1899 12.1243C18.0585 11.9735 17.8297 11.9578 17.6789 12.0891C17.5281 12.2206 17.5124 12.4493 17.6438 12.6002V12.6002Z" fill="#313D40"/>
<path d="M16.9168 12.9947C17.0483 12.8439 17.0325 12.6151 16.8817 12.4837C16.7308 12.3522 16.5021 12.368 16.3707 12.5188C16.0729 12.8604 15.544 12.8601 15.2466 12.5188C15.1151 12.368 14.8864 12.3523 14.7356 12.4837C14.5848 12.6151 14.5691 12.8439 14.7005 12.9947C15.287 13.6676 16.331 13.6669 16.9168 12.9947V12.9947Z" fill="#313D40"/>
</svg>
