<svg width="32" height="32" viewBox="0 0 32 32" fill="none" xmlns="http://www.w3.org/2000/svg">
<g clip-path="url(#clip0_127_1713)">
<path d="M29.2183 5.96492C27.2485 5.05548 24.551 4.3806 21.5263 4.23267L19.6417 7.12185V26.4296L22.0805 27.798H27.0028C28.3571 27.798 29.4587 26.6957 29.4587 25.3414V15.2119C29.4587 13.394 30.1252 11.6745 31.336 10.3692C31.9308 9.72735 32 9.21273 32 8.8811C32 7.46148 30.2572 6.4446 29.2183 5.96492Z" fill="#F3DCB4"/>
<path d="M22.8325 15.212C22.8325 13.8849 23.3154 12.6335 24.1932 11.6873C24.9765 10.8418 25.3738 9.89759 25.3738 8.88115C25.3738 7.57903 24.7038 5.7194 21.5264 4.23271C21.1175 4.21271 20.7028 4.20203 20.2829 4.20203H12.1212V4.20528V26.4728L18.4372 27.798H22.0805C22.555 27.0962 22.8325 26.2507 22.8325 25.3415V15.212H22.8325Z" fill="#EEC785"/>
<path d="M20.8931 25.3414V15.2119C20.8931 13.394 21.5596 11.6745 22.7704 10.3692C23.3651 9.72729 23.4343 9.21273 23.4343 8.88104C23.4343 7.46141 21.6915 6.44454 20.6526 5.96485C18.5025 4.97185 15.4848 4.25816 12.1212 4.20516C11.8368 4.20104 11.5554 4.20216 11.2765 4.2071C8.50771 4.40729 7.35171 4.94804 6.31984 5.43597C5.28096 5.92729 3.53809 6.96879 3.53809 8.42279C3.53809 8.76248 3.60659 9.28947 4.20202 9.94697C5.41284 11.2838 6.07934 13.045 6.07934 14.9069V25.2817C6.07934 26.6688 6.63959 27.7978 9.82821 27.7978H14.5455H18.4371C19.7915 27.798 20.8931 26.6957 20.8931 25.3414Z" fill="#F8F0E1"/>
<path d="M7.37225 25.282V14.9072C7.37225 13.0453 6.70575 11.2841 5.49494 9.94727C4.89956 9.28977 4.831 8.76271 4.831 8.42309C4.831 6.96909 6.57387 5.92752 7.61275 5.43627C8.64462 4.94833 9.88338 4.52277 11.2764 4.2074C7.87444 4.26815 4.89512 4.98927 2.78175 5.96502C1.74287 6.44471 0 7.46159 0 8.88121C0 9.21284 0.0685 9.72746 0.663938 10.3694C1.87475 11.6746 2.54125 13.3942 2.54125 15.2121V25.3415C2.54125 26.6958 3.64281 27.7981 4.99719 27.7981H9.82825C8.47388 27.7981 7.37225 26.6691 7.37225 25.282Z" fill="#F3DCB4"/>
<path d="M7.27279 25.0505C7.80833 25.0505 8.24248 24.6163 8.24248 24.0808C8.24248 23.5452 7.80833 23.1111 7.27279 23.1111C6.73724 23.1111 6.3031 23.5452 6.3031 24.0808C6.3031 24.6163 6.73724 25.0505 7.27279 25.0505Z" fill="#CD8A5D"/>
<path d="M15.0304 23.1112C15.8337 23.1112 16.4849 22.4599 16.4849 21.6566C16.4849 20.8533 15.8337 20.202 15.0304 20.202C14.227 20.202 13.5758 20.8533 13.5758 21.6566C13.5758 22.4599 14.227 23.1112 15.0304 23.1112Z" fill="#CD8A5D"/>
<path d="M14.0606 10.5051C14.864 10.5051 15.5152 9.85384 15.5152 9.05051C15.5152 8.24718 14.864 7.59595 14.0606 7.59595C13.2573 7.59595 12.6061 8.24718 12.6061 9.05051C12.6061 9.85384 13.2573 10.5051 14.0606 10.5051Z" fill="#CD8A5D"/>
<path d="M16.8656 14.6812C17.9148 14.6812 18.7656 15.3587 18.7656 16.1939C18.7656 17.0298 17.9148 17.7073 16.8656 17.7073C15.8164 17.7073 14.9663 17.0298 14.9663 16.1939C14.9663 15.3587 15.8164 14.6812 16.8656 14.6812Z" fill="#E89FA9"/>
<path d="M11.7172 13.9967C12.5634 13.9967 13.2487 14.0853 13.2487 15.0317C13.2487 15.9788 12.5634 16.7461 11.7172 16.7461C10.8709 16.7461 10.1857 15.9788 10.1857 15.0317C10.1857 14.0853 10.8709 13.9967 11.7172 13.9967Z" fill="#4E5660"/>
<path d="M6.5687 14.6812C7.61789 14.6812 8.46801 15.3587 8.46801 16.1939C8.46801 17.0298 7.61789 17.7073 6.5687 17.7073C5.51951 17.7073 4.6687 17.0298 4.6687 16.1939C4.6687 15.3587 5.51945 14.6812 6.5687 14.6812Z" fill="#E89FA9"/>
<path d="M6.88612 14.8733C6.61837 14.8733 6.40125 14.6562 6.40125 14.3884V13.6127C6.40125 13.3449 6.61831 13.1278 6.88612 13.1278C7.15387 13.1278 7.371 13.3449 7.371 13.6127V14.3884C7.371 14.6562 7.15387 14.8733 6.88612 14.8733Z" fill="#495560"/>
<path d="M16.5482 14.8733C16.2805 14.8733 16.0634 14.6562 16.0634 14.3884V13.6127C16.0634 13.3449 16.2804 13.1278 16.5482 13.1278C16.816 13.1278 17.0331 13.3449 17.0331 13.6127V14.3884C17.0331 14.6562 16.816 14.8733 16.5482 14.8733Z" fill="#495560"/>
</g>
<defs>
<clipPath id="clip0_127_1713">
<rect width="32" height="32" fill="white"/>
</clipPath>
</defs>
</svg>
