<svg width="24" height="24" viewBox="0 0 24 24" fill="none" xmlns="http://www.w3.org/2000/svg">
<g clip-path="url(#clip0_171_1127)">
<path d="M1.66992 10.0244V16.9431C1.66992 18.97 3.31945 20.6191 5.34704 20.6191H12.0374V12.4822L14.0487 10.0244L12.8797 9.05859H2.83578L1.66992 10.0244Z" fill="#C7744B"/>
<path d="M8.69379 3.37988C6.51795 3.37988 4.35843 3.67662 2.27521 4.2618C0.620517 4.72668 -0.347982 6.45169 0.116179 8.10706C0.352557 8.95035 0.928412 9.63365 1.66937 10.0246H14.0482V4.86383L15.3096 3.37988H8.69379Z" fill="#CE8B64"/>
<path d="M8.89045 4.2618C10.9737 3.67662 13.1332 3.37988 15.3091 3.37988C17.4813 3.37988 19.6395 3.67662 21.7234 4.2618C23.3788 4.72659 24.3476 6.45164 23.8832 8.10701C23.6468 8.95015 23.0708 9.63335 22.3292 10.0243V16.9433C22.3292 18.9702 20.6797 20.6193 18.6521 20.6193H11.9617C9.93418 20.6193 8.2846 18.9703 8.2846 16.9433V10.0246C7.54365 9.63365 6.96779 8.9503 6.73141 8.10706C6.26725 6.45169 7.23575 4.72673 8.89045 4.2618V4.2618Z" fill="#EDBA9D"/>
<path d="M21.3327 5.65703C19.5948 5.16902 17.8289 4.9028 16.0762 4.84277L13.8613 7.05768V16.9429L16.0904 19.1719H18.6531C19.8838 19.1719 20.8814 18.1746 20.8814 16.9442V8.93639C21.6113 8.93673 22.2823 8.45485 22.4892 7.71708C22.7384 6.82864 22.2206 5.9064 21.3327 5.65703V5.65703Z" fill="#D7A991"/>
<path d="M15.3096 17.3944V6.60583C15.3096 5.90974 15.6046 5.28289 16.0758 4.84225C13.7562 4.76276 11.4598 5.04497 9.28298 5.65651C8.39541 5.90588 7.87789 6.82816 8.12697 7.7166C8.3337 8.45408 9.00372 8.93639 9.73304 8.93639C9.73333 8.93639 9.73362 8.93635 9.73391 8.93635V16.9437C9.73391 18.1741 10.7316 19.1715 11.9623 19.1715H16.09C15.6104 18.7302 15.3096 18.0975 15.3096 17.3944V17.3944Z" fill="#CA9E87"/>
<path d="M11.8674 11.8936C11.2007 11.8936 10.6602 12.324 10.6602 12.855C10.6602 13.3859 11.2007 13.8164 11.8674 13.8164C12.5341 13.8164 13.0746 13.3859 13.0746 12.855C13.0746 12.324 12.5342 11.8936 11.8674 11.8936V11.8936Z" fill="#FF8E9E"/>
<path d="M18.7463 11.8936C18.0796 11.8936 17.5391 12.324 17.5391 12.855C17.5391 13.3859 18.0796 13.8164 18.7463 13.8164C19.413 13.8164 19.9535 13.3859 19.9535 12.855C19.9535 12.324 19.413 11.8936 18.7463 11.8936V11.8936Z" fill="#FF8E9E"/>
<path d="M10.1376 7.68724C10.3376 7.68724 10.4997 7.52509 10.4997 7.32506C10.4997 7.12504 10.3376 6.96289 10.1376 6.96289C9.93754 6.96289 9.77539 7.12504 9.77539 7.32506C9.77539 7.52509 9.93754 7.68724 10.1376 7.68724Z" fill="#EDBA9D"/>
<path d="M13.034 9.61888C13.2341 9.61888 13.3962 9.45673 13.3962 9.2567C13.3962 9.05668 13.2341 8.89453 13.034 8.89453C12.834 8.89453 12.6719 9.05668 12.6719 9.2567C12.6719 9.45673 12.834 9.61888 13.034 9.61888Z" fill="#EDBA9D"/>
<path d="M15.4501 6.72142C15.6501 6.72142 15.8122 6.55927 15.8122 6.35924C15.8122 6.15922 15.6501 5.99707 15.4501 5.99707C15.25 5.99707 15.0879 6.15922 15.0879 6.35924C15.0879 6.55927 15.25 6.72142 15.4501 6.72142Z" fill="#EDBA9D"/>
<path d="M16.8973 8.65306C17.0974 8.65306 17.2595 8.49091 17.2595 8.29088C17.2595 8.09086 17.0974 7.92871 16.8973 7.92871C16.6973 7.92871 16.5352 8.09086 16.5352 8.29088C16.5352 8.49091 16.6973 8.65306 16.8973 8.65306Z" fill="#EDBA9D"/>
<path d="M20.2782 7.20384C20.4782 7.20384 20.6404 7.04169 20.6404 6.84167C20.6404 6.64164 20.4782 6.47949 20.2782 6.47949C20.0782 6.47949 19.916 6.64164 19.916 6.84167C19.916 7.04169 20.0782 7.20384 20.2782 7.20384Z" fill="#EDBA9D"/>
<path d="M19.5536 14.9304C19.7536 14.9304 19.9158 14.7683 19.9158 14.5682C19.9158 14.3682 19.7536 14.2061 19.5536 14.2061C19.3536 14.2061 19.1914 14.3682 19.1914 14.5682C19.1914 14.7683 19.3536 14.9304 19.5536 14.9304Z" fill="#EDBA9D"/>
<path d="M17.1395 15.4138C17.3395 15.4138 17.5017 15.2516 17.5017 15.0516C17.5017 14.8516 17.3395 14.6895 17.1395 14.6895C16.9395 14.6895 16.7773 14.8516 16.7773 15.0516C16.7773 15.2516 16.9395 15.4138 17.1395 15.4138Z" fill="#EDBA9D"/>
<path d="M19.0712 17.8279C19.2712 17.8279 19.4333 17.6657 19.4333 17.4657C19.4333 17.2657 19.2712 17.1035 19.0712 17.1035C18.8711 17.1035 18.709 17.2657 18.709 17.4657C18.709 17.6657 18.8711 17.8279 19.0712 17.8279Z" fill="#EDBA9D"/>
<path d="M14.243 17.8279C14.4431 17.8279 14.6052 17.6657 14.6052 17.4657C14.6052 17.2657 14.4431 17.1035 14.243 17.1035C14.043 17.1035 13.8809 17.2657 13.8809 17.4657C13.8809 17.6657 14.043 17.8279 14.243 17.8279Z" fill="#EDBA9D"/>
<path d="M12.7938 14.448C12.9938 14.448 13.156 14.2858 13.156 14.0858C13.156 13.8858 12.9938 13.7236 12.7938 13.7236C12.5938 13.7236 12.4316 13.8858 12.4316 14.0858C12.4316 14.2858 12.5938 14.448 12.7938 14.448Z" fill="#EDBA9D"/>
<path d="M11.3446 16.862C11.5446 16.862 11.7068 16.6999 11.7068 16.4999C11.7068 16.2998 11.5446 16.1377 11.3446 16.1377C11.1446 16.1377 10.9824 16.2998 10.9824 16.4999C10.9824 16.6999 11.1446 16.862 11.3446 16.862Z" fill="#EDBA9D"/>
<path d="M13.4763 11.814C13.6078 11.6633 13.592 11.4345 13.4413 11.3031C13.2905 11.1715 13.0617 11.1873 12.9303 11.3381C12.7181 11.5816 12.3414 11.5814 12.1294 11.3381C11.9979 11.1873 11.7692 11.1716 11.6184 11.3031C11.4676 11.4345 11.4519 11.6633 11.5833 11.814C12.0841 12.3887 12.9759 12.3882 13.4763 11.814Z" fill="#313D40"/>
<path d="M17.138 11.814C17.6387 12.3886 18.5307 12.3882 19.031 11.814C19.1624 11.6632 19.1467 11.4345 18.9959 11.303C18.845 11.1716 18.6163 11.1873 18.4849 11.3381C18.2728 11.5816 17.8959 11.5814 17.684 11.3381C17.5526 11.1874 17.3238 11.1717 17.173 11.303C17.0223 11.4345 17.0065 11.6632 17.138 11.814V11.814Z" fill="#313D40"/>
<path d="M16.411 12.2085C16.5424 12.0577 16.5267 11.829 16.3758 11.6975C16.2249 11.5661 15.9962 11.5818 15.8648 11.7327C15.5671 12.0743 15.0382 12.0739 14.7407 11.7327C14.6093 11.5819 14.3805 11.5662 14.2297 11.6975C14.0789 11.829 14.0632 12.0577 14.1946 12.2085C14.7811 12.8814 15.8252 12.8808 16.411 12.2085V12.2085Z" fill="#313D40"/>
</g>
<defs>
<clipPath id="clip0_171_1127">
<rect width="24" height="24" fill="white"/>
</clipPath>
</defs>
</svg>
