<svg width="24" height="24" viewBox="0 0 24 24" fill="none" xmlns="http://www.w3.org/2000/svg">
<path d="M11.9998 12.6523L10.4453 13.3324L4.27344 16.0326L6.77436 18.6117C7.64802 19.5127 8.13662 20.7722 8.13662 22.0272C8.13662 22.7067 8.56437 23.317 9.20739 23.5367C10.1121 23.8459 11.056 24.0004 11.9998 24.0004C12.9436 24.0004 13.8874 23.8459 14.7922 23.5368C15.4352 23.317 15.863 22.7068 15.863 22.0272C15.863 20.7722 16.3516 19.5127 17.2252 18.6117L19.7262 16.0326L11.9998 12.6523Z" fill="#5FD9B3"/>
<path d="M10.6375 18.6113L10.4453 18.4131V13.332L4.27344 16.0322L6.77436 18.6113C7.64802 19.5123 8.13662 20.7718 8.13662 22.0268C8.13662 22.7063 8.56437 23.3166 9.20739 23.5363C10.1121 23.8455 11.056 24.0001 11.9998 24.0001V22.0268C11.9998 20.7718 11.5112 19.5123 10.6375 18.6113V18.6113Z" fill="#00CE8E"/>
<path d="M20.8005 7.78044C21.0395 7.31256 21.175 6.78316 21.175 6.22175C21.175 4.3257 19.638 2.78864 17.7419 2.78864C17.1702 2.78864 16.6316 2.92916 16.1575 3.17635C15.3808 1.55063 13.8401 0.359903 12 0.0689577C11.714 0.0237585 11.4209 0 11.1222 0C8.04183 0 5.54472 2.49711 5.54472 5.57746C5.54472 6.45083 5.74566 7.27726 6.10353 8.01325C5.6033 7.82096 5.06014 7.7153 4.4922 7.7153C2.01122 7.7153 0 9.72647 0 12.2075C0 14.6884 2.01122 16.6997 4.4922 16.6997C5.73185 16.6997 6.85424 16.1975 7.66701 15.3855C8.18806 17.2898 9.93045 18.6893 12 18.6893C13.2438 18.6893 14.3694 18.1838 15.1829 17.3671C16.0961 18.0198 17.2144 18.4041 18.4225 18.4041C21.5029 18.4041 24 15.907 24 12.8266C24 10.5969 22.6914 8.67303 20.8005 7.78044V7.78044Z" fill="#00CE8E"/>
<path d="M12 0.0689577C11.714 0.0237585 11.4209 0 11.1222 0C8.04184 0 5.54472 2.49711 5.54472 5.57746C5.54472 6.45083 5.74566 7.27726 6.10353 8.01325C5.6033 7.82096 5.06014 7.7153 4.4922 7.7153C2.01122 7.7153 0 9.72647 0 12.2075C0 14.6884 2.01122 16.6997 4.4922 16.6997C5.73185 16.6997 6.85425 16.1975 7.66701 15.3855C8.18806 17.2898 9.93045 18.6893 12 18.6893C13.2438 18.6893 14.3694 18.1838 15.1829 17.3671C9.86453 13.2572 8.49291 5.80269 12 0.0689577V0.0689577Z" fill="#00B27A"/>
<path d="M8.15778 14.6796C8.94067 14.6796 9.57533 14.1742 9.57533 13.5507C9.57533 12.9273 8.94067 12.4219 8.15778 12.4219C7.37489 12.4219 6.74023 12.9273 6.74023 13.5507C6.74023 14.1742 7.37489 14.6796 8.15778 14.6796Z" fill="#FF8E9E"/>
<path d="M15.8414 14.6796C16.6243 14.6796 17.2589 14.1742 17.2589 13.5507C17.2589 12.9273 16.6243 12.4219 15.8414 12.4219C15.0585 12.4219 14.4238 12.9273 14.4238 13.5507C14.4238 14.1742 15.0585 14.6796 15.8414 14.6796Z" fill="#FF8E9E"/>
<path d="M8.98522 11.5225C8.7852 11.5225 8.62305 11.6846 8.62305 11.8846V12.4641C8.62305 12.6642 8.7852 12.8263 8.98522 12.8263C9.18524 12.8263 9.34739 12.6642 9.34739 12.4641V11.8846C9.34739 11.6846 9.18524 11.5225 8.98522 11.5225Z" fill="#313D40"/>
<path d="M15.0165 11.5225C14.8165 11.5225 14.6543 11.6846 14.6543 11.8846V12.4641C14.6543 12.6642 14.8165 12.8263 15.0165 12.8263C15.2165 12.8263 15.3786 12.6642 15.3786 12.4641V11.8846C15.3786 11.6846 15.2165 11.5225 15.0165 11.5225Z" fill="#313D40"/>
<path d="M13.034 12.1741C12.8832 12.0427 12.6544 12.0584 12.523 12.2092C12.3912 12.3605 12.201 12.4472 12.001 12.4472C11.801 12.4472 11.6108 12.3605 11.479 12.2092C11.3476 12.0585 11.1188 12.0428 10.968 12.1741C10.8172 12.3056 10.8015 12.5343 10.9329 12.6851C11.2023 12.9942 11.5916 13.1715 12.001 13.1715C12.4104 13.1715 12.7997 12.9942 13.0691 12.6851C13.2005 12.5343 13.1848 12.3056 13.034 12.1741V12.1741Z" fill="#313D40"/>
</svg>
