<svg width="32" height="32" viewBox="0 0 32 32" fill="none" xmlns="http://www.w3.org/2000/svg">
<g clip-path="url(#clip0_127_1449)">
<path d="M26.0903 16.295C26.3421 13.5585 26.5934 10.8641 26.8441 8.21668C23.9097 7.49306 20.8998 7.06921 17.877 6.94519L12.624 8.34816L13.2789 16.5651L19.6238 17.3653L25.9953 17.3297L26.0903 16.295Z" fill="#CEEAFB"/>
<path d="M15.2726 14.8318V13.6386C15.2726 11.0582 16.2599 8.70857 17.877 6.94614C13.6036 6.77078 9.30433 7.19367 5.15576 8.21666C5.48357 11.6776 5.81228 15.2189 6.14183 18.8296L11.8207 19.4732L15.2726 14.8318Z" fill="#A7D4F1"/>
<path d="M12.9091 6.26068V1.70215C12.9091 0.762081 12.147 0 11.2069 0H11.1698C10.2297 0 9.46765 0.762081 9.46765 1.70215V6.26068H12.9091Z" fill="#E68A97"/>
<path d="M9.46765 8.82483V27.6389C9.46765 28.579 10.2297 29.3411 11.1698 29.3411H11.2069C12.147 29.3411 12.9091 28.579 12.9091 27.6389V8.82483H9.46765Z" fill="#DE5C6E"/>
<path d="M25.7102 10.177H6.28976C5.17491 10.177 4.27112 9.27317 4.27112 8.15832V6.95431C4.27112 5.83946 5.17491 4.93567 6.28976 4.93567H25.7102C26.8251 4.93567 27.7289 5.83946 27.7289 6.95431V8.15832C27.7289 9.27317 26.8251 10.177 25.7102 10.177Z" fill="#95CBEC"/>
<path d="M25.7307 20.2275C25.819 19.2566 25.9072 18.2905 25.9953 17.3295C26.0579 16.6461 25.7828 15.9776 25.2631 15.5292C24.2378 14.6445 23.0375 13.9287 21.0951 13.9287C18.918 13.9287 17.6731 14.8281 16.5621 15.8566V19.253L22.5221 21.1228L25.7307 20.2275Z" fill="#F5EA72"/>
<path d="M18.3889 31.9378C18.6599 31.9236 18.9307 31.907 19.2013 31.8881C22.3634 31.641 24.946 28.9315 25.1914 26.2128C25.3715 24.1985 25.5513 22.203 25.7308 20.2276C25.831 19.1256 24.7813 18.292 23.7217 18.6108C23.2502 18.7527 22.7451 18.8338 22.1982 18.8338C18.507 18.8338 17.4955 16.2486 15.2729 14.8319L9.85718 17.5143L10.7474 25.9545L13.0427 31.1105L18.3889 31.9378Z" fill="#F9F29D"/>
<path d="M15.2726 24.7268V14.8322C14.4336 14.2974 13.4225 13.9287 12.0292 13.9287C9.60275 13.9287 8.33422 15.0459 7.11844 16.2139C6.41233 16.8923 6.05287 17.8545 6.1419 18.8296C6.36376 21.2602 6.58601 23.7222 6.80864 26.2127C7.05418 28.9314 9.63665 31.6411 12.7988 31.888C14.6587 32.0185 16.5269 32.0349 18.3889 31.9376C16.4706 30.1316 15.2726 27.5692 15.2726 24.7268Z" fill="#F5EA72"/>
<path d="M11.5508 17.9239C12.1436 17.9239 12.6241 17.4434 12.6241 16.8506C12.6241 16.2578 12.1436 15.7772 11.5508 15.7772C10.958 15.7772 10.4774 16.2578 10.4774 16.8506C10.4774 17.4434 10.958 17.9239 11.5508 17.9239Z" fill="#DE5C6E"/>
<path d="M10.7474 28.6501C11.3402 28.6501 11.8208 28.1696 11.8208 27.5768C11.8208 26.984 11.3402 26.5034 10.7474 26.5034C10.1546 26.5034 9.67407 26.984 9.67407 27.5768C9.67407 28.1696 10.1546 28.6501 10.7474 28.6501Z" fill="#DE5C6E"/>
<path d="M16 29.9874C16.5928 29.9874 17.0734 29.5069 17.0734 28.9141C17.0734 28.3213 16.5928 27.8407 16 27.8407C15.4072 27.8407 14.9266 28.3213 14.9266 28.9141C14.9266 29.5069 15.4072 29.9874 16 29.9874Z" fill="#E68A97"/>
<path d="M21.0344 28.6501C21.6272 28.6501 22.1078 28.1696 22.1078 27.5768C22.1078 26.984 21.6272 26.5034 21.0344 26.5034C20.4416 26.5034 19.9611 26.984 19.9611 27.5768C19.9611 28.1696 20.4416 28.6501 21.0344 28.6501Z" fill="#E68A97"/>
<path d="M12.6836 23.1047C12.6841 23.9562 11.8175 24.647 10.7482 24.6475C9.67892 24.648 8.81173 23.9582 8.81128 23.1066C8.81083 22.255 9.67738 21.5643 10.7467 21.5637C11.816 21.5632 12.6832 22.2531 12.6836 23.1047Z" fill="#E89FA9"/>
<path d="M19.306 23.1013C19.3065 23.9528 20.1737 24.6427 21.243 24.6422C22.3123 24.6417 23.1788 23.9509 23.1784 23.0994C23.1779 22.2478 22.3107 21.5579 21.2414 21.5585C20.1721 21.559 19.3056 22.2497 19.306 23.1013Z" fill="#E89FA9"/>
<path d="M17.8924 22.405C17.8918 21.232 17.042 21.1222 15.9938 21.1228C14.9456 21.1233 14.096 21.234 14.0966 22.4069C14.0971 23.5798 14.9473 24.5302 15.9956 24.5297C17.0437 24.5292 17.8929 23.5779 17.8924 22.405Z" fill="#4E5660"/>
<path d="M10.9534 21.9102C10.687 21.9102 10.4711 21.6943 10.4709 21.428C10.4706 20.6538 11.1001 20.0236 11.8742 20.0232H11.8749C12.6489 20.0232 13.2786 20.6525 13.2789 21.4265C13.2791 21.693 13.0632 21.9091 12.7968 21.9092C12.7967 21.9092 12.7966 21.9092 12.7965 21.9092C12.5301 21.9092 12.3142 21.6934 12.314 21.427C12.3139 21.1849 12.1169 20.9881 11.8749 20.9881C11.8749 20.9881 11.8748 20.9881 11.8748 20.9881C11.6326 20.9882 11.4357 21.1853 11.4359 21.4274C11.436 21.694 11.2201 21.91 10.9537 21.9102C10.9535 21.9102 10.9535 21.9102 10.9534 21.9102Z" fill="#4F5C6F"/>
<path d="M19.1913 21.906C18.9249 21.906 18.709 21.6902 18.7089 21.4238C18.7087 21.0488 18.8546 20.6961 19.1196 20.4308C19.3846 20.1655 19.7372 20.0192 20.1122 20.019H20.113C20.4877 20.019 20.8401 20.1649 21.1052 20.4298C21.3706 20.6949 21.5167 21.0474 21.5169 21.4224C21.5171 21.6889 21.3012 21.905 21.0347 21.9051C21.0347 21.9051 21.0345 21.9051 21.0345 21.9051C20.7681 21.9051 20.5521 21.6893 20.552 21.4229C20.5519 21.1809 20.355 20.984 20.1129 20.984C20.1129 20.984 20.1128 20.984 20.1127 20.984C19.9955 20.9841 19.8851 21.0298 19.8023 21.1128C19.7194 21.1958 19.6738 21.3061 19.6738 21.4234C19.674 21.6899 19.4581 21.9059 19.1916 21.9061C19.1914 21.906 19.1914 21.906 19.1913 21.906Z" fill="#4F5C6F"/>
</g>
<defs>
<clipPath id="clip0_127_1449">
<rect width="32" height="32" fill="white"/>
</clipPath>
</defs>
</svg>
