<svg width="24" height="24" viewBox="0 0 24 24" fill="none" xmlns="http://www.w3.org/2000/svg">
<g clip-path="url(#clip0_176_1095)">
<path d="M2.10938 21.4554H11.6363V10.1826H2.10938C0.944391 10.1826 0 11.127 0 12.292V19.3459C0 20.5109 0.944391 21.4554 2.10938 21.4554Z" fill="#FFE5AB"/>
<path d="M7.27344 10.1826H9.81889V21.4553H7.27344V10.1826Z" fill="#FCDB92"/>
<path d="M16.7214 4.40823L12.3502 8.77942L11.8359 6.20814L15.1786 2.86543C15.6047 2.43939 16.2954 2.43939 16.7214 2.86543C17.1474 3.29148 17.1474 3.98223 16.7214 4.40823V4.40823Z" fill="#4A66A0"/>
<path d="M13.9533 10.0606C13.8558 10.274 13.7162 10.473 13.5346 10.644C11.3869 12.6714 9.68884 13.9783 8.36795 14.8167C6.80078 15.8116 5.7663 16.1468 5.14422 16.2443C5.07709 16.2549 5.00992 16.2597 4.94331 16.2597C4.59995 16.2597 4.26672 16.1231 4.01992 15.8763C3.50898 15.3648 3.50898 14.5365 4.01992 14.0251L11.837 6.20801L13.5723 7.94327C14.146 8.51702 14.2711 9.36705 13.9533 10.0606V10.0606Z" fill="#A4E7FF"/>
<path d="M13.9526 10.0607C13.855 10.2741 13.7155 10.4731 13.5338 10.6441C11.3861 12.6715 9.68808 13.9784 8.36719 14.8168V12.3643C8.36719 10.562 9.83344 9.0957 11.6358 9.0957C12.0734 9.0957 12.4979 9.18069 12.8982 9.34878C13.2967 9.51542 13.6536 9.75978 13.9526 10.0607V10.0607Z" fill="#83DEFF"/>
<path d="M23.2716 12.3646C23.8212 12.3646 24.1781 11.773 23.9086 11.2944C23.5343 10.6308 22.8229 10.1826 22.0067 10.1826H11.6367V12.3646L23.2716 12.3646Z" fill="#FCDB92"/>
<path d="M22.546 12.3646V19.2824C22.546 20.4826 21.5729 21.4552 20.3727 21.4552H9.45508V12.3646C9.45508 11.1596 10.4321 10.1826 11.6371 10.1826C11.9355 10.1826 12.22 10.2425 12.4788 10.3511C13.1048 10.6134 13.5829 11.1591 13.7524 11.8275C13.8325 12.1453 14.1238 12.3646 14.4517 12.3646H22.546V12.3646Z" fill="#FFF1CF"/>
<path d="M17.4576 21.4553H9.45508V12.3646C9.45508 11.1596 10.4321 10.1826 11.6371 10.1826C11.9355 10.1826 12.22 10.2425 12.4788 10.3511C13.1048 10.6134 13.5829 11.1591 13.7524 11.8275C13.8325 12.1453 14.1238 12.3646 14.4517 12.3646H15.8808C15.6789 14.7282 15.7997 18.1832 17.4576 21.4553V21.4553Z" fill="#FFE5AB"/>
<path d="M13.5596 17.205C13.5609 16.5778 12.9234 16.068 12.1357 16.0664C11.3481 16.0649 10.7086 16.572 10.7073 17.1993C10.7061 17.8265 11.3436 18.3362 12.1312 18.3378C12.9188 18.3394 13.5583 17.8322 13.5596 17.205Z" fill="#FFA1AC"/>
<path d="M21.2881 17.2216C21.2894 16.5944 20.6519 16.0846 19.8643 16.083C19.0766 16.0815 18.4371 16.5887 18.4359 17.2159C18.4346 17.8431 19.0721 18.3528 19.8597 18.3544C20.6473 18.356 21.2869 17.8488 21.2881 17.2216Z" fill="#FFA1AC"/>
<path d="M12.8368 16.6868C12.6368 16.6868 12.4746 16.5246 12.4746 16.3246V15.745C12.4746 15.545 12.6368 15.3828 12.8368 15.3828C13.0369 15.3828 13.199 15.545 13.199 15.745V16.3246C13.199 16.5246 13.0369 16.6868 12.8368 16.6868Z" fill="#455059"/>
<path d="M19.9573 16.6704C19.7573 16.6704 19.5951 16.5083 19.5951 16.3082C19.5951 16.1377 19.4563 15.9989 19.2857 15.9989C19.1152 15.9989 18.9764 16.1377 18.9764 16.3082C18.9764 16.5083 18.8142 16.6704 18.6142 16.6704C18.4141 16.6704 18.252 16.5083 18.252 16.3082C18.252 15.7382 18.7157 15.2744 19.2858 15.2744C19.8558 15.2744 20.3196 15.7382 20.3196 16.3082C20.3195 16.5083 20.1574 16.6704 19.9573 16.6704V16.6704Z" fill="#455059"/>
<path d="M15.3065 17.7653C14.7218 17.7653 14.2461 17.2896 14.2461 16.705C14.2461 16.5049 14.4082 16.3428 14.6083 16.3428C14.8084 16.3428 14.9705 16.505 14.9705 16.705C14.9705 16.8902 15.1212 17.0409 15.3065 17.0409C15.4917 17.0409 15.6424 16.8902 15.6424 16.705C15.6424 16.5049 15.8045 16.3428 16.0046 16.3428C16.2046 16.3428 16.3668 16.505 16.3668 16.705C16.3668 17.2896 15.8911 17.7653 15.3065 17.7653V17.7653Z" fill="#455059"/>
<path d="M16.7029 17.7653C16.1183 17.7653 15.6426 17.2896 15.6426 16.705C15.6426 16.5049 15.8047 16.3428 16.0048 16.3428C16.2048 16.3428 16.367 16.505 16.367 16.705C16.367 16.8902 16.5177 17.0409 16.7029 17.0409C16.8881 17.0409 17.0388 16.8902 17.0388 16.705C17.0388 16.5049 17.201 16.3428 17.401 16.3428C17.6011 16.3428 17.7633 16.505 17.7633 16.705C17.7633 17.2896 17.2876 17.7653 16.7029 17.7653V17.7653Z" fill="#455059"/>
</g>
<defs>
<clipPath id="clip0_176_1095">
<rect width="24" height="24" fill="white"/>
</clipPath>
</defs>
</svg>
