<svg width="24" height="24" viewBox="0 0 24 24" fill="none" xmlns="http://www.w3.org/2000/svg">
<g clip-path="url(#clip0_193_1253)">
<path d="M22.273 8.95175C20.7689 4.95867 16.9096 2.11015 12.397 2.11015C11.7651 2.11015 11.1461 2.16612 10.5445 2.27318C10.3429 1.83785 10.1659 1.3861 10.0169 0.918508C9.79569 0.224585 9.05387 -0.158498 8.35999 0.0626209C7.70354 0.27186 7.26459 0.976553 7.51738 1.76083C7.75651 2.50299 7.46011 3.30639 6.79989 3.72124C3.82104 5.5931 1.83909 8.91157 1.84768 12.684C1.86748 21.3411 12.2473 25.4847 18.5187 20.6485C22.8005 17.3468 23.8404 13.1132 22.273 8.95175V8.95175Z" fill="#00CE8E"/>
<path d="M22.2718 8.95194C20.7677 4.95887 16.9084 2.11035 12.3957 2.11035C11.7638 2.11035 11.1447 2.16632 10.543 2.27338C12.6213 6.76239 17.3651 9.45363 22.2718 8.95194V8.95194Z" fill="#00B27A"/>
<path d="M18.5184 20.6486C18.3911 20.4998 18.2294 20.3723 18.02 20.2982C16.8976 19.9012 16.1452 18.7586 16.1452 17.4963C16.1452 14.3698 13.6016 11.8261 10.475 11.8261C8.80261 11.8261 7.44205 10.4656 7.44205 8.79316C7.44205 6.8454 6.45477 5.12401 4.95445 4.10273C4.05675 3.49172 2.97549 3.13119 1.81195 3.12308C1.0863 3.11801 0.459354 3.70449 0.453173 4.43014C0.447185 5.13198 0.998171 5.75627 1.78684 5.76033C2.44937 5.76361 2.85776 6.48815 2.53036 7.06415C1.60894 8.68528 1.07558 10.5557 1.0566 12.5492C0.996964 18.8038 6.06879 23.9604 12.3236 23.9998C14.1264 24.0112 15.8322 23.6015 17.3492 22.8639C17.659 22.7132 17.9609 22.5489 18.254 22.3717C18.9021 21.9798 18.9522 21.156 18.5184 20.6486V20.6486Z" fill="#00B27A"/>
<path d="M20.3893 5.0443C19.8889 4.52494 19.8829 3.69581 20.3871 3.18007C20.3925 3.17457 20.3979 3.16906 20.4033 3.16356C20.9152 2.64493 20.9401 1.78759 20.4236 1.27359C19.9084 0.760903 19.0752 0.761675 18.561 1.27586C15.6294 4.20758 15.6216 8.98532 18.561 11.9248C20.4692 13.833 20.4734 16.9188 18.5729 18.8321C18.0918 19.3164 18.0322 20.1055 18.5182 20.6488C18.9978 21.1849 19.8575 21.2845 20.4608 20.6731C24.4272 16.6551 24.7407 9.56069 20.3893 5.0443V5.0443Z" fill="#5FD9B3"/>
<path d="M5.62067 17.3105C6.40356 17.3105 7.03822 16.8051 7.03822 16.1816C7.03822 15.5581 6.40356 15.0527 5.62067 15.0527C4.83778 15.0527 4.20312 15.5581 4.20312 16.1816C4.20312 16.8051 4.83778 17.3105 5.62067 17.3105Z" fill="#FF8E9E"/>
<path d="M13.3043 17.3105C14.0872 17.3105 14.7218 16.8051 14.7218 16.1816C14.7218 15.5581 14.0872 15.0527 13.3043 15.0527C12.5214 15.0527 11.8867 15.5581 11.8867 16.1816C11.8867 16.8051 12.5214 17.3105 13.3043 17.3105Z" fill="#FF8E9E"/>
<path d="M6.44616 14.1533C6.24614 14.1533 6.08398 14.3154 6.08398 14.5155V15.095C6.08398 15.295 6.24614 15.4571 6.44616 15.4571C6.64617 15.4571 6.80833 15.295 6.80833 15.095V14.5155C6.80833 14.3154 6.64617 14.1533 6.44616 14.1533Z" fill="#313D40"/>
<path d="M12.4774 14.1533C12.2774 14.1533 12.1152 14.3154 12.1152 14.5155V15.095C12.1152 15.295 12.2774 15.4571 12.4774 15.4571C12.6774 15.4571 12.8396 15.295 12.8396 15.095V14.5155C12.8396 14.3154 12.6775 14.1533 12.4774 14.1533Z" fill="#313D40"/>
<path d="M10.495 14.805C10.3441 14.6735 10.1154 14.6893 9.98395 14.8401C9.85217 14.9914 9.66191 15.0781 9.46194 15.0781C9.26197 15.0781 9.07171 14.9914 8.93993 14.8401C8.80853 14.6893 8.57973 14.6736 8.42892 14.805C8.27812 14.9364 8.26242 15.1652 8.39382 15.316C8.66323 15.6251 9.05254 15.8024 9.46194 15.8024C9.87134 15.8024 10.2607 15.6251 10.5301 15.316C10.6615 15.1652 10.6457 14.9364 10.495 14.805Z" fill="#313D40"/>
</g>
<defs>
<clipPath id="clip0_193_1253">
<rect width="24" height="24" fill="white"/>
</clipPath>
</defs>
</svg>
