<svg width="24" height="24" viewBox="0 0 24 24" fill="none" xmlns="http://www.w3.org/2000/svg">
<path d="M24.0002 3.44017C24.0002 1.86597 22.724 0.589844 21.1498 0.589844C20.6305 0.589844 20.144 0.729437 19.7247 0.972109C19.3053 0.729437 18.8189 0.589844 18.2995 0.589844C16.7253 0.589844 15.4492 1.86597 15.4492 3.44017V9.14078H21.1498C22.724 9.14078 24.0002 7.86466 24.0002 6.29045C24.0002 5.77108 23.8606 5.28466 23.6179 4.86531C23.8606 4.44597 24.0002 3.95955 24.0002 3.44017Z" fill="#80CBDE"/>
<g opacity="0.2">
<path opacity="0.2" d="M18.1052 5.21744C18.0474 5.21744 17.9888 5.20314 17.9347 5.1731C17.765 5.07874 17.7039 4.8647 17.7983 4.69497L18.9805 2.56849C19.0748 2.3988 19.2889 2.33772 19.4586 2.43203C19.6283 2.52639 19.6894 2.74042 19.595 2.91016L18.4128 5.03664C18.3485 5.15224 18.2287 5.21744 18.1052 5.21744Z" fill="black"/>
<path opacity="0.2" d="M19.723 6.83569C19.5995 6.83569 19.4797 6.77049 19.4155 6.65489C19.3211 6.48516 19.3822 6.27113 19.5519 6.17677L21.6784 4.99453C21.848 4.90022 22.0621 4.9613 22.1564 5.13099C22.2508 5.30072 22.1897 5.51475 22.02 5.60911L19.8935 6.79135C19.8394 6.82139 19.7808 6.83569 19.723 6.83569Z" fill="black"/>
</g>
<path opacity="0.1" d="M15.4497 3.4209C15.4497 3.42765 15.4492 3.43435 15.4492 3.4411V9.14171H21.1498C21.1566 9.14171 21.1633 9.14124 21.17 9.1412C20.2434 6.46595 18.125 4.34757 15.4497 3.4209Z" fill="black"/>
<path d="M0 20.559C0 22.1332 1.27612 23.4093 2.85033 23.4093C3.3697 23.4093 3.85612 23.2697 4.27547 23.0271C4.69481 23.2697 5.18128 23.4093 5.70061 23.4093C7.27481 23.4093 8.55094 22.1332 8.55094 20.559V14.8584H2.85033C1.27612 14.8584 0 16.1345 0 17.7087C0 18.2281 0.139594 18.7145 0.382266 19.1338C0.139594 19.5532 0 20.0396 0 20.559Z" fill="#80CBDE"/>
<g opacity="0.2">
<path opacity="0.2" d="M4.71068 21.612C4.65289 21.612 4.59429 21.5977 4.54015 21.5676C4.37046 21.4733 4.30939 21.2592 4.40374 21.0895L5.58598 18.963C5.68024 18.7933 5.89432 18.7323 6.06406 18.8266C6.23374 18.9209 6.29482 19.135 6.20046 19.3047L5.01823 21.4312C4.95401 21.5468 4.8342 21.612 4.71068 21.612Z" fill="black"/>
<path opacity="0.2" d="M2.14884 19.0496C2.02532 19.0496 1.90551 18.9844 1.84124 18.8688C1.74689 18.699 1.80796 18.485 1.97765 18.3906L4.10414 17.2084C4.27387 17.1141 4.4879 17.1751 4.58221 17.3449C4.67657 17.5146 4.61549 17.7286 4.44581 17.823L2.31932 19.0052C2.26523 19.0353 2.20664 19.0496 2.14884 19.0496Z" fill="black"/>
</g>
<path opacity="0.1" d="M8.55037 20.5792C8.55042 20.5725 8.55089 20.5658 8.55089 20.559V14.8584H2.85028C2.84348 14.8584 2.83683 14.8589 2.83008 14.8589C3.75675 17.5342 5.87508 19.6525 8.55037 20.5792Z" fill="black"/>
<path d="M12.0002 19.8579C16.3399 19.8579 19.8579 16.3399 19.8579 12.0002C19.8579 7.66057 16.3399 4.14258 12.0002 4.14258C7.66057 4.14258 4.14258 7.66057 4.14258 12.0002C4.14258 16.3399 7.66057 19.8579 12.0002 19.8579Z" fill="#80CBDE"/>
<path d="M15.379 4.9043C15.1569 5.79769 14.8652 6.67481 14.503 7.53131C13.6071 9.64936 12.3257 11.5505 10.6943 13.1819C9.23312 14.643 7.55509 15.8224 5.69922 16.6965C6.88562 18.2856 8.65923 19.4102 10.6983 19.7501C11.9943 18.8978 13.203 17.9128 14.3141 16.8017C16.414 14.7018 18.0638 12.2538 19.2178 9.52552C19.262 9.42098 19.3052 9.31617 19.3477 9.21117C18.628 7.31592 17.1963 5.77134 15.379 4.9043Z" fill="#FFE584"/>
<path d="M4.14648 11.7474C7.03094 10.1838 9.23959 7.53256 10.2228 4.34375C6.81794 5.13087 4.26062 8.13102 4.14648 11.7474Z" fill="#FFE584"/>
<path opacity="0.1" d="M14.6187 4.58984C16.5162 6.02431 17.7426 8.29972 17.7426 10.8618C17.7426 15.2015 14.2245 18.7197 9.88472 18.7197C8.9663 18.7197 8.08491 18.5615 7.26562 18.272C8.58225 19.2673 10.2218 19.8579 11.9996 19.8579C16.3394 19.8579 19.8575 16.3398 19.8575 12C19.8575 8.57872 17.6706 5.66858 14.6187 4.58984Z" fill="black"/>
<path d="M11.1213 16.2127C11.0354 16.2127 10.9494 16.1814 10.8816 16.1183L10.4692 15.7337C10.3272 15.6013 10.3194 15.3788 10.4519 15.2368C10.5843 15.0948 10.8068 15.087 10.9488 15.2194L11.3612 15.604C11.5032 15.7364 11.511 15.9589 11.3785 16.1009C11.3093 16.1752 11.2154 16.2127 11.1213 16.2127Z" fill="#4A5058"/>
<path d="M15.7541 11.244C15.6682 11.244 15.5822 11.2127 15.5144 11.1495L15.102 10.7649C14.96 10.6325 14.9523 10.41 15.0847 10.2681C15.2171 10.126 15.4395 10.1183 15.5816 10.2507L15.994 10.6352C16.136 10.7677 16.1438 10.9901 16.0114 11.1321C15.9421 11.2064 15.8482 11.244 15.7541 11.244Z" fill="#4A5058"/>
<path d="M14.3636 13.0165C14.7565 13.3828 14.7699 14.0037 14.3865 14.3866C14.0213 14.7513 13.4261 14.745 13.0487 14.3931L12.5591 13.9365C12.4543 13.8388 12.4485 13.6745 12.5463 13.5697L13.4905 12.5571C13.5883 12.4523 13.7525 12.4466 13.8573 12.5443L14.3636 13.0165Z" fill="#4A5058"/>
</svg>
