<svg width="24" height="24" viewBox="0 0 24 24" fill="none" xmlns="http://www.w3.org/2000/svg">
<g clip-path="url(#clip0_189_1097)">
<path d="M17.2313 2.63269C17.2313 4.08691 16.4809 8.97381 15.0267 8.97381C13.5726 8.97381 12.8223 4.08691 12.8223 2.63269C12.8223 1.17865 13.5728 0 15.0267 0C16.4807 0 17.2313 1.17865 17.2313 2.63269V2.63269Z" fill="#6DC847"/>
<path d="M21.3665 11.1785C19.9123 11.1785 15.0254 10.4282 15.0254 8.97394C15.0254 7.5199 19.9123 6.76953 21.3665 6.76953C22.8206 6.76953 23.9992 7.52008 23.9992 8.97412C23.9992 10.4282 22.8206 11.1785 21.3665 11.1785V11.1785Z" fill="#6DC847"/>
<path d="M21.0689 6.04895C20.0408 7.07708 16.0546 10.002 15.0263 8.97387C13.9981 7.94574 16.9231 3.95935 17.9512 2.93121C18.9793 1.90307 20.3437 1.60022 21.3718 2.62835C22.3999 3.65667 22.0971 5.02081 21.0689 6.04895V6.04895Z" fill="#8DD470"/>
<path d="M16.3728 17.251C13.199 20.4248 4.091 26.2567 0.917052 23.0829C-2.25671 19.909 3.57519 10.801 6.74896 7.62719C9.92291 4.45342 14.1338 3.51849 17.3075 6.69244C20.4815 9.8662 19.5467 14.0771 16.3728 17.251V17.251Z" fill="#FFA93F"/>
<path d="M13.5457 10.4554C13.2218 10.1315 13.2218 9.60617 13.5457 9.28207L13.8853 8.94241C13.9414 8.88638 14.0322 8.88638 14.0882 8.94241L15.0587 9.91305C15.1147 9.9689 15.1147 10.0597 15.0587 10.1158L14.719 10.4554C14.3949 10.7793 13.8696 10.7793 13.5457 10.4554Z" fill="#454545"/>
<path d="M8.39526 9.2734C11.2821 6.38656 15.0268 5.35275 18.0689 7.57748C17.8477 7.27499 17.5947 6.97946 17.3077 6.69235C14.1338 3.51858 9.92291 4.45333 6.74896 7.62728C3.57519 10.801 -2.25671 19.9091 0.917052 23.083C1.20416 23.37 1.53979 23.5829 1.91498 23.7312C0.422851 19.9565 5.50842 12.1602 8.39526 9.2734V9.2734Z" fill="#FF9C20"/>
<path d="M5.45898 9.0683L10.1946 13.804C10.2633 13.8726 10.3532 13.9069 10.4433 13.9069C10.5332 13.9069 10.6231 13.8726 10.6918 13.804C10.8291 13.6666 10.8291 13.444 10.6918 13.3068L5.91345 8.52832C5.76477 8.69989 5.61298 8.88007 5.45898 9.0683V9.0683Z" fill="#FF9000"/>
<path d="M5.62408 18.3752C5.69275 18.4438 5.78265 18.4781 5.87274 18.4781C5.96264 18.4781 6.05255 18.4438 6.12121 18.3752C6.25854 18.2379 6.25854 18.0154 6.12121 17.878L2.17969 13.9365C2.0614 14.1519 1.94604 14.3681 1.83398 14.5851L5.62408 18.3752Z" fill="#FF9000"/>
<path d="M8.25442 15.4399C8.1171 15.3026 7.89462 15.3026 7.75729 15.4399C7.61996 15.5772 7.61996 15.7997 7.75729 15.937L12.2921 20.4718C12.4933 20.3393 12.6914 20.2056 12.8861 20.0714L8.25442 15.4399Z" fill="#FF9000"/>
<path d="M16.7167 11.9795C16.6268 11.9795 16.5367 11.9453 16.4682 11.8766C16.3309 11.7393 16.3309 11.5166 16.4682 11.3795L16.8559 10.9917C16.9932 10.8543 17.2159 10.8543 17.353 10.9917C17.4903 11.129 17.4903 11.3515 17.353 11.4888L16.9654 11.8766C16.8967 11.9451 16.8068 11.9795 16.7167 11.9795Z" fill="#454545"/>
<path d="M12.373 7.6348C12.2831 7.6348 12.193 7.60055 12.1245 7.53189C11.9872 7.39456 11.9872 7.17191 12.1245 7.03476L12.5121 6.64694C12.6494 6.50961 12.8721 6.50961 13.0092 6.64694C13.1466 6.78427 13.1466 7.00674 13.0092 7.14407L12.6216 7.53189C12.5529 7.60055 12.4629 7.6348 12.373 7.6348Z" fill="#454545"/>
<path d="M16.1784 12.9057C16.0885 12.9057 15.9984 12.8715 15.9297 12.8028L15.5424 12.4156C15.4051 12.2782 15.4051 12.0556 15.5424 11.9184C15.6798 11.7811 15.9024 11.7811 16.0396 11.9184L16.4268 12.3057C16.5642 12.443 16.5642 12.6655 16.4268 12.8028C16.3584 12.8715 16.2683 12.9057 16.1784 12.9057V12.9057Z" fill="#F4F4F4"/>
<path d="M11.8327 8.56119C11.7428 8.56119 11.6527 8.52676 11.584 8.4581L11.1967 8.07083C11.0594 7.9335 11.0594 7.71085 11.1967 7.5737C11.3341 7.43637 11.5567 7.43637 11.6939 7.5737L12.0813 7.96097C12.2185 8.0983 12.2185 8.32095 12.0813 8.4581C12.0125 8.52676 11.9226 8.56119 11.8327 8.56119Z" fill="#F4F4F4"/>
</g>
<defs>
<clipPath id="clip0_189_1097">
<rect width="24" height="24" fill="white"/>
</clipPath>
</defs>
</svg>
