<svg width="24" height="24" viewBox="0 0 24 24" fill="none" xmlns="http://www.w3.org/2000/svg">
<path d="M10.2299 18.5001C9.98663 18.0812 9.59944 17.765 9.14039 17.6104C8.68134 17.4557 8.18174 17.4732 7.73462 17.6595C7.2875 17.8459 6.92335 18.1884 6.71 18.6233C6.49665 19.0582 6.44863 19.5558 6.5749 20.0234C6.70117 20.4911 6.9931 20.8969 7.39634 21.1653C7.79958 21.4337 8.28663 21.5464 8.76677 21.4823C9.24692 21.4183 9.68743 21.182 10.0063 20.8173C10.3251 20.4526 10.5005 19.9845 10.4999 19.5001C10.4997 19.1488 10.4066 18.8038 10.2299 18.5001V18.5001ZM8.49986 20.5001C8.30208 20.5001 8.10874 20.4415 7.94429 20.3316C7.77984 20.2217 7.65167 20.0655 7.57598 19.8828C7.50029 19.7001 7.48049 19.499 7.51907 19.305C7.55766 19.111 7.6529 18.9329 7.79275 18.793C7.93261 18.6532 8.11079 18.5579 8.30477 18.5193C8.49875 18.4808 8.69982 18.5006 8.88254 18.5762C9.06527 18.6519 9.22145 18.7801 9.33133 18.9446C9.44121 19.109 9.49986 19.3023 9.49986 19.5001C9.49907 19.7651 9.39346 20.019 9.20609 20.2064C9.01873 20.3937 8.76483 20.4993 8.49986 20.5001V20.5001Z" fill="#DE5C6E"/>
<path d="M17.2299 18.5001C16.9866 18.0812 16.5994 17.765 16.1404 17.6104C15.6813 17.4557 15.1817 17.4732 14.7346 17.6595C14.2875 17.8459 13.9234 18.1884 13.71 18.6233C13.4966 19.0582 13.4486 19.5558 13.5749 20.0234C13.7012 20.4911 13.9931 20.8969 14.3963 21.1653C14.7996 21.4337 15.2866 21.5464 15.7668 21.4823C16.2469 21.4183 16.6874 21.182 17.0063 20.8173C17.3251 20.4526 17.5005 19.9845 17.4999 19.5001C17.4997 19.1488 17.4066 18.8038 17.2299 18.5001ZM15.4999 20.5001C15.3021 20.5001 15.1087 20.4415 14.9443 20.3316C14.7798 20.2217 14.6517 20.0655 14.576 19.8828C14.5003 19.7001 14.4805 19.499 14.5191 19.305C14.5577 19.111 14.6529 18.9329 14.7928 18.793C14.9326 18.6532 15.1108 18.5579 15.3048 18.5193C15.4988 18.4808 15.6998 18.5006 15.8825 18.5762C16.0653 18.6519 16.2214 18.7801 16.3313 18.9446C16.4412 19.109 16.4999 19.3023 16.4999 19.5001C16.4991 19.7651 16.3935 20.019 16.2061 20.2064C16.0187 20.3937 15.7648 20.4993 15.4999 20.5001V20.5001Z" fill="#DE5C6E"/>
<path d="M22.074 5.9545C21.9831 5.81483 21.8587 5.7001 21.7122 5.62073C21.5657 5.54135 21.4016 5.49985 21.235 5.5H6.079L5.6635 3.6725C5.58808 3.34037 5.40231 3.04362 5.13651 2.83067C4.87071 2.61772 4.54058 2.50116 4.2 2.5H2C1.86739 2.5 1.74021 2.55268 1.64645 2.64645C1.55268 2.74021 1.5 2.86739 1.5 3C1.5 3.13261 1.55268 3.25979 1.64645 3.35355C1.74021 3.44732 1.86739 3.5 2 3.5H4.2C4.31352 3.50008 4.42363 3.53879 4.51223 3.60976C4.60083 3.68073 4.66264 3.77974 4.6875 3.8905L5.19 6.1L5.195 6.1205L6.8365 13.3265C6.91172 13.6588 7.09741 13.9558 7.36323 14.1689C7.62904 14.3821 7.95928 14.4988 8.3 14.5H17.845C18.1369 14.5014 18.4228 14.4168 18.667 14.2567C18.9112 14.0967 19.1028 13.8683 19.218 13.6L22.153 6.9C22.2197 6.74831 22.2474 6.58235 22.2336 6.41722C22.2198 6.25209 22.1649 6.09303 22.074 5.9545V5.9545Z" fill="#F9F29D"/>
<path d="M18.5 18.5H6C5.33696 18.5 4.70107 18.2366 4.23223 17.7678C3.76339 17.2989 3.5 16.663 3.5 16C3.5 15.337 3.76339 14.7011 4.23223 14.2322C4.70107 13.7634 5.33696 13.5 6 13.5H14.5C14.6326 13.5 14.7598 13.5527 14.8536 13.6464C14.9473 13.7402 15 13.8674 15 14C15 14.1326 14.9473 14.2598 14.8536 14.3536C14.7598 14.4473 14.6326 14.5 14.5 14.5H6C5.60218 14.5 5.22064 14.658 4.93934 14.9393C4.65804 15.2206 4.5 15.6022 4.5 16C4.5 16.3978 4.65804 16.7794 4.93934 17.0607C5.22064 17.342 5.60218 17.5 6 17.5H18.5C18.6326 17.5 18.7598 17.5527 18.8536 17.6464C18.9473 17.7402 19 17.8674 19 18C19 18.1326 18.9473 18.2598 18.8536 18.3536C18.7598 18.4473 18.6326 18.5 18.5 18.5Z" fill="#F9F29D"/>
<path d="M11 9.99939C11.0002 10.5517 10.5527 10.9997 10.0004 11C9.44812 11.0003 9.00023 10.5529 9 10.0006C8.99977 9.44836 9.44732 9.00038 9.9996 9C10.5519 8.99967 10.9998 9.44711 11 9.99939V9.99939Z" fill="#E89FA9"/>
<path d="M15 10.0006C15.0002 10.5529 15.4481 11.0003 16.0004 11C16.5527 10.9997 17.0002 10.5517 17 9.99937C16.9998 9.44708 16.5519 8.99962 15.9996 9C15.4473 9.00033 14.9998 9.44833 15 10.0006Z" fill="#E89FA9"/>
<path d="M10.281 9.10083C10.1258 9.10083 10.0001 8.97515 10 8.82003C9.99978 8.36918 10.3664 8.00218 10.8172 8.00195H10.8176C11.2683 8.00195 11.635 8.36843 11.6352 8.81916C11.6353 8.97437 11.5096 9.1002 11.3544 9.10027C11.3544 9.10027 11.3543 9.10027 11.3543 9.10027C11.1992 9.10027 11.0734 8.97459 11.0733 8.81946C11.0733 8.6785 10.9586 8.56387 10.8176 8.56387C10.8176 8.56387 10.8175 8.56387 10.8175 8.56387C10.6765 8.56394 10.5618 8.67869 10.5619 8.81973C10.562 8.97493 10.4363 9.10076 10.2811 9.10083C10.281 9.10083 10.281 9.10083 10.281 9.10083V9.10083Z" fill="#4F5C6F"/>
<path d="M15.0788 9.09888C14.9237 9.09888 14.7979 8.9732 14.7979 8.81807C14.7977 8.59967 14.8827 8.39431 15.037 8.23979C15.1914 8.08526 15.3967 8.00011 15.6151 8H15.6156C15.8338 8 16.039 8.08496 16.1934 8.23923C16.3479 8.39356 16.433 8.59885 16.4331 8.81725C16.4332 8.97245 16.3075 9.09828 16.1523 9.09836C16.1523 9.09836 16.1522 9.09836 16.1522 9.09836C15.9971 9.09836 15.8713 8.97267 15.8712 8.81755C15.8711 8.67658 15.7565 8.56195 15.6155 8.56195C15.6155 8.56195 15.6154 8.56195 15.6154 8.56195C15.5471 8.56199 15.4829 8.58862 15.4346 8.63695C15.3863 8.68527 15.3598 8.74952 15.3598 8.81781C15.3599 8.97301 15.2342 9.09884 15.079 9.09892C15.0789 9.09888 15.0788 9.09888 15.0788 9.09888V9.09888Z" fill="#4F5C6F"/>
<path d="M14 10.7527C13.9997 10.0641 13.552 9.99966 12.9997 10C12.4474 10.0003 11.9997 10.0653 12 10.7538C12.0003 11.4424 12.4483 12.0003 13.0006 12C13.5528 11.9997 14.0003 11.4413 14 10.7527Z" fill="#4E5660"/>
</svg>
