<svg width="24" height="24" viewBox="0 0 24 24" fill="none" xmlns="http://www.w3.org/2000/svg">
<g clip-path="url(#clip0_183_1110)">
<path d="M21.5203 6.77341C22.9234 5.14288 23.2538 2.92944 22.1274 1.10198C21.6858 0.38567 20.6347 0.410778 20.2064 1.13546C19.4098 2.48193 18.5699 3.34348 17.1811 4.06521C16.5157 3.74013 15.7866 3.59899 15.0459 3.59899H8.95408C8.1782 3.59899 7.46779 3.76293 6.83714 4.07752L6.83517 4.07358C5.43651 3.35037 4.59318 2.48735 3.79367 1.13546C3.36536 0.410778 2.31427 0.38567 1.87267 1.10198C0.746257 2.92944 1.0766 5.14288 2.47969 6.77341C0.81715 8.23115 -0.139904 10.2398 0.0166514 12.499C0.0722826 13.2961 0.827489 13.8553 1.60682 13.6781C2.34873 13.5097 3.10246 13.2936 3.86308 13.0243C4.12007 15.0078 4.72167 17.2473 5.72845 19.6858C5.73352 19.6858 5.70285 19.8234 5.70285 20.0998C5.70285 21.9342 7.19013 23.4214 9.02448 23.4214H14.9755C16.8104 23.4214 18.2972 21.9343 18.2972 20.0998C18.2972 19.82 18.2666 19.6858 18.2716 19.6858C19.1456 17.569 19.83 15.2752 20.1187 13.0213C20.2072 13.0336 21.0107 13.3643 22.3932 13.6781C23.1725 13.8553 23.9277 13.2961 23.9834 12.499C24.1399 10.2398 23.1829 8.23115 21.5203 6.77341V6.77341Z" fill="#CBE3FA"/>
<path d="M21.52 6.77344C23.1825 8.23117 24.1396 10.2398 23.983 12.499C23.9274 13.2961 23.1722 13.8553 22.3928 13.6781C21.6509 13.5097 20.8967 13.2936 20.1361 13.0238L20.1184 13.0214C20.3581 11.1471 20.303 9.46491 19.9746 8.05837C19.9891 8.05547 20.8233 7.5825 21.52 6.77344V6.77344Z" fill="#585966"/>
<path d="M22.1279 1.10198C23.5964 3.48443 22.5879 6.50934 19.978 8.05786C19.9204 8.06928 19.5587 5.22529 17.1816 4.06521C18.5705 3.34348 19.4103 2.48193 20.2069 1.13546C20.6352 0.410778 21.6863 0.38567 22.1279 1.10198V1.10198Z" fill="#C79A83"/>
<path d="M19.9758 8.05897C20.3042 9.4655 20.3593 11.1477 20.1196 13.022C19.9545 14.3107 19.6738 15.432 19.6671 15.4304C16.8221 15.6814 16.602 14.2715 16.4002 13.9318C15.4475 12.3258 13.6654 12.6429 12.4208 11.5711C10.7036 10.0917 10.5067 6.10301 12.8831 3.59961H15.0468C17.7203 3.59956 19.3563 5.40418 19.9758 8.05897V8.05897Z" fill="#585966"/>
<path d="M18.272 19.6856C18.5221 21.6583 16.983 23.4213 14.9764 23.4213H9.02535C7.01844 23.4213 5.47972 21.6576 5.72982 19.6856C5.91532 18.1907 7.09781 16.99 8.62264 16.8016C10.8656 16.5245 13.1347 16.5245 15.3786 16.8016C16.9063 16.9902 18.0864 18.1929 18.272 19.6856V19.6856Z" fill="#FFA4B8"/>
<path d="M6.83513 4.07358L6.8371 4.07752C5.48029 4.75395 4.4937 6.12652 4.02403 8.05835C4.00321 8.05151 3.17243 7.5779 2.47965 6.77341C1.07656 5.14288 0.746221 2.92944 1.87263 1.10198C2.31423 0.38567 3.36532 0.410778 3.79363 1.13546C4.59314 2.48735 5.43647 3.35037 6.83513 4.07358Z" fill="#C79A83"/>
<path d="M20.94 12.7919C20.9118 13.0424 20.6609 13.2039 20.4221 13.1231C20.0925 13.0117 20.1543 13.0267 20.1184 13.0217C20.3581 11.1475 20.303 9.46525 19.9746 8.05872C19.9851 8.05665 20.1606 7.94559 20.2066 7.91565C20.4384 7.76471 20.7495 7.89837 20.8047 8.16944C21.1114 9.67266 21.1112 11.2739 20.94 12.7919V12.7919Z" fill="#42434D"/>
<path d="M8.66533 10.9659C8.44783 10.9659 8.27148 10.7896 8.27148 10.5721V9.63994C8.27148 9.42244 8.44783 9.24609 8.66533 9.24609C8.88284 9.24609 9.05918 9.42244 9.05918 9.63994V10.5721C9.05918 10.7896 8.88284 10.9659 8.66533 10.9659Z" fill="#42434D"/>
<path d="M15.3353 10.9659C15.1178 10.9659 14.9414 10.7896 14.9414 10.5721V9.63994C14.9414 9.42244 15.1178 9.24609 15.3353 9.24609C15.5528 9.24609 15.7291 9.42244 15.7291 9.63994V10.5721C15.7291 10.7896 15.5528 10.9659 15.3353 10.9659Z" fill="#42434D"/>
<path d="M10.1783 21.1077C10.6134 21.1077 10.966 20.6449 10.966 20.0739C10.966 19.5029 10.6134 19.04 10.1783 19.04C9.74329 19.04 9.39062 19.5029 9.39062 20.0739C9.39062 20.6449 9.74329 21.1077 10.1783 21.1077Z" fill="#FF8CA5"/>
<path d="M13.8209 21.1077C14.2559 21.1077 14.6086 20.6449 14.6086 20.0739C14.6086 19.5029 14.2559 19.04 13.8209 19.04C13.3859 19.04 13.0332 19.5029 13.0332 20.0739C13.0332 20.6449 13.3859 21.1077 13.8209 21.1077Z" fill="#FF8CA5"/>
<path d="M4.30106 6.59473C4.38879 6.70535 4.41173 6.85334 4.36028 6.98484C4.22888 7.32045 4.11649 7.67856 4.02403 8.05837C4.00301 8.05143 3.17243 7.57793 2.47965 6.77344C1.07656 5.1429 0.746221 2.92947 1.87263 1.10201C2.25476 0.482138 3.09327 0.417448 3.58971 0.880861C3.72141 1.00379 3.75247 1.19865 3.66873 1.35816C2.77381 3.06239 3.08972 5.06664 4.30106 6.59473V6.59473Z" fill="#E0B7A3"/>
<path d="M22.3468 1.49844C22.4675 1.74475 22.3046 2.03073 22.0323 2.06342C21.7009 2.1032 21.3836 2.28747 21.1915 2.61245C20.5609 3.67874 19.9026 4.44109 18.9663 5.07041C18.806 5.17818 18.5916 5.15238 18.4591 5.01178C18.0877 4.61763 17.661 4.29915 17.1816 4.06521C18.5705 3.34348 19.4103 2.48193 20.2069 1.13546C20.6352 0.410778 21.6863 0.38567 22.1279 1.10198C22.2082 1.23225 22.2812 1.36453 22.3468 1.49844V1.49844Z" fill="#E0B7A3"/>
<path d="M12.8822 3.59961C12.3828 4.12579 11.9972 4.71745 11.7154 5.33747C11.6519 5.47729 11.514 5.56777 11.3605 5.56915C8.76755 5.59204 7.11531 7.43851 6.48569 10.0283C5.91677 12.3645 6.20438 15.0459 6.77507 17.3828C6.80741 17.5151 6.77153 17.6561 6.67523 17.7525C6.14028 18.2877 5.81762 18.972 5.72901 19.6864C5.72403 19.6864 2.77789 13.1769 4.02413 8.05902C4.65237 5.47497 6.30855 3.59966 8.95414 3.59966H12.8822V3.59961Z" fill="#EEF7FF"/>
<path d="M17.2038 4.07715C17.9633 4.45328 17.6659 5.60371 16.8188 5.57343C14.7829 5.50072 12.227 5.56881 12.2303 5.56886C11.935 5.56886 11.746 5.25466 11.8838 4.99349C12.1448 4.49887 12.4757 4.02758 12.8819 3.59961H15.0456C15.8017 3.59961 16.5318 3.74435 17.2038 4.07715V4.07715Z" fill="#6E6F80"/>
<path d="M15.4035 16.8057C15.9287 16.8744 15.8527 17.6601 15.3239 17.63C13.7626 17.5411 11.7521 17.5828 10.099 17.7871C8.06474 18.0383 6.76026 20.0391 7.30215 21.9798C7.41833 22.396 6.89796 22.6927 6.60297 22.377C5.49098 21.1872 5.34211 19.2488 6.53764 17.8988C7.05949 17.31 7.78909 16.9053 8.62209 16.8024C10.9514 16.5146 13.3391 16.5355 15.4035 16.8057Z" fill="#FFBFCB"/>
<path d="M1.45632 12.4496C1.46159 13.3732 0.0825227 13.4429 0.0166514 12.499C-0.139904 10.2398 0.81715 8.23117 2.47969 6.77344C2.68552 7.01221 2.91405 7.23852 3.16439 7.44913C3.33493 7.59259 3.35521 7.84554 3.20915 8.01387C1.92549 9.49302 1.44948 11.2509 1.45632 12.4496V12.4496Z" fill="#EEF7FF"/>
</g>
<defs>
<clipPath id="clip0_183_1110">
<rect width="24" height="24" fill="white"/>
</clipPath>
</defs>
</svg>
