<svg width="24" height="24" viewBox="0 0 24 24" fill="none" xmlns="http://www.w3.org/2000/svg">
<g clip-path="url(#clip0_236_1140)">
<path d="M17.9081 19.5759V1.98309C17.9081 0.887859 17.0202 0 15.925 0H2.94989C1.85466 0 0.966797 0.887859 0.966797 1.98309V19.5759C0.966797 20.6711 1.85466 21.559 2.94989 21.559H15.925C17.0202 21.559 17.9081 20.6711 17.9081 19.5759Z" fill="#FBF1CF"/>
<path d="M15.9246 21.5595C17.0199 21.5595 17.9077 20.6716 17.9077 19.5764V14.2832L12.4548 19.7362C11.9861 20.2049 11.6401 20.789 11.4543 21.4252L11.415 21.5595H15.9246Z" fill="#FAE0BD"/>
<path d="M22.6685 16.108L15.7477 23.0288C15.4497 23.3268 15.0815 23.5449 14.6769 23.6631L13.6487 23.9635C12.9738 24.1606 12.3475 23.5344 12.5447 22.8595L12.845 21.8313C12.9632 21.4268 13.1814 21.0585 13.4794 20.7604L20.4002 13.8397C20.8856 13.3542 21.6726 13.3542 22.1581 13.8397L22.6685 14.3501C23.1539 14.8355 23.1539 15.6226 22.6685 16.108Z" fill="#B0ADE2"/>
<path d="M16.3971 17.8428L13.4794 20.7605C13.1814 21.0585 12.9632 21.4268 12.845 21.8314L12.5447 22.8596C12.3475 23.5344 12.9738 24.1607 13.6487 23.9636L14.6769 23.6632C15.0814 23.545 15.4497 23.3269 15.7477 23.0288L17.293 21.4836C16.331 20.6029 16.1895 19.0739 16.3971 17.8428V17.8428Z" fill="#A09CDC"/>
<path d="M15.1627 23.462L13.0454 21.3447C12.9624 21.4989 12.8945 21.6613 12.845 21.8305L12.5447 22.8587C12.3475 23.5336 12.9738 24.1599 13.6487 23.9627L14.6769 23.6624C14.8462 23.613 15.0087 23.545 15.1627 23.462V23.462Z" fill="#59636F"/>
<path d="M21.5311 17.246L22.669 16.108C23.1544 15.6226 23.1544 14.8356 22.669 14.3501L22.1585 13.8397C21.6731 13.3542 20.8861 13.3542 20.4006 13.8397L19.2627 14.9776L21.5311 17.246Z" fill="#E7889D"/>
<path d="M21.5342 17.2451L20.1531 18.6262L17.8851 16.3581L19.2661 14.9771L21.5342 17.2451Z" fill="#59636F"/>
<path d="M16.3545 20.5045C16.2645 20.5045 16.1745 20.4702 16.1059 20.4015C15.9686 20.2642 15.9686 20.0416 16.1059 19.9044L17.2384 18.7719C17.3757 18.6346 17.5983 18.6346 17.7355 18.7719C17.8728 18.9092 17.8728 19.1318 17.7355 19.2691L16.6031 20.4016C16.5344 20.4702 16.4445 20.5045 16.3545 20.5045Z" fill="#F6EE86"/>
<path d="M4.99716 18.4777C4.12801 18.4777 3.4209 17.7706 3.4209 16.9015C3.4209 16.0323 4.12801 15.3252 4.99716 15.3252C5.86632 15.3252 6.57343 16.0323 6.57343 16.9015C6.57343 17.7706 5.86627 18.4777 4.99716 18.4777V18.4777ZM4.99716 16.0283C4.51571 16.0283 4.12402 16.42 4.12402 16.9015C4.12402 17.3829 4.51571 17.7746 4.99716 17.7746C5.47862 17.7746 5.8703 17.3829 5.8703 16.9015C5.8703 16.42 5.47857 16.0283 4.99716 16.0283Z" fill="#59636F"/>
<path d="M14.7634 17.2529H8.87891C8.68475 17.2529 8.52734 17.0955 8.52734 16.9014C8.52734 16.7072 8.68475 16.5498 8.87891 16.5498H14.7635C14.9576 16.5498 15.115 16.7072 15.115 16.9014C15.115 17.0955 14.9576 17.2529 14.7634 17.2529V17.2529Z" fill="#59636F"/>
<path d="M4.99716 13.9006C4.12801 13.9006 3.4209 13.1935 3.4209 12.3243C3.4209 11.4552 4.12801 10.748 4.99716 10.748C5.86632 10.748 6.57343 11.4552 6.57343 12.3243C6.57338 13.1935 5.86627 13.9006 4.99716 13.9006V13.9006ZM4.99716 11.4512C4.51571 11.4512 4.12402 11.8429 4.12402 12.3243C4.12402 12.8058 4.51571 13.1975 4.99716 13.1975C5.47862 13.1975 5.8703 12.8058 5.8703 12.3243C5.8703 11.8429 5.47857 11.4512 4.99716 11.4512V11.4512Z" fill="#59636F"/>
<path d="M14.7634 12.6758H8.87891C8.68475 12.6758 8.52734 12.5184 8.52734 12.3242C8.52734 12.1301 8.68475 11.9727 8.87891 11.9727H14.7635C14.9576 11.9727 15.115 12.1301 15.115 12.3242C15.115 12.5184 14.9576 12.6758 14.7634 12.6758V12.6758Z" fill="#59636F"/>
<path d="M14.7634 8.09766H8.87891C8.68475 8.09766 8.52734 7.94025 8.52734 7.74609C8.52734 7.55194 8.68475 7.39453 8.87891 7.39453H14.7635C14.9576 7.39453 15.115 7.55194 15.115 7.74609C15.115 7.94025 14.9576 8.09766 14.7634 8.09766V8.09766Z" fill="#59636F"/>
<path d="M4.35672 8.85038C4.26677 8.85038 4.17677 8.81607 4.10814 8.74739L3.25727 7.89652C3.11997 7.75922 3.11997 7.53661 3.25727 7.39932C3.39457 7.26202 3.61718 7.26202 3.75443 7.39932L4.35672 8.00161L6.23974 6.1186C6.37704 5.9813 6.59964 5.9813 6.73689 6.1186C6.87419 6.25589 6.87419 6.4785 6.73689 6.61575L4.6053 8.74739C4.53668 8.81607 4.44672 8.85038 4.35672 8.85038V8.85038Z" fill="#E7889D"/>
<path d="M13.1156 4.44015H5.75921C5.22826 4.44015 4.79785 4.00974 4.79785 3.47879V2.64202C4.79785 2.11107 5.22826 1.68066 5.75921 1.68066H13.1156C13.6465 1.68066 14.0769 2.11107 14.0769 2.64202V3.47879C14.0769 4.0097 13.6465 4.44015 13.1156 4.44015Z" fill="#A2DDFD"/>
<path d="M6.36361 2C6.1628 2 6 2.1628 6 2.36366V2.94547C6 3.14628 6.1628 3.30912 6.36361 3.30912C6.56442 3.30912 6.72727 3.14633 6.72727 2.94547V2.36366C6.72722 2.1628 6.56442 2 6.36361 2Z" fill="#423E4F"/>
<path d="M12.4193 2C12.2185 2 12.0557 2.1628 12.0557 2.36366V2.94547C12.0557 3.14628 12.2185 3.30912 12.4193 3.30912C12.6201 3.30912 12.783 3.14633 12.783 2.94547V2.36366C12.783 2.1628 12.6201 2 12.4193 2Z" fill="#423E4F"/>
<path d="M10.8019 2.92871C10.6011 2.92871 10.4383 3.09151 10.4383 3.29237C10.4383 3.47846 10.2869 3.62982 10.1008 3.62982C9.915 3.62982 9.76383 3.47846 9.76383 3.29237C9.76383 3.09155 9.60103 2.92871 9.40017 2.92871C9.19936 2.92871 9.03652 3.09151 9.03652 3.29237C9.03652 3.47846 8.88516 3.62982 8.69906 3.62982C8.51325 3.62982 8.36208 3.47846 8.36208 3.29237C8.36208 3.09155 8.19928 2.92871 7.99842 2.92871C7.79761 2.92871 7.63477 3.09151 7.63477 3.29237C7.63477 3.87948 8.11219 4.35709 8.69902 4.35709C8.96733 4.35709 9.21258 4.2571 9.40003 4.09276C9.58739 4.25715 9.83255 4.35709 10.1007 4.35709C10.6878 4.35709 11.1654 3.87948 11.1654 3.29237C11.1655 3.09151 11.0027 2.92871 10.8019 2.92871Z" fill="#423E4F"/>
</g>
<defs>
<clipPath id="clip0_236_1140">
<rect width="24" height="24" fill="white"/>
</clipPath>
</defs>
</svg>
