<svg width="24" height="24" viewBox="0 0 24 24" fill="none" xmlns="http://www.w3.org/2000/svg">
<path d="M14.2971 23.2887H21.7469C22.9909 23.2887 23.9994 22.2803 23.9994 21.0362V8.57904L10.9975 6.83496L7.48828 10.2338L10.7706 22.3827L14.2971 23.2887Z" fill="#F9F29D"/>
<path d="M11.1686 8.57903H23.9993C22.9476 3.57028 18.7123 1.32538 17.5032 0.778549C17.3036 0.688296 17.0747 0.690034 16.8759 0.781881L15.1732 1.56852L12.322 3.60239L10.7539 7.4293L11.1686 8.57903Z" fill="#FEE45A"/>
<path d="M15.1739 1.56836L11.2129 3.3984C11.0907 3.45489 11.037 3.60097 11.0966 3.72174C11.2422 4.01694 11.3177 4.35284 11.3008 4.70796C11.2516 5.7446 10.4033 6.58368 9.36613 6.62203C8.50595 6.65385 7.76084 6.1456 7.44208 5.40971C7.38848 5.28599 7.24095 5.23345 7.11858 5.29L0 8.57882H11.1693C11.9013 5.86156 13.3048 3.45132 15.1739 1.56836V1.56836Z" fill="#FED402"/>
<path d="M10.5998 12.9096C10.5998 11.4066 10.799 9.95377 11.1693 8.5791H0V10.3451C0 10.4555 0.0748491 10.5525 0.182149 10.5788C1.06199 10.7943 1.71487 11.5879 1.71487 12.5342C1.71487 13.4805 1.06199 14.2742 0.182149 14.4896C0.0748491 14.5159 0 14.6129 0 14.7233V16.4187C0 16.5414 0.0920885 16.6439 0.213875 16.6582C1.454 16.8046 2.41608 17.8587 2.41608 19.1381C2.41608 20.4176 1.454 21.4717 0.213875 21.6181C0.0920885 21.6324 0 21.735 0 21.8576V22.6114C0 22.9855 0.30326 23.2887 0.677312 23.2887H14.2978C11.9989 20.537 10.5998 16.8991 10.5998 12.9096V12.9096Z" fill="#F5EA72"/>
<path d="M17.6784 6.83442C18.4102 6.83442 19.0034 6.24123 19.0034 5.5095C19.0034 4.77776 18.4102 4.18457 17.6784 4.18457C16.9467 4.18457 16.3535 4.77776 16.3535 5.5095C16.3535 6.24123 16.9467 6.83442 17.6784 6.83442Z" fill="#FED402"/>
<path d="M6.48304 18.195C7.2228 17.8883 7.57391 17.0401 7.26728 16.3003C6.96065 15.5606 6.11239 15.2095 5.37264 15.5161C4.63289 15.8227 4.28177 16.671 4.5884 17.4107C4.89503 18.1505 5.74329 18.5016 6.48304 18.195Z" fill="#FED402"/>
<path d="M20.4516 17.3826C21.2522 17.3826 21.9012 16.7336 21.9012 15.933C21.9012 15.1324 21.2522 14.4834 20.4516 14.4834C19.651 14.4834 19.002 15.1324 19.002 15.933C19.002 16.7336 19.651 17.3826 20.4516 17.3826Z" fill="#FED402"/>
<path d="M14.9949 19.3097C15.2785 18.11 14.5358 16.9075 13.3361 16.6239C12.1363 16.3403 10.9338 17.083 10.6502 18.2827C10.3666 19.4825 11.1093 20.685 12.3091 20.9686C13.5088 21.2522 14.7113 20.5095 14.9949 19.3097Z" fill="#FED402"/>
<path d="M7.73288 14.2511C8.60255 14.2511 9.30756 13.6897 9.30756 12.9972C9.30756 12.3046 8.60255 11.7432 7.73288 11.7432C6.86321 11.7432 6.1582 12.3046 6.1582 12.9972C6.1582 13.6897 6.86321 14.2511 7.73288 14.2511Z" fill="#E89FA9"/>
<path d="M16.268 14.2511C17.1377 14.2511 17.8427 13.6897 17.8427 12.9972C17.8427 12.3046 17.1377 11.7432 16.268 11.7432C15.3984 11.7432 14.6934 12.3046 14.6934 12.9972C14.6934 13.6897 15.3984 14.2511 16.268 14.2511Z" fill="#E89FA9"/>
<path d="M8.64928 12.1522C8.44927 12.1522 8.28711 11.9901 8.28711 11.7901V11.1464C8.28711 10.9463 8.44927 10.7842 8.64928 10.7842C8.8493 10.7842 9.01146 10.9463 9.01146 11.1464V11.7901C9.01146 11.9901 8.8493 12.1522 8.64928 12.1522Z" fill="#495560"/>
<path d="M15.3505 12.1522C15.1504 12.1522 14.9883 11.9901 14.9883 11.7901V11.1464C14.9883 10.9463 15.1504 10.7842 15.3505 10.7842C15.5505 10.7842 15.7126 10.9463 15.7126 11.1464V11.7901C15.7126 11.9901 15.5505 12.1522 15.3505 12.1522Z" fill="#495560"/>
<path d="M11.9993 12.5358C11.5561 12.5358 11.1347 12.3439 10.843 12.0093C10.7116 11.8585 10.7273 11.6297 10.8781 11.4983C11.029 11.3669 11.2577 11.3826 11.3891 11.5334C11.5431 11.7101 11.7655 11.8115 11.9992 11.8115C12.233 11.8115 12.4554 11.7101 12.6094 11.5334C12.7408 11.3826 12.9696 11.3669 13.1203 11.4983C13.2711 11.6297 13.2868 11.8585 13.1554 12.0093C12.8639 12.3439 12.4425 12.5358 11.9993 12.5358Z" fill="#495560"/>
</svg>
