<svg width="24" height="24" viewBox="0 0 24 24" fill="none" xmlns="http://www.w3.org/2000/svg">
<path d="M23.9998 5.88599C23.9998 2.63527 21.4129 0 18.2218 0C17.545 0 16.9523 0 16.2734 0V1.84037C16.2734 5.09114 18.8604 7.72636 22.0514 7.72636H22.1931C23.1909 7.72636 23.9998 6.90239 23.9998 5.88599V5.88599Z" fill="#00CE8E"/>
<path d="M20.1145 3.56093L17.0667 0.684169C17.0458 0.302825 16.7301 0 16.3435 0C15.8055 0 14.4826 0.000193159 14.2456 0.000386318C14.0107 0.000627767 13.7764 0.0241932 13.5461 0.0706962C13.3632 0.107638 13.1834 0.158245 13.0089 0.224016C11.8657 0.654616 9.73344 1.76272 8.11684 3.99443C6.75565 5.87353 6.03613 8.10017 6.03613 10.4337V11.1581H7.48482V10.4337C7.48482 6.99284 9.29289 3.91412 12.1421 2.2533C12.5909 1.99171 13.1579 2.27353 13.2245 2.78873C13.6059 5.73619 14.7963 8.5526 16.671 10.8828L17.1317 11.4524L18.2782 10.5582L17.7986 9.97328C15.8488 7.54981 14.7128 4.54706 14.5589 1.44869H16.3231C16.4628 1.44869 16.5952 1.40967 16.7088 1.34245L19.6173 4.08773C19.6873 4.15379 19.7766 4.18653 19.8658 4.18653C19.962 4.18653 20.058 4.14843 20.1293 4.07295C20.2665 3.92745 20.2599 3.69822 20.1145 3.56093V3.56093Z" fill="#00B27A"/>
<path d="M9.4165 11.021C8.60113 10.6723 7.70347 10.479 6.76056 10.479C3.0268 10.479 0 13.5058 0 17.2396C0 20.9733 3.0268 24.0001 6.76056 24.0001C7.70347 24.0001 8.60113 23.8069 9.4165 23.4582C11.8299 22.4261 13.5211 20.0304 13.5211 17.2396C13.5211 14.4487 11.8299 12.0531 9.4165 11.021Z" fill="#FF7B94"/>
<path d="M5.31187 17.2396C5.31187 14.4487 7.00312 12.0531 9.4165 11.021C8.60113 10.6723 7.70347 10.479 6.76056 10.479C3.0268 10.479 0 13.5058 0 17.2396C0 20.9733 3.0268 24.0001 6.76056 24.0001C7.70347 24.0001 8.60113 23.8069 9.4165 23.4582C7.00312 22.4261 5.31187 20.0304 5.31187 17.2396Z" fill="#EA5B70"/>
<path d="M2.3609 18.2406C3.14379 18.2406 3.77845 17.7352 3.77845 17.1118C3.77845 16.4883 3.14379 15.9829 2.3609 15.9829C1.57802 15.9829 0.943359 16.4883 0.943359 17.1118C0.943359 17.7352 1.57802 18.2406 2.3609 18.2406Z" fill="#FF8E9E"/>
<path d="M10.0445 18.2406C10.8274 18.2406 11.462 17.7352 11.462 17.1118C11.462 16.4883 10.8274 15.9829 10.0445 15.9829C9.26161 15.9829 8.62695 16.4883 8.62695 17.1118C8.62695 17.7352 9.26161 18.2406 10.0445 18.2406Z" fill="#FFB5C0"/>
<path d="M19.895 11.021C19.0796 10.6723 18.182 10.479 17.2391 10.479C13.5053 10.479 10.4785 13.5058 10.4785 17.2396C10.4785 20.9733 13.5053 24.0001 17.2391 24.0001C18.182 24.0001 19.0796 23.8069 19.895 23.4582C22.3084 22.4261 23.9996 20.0304 23.9996 17.2396C23.9996 14.4487 22.3084 12.0531 19.895 11.021Z" fill="#FF7B94"/>
<path d="M15.7904 17.2396C15.7904 14.4487 17.4816 12.0531 19.895 11.021C19.0796 10.6723 18.182 10.479 17.2391 10.479C13.5053 10.479 10.4785 13.5058 10.4785 17.2396C10.4785 20.9733 13.5053 24.0001 17.2391 24.0001C18.182 24.0001 19.0796 23.8069 19.895 23.4582C17.4816 22.4261 15.7904 20.0304 15.7904 17.2396Z" fill="#EA5B70"/>
<path d="M13.4673 18.2406C14.2502 18.2406 14.8849 17.7352 14.8849 17.1118C14.8849 16.4883 14.2502 15.9829 13.4673 15.9829C12.6845 15.9829 12.0498 16.4883 12.0498 17.1118C12.0498 17.7352 12.6845 18.2406 13.4673 18.2406Z" fill="#FF8E9E"/>
<path d="M21.1509 18.2406C21.9338 18.2406 22.5685 17.7352 22.5685 17.1118C22.5685 16.4883 21.9338 15.9829 21.1509 15.9829C20.3681 15.9829 19.7334 16.4883 19.7334 17.1118C19.7334 17.7352 20.3681 18.2406 21.1509 18.2406Z" fill="#FFB5C0"/>
<path d="M3.18737 15.0835C2.98735 15.0835 2.8252 15.2456 2.8252 15.4457V16.0251C2.8252 16.2252 2.98735 16.3873 3.18737 16.3873C3.38738 16.3873 3.54954 16.2252 3.54954 16.0251V15.4457C3.54954 15.2457 3.38743 15.0835 3.18737 15.0835Z" fill="#313D40"/>
<path d="M9.21862 15.0835C9.0186 15.0835 8.85645 15.2456 8.85645 15.4457V16.0251C8.85645 16.2252 9.0186 16.3873 9.21862 16.3873C9.41863 16.3873 9.58079 16.2252 9.58079 16.0251V15.4457C9.58079 15.2457 9.41863 15.0835 9.21862 15.0835Z" fill="#313D40"/>
<path d="M7.23616 15.7346C7.08535 15.6032 6.85656 15.6189 6.72516 15.7697C6.59338 15.921 6.40312 16.0078 6.20315 16.0078C6.00318 16.0078 5.81292 15.921 5.68114 15.7697C5.54969 15.6189 5.32094 15.6033 5.17013 15.7346C5.01933 15.8661 5.00363 16.0948 5.13503 16.2456C5.40444 16.5547 5.79375 16.7321 6.20315 16.7321C6.61255 16.7321 7.00186 16.5547 7.27127 16.2456C7.40267 16.0948 7.38697 15.866 7.23616 15.7346Z" fill="#313D40"/>
<path d="M14.2938 15.0835C14.0938 15.0835 13.9316 15.2456 13.9316 15.4457V16.0251C13.9316 16.2252 14.0938 16.3873 14.2938 16.3873C14.4938 16.3873 14.656 16.2252 14.656 16.0251V15.4457C14.656 15.2457 14.4938 15.0835 14.2938 15.0835Z" fill="#313D40"/>
<path d="M20.3251 15.0835C20.125 15.0835 19.9629 15.2456 19.9629 15.4457V16.0251C19.9629 16.2252 20.125 16.3873 20.3251 16.3873C20.5251 16.3873 20.6872 16.2252 20.6872 16.0251V15.4457C20.6872 15.2457 20.5251 15.0835 20.3251 15.0835Z" fill="#313D40"/>
<path d="M18.3426 15.7347C18.1918 15.6032 17.963 15.619 17.8316 15.7698C17.6998 15.9211 17.5096 16.0078 17.3096 16.0078C17.1096 16.0078 16.9194 15.9211 16.7876 15.7698C16.6562 15.619 16.4274 15.6033 16.2766 15.7347C16.1258 15.866 16.1101 16.0948 16.2415 16.2456C16.5109 16.5548 16.9002 16.7321 17.3096 16.7321C17.719 16.7321 18.1083 16.5548 18.3777 16.2456C18.5091 16.0948 18.4934 15.866 18.3426 15.7347Z" fill="#313D40"/>
</svg>
