<svg width="32" height="32" viewBox="0 0 32 32" fill="none" xmlns="http://www.w3.org/2000/svg">
<g clip-path="url(#clip0_127_1664)">
<path d="M16.0317 23.6817C17.4908 22.2227 19.467 21.4081 21.5215 21.4081C21.8462 21.4081 21.8695 21.4223 22.1976 21.4223C24.2508 21.4223 26.2258 20.6078 27.6848 19.1487L30.6101 16.2235L20.2876 5.90103C13.82 4.62209 6.5617 19.4141 13.4301 24.6358C14.3615 24.7117 15.3189 24.3942 16.0317 23.6817Z" fill="#E28F6D"/>
<path d="M9.84287 19.4141L7.42006 21.8369C5.51012 23.7468 8.25306 26.4897 10.163 24.5798L12.5858 22.157L9.84287 19.4141Z" fill="#EAC89C"/>
<path d="M5.54508 23.7116C5.45271 23.804 5.30196 23.8035 5.21015 23.7106L5.20846 23.7089C4.01702 22.5174 2.0854 22.5174 0.893334 23.7089C-0.298104 24.9009 -0.298104 26.8325 0.893334 28.024C1.37321 28.5039 1.97352 28.7902 2.5969 28.8832C2.86421 28.9232 3.07646 29.1354 3.1164 29.4027C3.20952 30.0262 3.49583 30.6264 3.97565 31.1063C5.16708 32.2977 7.09871 32.2977 8.29077 31.1063C9.48221 29.9142 9.48221 27.9826 8.29077 26.7912L8.28902 26.7895C8.19608 26.6977 8.19558 26.5469 8.28802 26.4545L10.1627 24.5799L7.41977 21.8369L5.54508 23.7116Z" fill="#F3DCB4"/>
<path d="M16.6095 10.1819C17.6875 8.54658 18.9339 7.11289 20.2876 5.90108L15.7764 1.38989L12.8511 4.31514C11.3119 5.85439 10.4896 7.96764 10.5846 10.1417C10.6819 12.2575 9.88811 14.3983 8.31811 15.9683C7.03029 17.2573 7.03042 19.3448 8.31811 20.6325C8.93473 21.2491 10.7434 23.0577 11.3675 23.6818C11.9428 24.2571 12.6779 24.5746 13.4301 24.6359C12.4895 20.2082 13.5094 14.8845 16.6095 10.1819Z" fill="#D77953"/>
<path d="M30.6101 16.2237C33.2315 13.6023 32.0362 8.15648 27.9402 4.05986C27.3022 3.42192 26.6314 2.85436 25.9436 2.36061C19.505 4.52995e-05 14.3874 5.18161 16.2274 10.7838C16.8288 11.7416 17.5711 12.6785 18.4464 13.5538C22.5423 17.6497 27.9887 18.845 30.6101 16.2237Z" fill="#D77953"/>
<path d="M25.9436 2.36052C22.2157 -0.31585 17.9895 -0.823225 15.7764 1.3899C13.7152 3.45115 14.0143 7.25909 16.2274 10.7837C16.3514 10.5821 16.478 10.3813 16.6095 10.1819C19.0805 6.43346 22.4353 3.74377 25.9436 2.36052Z" fill="#CB6848"/>
<path d="M26.8891 15.0276C27.7249 15.0276 28.3617 14.815 28.7812 14.3954C30.1589 13.0178 29.3101 9.08734 26.1114 5.88865C25.2229 5.00021 24.2397 4.25859 23.244 3.70459C19.4967 2.5859 16.9784 4.82952 17.8759 8.44677C18.4239 9.5409 19.2219 10.6728 20.2744 11.7256C22.3121 13.7625 24.8462 15.0276 26.8891 15.0276Z" fill="#E28F6D"/>
<path d="M23.244 3.70462C21.9568 2.98844 20.6486 2.58594 19.4967 2.58594C18.6608 2.58594 18.0247 2.79862 17.6045 3.21881C16.6803 4.14306 16.7586 6.21631 17.8758 8.44681C19.4569 6.48381 21.293 4.88713 23.244 3.70462Z" fill="#D77953"/>
<path d="M19.9165 6.37347C19.7272 6.18403 19.7274 5.87703 19.9169 5.68778L20.4658 5.13959C20.6552 4.95034 20.9622 4.95059 21.1515 5.14003C21.3407 5.32947 21.3405 5.63647 21.151 5.82572L20.6022 6.3739C20.4128 6.56297 20.1059 6.56303 19.9165 6.37347Z" fill="white"/>
<path d="M25.6264 12.0835C25.437 11.8943 25.4368 11.5873 25.6261 11.3978L26.1743 10.849C26.3634 10.6596 26.6704 10.6593 26.8599 10.8486C27.0494 11.0379 27.0496 11.3448 26.8603 11.5343L26.3121 12.0831C26.123 12.2724 25.816 12.2728 25.6264 12.0835Z" fill="white"/>
<path d="M21.8944 8.08283C21.9128 7.81571 22.1439 7.61358 22.4115 7.63258C22.6786 7.65102 22.8802 7.88252 22.8618 8.14971C22.822 8.72608 23.3023 9.17608 23.8503 9.13821C24.1169 9.12002 24.3489 9.32133 24.3674 9.58846C24.3858 9.85558 24.1843 10.0871 23.9171 10.1056C22.7689 10.185 21.815 9.23158 21.8944 8.08283Z" fill="white"/>
</g>
<defs>
<clipPath id="clip0_127_1664">
<rect width="32" height="32" fill="white"/>
</clipPath>
</defs>
</svg>
