<svg width="24" height="24" viewBox="0 0 24 24" fill="none" xmlns="http://www.w3.org/2000/svg">
<path d="M1.72337 2.22273C1.31956 1.81892 1.39186 1.14658 1.87072 0.835462C3.88539 -0.4734 6.60784 -0.24439 8.37477 1.52254C10.1417 3.28947 10.3707 6.01192 9.0619 8.02654C8.75079 8.50541 8.07845 8.5777 7.67463 8.17389L6.29821 3.61872L2.23526 2.73462L1.72337 2.22273Z" fill="#BCE098"/>
<path d="M7.16397 7.66247L2.23633 2.73483C2.8213 2.14937 3.56495 1.81623 4.33029 1.73541C4.5762 1.70929 4.82409 1.70929 5.06951 1.73541C5.71953 1.80391 6.35427 2.05475 6.88898 2.48744C6.98409 2.56383 7.07575 2.64662 7.16397 2.73483C7.25218 2.82305 7.33448 2.91471 7.41136 3.00982C8.51674 4.3764 8.43444 6.392 7.16397 7.66247V7.66247Z" fill="#F9F29D"/>
<path d="M7.16962 2.74072C7.31051 2.88196 7.31037 3.11058 7.16927 3.25162L5.11217 5.30833L5.1105 5.31001C5.028 5.3927 4.89405 5.3928 4.81146 5.3102L4.39469 4.89343C4.35329 4.85203 4.33008 4.79595 4.33008 4.73741V2.08213C4.33008 1.87983 4.49409 1.71582 4.69639 1.71582H4.70299C4.90529 1.71582 5.0693 1.87983 5.0693 2.08213V4.0723C5.0693 4.1587 5.17377 4.20201 5.23488 4.1409L6.64379 2.7324C6.78596 2.59027 7.01872 2.59017 7.16104 2.73215L7.16375 2.73486L7.16962 2.74072Z" fill="#FFFDDE"/>
<path d="M11.5935 16.8802V19.6523C11.5935 20.3441 11.1164 20.9446 10.4425 21.101L9.12449 21.4069C8.09594 21.6456 7.39062 22.384 7.39062 23.2221C7.39062 23.6518 7.83667 24.0002 8.38685 24.0002H18.0396C18.5899 24.0002 19.0358 23.6518 19.0358 23.2221C19.0358 22.384 18.3305 21.6456 17.302 21.4069L15.984 21.101C15.31 20.9446 14.833 20.3441 14.833 19.6523V16.8802L13.1451 15.6523L11.5935 16.8802Z" fill="#95CBEC"/>
<path d="M11.5938 16.8799C12.1199 16.972 12.661 17.0204 13.2135 17.0204C13.766 17.0204 14.3072 16.972 14.8333 16.8799V12.5947H11.5938V16.8799H11.5938Z" fill="#6FB6E1"/>
<path d="M11.8965 4.55371H21.6201C22.127 4.55371 22.5379 4.96462 22.5379 5.47153C22.5379 9.62545 19.8218 13.145 16.0685 14.3509H12.3439L9.61328 5.37153L11.8965 4.55371Z" fill="#CEEAFB"/>
<path d="M11.3882 7.29976C11.3882 6.33183 11.5685 5.40608 11.8965 4.55371H4.80649C4.29958 4.55371 3.88867 4.96462 3.88867 5.47153C3.88867 10.6214 8.06344 14.7961 13.2133 14.7961C14.2092 14.7961 15.1684 14.6394 16.0683 14.3502C13.3185 13.1914 11.3882 10.4711 11.3882 7.29976Z" fill="#A7D4F1"/>
<path d="M11.4466 6.35254H19.8799C20.3183 6.35254 20.6423 6.76138 20.5424 7.1883C19.8143 10.2978 17.1528 12.6718 13.9004 12.9675L11.4467 12.386L9.97852 7.22906L11.4466 6.35254Z" fill="#E68A97"/>
<path d="M11.3893 7.30042C11.3893 6.9794 11.4094 6.66311 11.4478 6.35254H6.54789C6.10943 6.35254 5.78546 6.76138 5.8854 7.1883C6.66415 10.5141 9.65468 12.9986 13.2145 12.9986C13.4461 12.9986 13.6752 12.9879 13.9015 12.9673C12.3585 11.5681 11.3893 9.5475 11.3893 7.30042V7.30042Z" fill="#DE5C6E"/>
<path d="M9.93038 10.8702C10.5995 10.8702 11.142 10.4382 11.142 9.90531C11.142 9.37242 10.5995 8.94043 9.93038 8.94043C9.26122 8.94043 8.71875 9.37242 8.71875 9.90531C8.71875 10.4382 9.26122 10.8702 9.93038 10.8702Z" fill="white"/>
<path d="M16.4968 10.8702C17.166 10.8702 17.7084 10.4382 17.7084 9.90531C17.7084 9.37242 17.166 8.94043 16.4968 8.94043C15.8276 8.94043 15.2852 9.37242 15.2852 9.90531C15.2852 10.4382 15.8276 10.8702 16.4968 10.8702Z" fill="white"/>
<path d="M10.6372 9.34583C10.4331 9.34583 10.2676 9.18039 10.2676 8.97622V8.48094C10.2676 8.27677 10.4331 8.11133 10.6372 8.11133C10.8413 8.11133 11.0068 8.27677 11.0068 8.48094V8.97622C11.0068 9.18034 10.8413 9.34583 10.6372 9.34583Z" fill="#4F5C6F"/>
<path d="M15.7915 9.34583C15.5874 9.34583 15.4219 9.18039 15.4219 8.97622V8.48094C15.4219 8.27677 15.5874 8.11133 15.7915 8.11133C15.9956 8.11133 16.1611 8.27677 16.1611 8.48094V8.97622C16.1611 9.18034 15.9956 9.34583 15.7915 9.34583Z" fill="#4F5C6F"/>
<path d="M13.2152 9.64059C12.8479 9.64059 12.4987 9.48151 12.257 9.20425C12.1229 9.05035 12.1389 8.8169 12.2928 8.68276C12.4467 8.54866 12.6802 8.56468 12.8143 8.71858C12.9155 8.83474 13.0617 8.90142 13.2152 8.90142C13.3687 8.90142 13.5149 8.83474 13.6161 8.71858C13.7502 8.56473 13.9837 8.54866 14.1376 8.68276C14.2915 8.8169 14.3075 9.05035 14.1734 9.20425C13.9318 9.48156 13.5825 9.64059 13.2152 9.64059V9.64059Z" fill="#4F5C6F"/>
</svg>
