<svg width="24" height="24" viewBox="0 0 24 24" fill="none" xmlns="http://www.w3.org/2000/svg">
<path d="M23.8692 10.9579C24.2323 9.53244 23.8273 8.02072 22.8001 6.96781C22.579 6.74108 22.3851 6.49095 22.2211 6.22288C20.8657 6.94836 19.1049 6.07349 18.9688 4.43891C17.377 4.30639 16.5058 2.63291 17.1316 1.29359C17.098 1.26289 17.0648 1.23167 17.0322 1.1998C15.9792 0.172673 14.4675 -0.232374 13.0421 0.13072C12.3583 0.304907 11.6417 0.304907 10.9579 0.13072C9.53244 -0.232374 8.02077 0.172673 6.96781 1.19984C6.46269 1.69259 5.84216 2.05086 5.16289 2.24192C3.74684 2.64022 2.64022 3.74685 2.24192 5.16289C2.05086 5.8422 1.69259 6.46269 1.19984 6.96781C0.172672 8.02077 -0.232374 9.53244 0.130719 10.9579C0.304907 11.6417 0.304907 12.3583 0.130719 13.0421C-0.232374 14.4675 0.172672 15.9793 1.19984 17.0322C1.69259 17.5373 2.05086 18.1578 2.24192 18.8371C2.64022 20.2531 3.74684 21.3598 5.16289 21.758C5.8422 21.9491 6.46269 22.3074 6.96781 22.8001C8.02077 23.8273 9.53244 24.2323 10.9579 23.8693C11.6417 23.6951 12.3582 23.6951 13.0421 23.8693C14.4675 24.2323 15.9792 23.8273 17.0322 22.8001C17.5373 22.3074 18.1578 21.9491 18.8371 21.758C20.2531 21.3598 21.3597 20.2531 21.758 18.8371C21.9491 18.1578 22.3074 17.5373 22.8001 17.0322C23.8273 15.9792 24.2323 14.4675 23.8692 13.0421C23.6951 12.3583 23.6951 11.6418 23.8692 10.9579Z" fill="#F6B778"/>
<path d="M8.89939 22.7997C8.39427 22.307 7.77373 21.9487 7.09447 21.7576C5.67842 21.3593 4.5718 20.2527 4.1735 18.8367C3.98244 18.1574 3.62417 17.5369 3.13142 17.0317C2.10425 15.9788 1.6992 14.4671 2.0623 13.0416C2.23648 12.3579 2.23648 11.6413 2.0623 10.9575C1.6992 9.53202 2.10425 8.0203 3.13142 6.96739C3.62417 6.46227 3.98244 5.84169 4.1735 5.16247C4.5718 3.74647 5.67842 2.6398 7.09447 2.2415C7.77378 2.05044 8.39427 1.69217 8.89939 1.19942C9.45781 0.654594 10.1453 0.284891 10.8805 0.111876C9.47788 -0.217468 8.00174 0.190719 6.96781 1.19942C6.46269 1.69217 5.84216 2.05044 5.16289 2.2415C3.74684 2.6398 2.64022 3.74647 2.24192 5.16247C2.05086 5.84173 1.69259 6.46227 1.19984 6.96739C0.172672 8.0203 -0.232374 9.53197 0.130719 10.9574C0.304907 11.6412 0.304907 12.3578 0.130719 13.0416C-0.232374 14.4671 0.172672 15.9788 1.19984 17.0317C1.69259 17.5368 2.05086 18.1574 2.24192 18.8366C2.64022 20.2527 3.74684 21.3593 5.16289 21.7576C5.8422 21.9486 6.46269 22.3069 6.96781 22.7997C8.00174 23.8083 9.47797 24.2165 10.8805 23.8872C10.1453 23.7142 9.45781 23.3444 8.89939 22.7997Z" fill="#DDA46C"/>
<path d="M7.65903 12.4652C7.45897 12.4652 7.29688 12.303 7.29688 12.103V11.3172C7.29688 11.1172 7.45897 10.9551 7.65903 10.9551C7.85909 10.9551 8.02119 11.1172 8.02119 11.3172V12.103C8.02123 12.303 7.85905 12.4652 7.65903 12.4652Z" fill="#3B484A"/>
<path d="M16.3426 12.4652C16.1426 12.4652 15.9805 12.303 15.9805 12.103V11.3172C15.9805 11.1172 16.1426 10.9551 16.3426 10.9551C16.5427 10.9551 16.7048 11.1172 16.7048 11.3172V12.103C16.7048 12.303 16.5427 12.4652 16.3426 12.4652Z" fill="#3B484A"/>
<path d="M12.0011 13.0461C11.3834 13.0461 10.8041 12.7887 10.4117 12.3398C10.2801 12.1892 10.2955 11.9604 10.4461 11.8287C10.5967 11.6971 10.8255 11.7125 10.9571 11.8631C11.2119 12.1546 11.5924 12.3218 12.001 12.3218C12.4097 12.3218 12.7902 12.1546 13.045 11.8631C13.1766 11.7125 13.4054 11.6971 13.556 11.8288C13.7066 11.9604 13.722 12.1892 13.5903 12.3398C13.198 12.7887 12.6187 13.0461 12.0011 13.0461Z" fill="#3B484A"/>
<path d="M9.01989 5.65741C9.9251 5.65741 10.6589 5.09336 10.6589 4.39755C10.6589 3.70175 9.9251 3.1377 9.01989 3.1377C8.11468 3.1377 7.38086 3.70175 7.38086 4.39755C7.38086 5.09336 8.11468 5.65741 9.01989 5.65741Z" fill="#8B6C52"/>
<path d="M5.69567 17.3693C6.60088 17.3693 7.3347 16.8053 7.3347 16.1095C7.3347 15.4137 6.60088 14.8496 5.69567 14.8496C4.79046 14.8496 4.05664 15.4137 4.05664 16.1095C4.05664 16.8053 4.79046 17.3693 5.69567 17.3693Z" fill="#8B6C52"/>
<path d="M17.0648 19.3986C17.97 19.3986 18.7038 18.8346 18.7038 18.1388C18.7038 17.443 17.97 16.8789 17.0648 16.8789C16.1596 16.8789 15.4258 17.443 15.4258 18.1388C15.4258 18.8346 16.1596 19.3986 17.0648 19.3986Z" fill="#8B6C52"/>
<path d="M10.6828 20.2785C11.3155 20.2785 11.8285 19.8843 11.8285 19.398C11.8285 18.9118 11.3155 18.5176 10.6828 18.5176C10.05 18.5176 9.53711 18.9118 9.53711 19.398C9.53711 19.8843 10.05 20.2785 10.6828 20.2785Z" fill="#654D3B"/>
<path d="M15.3957 7.07438C16.0284 7.07438 16.5413 6.68019 16.5413 6.19393C16.5413 5.70767 16.0284 5.31348 15.3957 5.31348C14.7629 5.31348 14.25 5.70767 14.25 6.19393C14.25 6.68019 14.7629 7.07438 15.3957 7.07438Z" fill="#654D3B"/>
<path d="M4.05583 10.4133C4.68857 10.4133 5.2015 10.0191 5.2015 9.5328C5.2015 9.04654 4.68857 8.65234 4.05583 8.65234C3.42309 8.65234 2.91016 9.04654 2.91016 9.5328C2.91016 10.0191 3.42309 10.4133 4.05583 10.4133Z" fill="#654D3B"/>
<path d="M20.5383 13.5636C21.171 13.5636 21.6839 13.1694 21.6839 12.6832C21.6839 12.1969 21.171 11.8027 20.5383 11.8027C19.9055 11.8027 19.3926 12.1969 19.3926 12.6832C19.3926 13.1694 19.9055 13.5636 20.5383 13.5636Z" fill="#654D3B"/>
</svg>
