<svg width="24" height="24" viewBox="0 0 24 24" fill="none" xmlns="http://www.w3.org/2000/svg">
<g clip-path="url(#clip0_171_1213)">
<path d="M6.79167 18.1872L0.695284 17.1455C0.695284 17.1455 -0.195517 20.2003 3.29998 23.4498C4.11159 24.2043 5.37606 24.1786 6.15961 23.395C6.43973 23.1149 6.63386 22.7604 6.71697 22.373C6.88975 21.5678 7.0971 20.0517 6.79167 18.1872Z" fill="#FFCA8A"/>
<path d="M23.4508 3.29901C20.2013 -0.196493 17.1465 0.694307 17.1465 0.694307L18.1881 6.79069C20.0527 7.09617 21.5688 6.88877 22.374 6.71599C22.7614 6.63288 23.1159 6.43876 23.396 6.15863C24.1796 5.37503 24.2053 4.11061 23.4508 3.29901V3.29901Z" fill="#FFCA8A"/>
<path d="M2.77865 17.5015L0.695284 17.1455C0.695284 17.1455 -0.195517 20.2003 3.29998 23.4498C4.11159 24.2043 5.37606 24.1786 6.15961 23.3951C6.19283 23.3618 6.2246 23.3275 6.25536 23.2922C4.59033 21.9589 3.42061 20.0664 2.77865 17.5015V17.5015Z" fill="#FFBE73"/>
<path d="M0.854645 9.72852C0.854645 9.72852 -0.292237 13.6795 0.0711437 16.6818C0.198629 17.7352 0.875989 18.6408 1.85646 19.0466C2.60582 19.3567 3.67703 19.6546 5.12742 19.7434C6.03145 19.7988 6.91211 19.4279 7.5024 18.741C8.224 17.9012 9.1387 16.5297 9.65395 14.5716L0.854645 9.72852Z" fill="#FFB25A"/>
<path d="M19.7434 5.1274C19.6546 3.67702 19.3567 2.60581 19.0466 1.85645C18.6408 0.875971 17.7352 0.198611 16.6818 0.0711264C13.6795 -0.292206 9.72852 0.854676 9.72852 0.854676L14.5716 9.65398C16.5297 9.13868 17.9012 8.22398 18.7409 7.50243C19.4279 6.91214 19.7988 6.03148 19.7434 5.1274V5.1274Z" fill="#FFB25A"/>
<path d="M2.19845 12.1613C2.19845 11.6065 2.23225 11.0596 2.29609 10.5219L0.854645 9.72852C0.854645 9.72852 -0.292237 13.6795 0.0711437 16.6818C0.198629 17.7352 0.875989 18.6408 1.85646 19.0466C2.28103 19.2223 2.80922 19.3939 3.45089 19.526C2.6235 17.594 2.19845 15.1652 2.19845 12.1613V12.1613Z" fill="#FFA83F"/>
<path d="M15.2182 7.12734C14.3475 4.58116 13.4458 2.85017 12.7409 1.73603C12.046 0.637872 10.7069 0.123876 9.45891 0.486146C7.44296 1.07132 5.41266 2.07266 3.74266 3.74266C2.07266 5.41266 1.07127 7.44296 0.486146 9.45891C0.123876 10.7069 0.637872 12.046 1.73603 12.7409C2.85017 13.4458 4.58116 14.3475 7.12734 15.2182C8.42218 15.661 9.84856 15.4995 11.0064 14.77C11.6595 14.3585 12.3968 13.8106 13.1037 13.1037C13.8105 12.3968 14.3585 11.6595 14.77 11.0064C15.4995 9.84856 15.661 8.42218 15.2182 7.12734V7.12734Z" fill="#FFCA8A"/>
<path d="M5.78554 12.0512C6.42383 11.4129 6.52921 10.4834 6.0209 9.97511C5.5126 9.4668 4.58309 9.57218 3.9448 10.2105C3.3065 10.8488 3.20113 11.7783 3.70943 12.2866C4.21774 12.7949 5.14724 12.6895 5.78554 12.0512Z" fill="#FF8997"/>
<path d="M12.0512 5.78754C12.6895 5.14925 12.7948 4.21974 12.2865 3.71144C11.7782 3.20313 10.8487 3.30851 10.2104 3.9468C9.57213 4.5851 9.46675 5.5146 9.97506 6.02291C10.4834 6.53121 11.4129 6.42584 12.0512 5.78754Z" fill="#FF8997"/>
<path d="M4.39891 9.82811L3.92639 9.35559C3.78495 9.21415 3.78495 8.98483 3.92639 8.84339C4.06783 8.70194 4.29716 8.70194 4.43855 8.84339L4.91107 9.3159C5.05251 9.45734 5.05251 9.68667 4.91107 9.82811C4.76963 9.96955 4.5403 9.96955 4.39891 9.82811Z" fill="#423E4F"/>
<path d="M9.31688 4.91014L8.84436 4.43763C8.70292 4.29619 8.70292 4.06686 8.84436 3.92542C8.9858 3.78398 9.21513 3.78398 9.35652 3.92542L9.82904 4.39793C9.97048 4.53937 9.97048 4.7687 9.82904 4.91014C9.68765 5.05158 9.45832 5.05158 9.31688 4.91014Z" fill="#423E4F"/>
<path d="M6.42724 8.10902C6.22765 8.0953 6.07704 7.92243 6.0907 7.72289C6.10442 7.52336 6.27759 7.37265 6.47683 7.38636C6.72388 7.40331 6.96518 7.31301 7.13956 7.13864C7.31398 6.96421 7.40428 6.72267 7.38733 6.47586C7.37362 6.27633 7.52428 6.10345 7.72386 6.08973C7.92311 6.07602 8.09627 6.22668 8.10999 6.42627C8.14128 6.88202 7.97425 7.32837 7.65177 7.65084C7.32924 7.97342 6.8828 8.14031 6.42724 8.10902V8.10902Z" fill="#423E4F"/>
<path d="M2.19792 12.1616C2.19792 7.59708 4.422 3.55262 7.84492 1.05078C6.38237 1.65571 4.96584 2.51985 3.74266 3.74303C2.07266 5.41303 1.07127 7.44333 0.486146 9.45928C0.123876 10.7073 0.637872 12.0464 1.73603 12.7412C1.88322 12.8343 2.04146 12.931 2.21062 13.0305C2.20246 12.7462 2.19792 12.457 2.19792 12.1616V12.1616Z" fill="#FFBE73"/>
</g>
<defs>
<clipPath id="clip0_171_1213">
<rect width="24" height="24" fill="white"/>
</clipPath>
</defs>
</svg>
