<svg width="24" height="24" viewBox="0 0 24 24" fill="none" xmlns="http://www.w3.org/2000/svg">
<path d="M11.7264 9.72216C9.57087 12.3933 6.93468 14.6421 4.17159 16.6793C3.10342 17.4668 1.98252 18.2586 1.30178 19.3978C0.62104 20.537 0.511326 22.1395 1.42622 23.1008C2.23054 23.9459 3.5318 24.0484 4.69669 23.9843C9.83366 23.7016 14.8029 21.1346 18.0063 17.1089C19.7079 14.9704 20.897 12.4371 21.5054 9.77542C22.082 7.25306 22.418 4.03165 21.3036 1.60456C21.0401 1.03068 20.6274 0.503502 20.062 0.22236C19.0857 -0.263145 17.8589 0.0977237 17.0325 0.80908C15.671 1.98107 15.4083 3.57391 14.6777 5.09764C13.8846 6.75171 12.8681 8.28945 11.7264 9.72216Z" fill="#5BDE8D"/>
<path d="M8.30317 14.5437C7.88914 14.2362 7.68777 13.6687 7.81535 13.1689C7.94293 12.6692 8.39169 12.2676 8.9025 12.1962C9.41331 12.1247 9.95502 12.3878 10.2148 12.8333" fill="#5BDE8D"/>
<path d="M19.7109 13.0133C20.1391 13.3163 20.7528 13.3288 21.1929 13.0434C21.6331 12.7581 21.8721 12.1928 21.7703 11.6782C21.6686 11.1636 21.2322 10.732 20.7166 10.6357" fill="#5BDE8D"/>
<path d="M15.8519 8.80988C15.6587 8.80988 15.4982 8.65728 15.4903 8.46248C15.469 7.94067 15.465 7.38833 15.6655 6.87597C15.8717 6.34923 16.3815 5.80471 17.0557 5.77555C17.4582 5.75855 17.8699 5.93379 18.1574 6.24526C18.4135 6.52259 18.5695 6.89814 18.5966 7.30266C18.61 7.50224 18.4591 7.67488 18.2596 7.68825C18.0602 7.70168 17.8873 7.55073 17.874 7.35119C17.8578 7.1111 17.7695 6.89283 17.6253 6.73661C17.4825 6.58198 17.2759 6.49028 17.0871 6.49922C16.7403 6.51423 16.4567 6.84188 16.34 7.13997C16.1905 7.52194 16.1952 7.96954 16.2141 8.43293C16.2222 8.6328 16.0668 8.80138 15.8669 8.80954C15.8619 8.80978 15.8569 8.80988 15.8519 8.80988Z" fill="#00C976"/>
<path d="M16.1331 2.72801C15.6565 2.45281 15.3756 1.87348 15.4546 1.32887C15.5336 0.784255 15.9676 0.308698 16.5027 0.180199C17.0377 0.0517481 17.6403 0.278468 17.958 0.727853" fill="#5BDE8D"/>
<path d="M8.11914 22.5332C8.30066 23.105 8.77617 23.5854 9.35845 23.7299C9.94073 23.8744 10.608 23.6554 10.9579 23.1679C11.3077 22.6805 11.289 21.9487 10.8843 21.5059" fill="#5BDE8D"/>
<path d="M21.1582 4.00053C21.4105 3.62759 21.9436 3.50329 22.3637 3.6654C22.7837 3.82751 23.0824 4.23107 23.1888 4.66857C23.3146 5.18556 23.1822 5.76731 22.816 6.15329C22.4498 6.53927 21.8521 6.70075 21.353 6.51652" fill="#5BDE8D"/>
<path d="M11.7445 18.2701C11.6477 18.2701 11.5512 18.2316 11.4799 18.1553L11.082 17.7296C10.9454 17.5835 10.9531 17.3543 11.0992 17.2177C11.2453 17.0811 11.4745 17.0889 11.6111 17.235L12.009 17.6606C12.1456 17.8068 12.1379 18.0359 11.9918 18.1725C11.9219 18.2378 11.8331 18.2701 11.7445 18.2701Z" fill="#333942"/>
<path d="M16.1742 14.1285C16.0774 14.1285 15.9809 14.09 15.9096 14.0137L15.5117 13.588C15.375 13.4419 15.3828 13.2127 15.5289 13.0761C15.675 12.9395 15.9042 12.9472 16.0408 13.0933L16.4387 13.519C16.5753 13.6651 16.5676 13.8943 16.4215 14.0309C16.3516 14.0962 16.2628 14.1285 16.1742 14.1285Z" fill="#333942"/>
<path d="M13.4729 16.7378C13.4245 16.7378 13.3759 16.7353 13.3272 16.7303C13.1282 16.7099 12.9834 16.5321 13.0039 16.3331C13.0243 16.1341 13.2023 15.9898 13.4012 16.0098C13.6022 16.0304 13.8023 15.9632 13.9496 15.8256C14.0969 15.6879 14.1773 15.493 14.1703 15.2908C14.1633 15.0908 14.3197 14.9232 14.5196 14.9162C14.7189 14.9102 14.8872 15.0656 14.8942 15.2655C14.9085 15.677 14.7445 16.074 14.4443 16.3547C14.1796 16.6021 13.832 16.7378 13.4729 16.7378Z" fill="#333942"/>
<path d="M3.23308 21.9259C2.73372 21.4117 2.28003 20.7487 2.14671 20.0314C2.05578 19.5421 2.0395 19.0609 2.18273 18.5764C2.23136 18.412 2.29037 18.2613 2.35913 18.1191C1.9534 18.5012 1.58833 18.9186 1.30178 19.3981C0.62104 20.5373 0.511326 22.1398 1.42622 23.1011C2.23054 23.9463 3.5318 24.0487 4.69669 23.9847C5.26096 23.9536 5.8232 23.8949 6.38128 23.8098C5.22165 23.4415 4.06714 22.7848 3.23308 21.9259Z" fill="#00C976"/>
<path d="M2.1459 19.3837C1.78416 18.9629 1.61573 18.3678 1.75664 17.831C1.89755 17.2942 2.36625 16.8443 2.91699 16.776C3.46774 16.7077 4.05595 17.0612 4.20889 17.5947" fill="#5BDE8D"/>
</svg>
