<svg width="24" height="24" viewBox="0 0 24 24" fill="none" xmlns="http://www.w3.org/2000/svg">
<g clip-path="url(#clip0_236_1200)">
<path d="M15.1364 24.0001H4.38827C2.65614 24.0001 1.25195 22.5959 1.25195 20.8638V6.67509C1.25195 4.50355 3.01234 2.74316 5.18387 2.74316H18.8155C20.987 2.74316 22.7474 4.50355 22.7474 6.67509V16.3891C22.7473 20.5926 19.3398 24.0001 15.1364 24.0001Z" fill="#FBF1CF"/>
<path d="M22.7473 10.0069H7.22542C6.93372 6.9996 7.00281 4.49001 7.00281 3.63918V2.74316H5.18387C3.01234 2.74316 1.25195 4.50355 1.25195 6.67509V20.8638C1.25195 22.5959 2.65614 24.0001 4.38827 24.0001H14.0426C9.71641 21.9587 8.03687 16.3263 7.39122 11.4556H22.7474V10.0069H22.7473Z" fill="#FAE0BD"/>
<path d="M12.7917 12.3457H11.2072C10.8646 12.3457 10.5869 12.6234 10.5869 12.966V14.5505C10.5869 14.893 10.8646 15.1707 11.2072 15.1707H12.7917C13.1342 15.1707 13.4119 14.893 13.4119 14.5505V12.966C13.4119 12.6234 13.1342 12.3457 12.7917 12.3457V12.3457Z" fill="#98CD64"/>
<path d="M6.3825 12.3457H4.79798C4.45542 12.3457 4.17773 12.6234 4.17773 12.966V14.5505C4.17773 14.893 4.45542 15.1707 4.79798 15.1707H6.3825C6.72506 15.1707 7.00275 14.893 7.00275 14.5505V12.966C7.00275 12.6234 6.72506 12.3457 6.3825 12.3457V12.3457Z" fill="#B0ADE2"/>
<path d="M17.6163 12.3457H19.2009C19.5434 12.3457 19.8211 12.6234 19.8211 12.966V14.5505C19.8211 14.893 19.5434 15.1707 19.2009 15.1707H17.6163C17.2738 15.1707 16.9961 14.893 16.9961 14.5505V12.966C16.9961 12.6234 17.2738 12.3457 17.6163 12.3457V12.3457Z" fill="#F8D2E3"/>
<path d="M12.7917 17.3594H11.2072C10.8646 17.3594 10.5869 17.6371 10.5869 17.9796V19.5641C10.5869 19.9067 10.8646 20.1844 11.2072 20.1844H12.7917C13.1342 20.1844 13.4119 19.9067 13.4119 19.5641V17.9796C13.4119 17.6371 13.1342 17.3594 12.7917 17.3594V17.3594Z" fill="#A2DDFD"/>
<path d="M6.3825 17.3594H4.79798C4.45542 17.3594 4.17773 17.6371 4.17773 17.9796V19.5641C4.17773 19.9067 4.45542 20.1844 4.79798 20.1844H6.3825C6.72506 20.1844 7.00275 19.9067 7.00275 19.5641V17.9796C7.00275 17.6371 6.72506 17.3594 6.3825 17.3594Z" fill="#8DE1CE"/>
<path d="M17.6163 17.3594H19.2009C19.5434 17.3594 19.8211 17.6371 19.8211 17.9796V19.5641C19.8211 19.9067 19.5434 20.1844 19.2009 20.1844H17.6163C17.2738 20.1844 16.9961 19.9067 16.9961 19.5641V17.9796C16.9961 17.6371 17.2738 17.3594 17.6163 17.3594Z" fill="#DAA985"/>
<path d="M18.8154 2.74316H5.18387C3.01234 2.74316 1.25195 4.50355 1.25195 6.67509V10.0069H22.7473V6.67504C22.7473 4.50351 20.9869 2.74316 18.8154 2.74316V2.74316Z" fill="#E7889D"/>
<path d="M7.00281 3.63918V2.74316H5.18387C3.01234 2.74316 1.25195 4.50355 1.25195 6.67509V10.0069H7.22533C6.93372 6.9996 7.00281 4.48996 7.00281 3.63918V3.63918Z" fill="#E16E7E"/>
<path d="M22.7477 16.3887C22.7477 18.1675 21.4897 18.5003 20.3847 18.5003C18.6525 18.5003 17.2483 19.9045 17.2483 21.6366C17.2483 22.7416 16.9156 23.9996 15.1367 23.9996C19.3401 23.9996 22.7477 20.5921 22.7477 16.3887V16.3887Z" fill="#FAE0BD"/>
<path d="M5.59022 5.05162C4.81012 5.05162 4.17773 4.41923 4.17773 3.63914V1.41248C4.17773 0.632391 4.81012 0 5.59022 0C6.37031 0 7.0027 0.632391 7.0027 1.41248V3.63909C7.00275 4.41923 6.37036 5.05162 5.59022 5.05162V5.05162Z" fill="#4E5660"/>
<path d="M11.9994 5.05162C11.2193 5.05162 10.5869 4.41923 10.5869 3.63914V1.41248C10.5869 0.632391 11.2193 0 11.9994 0C12.7795 0 13.4119 0.632391 13.4119 1.41248V3.63909C13.4119 4.41923 12.7795 5.05162 11.9994 5.05162V5.05162Z" fill="#4E5660"/>
<path d="M18.4086 5.05162C19.1887 5.05162 19.8211 4.41923 19.8211 3.63914V1.41248C19.8211 0.632391 19.1887 0 18.4086 0C17.6285 0 16.9961 0.632391 16.9961 1.41248V3.63909C16.996 4.41923 17.6284 5.05162 18.4086 5.05162Z" fill="#4E5660"/>
<path d="M8.15778 9.5028C8.94067 9.5028 9.57533 8.9974 9.57533 8.37396C9.57533 7.75052 8.94067 7.24512 8.15778 7.24512C7.37489 7.24512 6.74023 7.75052 6.74023 8.37396C6.74023 8.9974 7.37489 9.5028 8.15778 9.5028Z" fill="white"/>
<path d="M15.8414 9.5028C16.6243 9.5028 17.2589 8.9974 17.2589 8.37396C17.2589 7.75052 16.6243 7.24512 15.8414 7.24512C15.0585 7.24512 14.4238 7.75052 14.4238 8.37396C14.4238 8.9974 15.0585 9.5028 15.8414 9.5028Z" fill="white"/>
<path d="M8.98438 7.63904C8.79017 7.63904 8.63281 7.48168 8.63281 7.28748V6.70801C8.63281 6.5138 8.79017 6.35645 8.98438 6.35645C9.17858 6.35645 9.33594 6.5138 9.33594 6.70801V7.28748C9.33594 7.48163 9.17858 7.63904 8.98438 7.63904Z" fill="#4E5660"/>
<path d="M15.0156 7.63904C14.8214 7.63904 14.6641 7.48168 14.6641 7.28748V6.70801C14.6641 6.5138 14.8214 6.35645 15.0156 6.35645C15.2098 6.35645 15.3672 6.5138 15.3672 6.70801V7.28748C15.3672 7.48163 15.2098 7.63904 15.0156 7.63904Z" fill="#4E5660"/>
<path d="M12.0001 7.98426C11.5938 7.98426 11.2074 7.80829 10.94 7.5015C10.8124 7.3551 10.8278 7.13306 10.9741 7.00546C11.1205 6.87792 11.3425 6.89315 11.4701 7.03954C11.6039 7.19306 11.7971 7.28114 12.0002 7.28114C12.2032 7.28114 12.3964 7.19306 12.5302 7.03954C12.6578 6.8932 12.8798 6.87792 13.0262 7.00546C13.1726 7.13306 13.1878 7.3551 13.0603 7.5015C12.7928 7.80829 12.4065 7.98426 12.0001 7.98426V7.98426Z" fill="#4E5660"/>
</g>
<defs>
<clipPath id="clip0_236_1200">
<rect width="24" height="24" fill="white"/>
</clipPath>
</defs>
</svg>
