<svg width="24" height="24" viewBox="0 0 24 24" fill="none" xmlns="http://www.w3.org/2000/svg">
<path d="M15.985 22.1274C16.3784 21.8383 16.7388 21.5069 17.0596 21.14C17.9176 20.1586 18.9919 19.3949 20.1718 18.8406C22.4335 17.778 23.9995 15.4797 23.9995 12.8154C23.9995 10.2997 22.6032 8.11021 20.5433 6.97936C19.4409 6.37414 18.5751 5.42404 18.0183 4.29638C17.1082 2.45335 15.3699 1.0925 13.2894 0.700195L6.76367 4.30966L10.7596 21.948L15.985 22.1274Z" fill="#FFF9E7"/>
<path d="M10.7601 9.72175C10.7601 6.41695 11.685 3.32819 13.2898 0.699976C12.8879 0.62421 12.4735 0.583984 12.0496 0.583984C10.2838 0.583984 8.67892 1.27192 7.48786 2.39437C6.5293 3.29767 5.39165 3.98339 4.16982 4.47532C1.72549 5.45946 0 7.8528 0 10.6494C0 12.9686 1.18658 15.0104 2.98571 16.2013C4.32647 17.0887 5.38474 18.3315 6.11165 19.7657C7.20913 21.931 9.45595 23.4152 12.0497 23.4152C13.5225 23.4152 14.883 22.9362 15.9852 22.1261C12.7614 18.978 10.7601 14.5836 10.7601 9.72175V9.72175Z" fill="#FCF2D0"/>
<path d="M11.1553 6.02244C11.4313 5.98381 11.7131 5.96387 11.9997 5.96387C15.3335 5.96387 18.0359 8.66635 18.0359 12.0001C18.0359 15.0461 15.7798 17.5651 12.8474 17.9772L9.69355 16.5481L8.4668 8.70648L11.1553 6.02244Z" fill="#FDB97E"/>
<path d="M10.7592 9.72179C10.7592 8.45216 10.8957 7.21444 11.1548 6.02246C8.22087 6.43321 5.96289 8.95249 5.96289 11.9996C5.96289 15.3334 8.66538 18.0358 11.9991 18.0358C12.2869 18.0358 12.5697 18.0152 12.8467 17.9763C11.5154 15.522 10.7592 12.7102 10.7592 9.72179V9.72179Z" fill="#FEA95C"/>
<path d="M8.64857 13.2194C9.33145 13.2194 9.88503 12.7785 9.88503 12.2347C9.88503 11.6909 9.33145 11.25 8.64857 11.25C7.96569 11.25 7.41211 11.6909 7.41211 12.2347C7.41211 12.7785 7.96569 13.2194 8.64857 13.2194Z" fill="#F9F7F8"/>
<path d="M15.3517 13.2194C16.0346 13.2194 16.5882 12.7785 16.5882 12.2347C16.5882 11.6909 16.0346 11.25 15.3517 11.25C14.6688 11.25 14.1152 11.6909 14.1152 12.2347C14.1152 12.7785 14.6688 13.2194 15.3517 13.2194Z" fill="#F9F7F8"/>
<path d="M9.36999 11.6487C9.16997 11.6487 9.00781 11.4866 9.00781 11.2866V10.7811C9.00781 10.5811 9.16997 10.4189 9.36999 10.4189C9.57 10.4189 9.73216 10.5811 9.73216 10.7811V11.2866C9.73216 11.4866 9.57 11.6487 9.36999 11.6487Z" fill="#495560"/>
<path d="M14.6317 11.6487C14.4317 11.6487 14.2695 11.4866 14.2695 11.2866V10.7811C14.2695 10.5811 14.4317 10.4189 14.6317 10.4189C14.8317 10.4189 14.9939 10.5811 14.9939 10.7811V11.2866C14.9939 11.4866 14.8317 11.6487 14.6317 11.6487Z" fill="#495560"/>
<path d="M12.001 11.9495C11.6305 11.9495 11.2782 11.7891 11.0344 11.5093C10.903 11.3585 10.9187 11.1298 11.0695 10.9983C11.2203 10.8669 11.4491 10.8826 11.5806 11.0334C11.6867 11.1553 11.84 11.2251 12.001 11.2251C12.162 11.2251 12.3153 11.1553 12.4215 11.0334C12.5529 10.8826 12.7816 10.8669 12.9325 10.9984C13.0832 11.1298 13.099 11.3586 12.9675 11.5093C12.7238 11.789 12.3714 11.9495 12.001 11.9495Z" fill="#495560"/>
</svg>
