<svg width="24" height="24" viewBox="0 0 24 24" fill="none" xmlns="http://www.w3.org/2000/svg">
<g clip-path="url(#clip0_238_1701)">
<path d="M5.87793 20.8896V22.7916C5.87793 23.4589 6.41887 23.9998 7.08614 23.9998H8.50069C9.16796 23.9998 9.7089 23.4589 9.7089 22.7916V20.8896H5.87793Z" fill="#ECECEC"/>
<path d="M7.32662 22.7916V20.8896H5.87793V22.7916C5.87793 23.4589 6.41887 23.9998 7.08614 23.9998H8.50069C8.50644 23.9998 8.51204 23.9995 8.51778 23.9994C7.85839 23.9902 7.32662 23.4532 7.32662 22.7916V22.7916Z" fill="#C7C5CB"/>
<path d="M18.122 20.8896V22.7916C18.122 23.4589 17.581 23.9998 16.9138 23.9998H15.4992C14.832 23.9998 14.291 23.4589 14.291 22.7916V20.8896H18.122Z" fill="#ECECEC"/>
<path d="M15.7397 22.7916V20.8896H14.291V22.7916C14.291 23.4589 14.832 23.9998 15.4992 23.9998H16.9138C16.9195 23.9998 16.9251 23.9995 16.9309 23.9994C16.2715 23.9902 15.7397 23.4532 15.7397 22.7916V22.7916Z" fill="#C7C5CB"/>
<path d="M20.6521 2.53009V9.47295L11.7584 10.945L3.34766 9.4729V2.53009C3.34766 1.13293 4.4801 0 5.8777 0H18.122C19.5196 0 20.6521 1.13293 20.6521 2.53009V2.53009Z" fill="#A4E6FF"/>
<path d="M4.79635 9.47295V2.53009C4.79635 1.13293 5.92879 0 7.32639 0H5.8777C4.4801 0 3.34766 1.13293 3.34766 2.53009V9.47295H4.79635Z" fill="#5BD6FD"/>
<path d="M20.6521 9.47266V19.2622C20.6521 20.6594 19.5197 21.7923 18.122 21.7923H5.87775C4.4801 21.7923 3.34766 20.6594 3.34766 19.2622V9.47266H20.6521Z" fill="#FFBDD7"/>
<path d="M4.79635 19.2622V9.47266H3.34766V19.2622C3.34766 20.6594 4.4801 21.7923 5.87775 21.7923H7.32644C5.92879 21.7922 4.79635 20.6593 4.79635 19.2622Z" fill="#FF97C0"/>
<path d="M7.36534 2.03027C6.80435 2.03027 6.34961 2.48502 6.34961 3.046V6.42647C6.34961 6.98746 6.80435 7.4422 7.36534 7.4422C7.92632 7.4422 8.38106 6.98746 8.38106 6.42647V3.046C8.38106 2.48502 7.92632 2.03027 7.36534 2.03027V2.03027Z" fill="#ECECEC"/>
<path d="M7.36534 11.5586C6.80435 11.5586 6.34961 12.0133 6.34961 12.5743V18.5028C6.34961 19.0638 6.80435 19.5185 7.36534 19.5185C7.92632 19.5185 8.38106 19.0638 8.38106 18.5028V12.5743C8.38106 12.0133 7.92632 11.5586 7.36534 11.5586V11.5586Z" fill="#ECECEC"/>
<path d="M11.0712 5.46697C10.8711 5.46697 10.709 5.30481 10.709 5.1048V4.45202C10.709 4.252 10.8711 4.08984 11.0712 4.08984C11.2712 4.08984 11.4333 4.252 11.4333 4.45202V5.1048C11.4333 5.30486 11.2712 5.46697 11.0712 5.46697Z" fill="#423E4F"/>
<path d="M17.8651 5.46697C17.6651 5.46697 17.5029 5.30481 17.5029 5.1048V4.45202C17.5029 4.252 17.6651 4.08984 17.8651 4.08984C18.0651 4.08984 18.2273 4.252 18.2273 4.45202V5.1048C18.2273 5.30486 18.0651 5.46697 17.8651 5.46697Z" fill="#423E4F"/>
<path d="M14.4688 5.85605C14.0208 5.85605 13.5949 5.66207 13.3001 5.32381C13.1686 5.173 13.1844 4.94425 13.3352 4.8128C13.4859 4.68141 13.7147 4.6971 13.8462 4.84786C14.0033 5.02822 14.2303 5.13166 14.4688 5.13166C14.7073 5.13166 14.9342 5.02822 15.0914 4.84786C15.2228 4.69705 15.4516 4.68136 15.6024 4.8128C15.7533 4.9442 15.769 5.173 15.6375 5.32381C15.3426 5.66203 14.9166 5.85605 14.4688 5.85605Z" fill="#423E4F"/>
</g>
<defs>
<clipPath id="clip0_238_1701">
<rect width="24" height="24" fill="white"/>
</clipPath>
</defs>
</svg>
