<svg width="24" height="24" viewBox="0 0 24 24" fill="none" xmlns="http://www.w3.org/2000/svg">
<path d="M4.02011 4.07702L2.61325 4.30966C2.2255 4.37378 1.9631 4.74011 2.02722 5.12786L4.55275 20.4022L7.36389 19.9375L4.83836 4.66314C4.77419 4.2753 4.40791 4.01294 4.02011 4.07702Z" fill="#FEDD00"/>
<path d="M19.9805 4.07702L21.3874 4.30961C21.7751 4.37373 22.0375 4.74006 21.9734 5.12781L19.4479 20.4022L16.6367 19.9375L19.1623 4.66309C19.2263 4.2753 19.5927 4.01294 19.9805 4.07702Z" fill="#FEDD00"/>
<path d="M12 20.4141L4.77539 21.6409L5.00602 22.5404C5.22586 23.3992 6.00023 24.0003 6.88702 24.0003H17.1129C17.9996 24.0003 18.774 23.3992 18.9939 22.5404L19.2245 21.6409L12 20.4141Z" fill="#E6BB00"/>
<path d="M6.93759 22.5404L6.70697 21.6409L12.9658 20.5781L12 20.4141L4.77539 21.6409L5.00602 22.5404C5.22586 23.3992 6.00023 24.0003 6.88702 24.0003H8.81859C7.93181 24.0003 7.15744 23.3991 6.93759 22.5404Z" fill="#CCA600"/>
<path d="M7.72625 3.65599C7.72625 3.26295 7.40764 2.94434 7.01459 2.94434H5.58861C5.19556 2.94434 4.87695 3.26295 4.87695 3.65599V19.1378H7.7263L9.15092 9.56782L7.72625 3.65599Z" fill="#FECE00"/>
<path d="M18.4119 2.94434H16.9859C16.5928 2.94434 16.2742 3.26295 16.2742 3.65599L14.8496 9.56782L16.2742 19.1378H19.1236V3.65599C19.1236 3.26295 18.8049 2.94434 18.4119 2.94434Z" fill="#FECE00"/>
<path d="M13.4243 17.6656L14.8489 8.09672L13.4243 2.18386V0.711656C13.4243 0.318609 13.1057 0 12.7127 0H11.2867C10.8936 0 10.575 0.318609 10.575 0.711656V2.18386L9.15039 9.56784L10.575 17.6656L10.7942 16.1934H13.1653L13.4243 17.6656Z" fill="#FECE00"/>
<path d="M9.8642 1.47266H8.43822C8.04517 1.47266 7.72656 1.79127 7.72656 2.18431V17.6661H10.5759V2.18431C10.5759 1.79127 10.2573 1.47266 9.8642 1.47266Z" fill="#FEDD00"/>
<path d="M14.1375 1.47266H15.5635C15.9565 1.47266 16.2751 1.79127 16.2751 2.18431V17.6661H13.4258V2.18431C13.4258 1.79127 13.7444 1.47266 14.1375 1.47266Z" fill="#FEDD00"/>
<path d="M21.4873 12.8103L19.2255 21.641H4.77635L2.51459 12.8103C2.42037 12.4422 2.56662 12.055 2.88068 11.8411C4.36812 10.8282 6.37371 10.0048 7.42535 9.60779C7.76004 9.48118 8.13204 9.6706 8.22232 10.0171C8.59629 11.4437 10.146 12.5134 12.001 12.5134C13.8559 12.5134 15.4057 11.4436 15.7796 10.0171C15.8699 9.67056 16.2419 9.48118 16.5766 9.60779C17.6282 10.0048 19.6339 10.8283 21.1212 11.8411C21.4353 12.055 21.5815 12.4422 21.4873 12.8103Z" fill="#F9545B"/>
<path d="M16.145 9.6084C16.0633 9.63966 15.9891 9.6886 15.9277 9.75184C16.0018 9.70632 16.0744 9.65865 16.145 9.6084Z" fill="#E64047"/>
<path d="M2.87873 11.8412C2.56467 12.0552 2.41842 12.4424 2.51263 12.8104L4.77445 21.6412H6.70602L4.48832 10.8984C3.9306 11.1857 3.37574 11.5028 2.87873 11.8412Z" fill="#E64047"/>
<path d="M8.18442 17.7626C7.98441 17.7626 7.82227 17.6004 7.82227 17.4004V16.7098C7.82227 16.5098 7.98441 16.3477 8.18442 16.3477C8.38444 16.3477 8.54658 16.5098 8.54658 16.7098V17.4004C8.54658 17.6004 8.38444 17.7626 8.18442 17.7626Z" fill="#3B484A"/>
<path d="M15.8153 17.7626C15.6153 17.7626 15.4531 17.6004 15.4531 17.4004V16.7098C15.4531 16.5098 15.6153 16.3477 15.8153 16.3477C16.0153 16.3477 16.1774 16.5098 16.1774 16.7098V17.4004C16.1775 17.6004 16.0153 17.7626 15.8153 17.7626Z" fill="#3B484A"/>
<path d="M11.9998 18.2734C11.4444 18.2734 10.9232 18.0417 10.57 17.6376C10.4383 17.487 10.4537 17.2582 10.6043 17.1266C10.7549 16.995 10.9837 17.0103 11.1153 17.1609C11.3309 17.4076 11.6533 17.5491 11.9998 17.5491C12.3463 17.5491 12.6687 17.4076 12.8843 17.1609C13.016 17.0103 13.2447 16.995 13.3953 17.1266C13.5459 17.2582 13.5613 17.487 13.4296 17.6376C13.0765 18.0417 12.5554 18.2734 11.9998 18.2734Z" fill="#3B484A"/>
</svg>
