<svg width="24" height="24" viewBox="0 0 24 24" fill="none" xmlns="http://www.w3.org/2000/svg">
<g clip-path="url(#clip0_194_1289)">
<path d="M14.1969 0.730516C14.1567 0.740641 14.115 0.753297 14.0719 0.768766C13.4542 0.989454 13.1569 1.60375 12.92 2.15566C12.3353 3.51808 12.0085 4.96614 11.6615 6.39845C11.0759 8.81533 10.5138 11.2592 10.4532 13.7521C10.3847 16.573 10.8789 20.284 13.4737 22.0359C14.1026 22.4604 15.0791 22.9211 15.8542 22.9755C19.0526 23.1999 22.3126 19.978 23.4251 17.314C23.7532 16.5284 23.9721 15.6056 23.9973 14.755C24.0839 11.8124 22.6177 8.85002 20.1223 7.17766C19.033 6.44767 17.8333 6.08997 16.6434 5.57214C15.9576 5.27369 15.3862 4.77738 15.1029 4.09066C14.7855 3.32111 15.1072 2.59075 15.129 1.80878C15.1445 1.24858 14.9166 0.548735 14.1969 0.730516V0.730516Z" fill="#FFF1CF"/>
<path d="M9.84806 0.73053C9.88842 0.740655 9.93014 0.753311 9.9736 0.76878C10.5941 0.98942 10.8927 1.60376 11.1306 2.15562C11.718 3.51809 12.0463 4.96611 12.3948 6.39837C12.983 8.81534 13.5477 11.2592 13.6085 13.752C13.6775 16.573 13.1809 20.284 10.5744 22.0358C9.9428 22.4604 8.96175 22.9211 8.18321 22.9755C4.97053 23.1999 1.69599 19.978 0.578487 17.314C0.248862 16.5283 0.0289243 15.6056 0.00365864 14.7549C-0.0834351 11.8124 1.38933 8.84998 3.89597 7.17762C4.99027 6.44755 6.19519 6.08989 7.39064 5.57206C8.07947 5.27361 8.6536 4.7773 8.93794 4.09058C9.25678 3.32103 8.93358 2.59072 8.91178 1.80875C8.89613 1.24855 9.12516 0.548702 9.84806 0.73053V0.73053Z" fill="#FFEAB7"/>
<path d="M14.8905 6.90062C14.0239 5.7123 13.437 4.3623 13.3937 2.91203C13.3805 2.47192 13.3911 2.0275 13.2149 1.61008C13.1658 1.49373 13.1015 1.37936 13.0248 1.2767C12.7952 0.926781 12.436 0.701172 12.032 0.701172C11.5208 0.701172 11.0811 1.06216 10.8853 1.57989C10.6963 2.07916 10.7093 2.61002 10.681 3.13164C10.6525 3.65969 10.5198 4.15422 10.368 4.66136C10.1262 5.46864 9.7683 6.30137 9.18128 6.9535C9.18128 6.9535 2.38642 14.7998 7.20602 20.8512C7.54563 21.358 7.98222 21.8067 8.49306 22.1772C8.5105 22.1922 8.52738 22.2072 8.54505 22.2222C8.54505 22.2222 8.61288 22.2703 8.73142 22.3408C9.65833 22.9427 10.7985 23.2982 12.0319 23.2982C14.1982 23.2982 16.0779 22.2027 17.0168 20.5979C17.7602 19.6046 18.2638 18.4838 18.4563 17.2845C18.6309 16.1965 18.6296 15.0867 18.4097 14.0048C18.2046 12.9957 17.8717 11.993 17.4544 11.0433C17.0874 10.2082 16.6214 9.41439 16.1356 8.63556C15.7583 8.03055 15.3085 7.47353 14.8905 6.90062V6.90062Z" fill="#FFF8E6"/>
<path d="M12.2265 22.4207C12.1349 22.3556 12.082 22.3107 12.082 22.3107C12.0681 22.2966 12.0548 22.2824 12.041 22.2682C11.6424 21.9217 11.2934 21.4937 11.0122 21.0033C7.09192 15.183 11.6 7.04242 11.6 7.04242C11.9911 6.36484 12.2024 5.51739 12.33 4.70064C12.4101 4.18759 12.4769 3.68795 12.465 3.15963C12.4533 2.63767 12.4107 2.10845 12.5186 1.60155C12.5697 1.3615 12.6605 1.15239 12.7795 0.993109C12.5707 0.809875 12.3121 0.701172 12.0319 0.701172C11.5207 0.701172 11.0811 1.06216 10.8852 1.57989C10.6962 2.07916 10.7093 2.61002 10.681 3.13169C10.6525 3.65973 10.5198 4.15427 10.368 4.66141C10.1262 5.46869 9.7683 6.30142 9.18128 6.95355C9.18128 6.95355 2.38642 14.7999 7.20602 20.8512C7.54563 21.358 7.98222 21.8067 8.49306 22.1772C8.5105 22.1923 8.52742 22.2072 8.54505 22.2223C8.54505 22.2223 8.61287 22.2704 8.73142 22.3409C9.65833 22.9429 10.7985 23.2983 12.0319 23.2983C12.5668 23.2983 13.0841 23.2312 13.5742 23.1064C13.0908 22.9733 12.6357 22.7386 12.2265 22.4207V22.4207Z" fill="#FFF1CF"/>
<path d="M9.62567 16.1292C9.62567 16.7535 8.99019 17.2594 8.20639 17.2594C7.4225 17.2594 6.78711 16.7535 6.78711 16.1292C6.78711 15.505 7.4225 14.999 8.20639 14.999C8.99019 14.999 9.62567 15.505 9.62567 16.1292Z" fill="#FFA1AC"/>
<path d="M14.4805 16.1292C14.4805 16.7535 15.1159 17.2594 15.8997 17.2594C16.6836 17.2594 17.319 16.7535 17.319 16.1292C17.319 15.505 16.6836 14.999 15.8997 14.999C15.1159 14.999 14.4805 15.505 14.4805 16.1292Z" fill="#FFA1AC"/>
<path d="M13.1967 15.261C13.1967 14.5538 12.6844 14.4873 12.0525 14.4873C11.4205 14.4873 10.9082 14.5538 10.9082 15.261C10.9082 15.9681 11.4205 16.5414 12.0525 16.5414C12.6844 16.5414 13.1967 15.9681 13.1967 15.261Z" fill="#495560"/>
<path d="M8.44336 15.1313C8.24916 15.1313 8.0918 14.9739 8.0918 14.7798V14.2002C8.0918 14.006 8.24916 13.8486 8.44336 13.8486C8.63756 13.8486 8.79492 14.006 8.79492 14.2002V14.7798C8.79492 14.9739 8.63756 15.1313 8.44336 15.1313Z" fill="#495560"/>
<path d="M15.6621 15.1313C15.4679 15.1313 15.3105 14.9739 15.3105 14.7798V14.2002C15.3105 14.006 15.4679 13.8486 15.6621 13.8486C15.8563 13.8486 16.0137 14.006 16.0137 14.2002V14.7798C16.0137 14.9739 15.8563 15.1313 15.6621 15.1313Z" fill="#495560"/>
</g>
<defs>
<clipPath id="clip0_194_1289">
<rect width="24" height="24" fill="white"/>
</clipPath>
</defs>
</svg>
