<svg width="24" height="24" viewBox="0 0 24 24" fill="none" xmlns="http://www.w3.org/2000/svg">
<g clip-path="url(#clip0_239_1966)">
<path d="M6.98218 16.2549C9.07415 16.2549 10.77 14.559 10.77 12.467C10.77 10.3751 9.07415 8.6792 6.98218 8.6792C4.89021 8.6792 3.19434 10.3751 3.19434 12.467C3.19434 14.559 4.89021 16.2549 6.98218 16.2549Z" fill="#976BCF"/>
<path d="M17.9246 16.2549C20.0165 16.2549 21.7124 14.559 21.7124 12.467C21.7124 10.3751 20.0165 8.6792 17.9246 8.6792C15.8326 8.6792 14.1367 10.3751 14.1367 12.467C14.1367 14.559 15.8326 16.2549 17.9246 16.2549Z" fill="#C9AAF2"/>
<path d="M12.4539 24C14.5458 24 16.2417 22.3041 16.2417 20.2122C16.2417 18.1202 14.5458 16.4243 12.4539 16.4243C10.3619 16.4243 8.66602 18.1202 8.66602 20.2122C8.66602 22.3041 10.3619 24 12.4539 24Z" fill="#976BCF"/>
<path d="M17.6829 2.60873C17.5346 2.59651 17.3842 2.59033 17.2359 2.59033C14.2729 2.59033 11.8623 5.00395 11.8623 7.97073C11.8623 8.37076 12.1866 8.69507 12.5866 8.69507C12.9867 8.69507 13.311 8.37076 13.311 7.97073C13.311 5.80276 15.0717 4.03902 17.2359 4.03902C17.3447 4.03902 17.4552 4.04356 17.5642 4.0525C17.9382 4.08326 18.14 4.39738 18.14 4.67732C18.14 4.77723 18.1152 4.87492 18.0665 4.96749L18.3696 5.94599L19.3481 5.64282C19.5055 5.34415 19.5887 5.01032 19.5887 4.67737C19.5887 3.60524 18.7516 2.69657 17.6829 2.60873V2.60873Z" fill="#00C084"/>
<path d="M18.0661 4.96739C17.92 5.24453 17.6915 5.30271 17.5256 5.30271C17.3185 5.30271 16.9189 5.18025 16.8885 4.71633C16.8824 4.62342 16.8793 4.52887 16.8793 4.43538C16.8793 3.22558 17.4025 2.07117 18.3148 1.26806C18.615 1.00367 18.6441 0.546031 18.3798 0.245717C18.1154 -0.0545966 17.6578 -0.0836188 17.3575 0.180671C16.133 1.25869 15.4307 2.80947 15.4307 4.43533C15.4307 4.5605 15.4348 4.68712 15.443 4.81127C15.5155 5.9173 16.4108 6.75136 17.5257 6.75136C18.3009 6.75136 18.982 6.33689 19.3478 5.64263C19.1803 5.10226 18.6065 4.79992 18.0661 4.96739V4.96739Z" fill="#5FD9B3"/>
<path d="M8.33726 2.70979C7.8279 2.94631 7.38624 3.30404 7.04918 3.7458C6.0704 3.29458 4.94399 3.26826 3.94792 3.66685C3.6747 3.77617 3.4573 3.99362 3.34797 4.2668C2.94938 5.26282 2.9757 6.38928 3.42692 7.36806C2.98517 7.70512 2.62744 8.14673 2.39091 8.65609C2.25406 8.95076 2.25372 9.29038 2.39043 9.58509C2.92843 10.7448 4.09433 11.5535 5.45166 11.5756C5.71059 11.9491 6.05765 12.2569 6.4628 12.4688C6.77664 12.6329 7.15286 12.6308 7.4666 12.4664C8.62719 11.858 9.24666 10.4915 8.85541 9.17424C10.1725 9.56544 11.5392 8.94627 12.1476 7.78543C12.312 7.47169 12.3141 7.09551 12.15 6.78163C12.1169 6.71851 12.0772 6.65724 12.0396 6.59702C11.8361 6.27092 11.5721 5.98905 11.2569 5.77044C11.2347 4.41311 10.426 3.24721 9.26631 2.70921C8.97155 2.57255 8.63198 2.57294 8.33726 2.70979V2.70979Z" fill="#5FD9B3"/>
<path d="M9.21751 9.17394V4.25133C9.21751 4.05127 9.0554 3.88916 8.85533 3.88916C8.65527 3.88916 8.49316 4.05127 8.49316 4.25133V8.29975L5.6305 5.43709C5.48901 5.2957 5.25973 5.2957 5.11829 5.43709C4.97685 5.57858 4.97685 5.80786 5.11829 5.9493L7.98095 8.81196H3.93249C3.73242 8.81196 3.57031 8.97407 3.57031 9.17413C3.57031 9.3742 3.73242 9.53631 3.93249 9.53631H8.85529C9.05163 9.53631 9.2177 9.37656 9.21751 9.17394Z" fill="#00C084"/>
<path d="M15.399 13.4076C15.1178 13.4076 14.844 13.4386 14.5802 13.4967C15.5824 12.8151 16.2407 11.6658 16.2407 10.3626C16.2407 8.27059 14.5448 6.57471 12.4529 6.57471C10.3609 6.57471 8.66504 8.27059 8.66504 10.3626C8.66504 11.6658 9.32342 12.8151 10.3255 13.4967L12.4529 19.576C13.1473 20.4343 14.2089 20.9833 15.399 20.9833C17.491 20.9833 19.1868 19.2875 19.1868 17.1955C19.1868 15.1034 17.491 13.4076 15.399 13.4076V13.4076Z" fill="#B28AE4"/>
<path d="M10.3253 13.4969C10.0616 13.4387 9.78779 13.4077 9.5066 13.4077C7.41464 13.4077 5.71875 15.1036 5.71875 17.1955C5.71875 19.2875 7.41464 20.9834 9.5066 20.9834C10.6966 20.9834 11.7583 20.4344 12.4527 19.5761L10.3253 13.4969Z" fill="#976BCF"/>
<path d="M12.453 19.5759C14.8217 19.5759 16.742 17.6557 16.742 15.287C16.742 12.9183 14.8217 10.998 12.453 10.998C10.0843 10.998 8.16406 12.9183 8.16406 15.287C8.16406 17.6557 10.0843 19.5759 12.453 19.5759Z" fill="#C9AAF2"/>
<path d="M9.92077 14.5864C9.7207 14.5864 9.55859 14.7485 9.55859 14.9486V15.5281C9.55859 15.7281 9.7207 15.8902 9.92077 15.8902C10.1208 15.8902 10.2829 15.7281 10.2829 15.5281V14.9486C10.2829 14.7485 10.1208 14.5864 9.92077 14.5864Z" fill="#313D40"/>
<path d="M14.9862 14.5864C14.7861 14.5864 14.624 14.7485 14.624 14.9486V15.5281C14.624 15.7281 14.7861 15.8902 14.9862 15.8902C15.1863 15.8902 15.3484 15.7281 15.3484 15.5281V14.9486C15.3484 14.7485 15.1862 14.5864 14.9862 14.5864Z" fill="#313D40"/>
<path d="M13.486 15.2376C13.3353 15.1062 13.1064 15.1218 12.9751 15.2728C12.6989 15.5896 12.2075 15.5899 11.9311 15.2728C11.7997 15.1219 11.5709 15.1063 11.4202 15.2376C11.2694 15.369 11.2536 15.5978 11.385 15.7486C11.9496 16.3965 12.9562 16.3971 13.5212 15.7486C13.6526 15.5978 13.6369 15.369 13.486 15.2376Z" fill="#313D40"/>
</g>
<defs>
<clipPath id="clip0_239_1966">
<rect width="24" height="24" fill="white"/>
</clipPath>
</defs>
</svg>
