<svg width="24" height="24" viewBox="0 0 24 24" fill="none" xmlns="http://www.w3.org/2000/svg">
<g clip-path="url(#clip0_207_1284)">
<path d="M4.91196 8.71785C4.76529 8.71785 4.62169 8.64386 4.53895 8.50945C4.27013 8.07384 3.76797 7.56993 3.19138 7.58831C2.94621 7.57518 2.74745 7.40531 2.74045 7.16408C2.733 6.92198 2.92301 6.72015 3.16468 6.7127C4.08713 6.68512 4.87387 7.3843 5.28409 8.0502C5.41105 8.25597 5.34713 8.52565 5.14137 8.65262C5.07 8.69683 4.99032 8.71785 4.91196 8.71785Z" fill="#436B1C"/>
<path d="M13.8727 2.88896C13.8141 2.03611 13.1053 1.36189 12.2375 1.36189C12.2349 1.36189 12.2327 1.36233 12.2301 1.36233C12.2454 1.23318 12.2367 1.09658 12.1951 0.954297C12.0777 0.554144 11.7257 0.246806 11.3116 0.197334C10.9718 0.157056 10.6601 0.278765 10.4417 0.494603C10.2337 0.306785 9.96139 0.189453 9.6593 0.189453C9.01179 0.189453 8.4873 0.714381 8.4873 1.36146C8.4873 1.36364 8.48774 1.3654 8.48774 1.36758C7.701 1.42713 7.08063 2.08339 7.08063 2.88545C7.08063 3.00804 7.09683 3.12668 7.12397 3.24095C6.18751 3.27991 5.43974 4.04957 5.43974 4.99567C5.43974 5.31614 5.52686 5.6156 5.67659 5.87434C5.38896 6.11076 5.20508 6.46932 5.20508 6.87079C5.20508 7.23767 5.3605 7.56646 5.60655 7.80068C6.66253 6.93777 7.77193 9.82378 9.07833 12.1279C9.5122 12.8932 14.1998 12.078 14.5732 12.5535C14.9988 12.1708 15.2737 5.50746 15.2855 4.92212C15.3039 3.98303 14.7076 3.18185 13.8727 2.88896Z" fill="#88C057"/>
<path d="M14.4714 11.6166L14.7835 11.4296C15.3614 11.0829 16.0829 11.0829 16.6604 11.4296L16.9725 11.6166C17.5504 11.9633 18.2719 11.9633 18.8494 11.6166L19.7316 11.2243C19.8612 10.8627 19.9514 10.6009 19.9873 10.4849C20.8103 7.83745 21.3405 5.04995 21.4127 2.26946C21.4416 1.15131 20.517 -0.592469 18.9807 0.199957C17.4708 0.978373 16.3894 3.96376 15.6293 5.38137C14.5497 7.39571 13.696 9.58648 13.0879 11.8188C13.5511 11.9357 14.0493 11.8696 14.4714 11.6166Z" fill="#EEAF4B"/>
<path d="M3.08989 11.1666L3.67874 11.5199C4.35515 11.9257 5.20011 11.9257 5.87652 11.5199L6.028 11.4288C6.6059 11.0821 7.3274 11.0821 7.90486 11.4288L8.21702 11.6157C8.55632 11.8193 8.94509 11.8999 9.3251 11.8644C9.6053 10.9595 9.51117 9.82818 9.07687 9.06246C7.61635 6.48599 6.40144 7.01091 5.23251 8.1295C5.00835 8.34403 4.73429 8.5012 4.4357 8.58657C3.15381 8.95301 2.20772 9.55237 2.74578 11.1845C2.84078 11.1153 2.973 11.0965 3.08989 11.1666Z" fill="#ED3F32"/>
<path d="M15.5822 10.6631C15.5357 10.6631 15.488 10.6557 15.4416 10.6399C15.2126 10.562 15.0901 10.3133 15.168 10.0843C15.46 9.22537 16.3978 8.76567 17.2554 9.05462C17.6578 9.19165 18.096 8.97538 18.2326 8.57304C18.3101 8.34407 18.5579 8.2206 18.7882 8.29897C19.0172 8.3769 19.1398 8.62557 19.0618 8.85455C18.7702 9.71396 17.8333 10.1754 16.9744 9.88426C16.5725 9.74767 16.1342 9.96438 15.9972 10.3658C15.9346 10.5488 15.7643 10.6631 15.5822 10.6631Z" fill="#A46F3E"/>
<path d="M16.6173 7.61282C16.5709 7.61282 16.5232 7.60537 16.4768 7.58961C16.2478 7.51168 16.1252 7.26301 16.2031 7.03404C16.3446 6.61769 16.6396 6.28101 17.0337 6.08663C17.4277 5.89224 17.8738 5.86291 18.2906 6.00432C18.6938 6.14179 19.1312 5.92508 19.2678 5.5223C19.3453 5.29289 19.5939 5.16987 19.8229 5.24823C20.0519 5.32616 20.1745 5.57484 20.0965 5.80381C19.805 6.66366 18.8681 7.12423 18.0091 6.83396C17.8143 6.76741 17.605 6.78099 17.4207 6.87205C17.2364 6.96311 17.0985 7.12028 17.0319 7.31555C16.9702 7.49811 16.7999 7.61282 16.6173 7.61282Z" fill="#A46F3E"/>
<path d="M17.6549 4.56268C17.6084 4.56268 17.5607 4.55523 17.5139 4.53947C17.2849 4.46154 17.1623 4.21287 17.2403 3.9839C17.4959 3.23 18.3186 2.82547 19.0725 3.08027C19.2169 3.1293 19.371 3.11967 19.5072 3.05269C19.6434 2.9857 19.7454 2.86925 19.7944 2.72521C19.8719 2.49624 20.1201 2.37322 20.35 2.45115C20.579 2.52907 20.7015 2.77775 20.6236 3.00672C20.4993 3.37229 20.2405 3.6678 19.8947 3.83811C19.5484 4.00885 19.1565 4.03381 18.791 3.90991C18.4941 3.80878 18.1702 3.96858 18.0695 4.26584C18.0073 4.44797 17.837 4.56268 17.6549 4.56268Z" fill="#A46F3E"/>
<path d="M10.2325 6.1715C9.81875 6.72182 9.16598 7.37328 9.41728 8.52383L10.0933 11.6169H10.0937L10.4058 11.43C10.9837 11.0832 11.7052 11.0832 12.2827 11.43L12.5949 11.6169C12.8488 11.7693 13.0883 11.8196 13.0883 11.8196C13.5445 10.1459 14.1386 8.49537 14.8623 6.9254C14.5234 6.07781 13.7997 5.79412 13.2743 5.50385C13.2713 5.5021 13.2682 5.50035 13.2656 5.49904C12.9333 5.30859 12.9127 4.85371 13.1627 4.56389C13.2612 4.44962 13.3067 4.29245 13.2726 4.13484L13.2196 3.89317C13.1614 3.62699 12.8961 3.45712 12.6303 3.51534L9.96979 4.09587C9.70361 4.1541 9.53374 4.41941 9.59197 4.68516L9.64494 4.92683C9.67996 5.08794 9.79117 5.21271 9.93214 5.27357C10.2557 5.41323 10.4531 5.77442 10.2876 6.08569C10.2719 6.11503 10.2535 6.14349 10.2325 6.1715Z" fill="#DAE7EF"/>
<path d="M13.0229 4.77193L10.0112 5.42995C9.67891 5.50263 9.34706 5.28985 9.27438 4.95756L9.23104 4.75967C9.15836 4.42738 9.37113 4.09552 9.70343 4.02285L12.7151 3.36483C13.0474 3.29215 13.3792 3.50492 13.4519 3.83722L13.4953 4.0351C13.5679 4.36784 13.3552 4.69925 13.0229 4.77193Z" fill="white"/>
<path d="M20.4967 11.0906L19.7327 22.0484C19.6767 23.1425 18.7735 24.0006 17.6781 24.0006H5.38852C4.29313 24.0006 3.38994 23.1425 3.3339 22.0484L2.58832 11.45C2.57563 11.2009 2.84575 11.0385 3.05984 11.1668L3.64868 11.5201C4.32509 11.9259 5.17005 11.9259 5.84646 11.5201L5.99794 11.429C6.57584 11.0823 7.29735 11.0823 7.87481 11.429L8.18696 11.6164C8.76487 11.9631 9.48637 11.9631 10.0638 11.6164L10.376 11.429C10.9539 11.0823 11.6754 11.0823 12.2529 11.429L12.565 11.6164C13.1429 11.9631 13.8644 11.9631 14.4419 11.6164L14.754 11.429C15.3319 11.0823 16.0534 11.0823 16.6309 11.429L16.9431 11.6164C17.521 11.9631 18.2425 11.9631 18.8199 11.6164L20.3028 10.9575C20.3969 10.9155 20.502 10.9877 20.4967 11.0906Z" fill="#FBD490"/>
<path d="M7.84228 18.3883H4.77765C4.53598 18.3883 4.33984 18.1926 4.33984 17.9505C4.33984 17.7084 4.53598 17.5127 4.77765 17.5127H7.84228C8.08395 17.5127 8.28008 17.7084 8.28008 17.9505C8.28008 18.1926 8.08395 18.3883 7.84228 18.3883Z" fill="#E0B877"/>
<path d="M8.71789 20.1393H4.77765C4.53598 20.1393 4.33984 19.9436 4.33984 19.7015C4.33984 19.4594 4.53598 19.2637 4.77765 19.2637H8.71789C8.95956 19.2637 9.15569 19.4594 9.15569 19.7015C9.15569 19.9436 8.95956 20.1393 8.71789 20.1393Z" fill="#E0B877"/>
<path d="M9.5935 21.8903H4.77765C4.53598 21.8903 4.33984 21.6946 4.33984 21.4525C4.33984 21.2103 4.53598 21.0146 4.77765 21.0146H9.5935C9.83516 21.0146 10.0313 21.2103 10.0313 21.4525C10.0313 21.6946 9.83516 21.8903 9.5935 21.8903Z" fill="#E0B877"/>
<path d="M12.2197 21.8903H11.3441C11.1024 21.8903 10.9062 21.6946 10.9062 21.4525C10.9062 21.2103 11.1024 21.0146 11.3441 21.0146H12.2197C12.4613 21.0146 12.6575 21.2103 12.6575 21.4525C12.6575 21.6946 12.4613 21.8903 12.2197 21.8903Z" fill="#E0B877"/>
<path d="M8.73891 17.4127C8.5389 17.4127 8.37674 17.2506 8.37674 17.0505C8.37674 16.8707 8.23042 16.7243 8.05054 16.7243C7.87066 16.7243 7.72435 16.8707 7.72435 17.0505C7.72435 17.2506 7.56219 17.4127 7.36217 17.4127C7.16216 17.4127 7 17.2506 7 17.0505C7 16.4713 7.47126 16 8.05054 16C8.62983 16 9.10109 16.4713 9.10109 17.0505C9.10109 17.2506 8.93893 17.4127 8.73891 17.4127Z" fill="#423E4F"/>
<path d="M14.8913 17.4127C14.6913 17.4127 14.5291 17.2506 14.5291 17.0505C14.5291 16.8707 14.3828 16.7243 14.2029 16.7243C14.0231 16.7243 13.8767 16.8707 13.8767 17.0505C13.8767 17.2506 13.7145 17.4127 13.5145 17.4127C13.3145 17.4127 13.1523 17.2506 13.1523 17.0505C13.1523 16.4713 13.6237 16 14.2029 16C14.7822 16 15.2535 16.4713 15.2535 17.0505C15.2535 17.2506 15.0913 17.4127 14.8913 17.4127Z" fill="#423E4F"/>
<path d="M11.1276 18.5502C10.743 18.5502 10.3773 18.3837 10.1243 18.0933C9.99289 17.9425 10.0086 17.7137 10.1594 17.5823C10.3102 17.4509 10.539 17.4666 10.6704 17.6174C10.7859 17.7499 10.9525 17.8258 11.1276 17.8258C11.3027 17.8258 11.4693 17.7499 11.5847 17.6174C11.7162 17.4666 11.9449 17.4509 12.0957 17.5823C12.2465 17.7137 12.2622 17.9425 12.1308 18.0933C11.8777 18.3837 11.5121 18.5502 11.1276 18.5502V18.5502Z" fill="#423E4F"/>
</g>
<defs>
<clipPath id="clip0_207_1284">
<rect width="24" height="24" fill="white"/>
</clipPath>
</defs>
</svg>
