<svg width="150" height="186" viewBox="0 0 150 186" fill="none" xmlns="http://www.w3.org/2000/svg">
<path d="M13.238 20.7136L10.4829 56.1368H139.215L136.46 20.7136C135.551 9.02282 125.799 0 114.073 0H35.6252C23.8993 0 14.1473 9.02282 13.238 20.7136Z" fill="#DD7A7A"/>
<path d="M74.8491 44.9096C70.7153 44.9096 67.364 41.5583 67.364 37.4245C67.364 33.2907 70.7153 29.9395 74.8491 29.9395V0H35.6252C23.8993 0 14.1473 9.02282 13.238 20.7136L10.4829 56.1368H74.8491V44.9096Z" fill="#C66A6A"/>
<path d="M131.457 155.883L139.215 56.1367H10.4829L18.2411 155.883L74.8491 170.941L131.457 155.883Z" fill="#DD7A7A"/>
<path d="M137.178 82.334L139.215 56.1367H10.4829L18.2411 155.883L39.2864 161.481L33.1306 82.334H137.178Z" fill="#C66A6A"/>
<path d="M138.471 67.3643H11.2272C5.02636 67.3643 0 62.3376 0 56.1371C0 49.9363 5.02672 44.9099 11.2272 44.9099H138.471C144.672 44.9099 149.698 49.9366 149.698 56.1371C149.698 62.3376 144.671 67.3643 138.471 67.3643Z" fill="#EF9797"/>
<path d="M50.5709 56.1369C50.5709 49.936 55.5976 44.9097 61.7981 44.9097H11.2272C5.02636 44.9097 0 49.9364 0 56.1369C0 62.3374 5.02672 67.3641 11.2272 67.3641H61.7981C55.5976 67.3644 50.5709 62.3377 50.5709 56.1369Z" fill="#DD7A7A"/>
<path d="M111.495 19.583L113.018 0H36.6797L38.2029 19.583C38.6578 25.4282 43.5333 29.9398 49.3963 29.9398H100.301C106.164 29.9395 111.04 25.4282 111.495 19.583Z" fill="#B75858"/>
<path d="M18.241 155.883L18.9723 165.287C19.8815 176.977 29.6335 186 41.3595 186H108.339C120.065 186 129.817 176.977 130.726 165.286L131.457 155.883H18.241V155.883Z" fill="#C66A6A"/>
<path d="M18.9723 165.286C19.8815 176.977 29.6335 186 41.3595 186H61.9695C50.2435 186 40.4916 176.977 39.5823 165.286L38.851 155.883H18.241L18.9723 165.286Z" fill="#B75858"/>
<path d="M51.478 18.6032C49.9733 18.6032 48.7534 17.3833 48.7534 15.8786V11.3877C48.7534 9.88298 49.9733 8.66309 51.478 8.66309C52.9827 8.66309 54.2026 9.88298 54.2026 11.3877V15.8786C54.2026 17.3833 52.9827 18.6032 51.478 18.6032Z" fill="#495560"/>
<path d="M98.22 18.6032C96.7153 18.6032 95.4954 17.3833 95.4954 15.8786V11.3877C95.4954 9.88298 96.7153 8.66309 98.22 8.66309C99.7247 8.66309 100.945 9.88298 100.945 11.3877V15.8786C100.945 17.3833 99.725 18.6032 98.22 18.6032Z" fill="#495560"/>
<path d="M74.85 13.0197C77.9989 13.0197 80.9934 14.3835 83.0656 16.7615C84.0541 17.8961 83.936 19.6169 82.8015 20.6058C81.6669 21.5946 79.9461 21.4762 78.9572 20.3417C77.9204 19.1519 76.423 18.4693 74.8496 18.4693C73.2762 18.4693 71.7791 19.1519 70.7416 20.342C69.7531 21.4766 68.0323 21.5946 66.8974 20.6058C65.7628 19.6173 65.6448 17.8961 66.6336 16.7615C68.7065 14.3835 71.701 13.0197 74.85 13.0197Z" fill="#495560"/>
<path d="M79.1393 89.7747L83.6258 97.5457L81.2092 96.4929C79.8295 95.8909 78.2241 96.5231 77.6233 97.9024C77.0221 99.2818 77.6534 100.888 79.0328 101.488L89.0332 105.846C89.3813 105.997 89.7518 106.073 90.1213 106.073C90.5935 106.073 91.064 105.95 91.4836 105.708C92.2323 105.275 92.7314 104.513 92.8288 103.654L94.0556 92.815C94.2249 91.3198 93.1499 89.9706 91.6547 89.8013C90.1601 89.632 88.8102 90.7069 88.6409 92.2022L88.3444 94.8207L83.8579 87.0501C82.0125 83.854 78.7073 81.9457 75.0164 81.9453C71.3258 81.9453 68.0203 83.8536 66.1748 87.0501L61.3203 95.459C60.568 96.7621 61.0144 98.4285 62.3175 99.1808C63.6202 99.9332 65.287 99.4863 66.0393 98.1836L70.8939 89.7747C71.7545 88.2842 73.2955 87.3945 75.0167 87.3945C76.7376 87.3949 78.2786 88.2846 79.1393 89.7747Z" fill="white"/>
<path d="M102.596 119.505L97.7415 111.097C96.9891 109.793 95.3224 109.347 94.0197 110.099C92.7166 110.852 92.2701 112.518 93.0225 113.821L97.877 122.23C98.7376 123.72 98.7376 125.5 97.877 126.99C97.0167 128.481 95.4753 129.37 93.7545 129.37H84.7818L86.9015 127.804C88.112 126.91 88.3681 125.204 87.4741 123.994C86.58 122.783 84.8737 122.527 83.6636 123.421L74.8896 129.903C74.1943 130.417 73.7842 131.23 73.7842 132.095C73.7842 132.959 74.1943 133.772 74.8896 134.286L83.6636 140.768C84.1508 141.128 84.7179 141.301 85.2806 141.301C86.1154 141.301 86.9397 140.919 87.4741 140.195C88.3681 138.985 88.112 137.279 86.9015 136.385L84.7818 134.819H93.7545C97.4454 134.819 100.751 132.911 102.596 129.714C104.441 126.518 104.441 122.702 102.596 119.505Z" fill="white"/>
<path d="M66.0165 129.37H56.3071C54.5862 129.37 53.0448 128.48 52.1846 126.99C51.324 125.499 51.324 123.72 52.1846 122.229L56.6711 114.459L56.9675 117.078C57.1252 118.469 58.304 119.496 59.6714 119.496C59.7739 119.496 59.8771 119.49 59.9813 119.479C61.4766 119.309 62.5515 117.96 62.3822 116.465L61.1554 105.625C61.0581 104.766 60.5589 104.004 59.8102 103.572C59.0619 103.14 58.1526 103.088 57.3595 103.434L47.3587 107.791C45.9794 108.392 45.348 109.998 45.9492 111.377C46.5504 112.757 48.1565 113.389 49.5352 112.787L51.9517 111.734L47.4652 119.505C45.6197 122.702 45.6197 126.518 47.4652 129.715C49.3107 132.911 52.6162 134.82 56.3071 134.82H66.0165C67.5212 134.82 68.7411 133.6 68.7411 132.095C68.7411 130.59 67.5212 129.37 66.0165 129.37Z" fill="white"/>
</svg>
