<svg width="24" height="24" viewBox="0 0 24 24" fill="none" xmlns="http://www.w3.org/2000/svg">
<path d="M16.3744 2.22015C15.852 1.50476 14.9155 1.27075 14.1351 1.60712C13.9977 1.66626 13.8436 1.58807 13.81 1.4425C13.6196 0.61615 12.8795 0 11.9953 0C11.1113 0 10.3711 0.61615 10.1807 1.4425C10.1472 1.58807 9.99303 1.66626 9.8557 1.60712C9.0753 1.27075 8.13872 1.50476 7.61632 2.22015C7.00969 3.0509 7.19133 4.216 8.0219 4.82263H15.9689C16.7994 4.216 16.9811 3.0509 16.3744 2.22015Z" fill="#FD5F7E"/>
<path d="M9.06498 2.22006C9.27189 1.93679 9.54362 1.72934 9.84501 1.60263C9.06663 1.27304 8.13627 1.50796 7.61625 2.22006C7.00963 3.05081 7.19145 4.21591 8.02202 4.82254H9.47075C8.64 4.21591 8.45836 3.05081 9.06498 2.22006Z" fill="#F5385D"/>
<path d="M23.5681 15.1962C23.5681 21.5877 18.3865 23.9996 11.9949 23.9996C5.60339 23.9996 0.421875 21.5877 0.421875 15.1962C0.421875 8.80457 5.60339 3.62305 11.9949 3.62305C18.3865 3.62305 23.5681 8.80457 23.5681 15.1962Z" fill="#E6E6E6"/>
<path d="M1.87061 15.1962C1.87061 9.04791 6.66522 4.02039 12.7192 3.6463C12.4797 3.63147 12.2384 3.62305 11.9949 3.62305C5.60339 3.62305 0.421875 8.80457 0.421875 15.1962C0.421875 21.5877 5.60339 23.9996 11.9949 23.9996C12.2384 23.9996 12.4797 23.9955 12.7192 23.9886C6.66522 23.8097 1.87061 21.3444 1.87061 15.1962Z" fill="#D0CFD5"/>
<path d="M7.02789 15.657H5.95984C5.7597 15.657 5.59766 15.4949 5.59766 15.2948C5.59766 15.0948 5.7597 14.9326 5.95984 14.9326H7.02789C7.22784 14.9326 7.38989 15.0948 7.38989 15.2948C7.38989 15.4949 7.22784 15.657 7.02789 15.657Z" fill="#FF889E"/>
<path d="M7.17255 14.3288C6.9726 14.3288 6.81055 14.1666 6.81055 13.9666V13.1688C6.81055 12.9689 6.9726 12.8066 7.17255 12.8066C7.37268 12.8066 7.53473 12.9689 7.53473 13.1688V13.9666C7.53473 14.1666 7.37268 14.3288 7.17255 14.3288Z" fill="#423E4F"/>
<path d="M18.0298 15.657H16.9618C16.7618 15.657 16.5996 15.4949 16.5996 15.2948C16.5996 15.0948 16.7618 14.9326 16.9618 14.9326H18.0298C18.23 14.9326 18.392 15.0948 18.392 15.2948C18.392 15.4949 18.23 15.657 18.0298 15.657V15.657Z" fill="#FF889E"/>
<path d="M16.8173 14.3288C16.6173 14.3288 16.4551 14.1666 16.4551 13.9666V13.1688C16.4551 12.9689 16.6173 12.8066 16.8173 12.8066C17.0174 12.8066 17.1794 12.9689 17.1794 13.1688V13.9666C17.1794 14.1666 17.0174 14.3288 16.8173 14.3288Z" fill="#423E4F"/>
<path d="M11.3242 16.9187C10.7682 16.363 9.86719 16.363 9.31146 16.9187C8.75555 17.4747 8.75555 18.3757 9.31146 18.9316C9.69727 19.3174 10.2493 19.4352 10.7369 19.2852C10.9759 19.736 11.4496 20.0433 11.9952 20.0433C12.5409 20.0433 13.0146 19.736 13.2534 19.2852C13.741 19.4352 14.2932 19.3174 14.679 18.9316C15.2347 18.3757 15.2347 17.4747 14.679 16.9187C14.1231 16.363 13.222 16.363 12.6663 16.9187H11.3242Z" fill="#FD5F7E"/>
<path d="M10.2772 19.3176C9.7213 18.7619 9.7213 17.8608 10.2772 17.3049C10.5574 17.0247 10.925 16.8861 11.2922 16.8883C10.7344 16.3634 9.8568 16.3733 9.31133 16.9185C8.7556 17.4745 8.7556 18.3755 9.31133 18.9314C9.58708 19.207 9.94762 19.3451 10.3089 19.3473C10.2983 19.3372 10.2875 19.328 10.2772 19.3176V19.3176Z" fill="#F5385D"/>
<path d="M13.91 15.4746C13.8279 16.4612 13.0018 17.2355 11.994 17.2355C10.9863 17.2355 10.1602 16.4612 10.0781 15.4746H13.91Z" fill="#EC8D00"/>
<path d="M13.918 15.3126C13.918 15.367 13.9158 15.421 13.9111 15.4745C13.3638 15.6508 12.7044 15.7534 11.9951 15.7534C11.2859 15.7534 10.6263 15.6508 10.0792 15.4745C10.0743 15.421 10.0723 15.367 10.0723 15.3126C10.0723 14.2508 10.9329 13.3896 11.9951 13.3896C13.0574 13.3896 13.918 14.2508 13.918 15.3126Z" fill="#F7AC3E"/>
</svg>
