<svg width="24" height="24" viewBox="0 0 24 24" fill="none" xmlns="http://www.w3.org/2000/svg">
<g clip-path="url(#clip0_207_1196)">
<path d="M16.6229 9.85535C15.2422 7.73847 17.129 5.85156 17.129 5.85156H1.51281C1.51281 5.85156 3.39971 7.73847 2.01891 9.85535C0.947747 11.4978 -0.594918 14.83 0.422417 18.5626C0.956353 20.5214 2.7561 21.8667 4.78656 21.8667H13.8552C15.8857 21.8667 17.6854 20.5214 18.2194 18.5626C19.2367 14.83 17.694 11.4978 16.6229 9.85535V9.85535Z" fill="#ABEBF4"/>
<path d="M1.51281 5.85156C1.51281 5.85156 3.39971 7.73847 2.01891 9.85535C0.947747 11.4978 -0.594918 14.83 0.422417 18.5626C0.956353 20.5214 2.7561 21.8667 4.78656 21.8667H7.22662C6.31823 20.3885 4.84112 17.2697 5.78814 13.7423C7.01403 9.17694 13.3207 9.37195 16.5862 9.79804C15.2763 7.70459 17.129 5.85156 17.129 5.85156H1.51281Z" fill="#8ED7E8"/>
<path d="M0.422362 18.5626C0.956298 20.5214 2.75604 21.8667 4.7865 21.8667H13.8552C15.8856 21.8667 17.6854 20.5214 18.2193 18.5626C18.9556 15.861 18.3508 13.3693 17.5543 11.5762H1.0874C0.290892 13.3693 -0.313906 15.861 0.422362 18.5626V18.5626Z" fill="#FFEB99"/>
<path d="M7.03028 11.5762H1.0874C0.290892 13.3693 -0.313906 15.861 0.422362 18.5626C0.956298 20.5214 2.75604 21.8667 4.7865 21.8667H7.22657C6.31818 20.3885 4.84107 17.2697 5.78809 13.7423C6.02796 12.8493 6.46228 12.1387 7.03028 11.5762V11.5762Z" fill="#FFDE55"/>
<path d="M16.5923 7.52503H2.0506C0.922852 7.52503 0 6.60217 0 5.47443C0 4.3465 0.922852 3.42383 2.0506 3.42383H16.5923C17.72 3.42383 18.6429 4.3465 18.6429 5.47443C18.6429 6.60217 17.72 7.52503 16.5923 7.52503Z" fill="#CCF8FF"/>
<path d="M17.5593 7.79883L15.7031 8.71454L20.2504 19.977C20.6739 21.0262 21.9001 21.494 22.9149 20.9932C23.9295 20.4926 24.3047 19.2351 23.7297 18.2604L17.5593 7.79883Z" fill="#FFB864"/>
<path d="M17.5593 7.79883L15.7031 8.71454L17.1194 12.2223C17.7312 11.4754 18.4786 10.8607 19.1034 10.4167L17.5593 7.79883Z" fill="#F4A651"/>
<path d="M17.0006 4.53989L13.4564 6.28836C12.8487 6.58811 12.106 6.33615 11.8061 5.72843C11.5063 5.12052 11.7583 4.37784 12.366 4.0781L15.9102 2.32962C16.5179 2.02969 17.2606 2.28165 17.5605 2.88956C17.8603 3.49729 17.6083 4.23996 17.0006 4.53989V4.53989Z" fill="#FFDAAA"/>
<path d="M18.9615 8.5145L15.4175 10.263C14.8096 10.5627 14.0669 10.3108 13.767 9.70304C13.4673 9.09513 13.7192 8.35245 14.3269 8.05271L17.8711 6.30423C18.4789 6.00431 19.2215 6.25626 19.5215 6.86399C19.8214 7.4719 19.5693 8.21458 18.9615 8.5145Z" fill="#FFDAAA"/>
<path d="M18.6335 6.2059L13.7845 8.59818C13.1768 8.89811 12.4341 8.64615 12.1342 8.03824C11.8345 7.43051 12.0864 6.68784 12.6941 6.38791L17.5431 3.99564C18.151 3.69571 18.8935 3.94766 19.1935 4.55557C19.4934 5.1633 19.2414 5.90598 18.6335 6.2059Z" fill="#FFC477"/>
<path d="M3.9082 3.42383V8.45136C3.9082 9.09479 4.43481 9.6214 5.07825 9.6214C5.72186 9.6214 6.24829 9.09479 6.24829 8.45136V5.77802C6.24829 5.35285 6.59601 5.00513 7.02118 5.00513C7.44617 5.00513 7.79389 5.35285 7.79389 5.77802V7.48438C7.79389 8.12781 8.3205 8.65424 8.96393 8.65424C9.60755 8.65424 10.134 8.12781 10.134 7.48438V3.42383H3.9082Z" fill="#FFEB99"/>
<path d="M13.2157 17.1946C13.0156 17.1946 12.8535 17.0326 12.8535 16.8325V16.2313C12.8535 16.0312 13.0156 15.8691 13.2157 15.8691C13.4156 15.8691 13.5779 16.0312 13.5779 16.2313V16.8325C13.5779 17.0326 13.4156 17.1946 13.2157 17.1946Z" fill="#57565C"/>
<path d="M5.42664 17.1946C5.22668 17.1946 5.06445 17.0326 5.06445 16.8325V16.2313C5.06445 16.0312 5.22668 15.8691 5.42664 15.8691C5.62677 15.8691 5.78882 16.0312 5.78882 16.2313V16.8325C5.78882 17.0326 5.62677 17.1946 5.42664 17.1946Z" fill="#57565C"/>
<path d="M9.3223 17.5742C8.85355 17.5742 8.3848 17.4226 7.99369 17.1192C7.83567 16.9965 7.80692 16.7691 7.9296 16.611C8.0521 16.4528 8.2797 16.4241 8.43772 16.5468C8.95847 16.9509 9.68613 16.9509 10.2071 16.5468C10.3649 16.4241 10.5925 16.4528 10.7152 16.611C10.8377 16.7691 10.8089 16.9965 10.6509 17.1192C10.2598 17.4226 9.79105 17.5742 9.3223 17.5742V17.5742Z" fill="#57565C"/>
</g>
<defs>
<clipPath id="clip0_207_1196">
<rect width="24" height="24" fill="white"/>
</clipPath>
</defs>
</svg>
