<svg width="24" height="24" viewBox="0 0 24 24" fill="none" xmlns="http://www.w3.org/2000/svg">
<g clip-path="url(#clip0_236_1347)">
<path d="M8.85611 2.81661C8.5345 2.50384 8.0233 2.50384 7.70164 2.81661C-3.8044 14.0064 -0.708883 24.0001 8.2789 24.0001C17.2667 24.0001 20.3622 14.0064 8.85611 2.81661Z" fill="#59C2E8"/>
<path d="M9.72759 23.0345C0.939004 23.0345 -2.21523 13.4788 8.4072 2.59306C8.15851 2.55414 7.89567 2.62816 7.70164 2.81683C-3.8044 14.0066 -0.708883 24.0003 8.2789 24.0003C10.6238 24.0003 12.5673 23.3197 13.9554 22.1155C12.7706 22.7111 11.3444 23.0345 9.72759 23.0345Z" fill="#0097D1"/>
<path d="M4.82702 13.8716C4.62695 13.8716 4.46484 13.7094 4.46484 13.5094V12.8846C4.46484 12.6846 4.62695 12.5225 4.82702 12.5225C5.02708 12.5225 5.18919 12.6846 5.18919 12.8846V13.5094C5.18919 13.7095 5.02708 13.8716 4.82702 13.8716Z" fill="#334151"/>
<path d="M11.7313 13.8716C11.5312 13.8716 11.3691 13.7094 11.3691 13.5094V12.8846C11.3691 12.6846 11.5312 12.5225 11.7313 12.5225C11.9314 12.5225 12.0935 12.6846 12.0935 12.8846V13.5094C12.0935 13.7095 11.9313 13.8716 11.7313 13.8716Z" fill="#334151"/>
<path d="M8.27869 14.2049C7.8421 14.2049 7.43217 14.0223 7.15397 13.7041C7.02228 13.5534 7.03769 13.3247 7.1883 13.193C7.33882 13.0614 7.56767 13.0767 7.69931 13.2273C7.83993 13.3882 8.0511 13.4805 8.27869 13.4805C8.50623 13.4805 8.7174 13.3882 8.85802 13.2273C8.98966 13.0767 9.21845 13.0614 9.36907 13.193C9.51964 13.3247 9.53504 13.5534 9.40335 13.7041C9.12521 14.0224 8.71523 14.2049 8.27869 14.2049Z" fill="#334151"/>
<path d="M20.2825 12.687V2.44621C20.2825 1.09521 19.1872 0 17.8363 0C16.6084 0 15.592 0.904805 15.417 2.08404L15.614 2.44621L15.3901 2.80839V3.8231L15.5818 4.18527L15.3901 4.54744V5.5622L15.614 5.92438L15.3901 6.28655V7.30131L15.5657 7.66348L15.3901 8.02566V9.04037L15.5657 9.40254L15.3901 9.76472V12.687C13.341 13.618 11.916 15.6824 11.916 18.0797C11.916 21.3494 14.5666 24 17.8363 24C21.106 24 23.7566 21.3494 23.7566 18.0797C23.7565 15.6824 22.3315 13.618 20.2825 12.687Z" fill="#D5EBF6"/>
<path d="M17.8358 22.3263C15.494 22.3263 13.5889 20.4211 13.5889 18.0793C13.5889 16.4169 14.5674 14.8981 16.0818 14.21L17.063 13.7643V2.44573C17.063 2.01957 17.4097 1.67285 17.8359 1.67285C18.262 1.67285 18.6088 2.01957 18.6088 2.44573V13.7643L19.5899 14.21C21.1043 14.8981 22.0829 16.4169 22.0829 18.0793C22.0828 20.4211 20.1776 22.3263 17.8358 22.3263Z" fill="#FF6E80"/>
<path d="M15.3896 9.04004V9.76439H17.0629C17.263 9.76439 17.4251 9.60223 17.4251 9.40221C17.4251 9.2022 17.263 9.04004 17.0629 9.04004H15.3896Z" fill="#334151"/>
<path d="M15.3896 7.30176V8.0261H17.0629C17.263 8.0261 17.4251 7.86395 17.4251 7.66393C17.4251 7.46387 17.263 7.30176 17.0629 7.30176H15.3896Z" fill="#334151"/>
<path d="M15.3896 5.5625V6.28685H17.0629C17.263 6.28685 17.4251 6.12469 17.4251 5.92467C17.4251 5.72461 17.263 5.5625 17.0629 5.5625H15.3896Z" fill="#334151"/>
<path d="M15.3896 2.44616V2.80833H17.0629C17.263 2.80833 17.4251 2.64617 17.4251 2.44616C17.4251 2.24609 17.263 2.08398 17.0629 2.08398H15.4165C15.399 2.20215 15.3896 2.32302 15.3896 2.44616Z" fill="#334151"/>
<path d="M15.3896 3.82324V4.54759H17.0629C17.263 4.54759 17.4251 4.38543 17.4251 4.18542C17.4251 3.98535 17.263 3.82324 17.0629 3.82324H15.3896Z" fill="#334151"/>
</g>
<defs>
<clipPath id="clip0_236_1347">
<rect width="24" height="24" fill="white"/>
</clipPath>
</defs>
</svg>
