<svg width="24" height="24" viewBox="0 0 24 24" fill="none" xmlns="http://www.w3.org/2000/svg">
<g clip-path="url(#clip0_171_1232)">
<path d="M18.52 2.19683C18.52 7.20365 16.1007 11.7865 12.3945 14.8136C9.56955 17.1212 5.99692 18.5251 2.17717 18.5251C2.15566 18.5198 2.13409 18.5145 2.11258 18.5087C-0.569938 17.8142 -0.758844 14.1597 1.89676 13.3696C3.19984 12.9818 4.45501 12.4133 5.63041 11.6976C9.25441 9.49288 12.1214 5.89002 13.3183 1.87569C14.1096 -0.777666 17.809 -0.547322 18.5038 2.13262C18.5097 2.15385 18.5151 2.1756 18.52 2.19683V2.19683Z" fill="#FFCA8B"/>
<path d="M12.3945 14.8133C9.56955 17.1208 5.99692 18.5248 2.17717 18.5248C2.15566 18.5195 2.13409 18.5142 2.11258 18.5084C-0.569938 17.8139 -0.758844 14.1593 1.89676 13.3692C3.19984 12.9815 4.45501 12.413 5.63041 11.6973C6.14031 12.2555 8.48519 14.5761 12.3945 14.8133Z" fill="#FFBE73"/>
<path d="M21.5478 2.75346C21.5478 6.78714 20.419 10.503 18.4694 13.5756C15.1973 18.7346 9.613 22.0824 3.17678 22.0824C3.15967 22.08 3.14251 22.0776 3.1254 22.0751C0.743827 21.7216 0.666014 18.1419 3.02509 17.6498C5.64451 17.1031 8.04958 15.9846 10.1219 14.4188C13.7714 11.6611 16.3873 7.51783 17.3205 2.67185C17.7859 0.256098 21.0786 0.272035 21.5361 2.68924C21.54 2.71047 21.544 2.73222 21.5478 2.75346V2.75346Z" fill="#DF8A57"/>
<path d="M18.4694 13.5752C15.1973 18.7342 9.613 22.082 3.17678 22.082C3.15967 22.0796 3.14251 22.0772 3.1254 22.0748C0.743827 21.7212 0.666014 18.1415 3.02509 17.6494C5.64451 17.1027 8.04958 15.9842 10.1219 14.4184C12.2363 15.0381 15.0436 15.1153 18.4694 13.5752V13.5752Z" fill="#D97C41"/>
<path d="M23.9997 7.67102C23.9997 8.50605 23.9322 9.32951 23.803 10.136C22.5655 17.8479 15.6517 23.9994 7.65646 23.9994C7.63494 23.9941 7.61338 23.9887 7.59233 23.983C4.90982 23.2885 4.84621 19.5088 7.50229 18.7182C10.0478 17.961 12.3609 16.5816 14.2546 14.7667C16.32 12.7871 17.8869 10.2902 18.7139 7.51699C19.5047 4.86363 23.2882 4.92691 23.9835 7.60685C23.9889 7.62804 23.9943 7.64979 23.9997 7.67102Z" fill="#FFCA8B"/>
<path d="M23.803 10.1367C22.5655 17.8486 15.6517 24 7.65646 24C7.63494 23.9948 7.61338 23.9894 7.59233 23.9836C4.90982 23.2891 4.84621 19.5095 7.50229 18.7189C10.0478 17.9617 12.3609 16.5823 14.2546 14.7674C16.8995 14.4814 20.1022 13.2219 23.803 10.1367V10.1367Z" fill="#FFBE73"/>
<path d="M14.9875 19.9016C15.5656 19.3584 15.6837 18.545 15.2513 18.0848C14.819 17.6247 13.9998 17.692 13.4217 18.2352C12.8436 18.7784 12.7255 19.5918 13.1579 20.0519C13.5903 20.5121 14.4094 20.4448 14.9875 19.9016Z" fill="white"/>
<path d="M20.5344 14.4445C21.1125 13.9013 21.2306 13.088 20.7982 12.6278C20.3658 12.1677 19.5467 12.235 18.9686 12.7782C18.3905 13.3214 18.2724 14.1347 18.7048 14.5949C19.1371 15.055 19.9563 14.9877 20.5344 14.4445Z" fill="white"/>
<path d="M14.1943 18.2416C14.1004 18.2416 14.0065 18.2062 13.9348 18.1355L13.5196 17.7257C13.3763 17.5843 13.3763 17.355 13.5196 17.2135C13.6629 17.0721 13.8953 17.0721 14.0386 17.2135L14.4538 17.6233C14.5972 17.7647 14.5972 17.9941 14.4538 18.1356C14.3822 18.2063 14.2883 18.2416 14.1943 18.2416Z" fill="#3B4456"/>
<path d="M18.5166 13.976C18.4226 13.976 18.3287 13.9407 18.2571 13.8699L17.8419 13.4601C17.6986 13.3187 17.6985 13.0894 17.8419 12.9479C17.9852 12.8064 18.2176 12.8064 18.3609 12.9479L18.7761 13.3577C18.9194 13.4991 18.9194 13.7285 18.7761 13.8699C18.7044 13.9406 18.6105 13.976 18.5166 13.976Z" fill="#3B4456"/>
<path d="M17.8693 16.2414C17.6832 16.4247 17.4409 16.533 17.1807 16.5489C17.1643 16.8058 17.0551 17.0449 16.869 17.2286C16.666 17.4288 16.396 17.5394 16.1091 17.5394C15.8223 17.5394 15.5523 17.4288 15.3498 17.2286C15.2063 17.0871 15.2063 16.8579 15.3498 16.7163C15.4927 16.5752 15.7252 16.5752 15.8687 16.7163C15.9329 16.78 16.0182 16.8147 16.1091 16.8147C16.2001 16.8147 16.2854 16.78 16.3501 16.7163C16.4827 16.5855 16.4827 16.3722 16.3501 16.2414C16.2066 16.0999 16.2066 15.8707 16.3501 15.7291C16.493 15.5875 16.7255 15.5875 16.869 15.7291C16.9332 15.7924 17.0185 15.8275 17.1095 15.8275C17.2004 15.8275 17.2862 15.7924 17.3504 15.7291C17.483 15.5983 17.483 15.385 17.3504 15.2543C17.207 15.1127 17.207 14.883 17.3504 14.7419C17.4938 14.6004 17.7259 14.6004 17.8693 14.7419C18.2884 15.1554 18.2884 15.828 17.8693 16.2414Z" fill="#3B4456"/>
</g>
<defs>
<clipPath id="clip0_171_1232">
<rect width="24" height="24" fill="white"/>
</clipPath>
</defs>
</svg>
