<svg width="24" height="24" viewBox="0 0 24 24" fill="none" xmlns="http://www.w3.org/2000/svg">
<g clip-path="url(#clip0_184_1265)">
<path d="M10.8395 4.03611V1.29723C10.8395 0.58079 10.2588 0 9.54231 0H9.51403C8.79759 0 8.2168 0.58079 8.2168 1.29723V4.03611H10.8395Z" fill="#ABB6C4"/>
<path d="M19.2037 5.23175C17.529 3.139 14.9251 1.96973 12.0003 1.96973C9.07551 1.96973 6.47159 3.139 4.79688 5.23175L12 7.82964L19.2037 5.23175Z" fill="#FCF2D0"/>
<path d="M14.4755 24.0001H16.5652C17.269 24.0001 17.8591 23.4688 17.9328 22.769L18.3034 19.2471H10.4872L10.0859 23.19L14.4755 24.0001Z" fill="#CEEAFB"/>
<path d="M19.2026 5.23242H4.79638C4.11838 6.07971 3.59279 7.07833 3.25977 8.21202C3.33443 8.23177 3.41243 8.24329 3.49327 8.24329H20.5057C20.5865 8.24329 20.6645 8.23177 20.7392 8.21202C20.4062 7.07833 19.8806 6.07971 19.2026 5.23242Z" fill="#F9EAB9"/>
<path d="M10.4881 19.2471H5.69727L6.06794 22.769C6.14157 23.4688 6.73173 24.0001 7.43547 24.0001H14.4763C12.8502 22.7026 11.489 21.0872 10.4881 19.2471V19.2471Z" fill="#95CBEC"/>
<path d="M3.89453 8.5127L5.14867 20.4291C5.23373 21.2373 5.91521 21.8508 6.72789 21.8508H17.2717C18.0843 21.8508 18.7658 21.2373 18.8509 20.4291L20.105 8.5127H3.89453Z" fill="#E1B89A"/>
<path d="M8.60125 11.8082C8.60125 10.6774 8.72273 9.57515 8.95143 8.5127H3.89453L5.14867 20.4291C5.23373 21.2373 5.91521 21.8508 6.72789 21.8508H12.2676C9.9804 19.138 8.60125 15.6344 8.60125 11.8082Z" fill="#D2996F"/>
<path d="M9.70105 18.282C9.42455 17.3878 9.78194 16.3117 10.659 15.6347C11.7375 14.8018 13.2009 14.8827 13.9505 15.8083L13.8943 16.2806L14.299 16.4627C14.576 17.3569 14.2191 18.433 13.3421 19.11C12.2626 19.943 10.7997 19.8626 10.0501 18.936L10.0864 18.5371L9.70105 18.282Z" fill="#CB8A5A"/>
<path d="M14.1752 16.0986C13.5156 16.6078 13.1225 16.0986 12.4629 16.6078C11.8033 17.1171 12.1964 17.6263 11.5367 18.1356C10.877 18.6449 10.4839 18.1357 9.82422 18.6449" fill="#CB8A5A"/>
<path d="M9.44569 6.7373H20.5065C21.0108 6.7373 21.4196 7.14612 21.4196 7.65038V8.8351C21.4196 9.33936 21.0108 9.74818 20.5065 9.74818H8.73734L7.12891 7.82971L9.44569 6.7373Z" fill="#FFF9E7"/>
<path d="M9.44479 6.7373H3.49384C2.98919 6.7373 2.58008 7.14641 2.58008 7.65107V8.83441C2.58008 9.33907 2.98919 9.74818 3.49384 9.74818H8.73649C8.87366 8.70876 9.11324 7.70171 9.44479 6.7373V6.7373Z" fill="#FCF2D0"/>
<path d="M8.44187 14.2396C9.167 14.2396 9.75484 13.7715 9.75484 13.194C9.75484 12.6166 9.167 12.1484 8.44187 12.1484C7.71674 12.1484 7.12891 12.6166 7.12891 13.194C7.12891 13.7715 7.71674 14.2396 8.44187 14.2396Z" fill="white"/>
<path d="M15.5591 14.2396C16.2842 14.2396 16.872 13.7715 16.872 13.194C16.872 12.6166 16.2842 12.1484 15.5591 12.1484C14.8339 12.1484 14.2461 12.6166 14.2461 13.194C14.2461 13.7715 14.8339 14.2396 15.5591 14.2396Z" fill="white"/>
<path d="M9.20753 12.5553C9.00447 12.5553 8.83984 12.3907 8.83984 12.1876V11.6509C8.83984 11.4478 9.00447 11.2832 9.20753 11.2832C9.41058 11.2832 9.57521 11.4478 9.57521 11.6509V12.1876C9.57521 12.3907 9.41058 12.5553 9.20753 12.5553Z" fill="#4F5C6F"/>
<path d="M14.7935 12.5553C14.5904 12.5553 14.4258 12.3907 14.4258 12.1876V11.6509C14.4258 11.4478 14.5904 11.2832 14.7935 11.2832C14.9965 11.2832 15.1611 11.4478 15.1611 11.6509V12.1876C15.1611 12.3907 14.9966 12.5553 14.7935 12.5553Z" fill="#4F5C6F"/>
<path d="M12.0005 12.8745C11.612 12.8745 11.2426 12.7063 10.987 12.4129C10.8536 12.2599 10.8695 12.0276 11.0226 11.8942C11.1757 11.7608 11.4079 11.7767 11.5414 11.9299C11.6573 12.0629 11.8247 12.1392 12.0006 12.1392C12.1765 12.1392 12.3439 12.0629 12.4598 11.9299C12.5932 11.7767 12.8254 11.7608 12.9786 11.8942C13.1317 12.0276 13.1476 12.2599 13.0142 12.4129C12.7586 12.7063 12.3891 12.8745 12.0005 12.8745V12.8745Z" fill="#4F5C6F"/>
<path d="M14.2992 16.4621C13.9143 16.7209 13.5873 16.7209 13.3196 16.7209C13.0784 16.7209 12.9191 16.7209 12.6882 16.8989C12.4578 17.0769 12.4176 17.2313 12.3563 17.4651C12.2828 17.746 12.1911 18.0956 11.7621 18.4265C11.3332 18.7579 10.9719 18.7579 10.6812 18.7579C10.44 18.7579 10.2801 18.7579 10.0502 18.9354C10.0404 18.9236 10.0311 18.9118 10.0218 18.8996C9.87521 18.7103 9.76932 18.501 9.70117 18.2814C10.0865 18.0225 10.414 18.0225 10.6812 18.0225C10.9229 18.0225 11.0822 18.0225 11.3126 17.8446C11.5435 17.6666 11.5837 17.5122 11.645 17.2788C11.7185 16.9979 11.8097 16.6479 12.2392 16.317C12.6681 15.9856 13.0294 15.9856 13.3196 15.9856C13.5613 15.9856 13.7207 15.9856 13.9506 15.8076C13.9604 15.8194 13.9702 15.8316 13.9795 15.8439C14.1256 16.0331 14.2315 16.242 14.2992 16.4621V16.4621Z" fill="#B36D3A"/>
</g>
<defs>
<clipPath id="clip0_184_1265">
<rect width="24" height="24" fill="white"/>
</clipPath>
</defs>
</svg>
