<svg width="24" height="24" viewBox="0 0 24 24" fill="none" xmlns="http://www.w3.org/2000/svg">
<path d="M23.8138 10.2152L11.9997 14.441L0.185547 10.2152C0.515124 8.84999 1.27419 7.61005 2.37148 6.69052L4.10141 5.24096L11.9997 2.40234L19.8979 5.24096L21.6279 6.69052C22.7252 7.61005 23.4843 8.84994 23.8138 10.2152Z" fill="#BC9BDD"/>
<path d="M23.8139 18.6667C23.1327 21.4907 20.6533 23.6415 17.6412 23.6415H6.35818C3.37446 23.6415 0.873965 21.5196 0.185547 18.6667L11.9997 14.4409L23.8139 18.6667Z" fill="#BC9BDD"/>
<path d="M6.97586 4.20752L4.10141 5.24058L2.37148 6.69014C1.27419 7.60963 0.515076 8.84961 0.185547 10.2149L3.95079 11.5617C4.18597 8.7752 5.28345 6.23463 6.97586 4.20752V4.20752Z" fill="#B08BD7"/>
<path d="M18.7698 0H5.23052C3.6513 0 2.37109 1.28021 2.37109 2.85943V3.50999C2.37109 4.46579 3.1459 5.2406 4.1017 5.2406H19.8987C20.8545 5.2406 21.6293 4.46579 21.6293 3.50999V2.85943C21.6292 1.28021 20.349 0 18.7698 0V0Z" fill="#FFBDD7"/>
<path d="M4.33793 17.1812L0.185547 18.6664C0.873965 21.5193 3.37441 23.6413 6.35818 23.6413H7.72667C5.99475 22.0829 4.89322 19.8277 4.33793 17.1812V17.1812Z" fill="#B08BD7"/>
<path d="M24 11.7735V17.1077C24 17.6382 23.9368 18.1607 23.8141 18.6664H0.185867C0.0632113 18.1606 0 17.6382 0 17.1076V11.7735C0 11.2435 0.0632113 10.7205 0.185867 10.2148H23.8142C23.9368 10.7205 24 11.2435 24 11.7735V11.7735Z" fill="#FFBDD7"/>
<path d="M16.8759 8.57105C16.0865 7.78166 14.8066 7.78166 14.0173 8.57105C13.2279 9.36044 12.5075 11.3607 13.2969 12.15C14.0863 12.9394 16.0865 12.219 16.8759 11.4297C17.6653 10.6403 17.6653 9.36039 16.8759 8.57105Z" fill="#80DFB5"/>
<path d="M7.12428 8.57105C7.91367 7.78166 9.19349 7.78166 9.98284 8.57105C10.7722 9.36044 11.4926 11.3607 10.7032 12.15C9.91383 12.9394 7.91362 12.219 7.12423 11.4297C6.33488 10.6403 6.33488 9.36039 7.12428 8.57105V8.57105Z" fill="#80DFB5"/>
<path d="M14.0211 9.10969C14.0211 10.2261 13.1161 12.1498 11.9998 12.1498C10.8835 12.1498 9.97852 10.2261 9.97852 9.10969C9.97852 7.99333 10.8835 7.08838 11.9998 7.08838C13.1161 7.08838 14.0211 7.99333 14.0211 9.10969Z" fill="#B0EBCE"/>
<path d="M16.7872 14.7852C16.7872 17.4293 14.6437 21.1535 11.9996 21.1535C9.3554 21.1535 7.21191 17.4293 7.21191 14.7852C7.21191 12.141 9.3554 9.99756 11.9996 9.99756C14.6437 9.99756 16.7872 12.1411 16.7872 14.7852V14.7852Z" fill="#FF748F"/>
<path d="M9.13216 14.0252C9.13216 12.6651 9.53339 11.3989 10.2235 10.3379C8.45875 11.0433 7.21191 12.7685 7.21191 14.785C7.21191 17.4292 9.3554 21.1533 11.9996 21.1533C12.6781 21.1533 13.3236 20.9075 13.9084 20.4982C11.1425 19.6463 9.13216 17.0706 9.13216 14.0252V14.0252Z" fill="#FD5F7E"/>
<path d="M9.10827 14.4229C8.9082 14.4229 8.74609 14.585 8.74609 14.785V15.3406C8.74609 15.5407 8.9082 15.7028 9.10827 15.7028C9.30833 15.7028 9.47044 15.5407 9.47044 15.3406V14.785C9.47044 14.585 9.30828 14.4229 9.10827 14.4229V14.4229Z" fill="#423E4F"/>
<path d="M14.8915 14.4229C14.6914 14.4229 14.5293 14.585 14.5293 14.785V15.3406C14.5293 15.5407 14.6914 15.7028 14.8915 15.7028C15.0915 15.7028 15.2536 15.5407 15.2536 15.3406V14.785C15.2536 14.585 15.0915 14.4229 14.8915 14.4229V14.4229Z" fill="#423E4F"/>
<path d="M12.9998 15.051C12.849 14.9196 12.6202 14.9353 12.4888 15.0862C12.3653 15.228 12.187 15.3092 11.9995 15.3092C11.8121 15.3092 11.6337 15.2279 11.5102 15.0862C11.3788 14.9354 11.15 14.9197 10.9993 15.051C10.8485 15.1825 10.8327 15.4112 10.9641 15.562C11.2252 15.8617 11.6026 16.0336 11.9995 16.0336C12.3963 16.0336 12.7737 15.8617 13.0348 15.562C13.1664 15.4112 13.1506 15.1825 12.9998 15.051Z" fill="#423E4F"/>
<path d="M5.56058 2.33775C5.56058 1.52388 5.68377 0.738785 5.91223 0H5.23052C3.6513 0 2.37109 1.28021 2.37109 2.85943V3.50999C2.37109 4.46574 3.1459 5.24055 4.1017 5.24055H6.11089C5.75577 4.34192 5.56058 3.36261 5.56058 2.33775V2.33775Z" fill="#FFAACB"/>
<path d="M3.90278 12.6903C3.90278 11.8442 3.98308 11.0169 4.13471 10.2148H0.185867C0.0632113 10.7206 0 11.2436 0 11.7736V17.1077C0 17.6382 0.0632113 18.1607 0.185867 18.6664H4.72105C4.16518 16.8709 3.90278 14.8406 3.90278 12.6903Z" fill="#FFAACB"/>
</svg>
