<svg width="24" height="24" viewBox="0 0 24 24" fill="none" xmlns="http://www.w3.org/2000/svg">
<path d="M16.534 23.9994H7.46527C6.66572 23.9994 6.01758 23.3513 6.01758 22.5517V7.73828H17.9817V22.5517C17.9817 23.3513 17.3335 23.9994 16.534 23.9994Z" fill="#FFF9E7"/>
<path d="M15.8759 3.12012H8.12344L6.01758 7.73876H17.9817L15.8759 3.12012Z" fill="#FFF9E7"/>
<g opacity="0.1">
<path opacity="0.1" d="M15.8759 3.12012H8.12344L6.01758 7.73876H17.9817L15.8759 3.12012Z" fill="black"/>
</g>
<path d="M15.0138 0H8.98484C8.50892 0 8.12305 0.385828 8.12305 0.861797V3.12028H15.8755V0.861797C15.8756 0.385828 15.4897 0 15.0138 0Z" fill="#FDA354"/>
<g opacity="0.1">
<path opacity="0.1" d="M12.3516 0H11.6484V3.12H12.3516V0Z" fill="black"/>
<path opacity="0.1" d="M10.3906 0H9.6875V3.12H10.3906V0Z" fill="black"/>
<path opacity="0.1" d="M14.3105 0H13.6074V3.12H14.3105V0Z" fill="black"/>
</g>
<path d="M11.1432 16.6457C9.16959 16.08 7.35389 16.5227 6.01758 17.404V22.5521C6.01758 23.3516 6.66572 23.9998 7.46527 23.9998H16.534C17.3336 23.9998 17.9817 23.3516 17.9817 22.5521V15.2227C16.1079 16.7426 13.3229 17.2706 11.1432 16.6457Z" fill="#FDA354"/>
<g opacity="0.3">
<path opacity="0.3" d="M11.1432 16.6457C9.16959 16.08 7.35389 16.5227 6.01758 17.404V19.0615C7.35389 18.1803 9.16959 17.7375 11.1432 18.3033C13.323 18.9281 16.1079 18.4002 17.9817 16.8802V15.2227C16.1079 16.7426 13.3229 17.2706 11.1432 16.6457Z" fill="white"/>
</g>
<g opacity="0.1">
<path opacity="0.1" d="M12.3447 7.10829C13.0819 7.10829 13.6796 6.51063 13.6796 5.77338C13.6796 5.03613 13.0819 4.43848 12.3447 4.43848C11.6074 4.43848 11.0098 5.03613 11.0098 5.77338C11.0098 6.51063 11.6074 7.10829 12.3447 7.10829Z" fill="black"/>
</g>
<path d="M15.261 16.4533C16.1254 17.3176 16.3173 18.6388 16.3476 19.4397C16.3625 19.834 16.04 20.1565 15.6457 20.1415C14.8448 20.1112 13.5237 19.9193 12.6593 19.055C11.795 18.1906 11.6031 16.8695 11.5728 16.0686C11.5579 15.6742 11.8803 15.3518 12.2746 15.3667C13.0755 15.397 14.3967 15.5889 15.261 16.4533Z" fill="#60D195"/>
<g opacity="0.1">
<path opacity="0.1" d="M14.7793 18.9248C14.6894 18.9248 14.5994 18.8905 14.5307 18.8218L12.892 17.1831C12.7547 17.0458 12.7547 16.8232 12.892 16.686C13.0294 16.5487 13.2519 16.5487 13.3892 16.686L15.0279 18.3246C15.1652 18.4619 15.1652 18.6845 15.0279 18.8218C14.9593 18.8905 14.8693 18.9248 14.7793 18.9248Z" fill="black"/>
</g>
<g opacity="0.1">
<path opacity="0.1" d="M12.2746 15.3667C11.8803 15.3518 11.5578 15.6742 11.5728 16.0686C11.6031 16.8695 11.795 18.1906 12.6593 19.055C12.7328 19.1284 12.8097 19.1966 12.8892 19.2607C12.9341 19.1335 12.9731 19.0058 13.0062 18.8792C14.111 18.4769 14.9223 17.4645 15.0335 16.2495C14.1777 15.5581 13.0081 15.3945 12.2746 15.3667Z" fill="black"/>
</g>
<path d="M9.13198 17.5792C9.99636 16.7149 11.3175 16.523 12.1184 16.4927C12.5127 16.4777 12.8352 16.8002 12.8203 17.1945C12.7899 17.9955 12.598 19.3166 11.7337 20.181C10.8694 21.0453 9.54819 21.2372 8.74728 21.2675C8.35292 21.2825 8.03047 20.96 8.04542 20.5657C8.07575 19.7648 8.2677 18.4436 9.13198 17.5792Z" fill="#60D195"/>
<g opacity="0.1">
<path opacity="0.1" d="M9.61327 20.0508C9.52332 20.0508 9.43332 20.0164 9.36469 19.9478C9.22739 19.8105 9.22739 19.5879 9.36469 19.4506L11.0033 17.812C11.1406 17.6747 11.3633 17.6747 11.5005 17.812C11.6378 17.9493 11.6378 18.1719 11.5005 18.3091L9.86185 19.9478C9.79318 20.0164 9.70318 20.0508 9.61327 20.0508Z" fill="black"/>
</g>
<path d="M11.5714 18.6936C13.285 18.6936 14.6741 17.3045 14.6741 15.5909C14.6741 13.8774 13.285 12.4883 11.5714 12.4883C9.85786 12.4883 8.46875 13.8774 8.46875 15.5909C8.46875 17.3045 9.85786 18.6936 11.5714 18.6936Z" fill="#FDA354"/>
<g opacity="0.1">
<path opacity="0.1" d="M9.89183 16.8794C10.0694 16.8794 10.2133 16.7354 10.2133 16.5578C10.2133 16.3803 10.0694 16.2363 9.89183 16.2363C9.71426 16.2363 9.57031 16.3803 9.57031 16.5578C9.57031 16.7354 9.71426 16.8794 9.89183 16.8794Z" fill="black"/>
<path opacity="0.1" d="M9.89183 15.5991C10.0694 15.5991 10.2133 15.4551 10.2133 15.2776C10.2133 15.1 10.0694 14.9561 9.89183 14.9561C9.71426 14.9561 9.57031 15.1 9.57031 15.2776C9.57031 15.4551 9.71426 15.5991 9.89183 15.5991Z" fill="black"/>
<path opacity="0.1" d="M11.0969 17.2651C11.2745 17.2651 11.4184 17.1212 11.4184 16.9436C11.4184 16.766 11.2745 16.6221 11.0969 16.6221C10.9193 16.6221 10.7754 16.766 10.7754 16.9436C10.7754 17.1212 10.9193 17.2651 11.0969 17.2651Z" fill="black"/>
<path opacity="0.1" d="M13.3313 14.7631C13.5088 14.7631 13.6528 14.6192 13.6528 14.4416C13.6528 14.2641 13.5088 14.1201 13.3313 14.1201C13.1537 14.1201 13.0098 14.2641 13.0098 14.4416C13.0098 14.6192 13.1537 14.7631 13.3313 14.7631Z" fill="black"/>
</g>
<path d="M9.30273 10.3423C9.10858 10.3423 8.95117 10.1849 8.95117 9.99077V9.54297C8.95117 9.34881 9.10858 9.19141 9.30273 9.19141C9.49689 9.19141 9.6543 9.34881 9.6543 9.54297V9.99077C9.6543 10.1849 9.49689 10.3423 9.30273 10.3423Z" fill="#3E4B58"/>
<path d="M14.6992 10.3423C14.505 10.3423 14.3477 10.1849 14.3477 9.99077V9.54297C14.3477 9.34881 14.505 9.19141 14.6992 9.19141C14.8934 9.19141 15.0508 9.34881 15.0508 9.54297V9.99077C15.0508 10.1849 14.8934 10.3423 14.6992 10.3423Z" fill="#3E4B58"/>
<path d="M12.0003 10.6863C11.6261 10.6863 11.2703 10.5243 11.024 10.2417C10.8965 10.0953 10.9117 9.87329 11.0581 9.7457C11.2045 9.61815 11.4265 9.63339 11.5541 9.77978C11.6668 9.90906 11.8294 9.98321 12.0003 9.98321C12.1712 9.98321 12.3339 9.90906 12.4466 9.77978C12.5742 9.63339 12.7962 9.61815 12.9426 9.7457C13.089 9.87329 13.1042 10.0953 12.9767 10.2417C12.7304 10.5243 12.3745 10.6863 12.0003 10.6863Z" fill="#3E4B58"/>
<g opacity="0.4">
<path opacity="0.4" d="M15.0086 12.2377C15.7491 12.2377 16.3493 11.878 16.3493 11.4343C16.3493 10.9906 15.7491 10.6309 15.0086 10.6309C14.2682 10.6309 13.668 10.9906 13.668 11.4343C13.668 11.878 14.2682 12.2377 15.0086 12.2377Z" fill="#F98F9D"/>
<path opacity="0.4" d="M8.99302 12.2377C9.73345 12.2377 10.3337 11.878 10.3337 11.4343C10.3337 10.9906 9.73345 10.6309 8.99302 10.6309C8.25258 10.6309 7.65234 10.9906 7.65234 11.4343C7.65234 11.878 8.25258 12.2377 8.99302 12.2377Z" fill="#F98F9D"/>
</g>
<path d="M16.1063 22.334H13.3301C13.1359 22.334 12.9785 22.1766 12.9785 21.9824C12.9785 21.7883 13.1359 21.6309 13.3301 21.6309H16.1063C16.3005 21.6309 16.4579 21.7883 16.4579 21.9824C16.4579 22.1766 16.3004 22.334 16.1063 22.334Z" fill="white"/>
<g opacity="0.1">
<path opacity="0.1" d="M15.8761 3.12012H14.0566L16.1625 7.73876V22.5522C16.1625 23.3517 15.5143 23.9999 14.7148 23.9999H16.5342C17.3338 23.9999 17.9819 23.3517 17.9819 22.5522V7.73876L15.8761 3.12012Z" fill="black"/>
</g>
<g opacity="0.1">
<path opacity="0.1" d="M15.0148 0H13.1953C13.6713 0 14.0571 0.385828 14.0571 0.861797V3.12028H15.8766V0.861797C15.8766 0.385828 15.4907 0 15.0148 0Z" fill="black"/>
</g>
</svg>
