<svg width="24" height="24" viewBox="0 0 24 24" fill="none" xmlns="http://www.w3.org/2000/svg">
<g clip-path="url(#clip0_239_1986)">
<path d="M14.3918 2.83509C14.0337 2.47706 13.6704 2.16613 13.303 1.8993C10.1614 -0.382722 6.71969 0.598971 3.65763 3.6607C0.237403 7.08045 -0.588301 10.9738 2.83188 14.3935C5.28754 16.8489 7.98738 17.1156 10.5808 15.805C11.5994 15.2903 12.6016 14.5323 13.5661 13.5679C16.9863 10.1482 17.812 6.25484 14.3918 2.83509V2.83509Z" fill="#CE857A"/>
<path d="M10.3177 4.13641C11.2822 3.17204 12.2844 2.41403 13.303 1.8993C10.1614 -0.382722 6.71969 0.598971 3.65763 3.6607C0.237403 7.08045 -0.588302 10.9738 2.83188 14.3935C5.28754 16.8489 7.98738 17.1156 10.5808 15.805C10.2134 15.5382 9.85001 15.2273 9.49194 14.8692C6.07176 11.4495 6.89746 7.55616 10.3177 4.13641V4.13641Z" fill="#C77464"/>
<path d="M15.4763 5.33441C15.349 5.33441 15.2258 5.2661 15.1615 5.14603C15.0684 4.97239 15.1338 4.75613 15.3075 4.66308L16.0794 4.24944C16.253 4.1563 16.4694 4.22171 16.5624 4.39539C16.6555 4.56903 16.5901 4.78529 16.4164 4.87834L15.6445 5.29198C15.5909 5.32076 15.5332 5.33441 15.4763 5.33441V5.33441Z" fill="#AC6757"/>
<path d="M2.90806 5.50966C2.83037 5.50966 2.75221 5.48445 2.68666 5.43245L2.00039 4.88832C1.84597 4.76592 1.82004 4.54148 1.94244 4.38711C2.06489 4.23269 2.28939 4.20676 2.44366 4.32916L3.12993 4.87329C3.28435 4.99569 3.31028 5.22014 3.18788 5.37451C3.11742 5.46332 3.01324 5.50966 2.90806 5.50966V5.50966Z" fill="#AC6757"/>
<path d="M13.5031 2.9676C13.4219 2.9676 13.3402 2.94006 13.2733 2.88359C13.1227 2.75657 13.1035 2.53151 13.2305 2.38085L13.7949 1.71132C13.922 1.56066 14.147 1.54144 14.2977 1.66851C14.4483 1.79553 14.4675 2.02059 14.3405 2.17125L13.7761 2.84077C13.7055 2.9245 13.6047 2.9676 13.5031 2.9676Z" fill="#AC6757"/>
<path d="M5.14105 3.27563C5.03596 3.27563 4.93192 3.22944 4.86147 3.14082L4.31673 2.45521C4.19413 2.30093 4.21982 2.07649 4.3741 1.9539C4.52847 1.83135 4.75286 1.85704 4.87541 2.01127L5.42015 2.69687C5.54275 2.85115 5.51706 3.07559 5.36278 3.19819C5.29713 3.25033 5.21883 3.27563 5.14105 3.27563Z" fill="#AC6757"/>
<path d="M10.8201 1.568C10.7941 1.568 10.7677 1.5651 10.7412 1.55915C10.549 1.51577 10.4284 1.32481 10.4717 1.13258L10.6644 0.278329C10.7078 0.0860914 10.8988 -0.0344557 11.091 0.00878714C11.2832 0.0521727 11.4039 0.243126 11.3605 0.435364L11.1678 1.28961C11.1304 1.45545 10.9832 1.568 10.8201 1.568V1.568Z" fill="#AC6757"/>
<path d="M7.83744 1.75281C7.68811 1.75281 7.54901 1.65843 7.4991 1.509L7.22162 0.678446C7.15916 0.491536 7.26006 0.289403 7.44692 0.226989C7.63373 0.164527 7.83596 0.265427 7.89838 0.45229L8.17586 1.28285C8.23832 1.46976 8.13742 1.67189 7.95056 1.7343C7.91307 1.74686 7.87492 1.75281 7.83744 1.75281Z" fill="#AC6757"/>
<path d="M17.0076 8.29781C17 8.29781 16.9924 8.29757 16.9847 8.29709L16.1106 8.24167C15.914 8.22916 15.7647 8.05966 15.7771 7.863C15.7896 7.66639 15.9585 7.51758 16.1558 7.52947L17.0298 7.5849C17.2265 7.59741 17.3758 7.76691 17.3634 7.96357C17.3513 8.15252 17.1943 8.29781 17.0076 8.29781V8.29781Z" fill="#AC6757"/>
<path d="M1.94681 14.4351C1.84539 14.4351 1.74473 14.3922 1.67413 14.3086C1.54692 14.1581 1.56586 13.933 1.71637 13.8058L2.38523 13.2405C2.53575 13.1134 2.76077 13.1322 2.88802 13.2828C3.01523 13.4332 2.99629 13.6584 2.84578 13.7856L2.17692 14.3509C2.10994 14.4074 2.02816 14.4351 1.94681 14.4351Z" fill="#AC6757"/>
<path d="M0.356568 11.3845C0.193777 11.3845 0.0467321 11.2724 0.00900761 11.107C-0.0348061 10.9149 0.0854556 10.7236 0.277598 10.6798L1.13147 10.4851C1.32375 10.4411 1.51485 10.5616 1.55861 10.7537C1.60238 10.9459 1.48217 11.1371 1.29002 11.1809L0.436155 11.3755C0.409468 11.3816 0.382827 11.3845 0.356568 11.3845V11.3845Z" fill="#AC6757"/>
<path d="M1.38933 8.20744C1.35208 8.20744 1.31416 8.20154 1.27691 8.18917L0.44569 7.91325C0.258637 7.85117 0.157357 7.64923 0.219438 7.46227C0.281567 7.27522 0.483652 7.17399 0.670419 7.23602L1.50164 7.51194C1.68869 7.57402 1.78998 7.77596 1.72789 7.96292C1.67818 8.11263 1.53884 8.20744 1.38933 8.20744V8.20744Z" fill="#AC6757"/>
<path d="M7.52476 17.3637C7.32767 17.3637 7.16797 17.204 7.16797 17.0069V16.1332C7.16797 15.9361 7.32767 15.7764 7.52476 15.7764C7.72185 15.7764 7.88155 15.9361 7.88155 16.1332V17.0069C7.88155 17.204 7.7218 17.3637 7.52476 17.3637Z" fill="#AC6757"/>
<path d="M4.57233 16.6123C4.51567 16.6123 4.45821 16.5987 4.40469 16.5701C4.23086 16.4774 4.16512 16.2613 4.25793 16.0874L4.67028 15.3149C4.763 15.1411 4.97902 15.0752 5.15299 15.1681C5.32682 15.2609 5.39257 15.477 5.29975 15.6508L4.8874 16.4234C4.82318 16.5437 4.69987 16.6123 4.57233 16.6123Z" fill="#AC6757"/>
<path d="M8.41906 5.56581C8.85329 5.13158 8.76327 4.33753 8.218 3.79226C7.67273 3.24698 6.87868 3.15696 6.44445 3.5912C6.01022 4.02543 6.10024 4.81947 6.64551 5.36475C7.19078 5.91002 7.98483 6.00004 8.41906 5.56581Z" fill="#FF8E9E"/>
<path d="M13.7706 10.9179C14.2049 10.4836 14.1148 9.68958 13.5696 9.14431C13.0243 8.59903 12.2302 8.50902 11.796 8.94325C11.3618 9.37748 11.4518 10.1715 11.9971 10.7168C12.5423 11.2621 13.3364 11.3521 13.7706 10.9179Z" fill="#FF8E9E"/>
<path d="M16.48 24C20.6332 24 24 20.6332 24 16.48C24 12.3268 20.6332 8.95996 16.48 8.95996C12.3268 8.95996 8.95996 12.3268 8.95996 16.48C8.95996 20.6332 12.3268 24 16.48 24Z" fill="#C77464"/>
<path d="M20.7843 20.7876C23.1634 18.4085 23.1634 14.5513 20.7844 12.1723C18.4053 9.79321 14.5481 9.79323 12.169 12.1723C9.78994 14.5514 9.78993 18.4086 12.169 20.7876C14.548 23.1667 18.4052 23.1667 20.7843 20.7876Z" fill="#5FD9B3"/>
<path d="M18.2471 15.0225C17.9159 14.9744 17.6297 14.7664 17.4815 14.4662C17.1085 13.7105 16.0308 13.7105 15.6578 14.4662C15.5098 14.7664 15.2234 14.9744 14.8922 15.0225C14.0582 15.1437 13.7252 16.1687 14.3287 16.7569V16.7569C14.5684 16.9905 14.6777 17.3271 14.6211 17.6569C14.4786 18.4876 15.3505 19.1211 16.0965 18.7289C16.3927 18.5731 16.7466 18.5731 17.0429 18.7289C17.7888 19.1211 18.6607 18.4876 18.5182 17.6569C18.4617 17.3271 18.5711 16.9905 18.8107 16.7569V16.7569C19.4142 16.1686 19.0812 15.1437 18.2471 15.0225V15.0225Z" fill="#B0EBD8"/>
<path d="M14.9083 16.4798C14.9083 16.2827 14.7486 16.123 14.5515 16.123H13.5365C13.3394 16.123 13.1797 16.2827 13.1797 16.4798C13.1797 16.6769 13.3394 16.8366 13.5365 16.8366H14.5515C14.7485 16.8366 14.9083 16.6769 14.9083 16.4798Z" fill="#313D40"/>
<path d="M13.6357 14.779C13.5372 14.9497 13.5957 15.1679 13.7663 15.2664L14.6454 15.7739C14.816 15.8724 15.0343 15.814 15.1328 15.6434C15.2313 15.4727 15.1728 15.2545 15.0022 15.156L14.1231 14.6484C13.9525 14.55 13.7342 14.6083 13.6357 14.779Z" fill="#313D40"/>
<path d="M15.368 13.6643C15.2694 13.4936 15.0511 13.4352 14.8806 13.5337C14.71 13.6322 14.6515 13.8504 14.75 14.0211L15.2576 14.9001C15.3562 15.071 15.5745 15.1291 15.7449 15.0307C15.9156 14.9322 15.974 14.714 15.8755 14.5433L15.368 13.6643Z" fill="#313D40"/>
<path d="M16.5814 13.0781C16.3843 13.0781 16.2246 13.2378 16.2246 13.4349V14.4499C16.2246 14.647 16.3843 14.8067 16.5814 14.8067C16.7785 14.8067 16.9382 14.647 16.9382 14.4499V13.4349C16.9382 13.2378 16.7784 13.0781 16.5814 13.0781Z" fill="#313D40"/>
<path d="M17.4177 15.0307C17.5886 15.1293 17.8067 15.0707 17.9051 14.9002L18.4126 14.0211C18.5111 13.8504 18.4526 13.6322 18.282 13.5337C18.1112 13.4352 17.8931 13.4936 17.7946 13.6643L17.2871 14.5434C17.1886 14.7141 17.2471 14.9322 17.4177 15.0307Z" fill="#313D40"/>
<path d="M18.0303 15.6433C18.1288 15.814 18.3471 15.8724 18.5177 15.7739L19.3968 15.2664C19.5674 15.1679 19.6259 14.9496 19.5273 14.779C19.4289 14.6083 19.2106 14.55 19.04 14.6484L18.1609 15.156C17.9902 15.2545 17.9317 15.4727 18.0303 15.6433Z" fill="#313D40"/>
<path d="M15.7449 17.9292C15.5743 17.8307 15.356 17.8891 15.2576 18.0598L14.75 18.9389C14.6515 19.1095 14.71 19.3277 14.8806 19.4262C15.0511 19.5247 15.2694 19.4663 15.368 19.2956L15.8755 18.4166C15.974 18.2459 15.9156 18.0277 15.7449 17.9292Z" fill="#313D40"/>
<path d="M15.1328 17.3166C15.0342 17.1459 14.816 17.0876 14.6454 17.186L13.7663 17.6936C13.5957 17.7921 13.5372 18.0103 13.6357 18.1809C13.7344 18.3518 13.9527 18.41 14.1231 18.3115L15.0022 17.804C15.1728 17.7055 15.2313 17.4873 15.1328 17.3166Z" fill="#313D40"/>
<path d="M17.9061 18.0598C17.8075 17.8891 17.5894 17.8307 17.4187 17.9292C17.248 18.0277 17.1896 18.2459 17.2881 18.4165L17.7956 19.2956C17.894 19.4661 18.1121 19.5248 18.283 19.4262C18.4536 19.3277 18.5121 19.1095 18.4135 18.9388L17.9061 18.0598Z" fill="#313D40"/>
<path d="M16.5814 18.1533C16.3843 18.1533 16.2246 18.313 16.2246 18.5101V19.5251C16.2246 19.7222 16.3843 19.8819 16.5814 19.8819C16.7785 19.8819 16.9382 19.7222 16.9382 19.5251V18.5101C16.9382 18.313 16.7784 18.1533 16.5814 18.1533Z" fill="#313D40"/>
<path d="M19.6267 16.123H18.6117C18.4146 16.123 18.2549 16.2827 18.2549 16.4798C18.2549 16.6769 18.4146 16.8366 18.6117 16.8366H19.6267C19.8238 16.8366 19.9835 16.6769 19.9835 16.4798C19.9835 16.2827 19.8238 16.123 19.6267 16.123Z" fill="#313D40"/>
<path d="M19.3967 17.6936L18.5177 17.1861C18.3469 17.0875 18.1288 17.1459 18.0303 17.3166C17.9318 17.4873 17.9902 17.7055 18.1609 17.804L19.0399 18.3116C19.2108 18.4101 19.4289 18.3515 19.5273 18.181C19.6259 18.0103 19.5674 17.7921 19.3967 17.6936Z" fill="#313D40"/>
<path d="M8.91635 3.74119L8.51271 4.14483C8.37337 4.28422 8.37337 4.51009 8.51271 4.64943C8.65214 4.78877 8.87796 4.78872 9.0173 4.64943L9.42095 4.24578C9.56029 4.1064 9.56029 3.88052 9.42095 3.74119C9.28156 3.6019 9.05569 3.6019 8.91635 3.74119Z" fill="#313D40"/>
<path d="M13.6221 8.44695C13.7615 8.30757 13.7615 8.0817 13.6221 7.94236C13.4827 7.80307 13.2569 7.80307 13.1175 7.94236L12.7139 8.34601C12.5745 8.48539 12.5745 8.71126 12.7139 8.8506C12.8533 8.98994 13.0791 8.98989 13.2185 8.8506L13.6221 8.44695Z" fill="#313D40"/>
<path d="M11.4074 6.68367C10.9923 6.7115 10.6519 6.36879 10.6801 5.95639C10.6936 5.75978 10.5451 5.58947 10.3486 5.57601C10.1517 5.56288 9.98166 5.71097 9.9682 5.90753C9.9103 6.75189 10.61 7.45324 11.4562 7.39558C11.6528 7.38212 11.8012 7.21181 11.7878 7.0152C11.7743 6.81863 11.6038 6.67044 11.4074 6.68367V6.68367Z" fill="#313D40"/>
</g>
<defs>
<clipPath id="clip0_239_1986">
<rect width="24" height="24" fill="white"/>
</clipPath>
</defs>
</svg>
