<svg width="24" height="24" viewBox="0 0 24 24" fill="none" xmlns="http://www.w3.org/2000/svg">
<path d="M21.5826 15.954C21.6059 15.7861 21.7548 15.6612 21.9242 15.6674C22.3353 15.6823 22.7656 15.5434 23.1198 15.2461C23.8355 14.6456 23.9694 13.627 23.4189 12.971C22.9926 12.4629 22.2808 12.3215 21.649 12.5624C21.5065 12.6168 21.346 12.5722 21.2561 12.449C20.3877 11.2593 19.443 10.1336 18.4223 9.07176C18.3166 8.96184 18.3005 8.79595 18.3788 8.66507C18.7258 8.08471 18.7101 7.35923 18.2838 6.85115C17.7334 6.19514 16.7069 6.15014 15.9913 6.75065C15.637 7.04789 15.4255 7.44754 15.3688 7.85493C15.3455 8.02289 15.1966 8.14776 15.0271 8.14162C14.616 8.12667 14.1858 8.26561 13.8315 8.56284C13.1158 9.16336 12.982 10.182 13.5324 10.838C13.9588 11.3461 14.6705 11.4875 15.3023 11.2465C15.4448 11.1922 15.6054 11.2368 15.6953 11.36C16.5637 12.5497 17.5083 13.6754 18.5291 14.7372C18.6348 14.8471 18.6508 15.013 18.5726 15.1439C18.2256 15.7243 18.2412 16.4497 18.6675 16.9578C19.218 17.6138 20.2444 17.6588 20.9601 17.0583C21.3143 16.7611 21.5259 16.3615 21.5826 15.954V15.954Z" fill="#FFF8E6"/>
<path d="M19.3746 10.773C19.1308 11.7238 18.1843 12.5181 17.2055 12.5935C16.6883 12.6331 16.019 12.579 15.2724 12.437C16.018 12.5684 13.4979 10.2478 12.5283 9.48526C11.2771 8.5021 11.21 7.04982 11.21 5.38867C11.21 4.25771 13.1937 4.14217 14.4848 2.96982C14.4853 2.96982 14.4853 2.96931 14.4853 2.96931C14.6186 2.91137 14.748 2.84279 14.8721 2.76409C15.0377 2.65881 15.2502 2.66753 15.4091 2.78293C15.4907 2.84185 15.5757 2.89688 15.6646 2.94854C16.3604 3.34984 17.1524 3.43192 17.8709 3.23926C18.0969 3.17842 18.3326 3.29481 18.4267 3.5087C19.5408 6.03142 19.7759 9.20837 19.3746 10.773V10.773Z" fill="#EAAA83"/>
<path d="M15.2649 12.4353C13.0166 12.0056 10.0725 10.7758 8.4855 8.8845C6.64082 6.68634 6.60365 2.66334 9.02006 0.636141C9.23301 0.456985 9.45806 0.300047 9.69225 0.16336C9.99745 -0.0148121 10.3837 0.182672 10.4118 0.535219C10.4857 1.45706 10.9961 2.3287 11.8576 2.82609C12.6921 3.30802 13.6656 3.32977 14.485 2.96902C13.8544 3.83391 13.4849 4.88325 13.4849 6.01416C13.4849 7.67545 14.2818 9.16027 15.533 10.1437C16.5061 10.9085 16.0143 12.5786 15.2649 12.4353Z" fill="#E4996D"/>
<path d="M17.7012 13.3953C17.7012 15.3916 15.2794 16.6592 11.7036 17.2618C7.82512 16.7858 5.61426 14.0515 5.61426 11.0305C5.61426 9.7045 6.52668 8.15289 8.03601 7.19922C8.47401 7.24558 8.90381 7.30736 9.3239 7.3832C9.3239 7.3832 9.81529 8.6252 10.0556 8.6793C10.4368 8.76512 11.17 7.82266 11.17 7.82266C12.213 8.13269 13.1682 8.52911 14.0075 8.98305C14.0075 8.98305 14.4028 10.3378 14.7033 10.5392C15.1083 10.8107 16.0661 10.4144 16.0661 10.4144C17.1043 11.3608 17.7012 12.4044 17.7012 13.3953V13.3953Z" fill="#FFD9A0"/>
<path d="M11.7039 17.2621C10.0461 17.5417 8.13958 17.6784 6.11191 17.6784C4.44817 17.6784 2.86642 17.5866 1.43641 17.3992C1.087 17.3534 0.903297 16.9603 1.09155 16.6624L1.27581 16.3707C1.47484 16.0557 1.47489 15.6542 1.27591 15.3391L0.315813 13.819C0.216344 13.6615 0.216344 13.4608 0.315813 13.3033L1.27591 11.7831C1.47489 11.4681 1.47489 11.0667 1.27591 10.7517L0.315813 9.23151C0.216344 9.07401 0.216344 8.87334 0.315813 8.71579L0.742563 8.04004C0.80425 7.94235 0.898703 7.86937 1.00937 7.83609C1.82945 7.58934 2.70386 7.39584 3.61919 7.26857C3.61919 7.26857 4.32161 8.14105 4.66323 8.11312C5.00481 8.08518 5.66767 7.10198 5.66767 7.10198C5.81542 7.0986 5.96322 7.09668 6.11195 7.09668C6.76773 7.09668 7.41048 7.13193 8.03631 7.19905C7.37814 8.24357 6.99709 9.48074 6.99709 10.8068C6.99705 13.8277 8.97353 16.3871 11.7039 17.2621V17.2621Z" fill="#FDCB89"/>
<path d="M8.03572 7.19864V7.19916C8.02362 7.19723 8.01205 7.19625 8 7.19531C8.01205 7.19625 8.02362 7.19719 8.03572 7.19864Z" fill="#FDCB89"/>
<path d="M5.92309 9.3847C5.92309 11.4718 5.35904 13.1639 4.66318 13.1639C3.96732 13.1639 3.40332 11.4718 3.40332 9.3847C3.40332 8.60048 3.48301 7.87228 3.61918 7.26816C4.28218 7.17595 4.96698 7.11895 5.66715 7.10156H5.66762C5.82793 7.73564 5.92309 8.52708 5.92309 9.3847V9.3847Z" fill="#FFF1CF"/>
<path d="M11.0667 10.1073C10.7286 12.0259 9.899 13.4828 9.21378 13.362C8.52856 13.2413 8.2475 11.5883 8.58552 9.6698C8.74489 8.76628 9.01339 7.96519 9.32436 7.38281C9.9642 7.49869 10.5814 7.64648 11.1705 7.82227C11.2449 8.45827 11.2168 9.25645 11.0667 10.1073V10.1073Z" fill="#FFF1CF"/>
<path d="M16.0661 10.4147C16.0115 10.5967 15.9507 10.7817 15.8826 10.9686C15.2162 12.7992 14.1461 14.0905 13.4922 13.8524C12.8389 13.6144 12.849 11.9377 13.5149 10.1071C13.6622 9.70241 13.8293 9.32432 14.0075 8.9834C14.8077 9.41554 15.5021 9.90088 16.0661 10.4147V10.4147Z" fill="#FFF1CF"/>
<path d="M4.96875 21.4883H19.0306V21.9712C19.0306 23.038 18.1658 23.9028 17.099 23.9028H6.90037C5.83359 23.9028 4.96875 23.038 4.96875 21.9712V21.4883Z" fill="#91D4F2"/>
<path d="M23.9586 18.386L23.9151 18.5299C23.3023 20.5726 21.4224 21.9716 19.2899 21.9716H11.1095C9.682 21.1748 8.13672 19.9589 8.13672 18.6637C8.13672 18.2267 9.15081 17.6496 9.93939 17.1426H23.0333C23.6805 17.1425 24.1445 17.766 23.9586 18.386V18.386Z" fill="#C2EAFB"/>
<path d="M11.1095 21.9716H4.71007C2.57758 21.9716 0.697613 20.5727 0.0848165 18.53L0.0413634 18.3861C-0.144543 17.766 0.31952 17.1426 0.966629 17.1426H9.93949C9.83374 17.5574 9.77866 17.9852 9.77866 18.4223C9.77861 19.7174 10.2634 20.931 11.1095 21.9716V21.9716Z" fill="#A8E1F6"/>
<path d="M8.21486 21.5787C8.98612 21.5787 9.61136 21.0808 9.61136 20.4666C9.61136 19.8524 8.98612 19.3545 8.21486 19.3545C7.44359 19.3545 6.81836 19.8524 6.81836 20.4666C6.81836 21.0808 7.44359 21.5787 8.21486 21.5787Z" fill="white"/>
<path d="M15.7842 21.5787C16.5555 21.5787 17.1807 21.0808 17.1807 20.4666C17.1807 19.8524 16.5555 19.3545 15.7842 19.3545C15.0129 19.3545 14.3877 19.8524 14.3877 20.4666C14.3877 21.0808 15.0129 21.5787 15.7842 21.5787Z" fill="white"/>
<path d="M9.69348 19.6185C9.49342 19.6185 9.33133 19.4564 9.33133 19.2563C9.33133 19.0896 9.19563 18.9538 9.0288 18.9538C8.86197 18.9538 8.72627 19.0895 8.72627 19.2563C8.72627 19.4564 8.56412 19.6185 8.36411 19.6185C8.16409 19.6185 8.00195 19.4564 8.00195 19.2563C8.00195 18.6901 8.46259 18.2295 9.0288 18.2295C9.595 18.2295 10.0556 18.6901 10.0556 19.2563C10.0556 19.4564 9.8935 19.6185 9.69348 19.6185Z" fill="#666667"/>
<path d="M15.6349 19.6185C15.4348 19.6185 15.2727 19.4564 15.2727 19.2563C15.2727 19.0896 15.137 18.9538 14.9702 18.9538C14.8034 18.9538 14.6677 19.0895 14.6677 19.2563C14.6677 19.4564 14.5055 19.6185 14.3055 19.6185C14.1055 19.6185 13.9434 19.4564 13.9434 19.2563C13.9434 18.6901 14.404 18.2295 14.9702 18.2295C15.5364 18.2295 15.997 18.6901 15.997 19.2563C15.9971 19.4564 15.835 19.6185 15.6349 19.6185Z" fill="#666667"/>
<path d="M11.9999 20.7165C11.625 20.7165 11.2685 20.5541 11.0218 20.271C10.8903 20.1202 10.9061 19.8914 11.0568 19.76C11.2076 19.6286 11.4364 19.6443 11.5678 19.7951C11.6769 19.9203 11.8344 19.9921 11.9999 19.9921C12.1653 19.9921 12.3228 19.9203 12.4319 19.7951C12.5633 19.6443 12.7921 19.6286 12.9429 19.76C13.0936 19.8915 13.1094 20.1202 12.978 20.271C12.7313 20.5541 12.3748 20.7165 11.9999 20.7165V20.7165Z" fill="#666667"/>
</svg>
