<svg width="24" height="24" viewBox="0 0 24 24" fill="none" xmlns="http://www.w3.org/2000/svg">
<g clip-path="url(#clip0_127_1897)">
<path d="M5.74448 1.91454C4.92318 1.22426 3.88125 0.790056 2.74082 0.73029C1.60387 0.67015 0.670028 1.60399 0.730168 2.74095C0.809762 4.25956 1.55254 5.59174 2.65776 6.46596C5.37403 7.33343 7.67268 5.23648 5.74448 1.91454Z" fill="#8CC357"/>
<path d="M6.56777 2.79088C6.32867 2.46688 6.05196 2.17288 5.74451 1.91455C5.4994 2.39539 5.31776 2.90347 5.20521 3.42697C5.09627 3.93355 4.81657 4.38622 4.41031 4.70779C3.75556 5.22604 3.16526 5.81624 2.65784 6.46597C2.95052 6.69749 3.26834 6.89732 3.60635 7.0595C7.37777 8.86471 9.01695 6.87683 6.56777 2.79088Z" fill="#7EAD3E"/>
<path d="M11.5816 1.21319C11.1641 0.153302 9.92677 -0.308276 8.91732 0.218787C7.60173 0.904802 6.68644 2.10883 6.33826 3.48157C6.45826 5.89099 11.2991 5.21219 11.8524 2.15922C11.7926 1.83499 11.7019 1.51807 11.5816 1.21319Z" fill="#A0CF76"/>
<path d="M6.1833 4.8364C6.63663 8.05657 11.2991 7.23237 11.9336 3.27326C11.9479 2.89676 11.9197 2.52335 11.8525 2.15918C9.91052 2.18041 8.00599 2.64204 6.33832 3.48152C6.22718 3.9198 6.17332 4.3751 6.1833 4.8364Z" fill="#8CC357"/>
<path d="M4.81039 4.29638L3.1662 2.65214C3.02421 2.51016 2.79396 2.51016 2.65193 2.65214C2.5099 2.79413 2.5099 3.02438 2.65193 3.16641L4.29082 4.8053C4.74743 5.13553 5.19256 4.90219 4.81039 4.29638Z" fill="#7EAD3E"/>
<path d="M6.18204 6.54592C6.27508 6.54592 6.36818 6.51039 6.43915 6.43942C6.58118 6.29743 6.58118 6.06718 6.43915 5.92515L4.81038 4.29639C4.69619 4.44915 4.56208 4.58771 4.41021 4.7079C4.3699 4.73982 4.33057 4.77282 4.29077 4.80531L5.92488 6.43942C5.99594 6.51039 6.08899 6.54592 6.18204 6.54592Z" fill="#6D9933"/>
<path d="M10.2002 1.88809C10.2704 1.69993 10.1748 1.49049 9.98667 1.42028C9.79861 1.35006 9.58907 1.44559 9.51886 1.63379L9.20873 2.4647C9.17709 2.97376 9.71601 2.86871 10.0439 2.30701L10.2002 1.88809Z" fill="#8CC357"/>
<path d="M8.54699 5.27769C8.5889 5.29335 8.63184 5.30075 8.67412 5.30075C8.82154 5.30075 8.96029 5.21043 9.01485 5.06418L10.0439 2.30713C9.76303 2.35021 9.48468 2.4035 9.20877 2.46482L8.33348 4.80993C8.26326 4.99804 8.35884 5.20747 8.54699 5.27769Z" fill="#7EAD3E"/>
<path d="M21.5007 15.1424C21.6632 14.7819 21.7985 14.4104 21.9043 14.0294C21.939 13.9048 22.0524 13.8185 22.1818 13.8185C23.1847 13.8185 23.998 13.0063 23.9998 12.0037C24.0024 11.0001 23.189 10.182 22.1818 10.182H22.1817C22.0527 10.182 21.9391 10.0963 21.9046 9.972C20.8378 6.13026 16.8088 3.27295 12 3.27295C11.9777 3.27295 11.9554 3.27295 11.9336 3.27342C7.12588 3.2977 3.14943 6.1755 2.09539 9.97186C2.06085 10.0963 1.94732 10.182 1.81822 10.182C0.811159 10.182 -0.00240329 11.0003 0.000127961 12.0037C0.00190921 13.0067 0.815331 13.8185 1.81822 13.8185H1.81827C1.94741 13.8185 2.06089 13.9043 2.09549 14.0287C2.8933 16.9014 5.34768 19.2232 8.54558 20.2119C8.60778 20.2311 8.67482 20.2283 8.73547 20.2047L21.3429 15.2911C21.4127 15.2639 21.4698 15.2107 21.5007 15.1424Z" fill="#EFD15E"/>
<path d="M12.0664 20.727C16.3439 20.7054 19.9631 18.425 21.4518 15.2485H10.2541C8.74722 15.2485 7.61289 16.6268 7.9106 18.1013C8.06285 18.8558 8.31124 19.5732 8.64185 20.2411C9.6933 20.5559 10.8232 20.7274 12.0001 20.7274C12.0223 20.7275 12.0446 20.7275 12.0664 20.727Z" fill="#E9B746"/>
<path d="M23.9748 17.8808C24.1328 17.0954 23.5248 16.3638 22.7239 16.3638H14.6339C11.9911 16.3638 11.8415 17.1117 12 17.9146C12.541 20.655 13.6942 23.756 18.4101 23.756C21.2171 23.0286 23.3975 20.7449 23.9748 17.8808Z" fill="#F4E386"/>
<path d="M13.3834 17.9146C13.2249 17.1117 13.8329 16.3638 14.6339 16.3638H10.2541C9.45314 16.3638 8.84513 17.0954 9.00366 17.8808C9.70875 21.3753 12.795 24.0001 16.4892 24.0001C17.1527 24.0001 17.7963 23.9151 18.4101 23.756C15.8669 22.8721 13.9244 20.655 13.3834 17.9146Z" fill="#EFD15E"/>
<path d="M15.918 9.4751C16.716 9.4751 17.3633 9.99049 17.3633 10.6266C17.3633 11.2623 16.7161 11.7776 15.918 11.7776C15.1194 11.7776 14.4722 11.2623 14.4722 10.6266C14.4722 9.99049 15.1194 9.4751 15.918 9.4751Z" fill="white"/>
<path d="M8.08194 9.4751C8.8805 9.4751 9.52775 9.99049 9.52775 10.6266C9.52775 11.2623 8.8805 11.7776 8.08194 11.7776C7.28389 11.7776 6.6366 11.2623 6.6366 10.6266C6.6366 9.99049 7.28389 9.4751 8.08194 9.4751Z" fill="white"/>
<path d="M13.4017 9.24023C13.2008 9.24023 13.038 9.40303 13.038 9.60389C13.038 9.78998 12.8868 9.94134 12.701 9.94134C12.5149 9.94134 12.3636 9.78998 12.3636 9.60389C12.3636 9.40308 12.2008 9.24023 11.9999 9.24023C11.799 9.24023 11.6362 9.40303 11.6362 9.60389C11.6362 9.78998 11.4849 9.94134 11.2988 9.94134C11.113 9.94134 10.9618 9.78998 10.9618 9.60389C10.9618 9.40308 10.799 9.24023 10.5982 9.24023C10.3973 9.24023 10.2345 9.40303 10.2345 9.60389C10.2345 10.191 10.7119 10.6686 11.2987 10.6686C11.5671 10.6686 11.8124 10.5686 11.9998 10.4042C12.1873 10.5686 12.4326 10.6686 12.7009 10.6686C13.2877 10.6686 13.7652 10.191 13.7652 9.60389C13.7653 9.40303 13.6025 9.24023 13.4017 9.24023Z" fill="#495560"/>
<path d="M9.01721 8C8.44857 8 7.98596 8.46242 7.98596 9.03078C7.98596 9.23159 8.14876 9.39444 8.34962 9.39444C8.55043 9.39444 8.71327 9.23164 8.71327 9.03078C8.71327 8.86344 8.84963 8.72727 9.01726 8.72727C9.18465 8.72727 9.32077 8.86344 9.32077 9.03078C9.32077 9.23159 9.48357 9.39444 9.68443 9.39444C9.88529 9.39444 10.0481 9.23164 10.0481 9.03078C10.048 8.46242 9.58562 8 9.01721 8Z" fill="#495560"/>
<path d="M14.9828 8C14.4144 8 13.952 8.46242 13.952 9.03078C13.952 9.23159 14.1148 9.39444 14.3157 9.39444C14.5165 9.39444 14.6793 9.23164 14.6793 9.03078C14.6793 8.86344 14.8155 8.72727 14.9829 8.72727C15.1505 8.72727 15.2868 8.86344 15.2868 9.03078C15.2868 9.23159 15.4496 9.39444 15.6505 9.39444C15.8514 9.39444 16.0142 9.23164 16.0142 9.03078C16.0141 8.46242 15.5514 8 14.9828 8Z" fill="#495560"/>
<path d="M20.0794 20.4688L17.1011 17.4902C17.0094 17.3985 16.8528 17.4634 16.8528 17.593V21.8078C16.8528 21.8939 16.9272 21.9607 17.0129 21.9527C18.1682 21.8453 19.2229 21.3865 20.0689 20.6843C20.1351 20.6295 20.1402 20.5296 20.0794 20.4688Z" fill="#EFD15E"/>
<path d="M20.8093 19.9439C21.4353 19.1898 21.8678 18.2699 22.0307 17.2608C22.045 17.172 21.977 17.0911 21.887 17.0911H18.0817C17.9521 17.0911 17.8872 17.2477 17.9788 17.3394L20.5937 19.9546C20.6545 20.0155 20.7543 20.0102 20.8093 19.9439Z" fill="#EFD15E"/>
<path d="M15.9654 21.9526C16.0511 21.9606 16.1255 21.8937 16.1255 21.8077V17.5928C16.1255 17.4632 15.9689 17.3983 15.8772 17.4899L13.8729 19.4943C13.3324 20.8317 14.2468 21.4646 15.4699 21.8832C15.6328 21.9132 15.7979 21.9371 15.9654 21.9526Z" fill="#EFD15E"/>
<path d="M12.9092 20.6839C13.6326 21.2844 14.5089 21.7061 15.47 21.8831C14.802 21.2004 14.2578 20.3914 13.8729 19.4941L12.8987 20.4683C12.838 20.5291 12.843 20.629 12.9092 20.6839Z" fill="#E9B746"/>
<path d="M12.7596 17.9146C12.8154 18.1968 12.9213 18.7961 13.5952 18.7435L14.9994 17.3394C15.091 17.2477 15.0261 17.0911 14.8965 17.0911H13.4888C12.6627 17.2688 12.7018 17.6214 12.7596 17.9146Z" fill="#EFD15E"/>
<path d="M10.9476 17.2606C11.1104 18.2696 11.5429 19.1894 12.1687 19.9434C12.2237 20.0097 12.3235 20.015 12.3844 19.9541L13.5951 18.7434C13.5105 18.473 13.4391 18.1967 13.3834 17.9144C13.3255 17.6212 13.3701 17.3356 13.4887 17.0908H11.0913C11.0013 17.0909 10.9333 17.1718 10.9476 17.2606Z" fill="#E9B746"/>
</g>
<defs>
<clipPath id="clip0_127_1897">
<rect width="24" height="24" fill="white"/>
</clipPath>
</defs>
</svg>
