<svg width="32" height="32" viewBox="0 0 32 32" fill="none" xmlns="http://www.w3.org/2000/svg">
<g clip-path="url(#clip0_127_1729)">
<path d="M8.46035 6.76888C8.42628 6.6035 8.35222 6.24456 8.35222 6.24456C8.26235 6.09 8.04916 5.79619 7.8601 5.58931C6.70572 4.32606 4.85472 3.823 3.1801 4.44063C0.856346 5.29838 -0.259342 7.9085 0.691533 10.1657C0.856158 10.5571 1.07185 10.9109 1.32747 11.2236C1.49335 11.4265 1.46647 11.7218 1.27047 11.8958C0.0946583 12.9397 -0.345592 14.6543 0.298533 16.1835C0.577158 16.8449 1.02197 17.3848 1.56391 17.7765C1.75635 17.9156 1.82116 18.1729 1.7146 18.3851C0.548596 20.7054 1.65447 23.5122 4.0741 24.4204C6.48966 25.3273 8.57166 26.9478 9.9491 29.1294C9.9906 29.1841 10.2002 29.5538 10.6487 29.9141C10.632 29.8565 11.4656 28.7718 11.3117 28.2154C10.7592 26.2182 9.64491 24.3918 8.04778 22.881C6.67385 21.5813 5.88597 19.7519 5.88597 17.8621C5.88597 16.2056 6.4821 14.6236 7.53228 13.3877C6.73697 11.3308 7.08797 8.93119 8.54278 7.16856L8.46035 6.76888Z" fill="#A6C159"/>
<path d="M13.1195 30.5806C15.3319 26.7535 12.7032 11.3264 8.982 8.33969C8.95681 7.60875 8.74469 6.88794 8.35219 6.24463C6.45087 7.80013 5.68594 10.2672 6.2325 12.5437C6.35419 13.0506 6.24294 13.5819 5.95756 14.0181C4.09237 16.8699 4.61275 20.5675 6.99144 22.8178C8.87968 24.6038 10.0929 26.8312 10.501 29.2603C10.5036 29.2736 10.5434 29.5509 10.6486 29.9142C11.3387 30.4684 12.2368 30.7141 13.1195 30.5806Z" fill="#87A95A"/>
<path d="M23.6083 6.47231C23.5569 6.77043 23.6312 7.0745 23.8057 7.32156C25.0326 9.05793 25.2684 11.2732 24.5342 13.1719C25.5845 14.4077 26.1805 15.9897 26.1805 17.6463C26.1805 19.5362 25.3926 21.3654 24.0189 22.6651C22.389 24.2067 21.262 26.0772 20.7216 28.1224C20.5821 28.6504 20.7356 29.2169 21.135 29.5892C21.2727 29.7175 21.3724 29.8406 21.3511 29.9141C21.6192 29.6988 21.8559 29.437 22.0481 29.1327C22.1708 28.9979 23.7995 25.9697 27.9257 24.4205C30.347 23.5116 31.4503 20.7037 30.2852 18.3851C30.1787 18.173 30.2435 17.9156 30.4359 17.7766C30.9778 17.3849 31.4227 16.8451 31.7013 16.1836C32.3454 14.6543 31.9052 12.9397 30.7294 11.8957C30.5334 11.7217 30.5065 11.4266 30.6724 11.2236C30.928 10.9109 31.1437 10.5571 31.3082 10.1657C32.259 7.9085 31.1434 5.29837 28.8197 4.44062C26.9596 3.75462 24.882 4.45118 23.783 6.0365C23.7337 6.10756 23.6887 6.17206 23.6474 6.24475C23.6475 6.24468 23.6205 6.40156 23.6083 6.47231Z" fill="#BECB58"/>
<path d="M21.499 29.2583C21.9075 26.8301 23.1207 24.6033 25.0084 22.8177C27.3873 20.5672 27.9071 16.8695 26.0421 14.0182C25.7568 13.5819 25.6455 13.0507 25.7672 12.5438C26.3102 10.2822 25.5616 7.81106 23.6474 6.24487C23.2558 6.88681 23.0429 7.60737 23.0177 8.33981C19.598 10.5892 16.9436 28.1326 18.8802 30.5807C19.7629 30.7143 20.6609 30.4686 21.3511 29.9142C21.4111 29.7071 21.4595 29.4963 21.495 29.2831L21.499 29.2583Z" fill="#A6C159"/>
<path d="M19.5821 28.9645L19.5827 28.96C20.0656 26.0565 21.5374 23.4315 23.6756 21.4089C25.8331 19.368 25.736 15.8991 23.446 13.9848C23.2611 13.8302 23.2196 13.56 23.3474 13.3555C24.3159 11.8055 24.2079 9.78179 23.0176 8.3396C22.5005 7.71154 21.8088 7.23292 21.0169 6.9771C20.7654 6.89585 20.6282 6.62392 20.7061 6.37129C21.3371 4.32348 20.5691 2.09235 18.7704 0.859166C8.15919 0.539979 7.23756 31.1748 17.8488 31.494C18.7528 30.9584 19.4019 30.0467 19.5821 28.9645Z" fill="#BECB58"/>
<path d="M18.7705 0.859273C18.0138 0.34046 17.1378 0.0462103 16.2274 0.00514775C13.4053 -0.122165 11.077 2.12852 11.077 4.92284C11.077 5.42552 11.1523 5.9104 11.2924 6.36702C11.3704 6.6214 11.2359 6.8954 10.9828 6.97715C9.24113 7.53977 7.99956 9.17296 7.99956 11.0771C7.99956 11.9138 8.23919 12.6944 8.65231 13.3555C8.78006 13.56 8.73863 13.8302 8.55369 13.9848C6.266 15.8971 6.16438 19.3659 8.32406 21.4089C10.4623 23.4315 11.9341 26.0564 12.417 28.96L12.4176 28.9645C12.6805 30.5436 13.9441 31.7571 15.515 31.9676L15.9816 31.679L16.4848 31.9677C16.9755 31.902 17.4376 31.7378 17.8489 31.494C14.9871 28.0718 13.1435 22.708 13.1435 16.6767C13.1436 10.0204 15.3888 4.17652 18.7705 0.859273Z" fill="#A6C159"/>
<path d="M12.9127 11.0739C12.645 11.0739 12.4279 10.8568 12.4279 10.5891C12.4279 10.366 12.2464 10.1844 12.0233 10.1844C11.7998 10.1844 11.6181 10.3659 11.6181 10.5891C11.6181 10.8568 11.401 11.0739 11.1332 11.0739C10.8655 11.0739 10.6484 10.8568 10.6484 10.5891C10.6484 9.83134 11.2652 9.21484 12.0233 9.21484C12.7811 9.21484 13.3975 9.83134 13.3975 10.5891C13.3976 10.8568 13.1805 11.0739 12.9127 11.0739Z" fill="#423E4F"/>
<path d="M20.8664 11.0739C20.5987 11.0739 20.3816 10.8568 20.3816 10.5891C20.3816 10.366 20.1998 10.1844 19.9764 10.1844C19.7532 10.1844 19.5717 10.3659 19.5717 10.5891C19.5717 10.8568 19.3546 11.0739 19.0869 11.0739C18.8191 11.0739 18.6021 10.8568 18.6021 10.5891C18.6021 9.83134 19.2185 9.21484 19.9763 9.21484C20.7344 9.21484 21.3512 9.83134 21.3512 10.5891C21.3512 10.8568 21.1342 11.0739 20.8664 11.0739Z" fill="#423E4F"/>
<path d="M15.9998 12.5444C15.4978 12.5444 15.0206 12.3267 14.6904 11.9473C14.5146 11.7453 14.5359 11.4391 14.7379 11.2634C14.9398 11.0877 15.2461 11.1088 15.4218 11.3109C15.5678 11.4786 15.7784 11.5748 15.9998 11.5748C16.2212 11.5748 16.4319 11.4786 16.5778 11.3109C16.7536 11.1089 17.0598 11.0877 17.2617 11.2634C17.4637 11.4391 17.485 11.7453 17.3092 11.9473C16.9791 12.3267 16.5018 12.5444 15.9998 12.5444Z" fill="#423E4F"/>
<path d="M19.194 20.8928C19.1013 20.9346 17.5545 21.6533 16.4848 23.344V20.8793C16.8468 17.7362 19.4819 16.4946 19.5942 16.4431C19.8374 16.3325 19.9453 16.046 19.8353 15.8023C19.7252 15.5583 19.438 15.4498 19.194 15.56C19.1013 15.6019 17.5545 16.3206 16.4848 18.0112V15.5373C16.4848 15.2719 16.2802 15.0404 16.0149 15.0325C15.7403 15.0242 15.5152 15.2443 15.5152 15.517V18.0112C14.7326 16.7744 13.6954 16.0583 13.1583 15.7463L12.6399 16.1753L13.1457 16.898C13.9858 17.5101 15.2725 18.773 15.5152 20.8793V23.3439C14.883 22.3447 14.0843 21.6852 13.5175 21.3041C12.9624 21.74 13.3591 22.1925 13.8031 22.7828C14.5404 23.4938 15.3304 24.6084 15.5152 26.212V27.8081L15.7938 29.432L16.4848 29.5888V26.2119C16.8468 23.0688 19.4819 21.8272 19.5942 21.7758C19.8374 21.6652 19.9453 21.3785 19.8353 21.135C19.7251 20.8911 19.438 20.7824 19.194 20.8928Z" fill="#A6C159"/>
<path d="M12.1644 21.1352C12.0542 21.3793 12.1627 21.6664 12.4067 21.7765C12.4203 21.7826 13.0867 22.0924 13.8029 22.7831C13.695 22.2988 13.5996 21.8056 13.5172 21.3043C13.125 21.0406 12.8437 20.9101 12.8058 20.893C12.5619 20.7827 12.2747 20.8913 12.1644 21.1352Z" fill="#87A95A"/>
<path d="M15.5149 31.9668C15.8423 32.0107 16.1583 32.0113 16.4845 31.9677V29.589C16.1383 29.0273 15.8141 28.4332 15.5149 27.8083V31.9668Z" fill="#87A95A"/>
<path d="M12.1644 15.8024C12.0542 16.0464 12.1627 16.3336 12.4067 16.4437C12.4159 16.4479 12.7247 16.5914 13.1455 16.898C13.1431 16.5752 13.1416 16.2687 13.1581 15.7464C12.961 15.6319 12.8307 15.5713 12.8058 15.5601C12.5619 15.45 12.2747 15.5585 12.1644 15.8024Z" fill="#87A95A"/>
</g>
<defs>
<clipPath id="clip0_127_1729">
<rect width="32" height="32" fill="white"/>
</clipPath>
</defs>
</svg>
