<svg width="24" height="24" viewBox="0 0 24 24" fill="none" xmlns="http://www.w3.org/2000/svg">
<g clip-path="url(#clip0_239_1752)">
<path d="M0.532449 1.70287C2.80294 -0.567622 6.48411 -0.567622 8.7546 1.70287C9.23614 2.18441 9.65776 2.60603 10.1409 3.08912L8.85543 4.37454C6.58494 6.64503 2.90376 6.64503 0.633278 4.37454L0.532449 4.27371C-0.177459 3.56376 -0.177507 2.41277 0.532449 1.70287V1.70287Z" fill="#00CE8E"/>
<path d="M8.15758 3.45127C8.12619 3.45127 8.09423 3.44716 8.0625 3.43852C6.35584 2.97551 4.55164 2.97547 2.84479 3.43852C2.65192 3.49086 2.45283 3.3769 2.40043 3.18384C2.34804 2.99077 2.46205 2.79182 2.65511 2.73947C4.48582 2.24277 6.42133 2.24277 8.25213 2.73947C8.4452 2.79182 8.55921 2.99082 8.50681 3.18384C8.46311 3.34512 8.31703 3.45127 8.15758 3.45127Z" fill="#00B27A"/>
<path d="M17.3647 6.27605C16.7361 5.94488 16.0462 5.76172 15.3224 5.76172C12.3937 5.76172 10.0195 8.75588 10.0195 12.4493C10.0195 16.1428 12.3937 19.1369 15.3224 19.1369C16.3447 19.1369 17.2992 18.7717 18.109 18.1397C19.619 16.961 20.6252 14.8535 20.6252 12.4493C20.6252 9.66875 19.2795 7.28478 17.3647 6.27605V6.27605Z" fill="#FFF1D4"/>
<path d="M15.3224 12.4478C15.3224 10.0436 15.8547 7.45471 17.3647 6.27605C16.7361 5.94488 16.0462 5.76172 15.3224 5.76172C12.3937 5.76172 10.0195 8.75588 10.0195 12.4493C10.0195 16.1428 12.3937 19.1369 15.3224 19.1369C16.3447 19.1369 17.2992 18.7717 18.109 18.1397C16.1942 17.131 15.3224 15.2284 15.3224 12.4478V12.4478Z" fill="#FCE3A0"/>
<path d="M11.6906 13.0769C12.3574 13.0769 12.8979 12.6464 12.8979 12.1155C12.8979 11.5845 12.3574 11.1541 11.6906 11.1541C11.0239 11.1541 10.4834 11.5845 10.4834 12.1155C10.4834 12.6464 11.0239 13.0769 11.6906 13.0769Z" fill="#FF8E9E"/>
<path d="M18.9533 13.0769C19.6201 13.0769 20.1606 12.6464 20.1606 12.1155C20.1606 11.5845 19.6201 11.1541 18.9533 11.1541C18.2866 11.1541 17.7461 11.5845 17.7461 12.1155C17.7461 12.6464 18.2866 13.0769 18.9533 13.0769Z" fill="#FF8E9E"/>
<path d="M12.3065 10.2546C12.1064 10.2546 11.9443 10.4168 11.9443 10.6168V11.1963C11.9443 11.3963 12.1064 11.5585 12.3065 11.5585C12.5066 11.5585 12.6687 11.3963 12.6687 11.1963V10.6168C12.6687 10.4168 12.5066 10.2546 12.3065 10.2546Z" fill="#313D40"/>
<path d="M18.3378 10.2546C18.1377 10.2546 17.9756 10.4168 17.9756 10.6168V11.1963C17.9756 11.3963 18.1377 11.5585 18.3378 11.5585C18.5378 11.5585 18.6999 11.3963 18.6999 11.1963V10.6168C18.6999 10.4168 18.5378 10.2546 18.3378 10.2546Z" fill="#313D40"/>
<path d="M16.3553 10.906C16.2044 10.7746 15.9757 10.7903 15.8443 10.9411C15.5677 11.2584 15.0765 11.2581 14.8003 10.9411C14.6688 10.7903 14.44 10.7746 14.2893 10.906C14.1385 11.0375 14.1228 11.2662 14.2542 11.417C14.8193 12.0656 15.8257 12.0649 16.3903 11.417C16.5218 11.2662 16.506 11.0375 16.3553 10.906V10.906Z" fill="#313D40"/>
<path d="M24.0004 15.3225C24.0004 14.1791 23.0941 13.4686 22.6557 13.3583C20.2729 12.7591 17.816 12.4477 15.3223 12.4485C12.9017 12.4493 10.4464 12.7443 7.99009 13.3583C7.20412 13.6648 6.64551 14.4294 6.64551 15.3225C6.64551 16.2155 7.20412 16.9801 7.99009 17.2866C7.46619 17.938 7.3559 18.8779 7.80794 19.6608C8.22806 20.3889 9.06922 20.8268 9.95572 20.6892C9.82746 21.5235 10.2103 22.3904 10.9843 22.8373C11.7358 23.2712 12.6745 23.2014 13.3579 22.653C13.6637 23.4401 14.429 23.9998 15.3229 23.9998C16.2169 23.9998 16.9821 23.4401 17.288 22.653C17.9723 23.2022 18.9108 23.2707 19.6618 22.8372C20.4356 22.3903 20.8184 21.5235 20.6901 20.6892C21.5732 20.8262 22.4159 20.3918 22.8377 19.6612C23.2881 18.8812 23.182 17.9409 22.6558 17.2865C23.4417 16.9802 24.0004 16.2156 24.0004 15.3225V15.3225Z" fill="#FF6F4D"/>
<path d="M13.6875 17.3577V16.3962C13.6875 14.9156 14.2755 13.4956 15.3223 12.4485C12.9017 12.4493 10.4464 12.7443 7.99009 13.3583C7.20412 13.6648 6.64551 14.4294 6.64551 15.3224C6.64551 16.2155 7.20412 16.9801 7.99009 17.2866C7.46619 17.938 7.3559 18.8779 7.80794 19.6608C8.22806 20.3889 9.06922 20.8268 9.95572 20.6892C9.82746 21.5235 10.2103 22.3904 10.9843 22.8373C11.7358 23.2712 12.6745 23.2014 13.3579 22.653C13.6637 23.4401 14.429 23.9998 15.3229 23.9998C16.2169 23.9998 16.9821 23.4401 17.288 22.653L16.5124 22.2123C14.7662 21.22 13.6875 19.3662 13.6875 17.3577V17.3577Z" fill="#EC5334"/>
<path d="M17.895 0.498832C17.6656 0.304321 17.39 0.155685 17.0779 0.0720471C16.2609 -0.147043 15.3584 0.143806 14.832 0.863612C14.3328 0.182969 13.4491 -0.159261 12.5858 0.0719988C11.7476 0.296594 11.1331 1.00979 11.0377 1.88069C10.2648 1.54039 9.32792 1.68575 8.69586 2.31786C8.06375 2.94997 7.91839 3.88679 8.25869 4.65967C7.38875 4.75499 6.67489 5.36851 6.4499 6.20793C6.21869 7.07111 6.56092 7.95472 7.24161 8.45399C6.52176 8.98054 6.23115 9.88293 6.44995 10.6995C6.52577 10.9825 6.65523 11.2359 6.82415 11.4521C7.33853 12.1104 8.27902 12.2539 8.98338 11.8045C9.95685 11.1834 11.7902 9.91847 13.7587 8.03111C15.5973 6.26762 17.0699 4.42971 18.208 2.58649C18.6265 1.9086 18.5027 1.01413 17.895 0.498832V0.498832Z" fill="#FF6F4D"/>
<path d="M11.0377 1.88069C10.2648 1.5404 9.32792 1.68575 8.69586 2.31786C8.06375 2.94997 7.91839 3.88679 8.25869 4.65967C7.38875 4.75499 6.67489 5.36852 6.4499 6.20794C6.21869 7.07112 6.56092 7.95472 7.24161 8.45399C6.52176 8.98054 6.23115 9.88293 6.44995 10.6995C6.52577 10.9825 6.65523 11.2359 6.82415 11.4521C7.33853 12.1104 8.27902 12.2539 8.98338 11.8045C9.95685 11.1834 11.7902 9.91847 13.7587 8.03112C12.0272 6.47522 11.0377 4.20898 11.0377 1.88069V1.88069Z" fill="#EC5334"/>
</g>
<defs>
<clipPath id="clip0_239_1752">
<rect width="24" height="24" fill="white"/>
</clipPath>
</defs>
</svg>
