<svg width="24" height="24" viewBox="0 0 24 24" fill="none" xmlns="http://www.w3.org/2000/svg">
<g clip-path="url(#clip0_239_2126)">
<path d="M19.1837 1.81133C18.8702 1.81133 18.5782 1.81133 18.2836 1.81133C18.2833 1.5736 18.1668 1.34084 17.9521 1.20249C17.6159 0.985815 17.1676 1.08264 16.9509 1.41893L14.3245 5.4939C14.1079 5.83014 14.2048 6.27842 14.541 6.49514C14.8773 6.71191 15.3256 6.61485 15.5422 6.27871L17.5597 3.14847V3.31729C17.5597 5.97728 19.716 8.13361 22.376 8.13361H22.4941C23.3258 8.13361 24.0001 7.45944 24.0001 6.6277C24.0001 3.96766 21.8437 1.81133 19.1837 1.81133V1.81133Z" fill="#00CE8E"/>
<path d="M17.2129 5.79338C17.1076 5.68951 17.0002 5.58892 16.891 5.49133C13.4392 2.40581 8.13199 2.46183 4.74587 5.64542C4.68014 5.70723 4.6149 5.76982 4.55063 5.83399C2.68795 7.69378 1.81173 10.167 1.92193 12.6041C1.98331 13.9613 1.56536 15.2658 0.785431 16.3056C-0.869989 18.5125 0.215178 21.701 2.88106 22.411C4.17073 22.7545 5.4975 22.9216 6.82334 22.9132C10.6029 22.8891 14.375 21.4357 17.2587 18.552C17.6745 18.1362 18.0403 17.6896 18.3576 17.2199C20.7311 13.7064 20.3499 8.88663 17.2129 5.79338V5.79338Z" fill="#FFCE71"/>
<path d="M7.0631 18.5752C7.84302 17.5355 8.26097 16.2309 8.1996 14.8737C7.97505 9.90979 11.8262 5.65276 16.891 5.49133C13.4391 2.40581 8.13194 2.46183 4.74582 5.64542C4.6801 5.70723 4.61486 5.76982 4.55058 5.83399C2.68795 7.69378 1.81173 10.167 1.92193 12.6041C1.98331 13.9613 1.56536 15.2658 0.785431 16.3056C-0.869989 18.5125 0.215178 21.701 2.88106 22.411C4.17074 22.7545 5.4975 22.9216 6.82334 22.9132C6.06331 21.6231 6.05616 19.9175 7.0631 18.5752Z" fill="#FFB357"/>
<path d="M17.2131 5.79338C17.1078 5.68951 17.0004 5.58888 16.8913 5.49133C13.4394 2.40581 8.13222 2.46183 4.74609 5.64542C7.15942 5.53537 9.5981 6.08471 11.7604 7.29432C12.7558 7.8511 13.6926 8.54754 14.5413 9.3844C16.7598 11.5719 18.0314 14.3524 18.3578 17.2199C20.7313 13.7064 20.3502 8.88663 17.2131 5.79338V5.79338Z" fill="#FF8F71"/>
<path d="M4.74609 5.64544C7.15942 5.53539 9.59747 6.08439 11.7598 7.294C13.1839 6.21801 14.9484 5.55326 16.8913 5.49135C13.4394 2.40583 8.13222 2.46179 4.74609 5.64544V5.64544Z" fill="#FF6F4D"/>
<path d="M7.35458 10.1499C7.66631 9.60999 7.36941 8.85498 6.69142 8.46353C6.01344 8.07209 5.21112 8.19245 4.8994 8.73236C4.58767 9.27227 4.88457 10.0273 5.56255 10.4187C6.24054 10.8102 7.04286 10.6898 7.35458 10.1499Z" fill="#FF8E9E"/>
<path d="M14.0089 13.9917C14.3206 13.4518 14.0237 12.6968 13.3457 12.3053C12.6677 11.9139 11.8654 12.0342 11.5537 12.5742C11.242 13.1141 11.5389 13.8691 12.2169 14.2605C12.8948 14.652 13.6972 14.5316 14.0089 13.9917Z" fill="#FF8E9E"/>
<path d="M7.85649 8.0974C7.68332 7.99744 7.46177 8.05669 7.36176 8.22995L7.07202 8.73178C6.97201 8.905 7.03136 9.1265 7.20457 9.22651C7.3776 9.32642 7.59915 9.26736 7.6993 9.09395L7.98904 8.59213C8.08905 8.41896 8.0297 8.19745 7.85649 8.0974Z" fill="#313D40"/>
<path d="M13.0801 11.113C12.9068 11.013 12.6853 11.0723 12.5854 11.2456L12.2957 11.7475C12.1956 11.9207 12.255 12.1422 12.4282 12.2422C12.6017 12.3423 12.8231 12.2827 12.9229 12.1096L13.2127 11.6078C13.3127 11.4346 13.2533 11.2131 13.0801 11.113Z" fill="#313D40"/>
<path d="M10.5769 10.4606C10.1781 10.5973 9.75341 10.3506 9.67277 9.93859C9.63438 9.74239 9.4445 9.61461 9.24777 9.65272C9.05152 9.69111 8.92345 9.88137 8.96189 10.0777C9.12733 10.9236 10.0006 11.4239 10.8119 11.1458C11.0011 11.0809 11.1019 10.8749 11.037 10.6857C10.9721 10.4965 10.766 10.3957 10.5769 10.4606V10.4606Z" fill="#313D40"/>
<path d="M23.1599 6.79335C22.0401 5.01493 20.5004 3.51872 18.6876 2.45157C18.5153 2.34997 18.2931 2.40748 18.1917 2.57992C18.0902 2.75227 18.1477 2.97426 18.3201 3.07576C20.0324 4.08381 21.487 5.49696 22.5452 7.17657C22.65 7.34293 22.8672 7.39692 23.0365 7.29691C23.2116 7.19348 23.2682 6.96545 23.1599 6.79335Z" fill="#009D6B"/>
</g>
<defs>
<clipPath id="clip0_239_2126">
<rect width="24" height="24" fill="white"/>
</clipPath>
</defs>
</svg>
