<svg width="24" height="24" viewBox="0 0 24 24" fill="none" xmlns="http://www.w3.org/2000/svg">
<g clip-path="url(#clip0_176_1118)">
<path d="M4.78528 9.31166C4.78528 9.31166 4.69855 17.5266 9.0934 20.4732L12.0047 22.2367L14.9062 20.4732C19.301 17.5267 19.2144 9.31166 19.2144 9.31166L11.9998 5.76367L4.78528 9.31166Z" fill="#A4E6FF"/>
<path d="M7.25361 0.904669C7.12038 0.669401 6.88129 0.513377 6.61227 0.486093L1.8369 0.00251969C1.56899 -0.0246191 1.32986 0.170568 1.30272 0.438479L1.23299 1.1269C1.20585 1.39481 1.40104 1.63394 1.66895 1.66108L6.01541 2.10119L7.88939 5.41063L9.33997 4.58922L7.25361 0.904669Z" fill="#E8E8E8"/>
<path d="M22.7672 1.12689L22.6975 0.438472C22.6703 0.17056 22.4312 -0.0245788 22.1633 0.00251175L17.3879 0.486085C17.1189 0.513321 16.8798 0.669345 16.7466 0.904661L14.6602 4.58922L16.1107 5.41062L17.9847 2.10118L22.3312 1.66107C22.5991 1.63393 22.7943 1.3948 22.7672 1.12689V1.12689Z" fill="#E8E8E8"/>
<path d="M17.4944 2.44909C17.1211 2.15408 16.7009 1.92577 16.2557 1.77148L14.6602 4.58919L16.1107 5.4106L17.6929 2.61646C17.6286 2.5587 17.5625 2.50288 17.4944 2.44909Z" fill="#DADAD8"/>
<path d="M9.33948 4.58919L7.74394 1.77148C7.29871 1.92572 6.87854 2.15404 6.50521 2.44904C6.43717 2.50283 6.37101 2.5587 6.30664 2.61641L7.8889 5.4106L9.33948 4.58919Z" fill="#DADAD8"/>
<path d="M19.2148 9.31088C20.251 7.76773 19.469 5.63564 17.6665 5.18181C17.6385 5.17476 17.6103 5.16815 17.582 5.16192L17.5811 5.16172L17.5809 5.16095C17.2324 3.57222 15.5948 2.62584 14.0442 3.11704L14.0418 3.11443C13.4934 2.51472 12.7468 2.21484 12.0002 2.21484C11.2536 2.21484 10.507 2.51472 9.95855 3.11443L9.95618 3.11704C8.4056 2.62584 6.768 3.57222 6.41944 5.16095L6.41925 5.16172L6.41843 5.16192C6.39008 5.16815 6.36188 5.17476 6.33392 5.18181C4.53141 5.63564 3.74941 7.76773 4.78561 9.31088H19.2148Z" fill="#FFBDD7"/>
<path d="M10.1526 20.4731C5.9834 15.4209 7.39124 9.31164 7.39124 9.31164L5.96703 8.73047L4.78528 9.31164C4.78528 9.31164 4.69855 17.5266 9.0934 20.4731L10.8232 21.521C10.6701 21.1828 10.4499 20.8335 10.1526 20.4731Z" fill="#2ECDF9"/>
<path d="M9.39574 13.2912C9.39707 12.6219 8.7168 12.0779 7.87631 12.0763C7.03581 12.0746 6.35337 12.6158 6.35203 13.2851C6.35069 13.9545 7.03097 14.4984 7.87146 14.5001C8.71196 14.5018 9.3944 13.9606 9.39574 13.2912Z" fill="#FF97C0"/>
<path d="M17.6438 13.3098C17.6451 12.6405 16.9648 12.0965 16.1244 12.0948C15.2839 12.0931 14.6014 12.6344 14.6001 13.3037C14.5987 13.973 15.279 14.517 16.1195 14.5187C16.96 14.5203 17.6424 13.9791 17.6438 13.3098Z" fill="#FF97C0"/>
<path d="M8.77819 11.4072C8.57817 11.4072 8.41602 11.5694 8.41602 11.7694V12.3878C8.41602 12.5879 8.57817 12.75 8.77819 12.75C8.9782 12.75 9.14036 12.5879 9.14036 12.3878V11.7694C9.14036 11.5694 8.9782 11.4072 8.77819 11.4072Z" fill="#423E4F"/>
<path d="M15.2157 11.4072C15.0157 11.4072 14.8535 11.5694 14.8535 11.7694V12.3878C14.8535 12.5879 15.0157 12.75 15.2157 12.75C15.4157 12.75 15.5779 12.5879 15.5779 12.3878V11.7694C15.5779 11.5694 15.4157 11.4072 15.2157 11.4072Z" fill="#423E4F"/>
<path d="M13.4965 12.3945C13.2965 12.3945 13.1344 12.5566 13.1344 12.7567C13.1344 12.9678 12.9626 13.1395 12.7515 13.1395C12.5404 13.1395 12.3687 12.9678 12.3687 12.7567C12.3687 12.5566 12.2065 12.3945 12.0065 12.3945C11.8065 12.3945 11.6443 12.5566 11.6443 12.7567C11.6443 12.9678 11.4726 13.1395 11.2615 13.1395C11.0504 13.1395 10.8786 12.9678 10.8786 12.7567C10.8786 12.5566 10.7165 12.3945 10.5165 12.3945C10.3165 12.3945 10.1543 12.5566 10.1543 12.7567C10.1543 13.3672 10.651 13.8639 11.2615 13.8639C11.5481 13.8639 11.8097 13.7544 12.0065 13.575C12.2033 13.7544 12.4649 13.8639 12.7515 13.8639C13.362 13.8639 13.8587 13.3672 13.8587 12.7567C13.8587 12.5567 13.6966 12.3945 13.4965 12.3945Z" fill="#423E4F"/>
<path d="M16.5202 21.8234C15.8286 20.9076 14.9061 20.4727 14.9061 20.4727H9.09332C9.09332 20.4727 8.18977 20.8987 7.50067 21.7953C6.8081 22.6963 7.44311 23.9998 8.57951 23.9998H15.4204C16.5408 23.9998 17.1955 22.7175 16.5202 21.8234V21.8234Z" fill="#E8E8E8"/>
<path d="M7.41287 3.5791C6.92683 3.96006 6.56326 4.50573 6.41945 5.16127L6.41926 5.16204L6.41844 5.16223C6.39009 5.16846 6.36189 5.17508 6.33393 5.18213C4.53137 5.63591 3.74942 7.768 4.78562 9.31119H7.39152C6.16289 7.42977 6.94142 4.79142 7.41287 3.5791V3.5791Z" fill="#FF97C0"/>
<path d="M10.1525 20.4727H9.09332C9.09332 20.4727 8.18977 20.8987 7.50067 21.7953C6.8081 22.6963 7.44311 23.9998 8.57956 23.9998H9.47582C8.81797 22.0887 10.1525 20.4727 10.1525 20.4727V20.4727Z" fill="#DADAD8"/>
</g>
<defs>
<clipPath id="clip0_176_1118">
<rect width="24" height="24" fill="white"/>
</clipPath>
</defs>
</svg>
