<svg width="32" height="32" viewBox="0 0 32 32" fill="none" xmlns="http://www.w3.org/2000/svg">
<path d="M7.92517 4.69654V2.22787C7.92517 0.997481 8.94696 0 10.2075 0H21.5389C22.7994 0 23.8212 0.997481 23.8212 2.22787L23.8076 4.63257L15.5176 6.61484L7.92517 4.69654Z" fill="#FFF9E7"/>
<path d="M23.8051 4.63257L25.7604 11.2814L15.5158 15.8602L2.00684 13.4327L4.12413 10.4525L4.91741 10.1125L4.76984 9.54365L7.92562 4.69667L23.8051 4.63257Z" fill="#FCF2D0"/>
<path d="M27.2709 9.54365L27.1913 10.1624L27.9086 10.4545L29.9931 13.4327L24.0146 15.6618L17.6493 13.4327L19.6386 10.5453L20.4967 10.1594L20.3397 9.54365L23.8051 4.63257L27.2709 9.54365Z" fill="#F9EAB9"/>
<path d="M2.00684 17.2477V13.4326H18.9875L26.0357 21.2229L21.6014 31.9999H6.32703C4.14376 31.9999 2.33877 30.3804 2.04784 28.2771L4.79268 22.4757L2.00684 17.2477Z" fill="#FFF9E7"/>
<path d="M29.9861 28.277C29.8627 30.3539 28.1393 31.9999 26.0315 31.9999H21.6015C19.4188 31.9999 17.6493 30.2305 17.6493 28.0477V13.4326H29.9931V17.2477L26.2102 22.8585L29.9861 28.277Z" fill="#FCF2D0"/>
<path d="M17.6493 17.2478H2.00684V27.68C2.00684 27.8827 2.02186 28.0819 2.0489 28.2771H17.6564L21.4719 22.9053L17.6493 17.2478Z" fill="#CEEAFB"/>
<path d="M17.6493 17.2478V28.0479C17.6493 28.1249 17.652 28.2012 17.6564 28.2771H29.9853C29.99 28.1981 29.9931 28.1186 29.9931 28.0383V17.2478H17.6493Z" fill="#95CBEC"/>
<path d="M6.98808 21.2715C6.9368 21.0197 6.72185 20.8338 6.4653 20.8193C6.20882 20.8043 5.97424 20.9654 5.89505 21.2098C5.89318 21.2155 5.89137 21.2212 5.88977 21.227L5.50515 22.5762L5.1057 21.2221C5.10397 21.216 5.10196 21.21 5.09996 21.204C5.01796 20.9606 4.78218 20.8022 4.52536 20.8199C4.26908 20.8372 4.0562 21.0255 4.00666 21.2833L3.49937 24.0939C3.45029 24.3661 3.63111 24.6266 3.90329 24.6757C4.1752 24.7248 4.43602 24.544 4.4851 24.2718L4.66579 23.2706L4.97028 24.3026C4.97195 24.3084 4.97382 24.3143 4.97576 24.32C5.05322 24.5513 5.26863 24.7062 5.51236 24.7062H5.51516C5.76003 24.7049 5.97531 24.5476 6.05076 24.3147C6.05257 24.309 6.05437 24.3033 6.05597 24.2976L6.34972 23.2671L6.54263 24.2768C6.59458 24.5486 6.8574 24.7266 7.12858 24.6747C7.40022 24.6228 7.57837 24.3605 7.52649 24.0888L6.98808 21.2715Z" fill="#A78CD6"/>
<path d="M12.1247 23.7021C12.1237 23.7021 12.1228 23.7021 12.1218 23.7021C11.9513 23.703 11.7726 23.7038 11.6148 23.7042V21.3192C11.6148 21.0426 11.3906 20.8184 11.114 20.8184C10.8373 20.8184 10.6132 21.0426 10.6132 21.3192V24.2029C10.6132 24.447 10.7891 24.6555 11.0296 24.6966C11.0656 24.7027 11.0872 24.7064 11.4131 24.7064C11.5695 24.7064 11.7958 24.7055 12.1273 24.7037C12.4039 24.7022 12.6268 24.4767 12.6253 24.2001C12.6238 23.9245 12.4 23.7021 12.1247 23.7021Z" fill="#A78CD6"/>
<path d="M15.9926 23.8449L14.8127 22.7065L15.8814 21.7243C16.085 21.5371 16.0984 21.2203 15.9111 21.0167C15.724 20.813 15.4071 20.7997 15.2035 20.9868L14.4906 21.6421V21.3192C14.4906 21.0426 14.2665 20.8184 13.9898 20.8184C13.7132 20.8184 13.489 21.0426 13.489 21.3192V24.2053C13.489 24.4819 13.7132 24.7061 13.9898 24.7061C14.2665 24.7061 14.4906 24.4819 14.4906 24.2053V23.7876L15.2971 24.5658C15.3943 24.6595 15.5196 24.7062 15.6448 24.7062C15.776 24.7062 15.907 24.655 16.0052 24.5531C16.1974 24.3539 16.1917 24.0369 15.9926 23.8449Z" fill="#A78CD6"/>
<path d="M9.00142 20.8184C8.72477 20.8184 8.50061 21.0426 8.50061 21.3192V24.2053C8.50061 24.4819 8.72477 24.7061 9.00142 24.7061C9.27807 24.7061 9.50223 24.4819 9.50223 24.2053V21.3192C9.50223 21.0426 9.27807 20.8184 9.00142 20.8184Z" fill="#A78CD6"/>
<path d="M20.1486 23.4061C19.872 23.4061 19.6478 23.1819 19.6478 22.9053V22.1995C19.6478 21.923 19.872 21.6987 20.1486 21.6987C20.4253 21.6987 20.6494 21.923 20.6494 22.1995V22.9053C20.6494 23.1819 20.4252 23.4061 20.1486 23.4061Z" fill="#4F5C6F"/>
<path d="M27.4939 23.4061C27.2172 23.4061 26.993 23.1819 26.993 22.9053V22.1995C26.993 21.923 27.2172 21.6987 27.4939 21.6987C27.7705 21.6987 27.9947 21.923 27.9947 22.1995V22.9053C27.9947 23.1819 27.7704 23.4061 27.4939 23.4061Z" fill="#4F5C6F"/>
<path d="M23.8212 23.8262C23.3053 23.8262 22.8149 23.6027 22.4754 23.2132C22.2937 23.0047 22.3154 22.6883 22.5241 22.5066C22.7325 22.3249 23.0489 22.3466 23.2306 22.5552C23.3797 22.7263 23.5951 22.8245 23.8213 22.8245C24.0475 22.8245 24.2628 22.7263 24.412 22.5551C24.5938 22.3465 24.9102 22.3249 25.1187 22.5066C25.3272 22.6884 25.3488 23.0047 25.1672 23.2132C24.8276 23.6028 24.337 23.8262 23.8212 23.8262Z" fill="#4F5C6F"/>
<path d="M21.6096 9.5437H4.76986L4.12415 10.4525C4.20561 10.5113 4.30577 10.5453 4.41395 10.5453H21.6096V9.5437Z" fill="#CEEAFB"/>
<path d="M20.3393 9.54395L19.6382 10.5456H27.6216C27.7284 10.5456 27.8273 10.5118 27.9086 10.4548L27.271 9.54395H20.3393Z" fill="#95CBEC"/>
</svg>
