<svg width="32" height="32" viewBox="0 0 32 32" fill="none" xmlns="http://www.w3.org/2000/svg">
<g clip-path="url(#clip0_127_1976)">
<path d="M21.6236 24.352L18.2757 27.6999L16.6832 29.293C16.3058 29.6704 15.6942 29.6704 15.3168 29.293L10.3765 24.352C9.76796 23.7435 10.1987 22.7879 11.059 22.7879H13.5755V16.8939C13.5755 16.3607 14.0083 15.928 14.5415 15.928H17.4585C17.9917 15.928 18.4245 16.3607 18.4245 16.8939V22.7879H20.941C21.8013 22.7879 22.2321 23.7435 21.6236 24.352Z" fill="#EEDB00"/>
<path d="M18.4445 27.531L16.6832 29.293C16.3058 29.6704 15.6942 29.6704 15.3168 29.293L10.3765 24.352C9.76796 23.7435 10.1987 22.7879 11.059 22.7879H13.5755V16.8939C13.5755 16.3607 14.0083 15.928 14.5415 15.928H16.6285C15.8343 17.4565 13.98 22.894 18.4445 27.531Z" fill="#F3C23B"/>
<path d="M32 4.35564V16.0078C32 17.0741 31.1352 17.9396 30.0682 17.9396H15.0276L14.1899 17.7084L13.5756 17.9396H1.93181C0.864812 17.9396 0 17.0741 0 16.0078V4.35564C0 3.28927 0.864812 2.42383 1.93181 2.42383H30.0682C31.1352 2.42383 32 3.28933 32 4.35564Z" fill="#00CE8E"/>
<path d="M15.0276 17.9396H1.93181C0.864812 17.9396 0 17.0741 0 16.0078V4.35564C0 3.28927 0.864812 2.42383 1.93181 2.42383H12.2497C11.0121 5.24627 8.85094 12.3238 15.0276 17.9396Z" fill="#00B762"/>
<path d="M29.0906 8.44212V11.922C29.0906 12.3154 28.8511 12.669 28.4859 12.8171C27.7557 13.112 27.1729 13.6947 26.878 14.425C26.7299 14.7901 26.3764 15.0303 25.9822 15.0303H6.01755C5.62349 15.0303 5.26993 14.7901 5.1218 14.425C4.82687 13.6947 4.24412 13.112 3.51387 12.8171C3.14874 12.6689 2.90918 12.3154 2.90918 11.922V8.44212C2.90918 8.04805 3.14874 7.69449 3.51387 7.54637C4.24412 7.25143 4.82687 6.66868 5.1218 5.93843C5.26993 5.5733 5.62343 5.33374 6.01755 5.33374H25.9823C26.3764 5.33374 26.7299 5.5733 26.8781 5.93843C27.173 6.66868 27.7557 7.25143 28.486 7.54637C28.8511 7.69449 29.0906 8.04799 29.0906 8.44212Z" fill="#00B762"/>
<path d="M12.5877 15.0303H6.01755C5.62349 15.0303 5.26993 14.7901 5.1218 14.425C4.82687 13.6947 4.24412 13.112 3.51387 12.8171C3.14874 12.6689 2.90918 12.3154 2.90918 11.922V8.44211C2.90918 8.04805 3.14874 7.69449 3.51387 7.54636C4.24412 7.25143 4.82687 6.66868 5.1218 5.93843C5.26993 5.5733 5.62343 5.33374 6.01755 5.33374H11.2727C10.6366 8.00299 10.482 11.6013 12.5877 15.0303Z" fill="#008C48"/>
<path d="M10.8771 12.068C11.921 12.068 12.7673 11.394 12.7673 10.5627C12.7673 9.73132 11.921 9.05737 10.8771 9.05737C9.83311 9.05737 8.98682 9.73132 8.98682 10.5627C8.98682 11.394 9.83311 12.068 10.8771 12.068Z" fill="white"/>
<path d="M21.1232 12.068C22.1671 12.068 23.0134 11.394 23.0134 10.5627C23.0134 9.73132 22.1671 9.05737 21.1232 9.05737C20.0792 9.05737 19.2329 9.73132 19.2329 10.5627C19.2329 11.394 20.0792 12.068 21.1232 12.068Z" fill="white"/>
<path d="M17.7064 11.4522C17.5537 11.4522 17.4034 11.3799 17.3096 11.245C16.9708 10.758 16.4935 10.4786 16.0001 10.4786C15.5068 10.4786 15.0295 10.7579 14.6907 11.245C14.5384 11.4639 14.2374 11.5179 14.0184 11.3656C13.7995 11.2133 13.7455 10.9123 13.8978 10.6934C14.4198 9.94307 15.1861 9.5127 16.0002 9.5127C16.8143 9.5127 17.5806 9.94301 18.1025 10.6934C18.2548 10.9123 18.2008 11.2133 17.9819 11.3656C17.8978 11.4241 17.8016 11.4522 17.7064 11.4522Z" fill="#495560"/>
<path d="M20.1617 9.71014C19.6017 9.71014 19.069 9.46757 18.7004 9.04464C18.5252 8.84357 18.5461 8.53851 18.7472 8.36326C18.9484 8.18801 19.2534 8.20895 19.4287 8.41007C19.6138 8.62245 19.881 8.74426 20.1618 8.74426C20.4425 8.74426 20.7098 8.62245 20.8949 8.41007C21.0701 8.20895 21.3752 8.18801 21.5763 8.36326C21.7774 8.53851 21.7983 8.84357 21.6231 9.04464C21.2544 9.46757 20.7217 9.71014 20.1617 9.71014Z" fill="#495560"/>
<path d="M11.8385 9.71014C11.2784 9.71014 10.7458 9.46757 10.3772 9.04464C10.2019 8.84357 10.2229 8.53851 10.424 8.36326C10.6251 8.18801 10.9301 8.20895 11.1054 8.41007C11.2906 8.62245 11.5577 8.74426 11.8385 8.74426C12.1193 8.74426 12.3865 8.62245 12.5716 8.41007C12.7469 8.20895 13.0519 8.18801 13.2531 8.36326C13.4541 8.53851 13.4751 8.84357 13.2999 9.04464C12.9312 9.46757 12.3986 9.71014 11.8385 9.71014Z" fill="#495560"/>
</g>
<defs>
<clipPath id="clip0_127_1976">
<rect width="32" height="32" fill="white"/>
</clipPath>
</defs>
</svg>
