<svg width="24" height="24" viewBox="0 0 24 24" fill="none" xmlns="http://www.w3.org/2000/svg">
<g clip-path="url(#clip0_207_1269)">
<path d="M18.8884 19.3061C18.4918 16.2467 16.9012 13.9189 16.9012 13.9189H7.09822C7.09822 13.9189 5.5076 16.2467 5.111 19.3061C5.00761 20.1036 5.1505 20.9138 5.50567 21.6353C6.20167 23.049 7.64056 23.9444 9.21635 23.9444H14.783C16.3588 23.9444 17.7977 23.049 18.4937 21.6353C18.8489 20.9138 18.9918 20.1036 18.8884 19.3061Z" fill="#F6D6C5"/>
<path d="M6.95441 21.6353C6.59919 20.9138 6.4563 20.1036 6.55969 19.3061C6.95629 16.2467 8.54691 13.9189 8.54691 13.9189H7.09822C7.09822 13.9189 5.5076 16.2467 5.111 19.3061C5.00761 20.1036 5.1505 20.9138 5.50567 21.6353C6.20167 23.049 7.64056 23.9444 9.21635 23.9444H10.665C9.08925 23.9444 7.65041 23.049 6.95441 21.6353V21.6353Z" fill="#EFB899"/>
<path d="M12 14.6739C14.7303 14.6739 16.6123 14.8722 17.9004 15.1224C19.7575 15.4832 21.6672 14.8158 22.8606 13.3865C23.8192 12.2384 24.1995 10.7346 23.8998 9.28493C23.1864 5.83415 20.6938 0.0546875 12 0.0546875C3.30622 0.0546875 0.813604 5.83415 0.100171 9.28493C-0.199515 10.7346 0.180815 12.2384 1.13941 13.3865C2.33285 14.8158 4.24251 15.4832 6.09959 15.1224C7.38772 14.8722 9.26976 14.6739 12 14.6739Z" fill="#E4996D"/>
<path d="M3.071 13.3865C2.1124 12.2384 1.73203 10.7346 2.03176 9.28493C2.71801 5.96564 5.05151 0.492627 12.9658 0.0803776C12.6523 0.0640557 12.3312 0.0546875 12 0.0546875C3.30618 0.0546875 0.813555 5.83415 0.100171 9.28493C-0.199515 10.7346 0.180815 12.2384 1.13941 13.3865C2.32536 14.8069 4.21861 15.4743 6.06473 15.1286C4.90659 14.9116 3.84002 14.3075 3.071 13.3865Z" fill="#AF602D"/>
<path d="M8.08104 20.8533C8.8798 20.8533 9.52732 20.3377 9.52732 19.7016C9.52732 19.0655 8.8798 18.5498 8.08104 18.5498C7.28229 18.5498 6.63477 19.0655 6.63477 19.7016C6.63477 20.3377 7.28229 20.8533 8.08104 20.8533Z" fill="#FFA1AC"/>
<path d="M15.9209 20.8533C16.7196 20.8533 17.3672 20.3377 17.3672 19.7016C17.3672 19.0655 16.7196 18.5498 15.9209 18.5498C15.1221 18.5498 14.4746 19.0655 14.4746 19.7016C14.4746 20.3377 15.1221 20.8533 15.9209 20.8533Z" fill="#FFA1AC"/>
<path d="M9.61196 18.8102C9.41194 18.8102 9.24979 18.648 9.24979 18.448C9.24979 18.2681 9.10347 18.1218 8.92359 18.1218C8.74371 18.1218 8.59739 18.2682 8.59739 18.448C8.59739 18.648 8.43524 18.8102 8.23522 18.8102C8.0352 18.8102 7.87305 18.648 7.87305 18.448C7.87305 17.8687 8.34431 17.3975 8.92359 17.3975C9.50287 17.3975 9.97413 17.8688 9.97413 18.448C9.97413 18.648 9.81198 18.8102 9.61196 18.8102Z" fill="#423E4F"/>
<path d="M15.7644 18.8102C15.5643 18.8102 15.4022 18.648 15.4022 18.448C15.4022 18.2681 15.2559 18.1218 15.076 18.1218C14.8961 18.1218 14.7497 18.2682 14.7497 18.448C14.7497 18.648 14.5876 18.8102 14.3876 18.8102C14.1875 18.8102 14.0254 18.648 14.0254 18.448C14.0254 17.8687 14.4967 17.3975 15.076 17.3975C15.6553 17.3975 16.1265 17.8688 16.1265 18.448C16.1265 18.648 15.9644 18.8102 15.7644 18.8102Z" fill="#423E4F"/>
<path d="M12.0006 19.9476C11.6161 19.9476 11.2504 19.7811 10.9973 19.4908C10.8659 19.3399 10.8816 19.1112 11.0324 18.9798C11.1832 18.8484 11.412 18.8641 11.5434 19.0149C11.6589 19.1473 11.8255 19.2233 12.0006 19.2233C12.1757 19.2233 12.3423 19.1473 12.4578 19.0149C12.5892 18.8641 12.818 18.8484 12.9688 18.9798C13.1196 19.1112 13.1353 19.3399 13.0039 19.4908C12.7508 19.7811 12.3851 19.9476 12.0006 19.9476V19.9476Z" fill="#423E4F"/>
</g>
<defs>
<clipPath id="clip0_207_1269">
<rect width="24" height="24" fill="white"/>
</clipPath>
</defs>
</svg>
