<svg width="24" height="24" viewBox="0 0 24 24" fill="none" xmlns="http://www.w3.org/2000/svg">
<g clip-path="url(#clip0_195_1095)">
<path d="M6.61222 0H5.79945C5.61755 0 5.46389 0.134922 5.44032 0.315284L4.91406 4.34608L6.20581 5.79477L7.49756 4.34608L6.9713 0.315284C6.94778 0.134922 6.79408 0 6.61222 0V0Z" fill="#FFBA48"/>
<path d="M8.37838 4.3457L6.92969 8.69178H9.82707V5.7944C9.82707 4.99428 9.17849 4.3457 8.37838 4.3457Z" fill="#FF5A35"/>
<path d="M6.92916 4.3457L5.48047 8.69178H8.37785V4.3457H6.92916Z" fill="#FF7A3C"/>
<path d="M5.47994 4.3457L4.03125 8.69178H6.92863V4.3457H5.47994Z" fill="#FF9A42"/>
<path d="M4.03268 4.3457L2.58398 8.69178H5.48137V4.3457H4.03268Z" fill="#FF7A3C"/>
<path d="M2.58398 5.7944V8.69178H4.03268V4.3457C3.23256 4.3457 2.58398 4.99428 2.58398 5.7944Z" fill="#FF9A42"/>
<path d="M9.8276 7.24316H8.37891V23.9997H9.8276C10.6277 23.9997 11.2763 23.3511 11.2763 22.551V8.69186C11.2763 7.89174 10.6277 7.24316 9.8276 7.24316Z" fill="#FF9A42"/>
<path d="M9.82692 22.551V8.69186C9.82692 7.89174 9.17834 7.24316 8.37823 7.24316H2.58346C1.78335 7.24316 1.13477 7.89174 1.13477 8.69186V22.551C1.13477 23.3511 1.78335 23.9997 2.58346 23.9997H8.37823C9.17834 23.9997 9.82692 23.3511 9.82692 22.551Z" fill="#FFBA48"/>
<path d="M18.2021 0H17.3893C17.2074 0 17.0537 0.134922 17.0302 0.315284L16.5039 4.34608L17.7957 5.79477L19.0874 4.34608L18.5611 0.315284C18.5376 0.134922 18.3839 0 18.2021 0V0Z" fill="#FF3A2F"/>
<path d="M19.9682 4.3457L18.5195 8.69178H21.4169V5.7944C21.4169 4.99428 20.7683 4.3457 19.9682 4.3457Z" fill="#FF3A2F"/>
<path d="M18.519 4.3457L17.0703 8.69178H19.9677V4.3457H18.519Z" fill="#FF5A35"/>
<path d="M17.0698 4.3457L15.6211 8.69178H18.5185V4.3457H17.0698Z" fill="#FF7A3C"/>
<path d="M15.6225 4.3457L14.1738 8.69178H17.0712V4.3457H15.6225Z" fill="#FF5A35"/>
<path d="M14.1738 5.7944V8.69178H15.6225V4.3457C14.8224 4.3457 14.1738 4.99428 14.1738 5.7944Z" fill="#FF7A3C"/>
<path d="M21.4155 7.24316H19.9668V23.9997H21.4155C22.2156 23.9997 22.8642 23.3511 22.8642 22.551V8.69186C22.8642 7.89174 22.2156 7.24316 21.4155 7.24316Z" fill="#DB2116"/>
<path d="M21.4168 22.551V8.69186C21.4168 7.89174 20.7682 7.24316 19.9681 7.24316H14.1733C13.3732 7.24316 12.7246 7.89174 12.7246 8.69186V22.551C12.7246 23.3511 13.3732 23.9997 14.1733 23.9997H19.9681C20.7682 23.9997 21.4168 23.3511 21.4168 22.551Z" fill="#FF3A2F"/>
<path d="M4.36217 14.2298C4.16216 14.2298 4 14.0676 4 13.8676V13.3622C4 13.1622 4.16216 13 4.36217 13C4.56219 13 4.72435 13.1622 4.72435 13.3622V13.8676C4.72435 14.0676 4.56219 14.2298 4.36217 14.2298Z" fill="#495560"/>
<path d="M9.62389 14.2298C9.42388 14.2298 9.26172 14.0676 9.26172 13.8676V13.3622C9.26172 13.1622 9.42388 13 9.62389 13C9.82391 13 9.98606 13.1622 9.98606 13.3622V13.8676C9.98606 14.0676 9.82391 14.2298 9.62389 14.2298Z" fill="#495560"/>
<path d="M6.9932 14.5305C6.62272 14.5305 6.2704 14.3701 6.02663 14.0904C5.89523 13.9396 5.91093 13.7108 6.06174 13.5794C6.2125 13.448 6.44129 13.4637 6.57274 13.6145C6.67893 13.7363 6.83215 13.8062 6.9932 13.8062C7.1542 13.8062 7.30747 13.7363 7.41366 13.6145C7.5451 13.4637 7.7738 13.448 7.92466 13.5794C8.07542 13.7108 8.09116 13.9396 7.95972 14.0904C7.71595 14.3701 7.36363 14.5305 6.9932 14.5305Z" fill="#495560"/>
<path d="M14.3622 14.2298C14.1622 14.2298 14 14.0676 14 13.8676V13.3622C14 13.1622 14.1622 13 14.3622 13C14.5622 13 14.7243 13.1622 14.7243 13.3622V13.8676C14.7243 14.0676 14.5622 14.2298 14.3622 14.2298Z" fill="#495560"/>
<path d="M19.6239 14.2298C19.4239 14.2298 19.2617 14.0676 19.2617 13.8676V13.3622C19.2617 13.1622 19.4239 13 19.6239 13C19.8239 13 19.9861 13.1622 19.9861 13.3622V13.8676C19.9861 14.0676 19.8239 14.2298 19.6239 14.2298Z" fill="#495560"/>
<path d="M16.9932 14.5305C16.6227 14.5305 16.2704 14.3701 16.0266 14.0904C15.8952 13.9396 15.9109 13.7108 16.0617 13.5794C16.2125 13.448 16.4413 13.4637 16.5727 13.6145C16.6789 13.7363 16.8322 13.8062 16.9932 13.8062C17.1542 13.8062 17.3075 13.7363 17.4137 13.6145C17.5451 13.4637 17.7738 13.448 17.9247 13.5794C18.0754 13.7108 18.0912 13.9396 17.9597 14.0904C17.716 14.3701 17.3636 14.5305 16.9932 14.5305Z" fill="#495560"/>
</g>
<defs>
<clipPath id="clip0_195_1095">
<rect width="24" height="24" fill="white"/>
</clipPath>
</defs>
</svg>
