<svg width="32" height="32" viewBox="0 0 32 32" fill="none" xmlns="http://www.w3.org/2000/svg">
<g clip-path="url(#clip0_127_1468)">
<path d="M21.8886 9.69691C20.4925 9.23697 19.0452 8.9211 17.6009 8.76941C15.9642 8.85466 14.3785 9.17878 12.9277 9.77678C9.98172 11.0222 9.29828 13.8882 10.0322 15.595C12.2435 16.4845 14.4755 17.0368 16.7288 17.245C19.3841 17.1512 22.0688 16.5809 24.7842 15.515C23.9896 13.4251 23.0083 11.3907 21.8886 9.69691Z" fill="#ECEAFD"/>
<path d="M13.445 9.57718C14.7521 9.10593 16.1566 8.84475 17.6009 8.7695C14.8255 7.85456 12.0349 7.91918 10.1113 9.697C8.99163 11.3907 8.01032 13.4252 7.21582 15.5152C9.76157 17.8101 13.4357 18.1334 16.7288 17.2452C14.4755 17.0369 12.2434 16.4847 10.0322 15.5951C10.7566 13.6894 11.6364 11.8299 12.6348 10.2328C12.8241 9.92962 13.1088 9.69837 13.445 9.57718Z" fill="#D8DAF5"/>
<path d="M18.0273 1.33684C17.8467 0.913648 17.5357 0.550336 17.1152 0.303711C14.8579 0.463273 12.9724 3.9434 13.4034 6.94946C13.8344 8.01196 15.481 8.23102 17.1774 8.14665C18.2632 7.95971 19.3247 7.50096 20.3636 6.78784L18.0273 1.33684Z" fill="#675469"/>
<path d="M16.203 1.33665C16.3925 0.893833 16.7167 0.537083 17.1152 0.30352C15.9725 -0.366542 14.4962 0.11327 13.9727 1.33665L11.6364 6.78765C13.5535 8.02783 15.398 8.45283 17.1774 8.14646C16.0979 7.96402 14.9949 7.51752 13.8667 6.78765L16.203 1.33665Z" fill="#59495E"/>
<path d="M23.7576 8.2424C23.7576 7.43884 23.1066 6.78784 22.303 6.78784C18.881 6.78784 14.6639 6.78784 11.2162 6.78784C10.4137 6.78784 9.7616 7.43815 9.7616 8.2424C9.7616 9.04597 10.4126 9.69697 11.2162 9.69697H22.303C23.1056 9.6969 23.7576 9.04659 23.7576 8.2424Z" fill="#59495E"/>
<path d="M11.0546 8.2424C11.0546 7.43984 11.7049 6.78784 12.5091 6.78784C11.9227 6.78784 10.2872 6.78784 9.69699 6.78784C8.89443 6.78784 8.24243 7.43822 8.24243 8.2424C8.24243 9.04597 8.89343 9.69697 9.69699 9.69697H12.5091C11.7056 9.6969 11.0546 9.04597 11.0546 8.2424Z" fill="#443848"/>
<path d="M26.977 25.589C26.9841 25.2399 26.9725 24.7865 26.9278 24.2425C24.1018 23.401 21.2758 22.8875 18.4497 22.6989C14.9293 22.734 11.416 23.1943 7.89558 24.2425C5.02814 25.3185 5.2902 30.5239 13.3863 32H20.4044C23.9963 32 26.9372 29.1256 26.977 25.589Z" fill="#ECEAFD"/>
<path d="M7.83937 25.6688C7.83025 25.2201 7.859 24.688 7.89556 24.2424C11.4159 23.1942 14.9293 22.734 18.4497 22.6988C14.8794 21.2579 8.35012 20.2236 5.07212 24.2424C5.02125 24.8629 5.01331 25.3436 5.0275 25.761C5.16781 29.259 8.09437 32 11.5956 32H13.3862C10.2631 31.512 7.8755 28.8507 7.83937 25.6688Z" fill="#D8DAF5"/>
<path d="M24.7841 15.5151H10.0627C6.65676 17.6656 5.97982 22.1199 7.89564 24.2424H26.9279C26.7317 21.8506 25.9455 18.5871 24.7841 15.5151Z" fill="#F7EC74"/>
<path d="M7.21583 15.5151C6.03733 18.6117 5.26996 21.8298 5.07214 24.2424H7.89558C8.10352 21.8388 8.89702 18.5778 10.0626 15.5151H7.21583Z" fill="#F1CC66"/>
<path d="M21.2886 18.7346C22.3404 18.6802 23.3954 19.3437 23.3954 20.3191C23.3954 21.1957 22.5027 21.9068 21.4024 21.9068C20.3014 21.9068 19.4087 21.1957 19.4087 20.3191C19.4087 19.4728 20.2407 18.7811 21.2886 18.7346Z" fill="#FFA1AC"/>
<path d="M10.5974 18.7319C11.6984 18.7319 12.5911 19.4424 12.5911 20.319C12.5911 21.1956 11.6984 21.9067 10.5974 21.9067C9.49712 21.9067 8.60437 21.1956 8.60437 20.319C8.60443 19.4424 9.49718 18.7319 10.5974 18.7319Z" fill="#FFA1AC"/>
<path d="M11.7591 19.2562C11.4914 19.2562 11.2743 19.0392 11.2743 18.7714V17.9956C11.2743 17.7278 11.4914 17.5107 11.7591 17.5107C12.0269 17.5107 12.244 17.7278 12.244 17.9956V18.7714C12.244 19.0392 12.0269 19.2562 11.7591 19.2562Z" fill="#423E4F"/>
<path d="M14.5163 19.0851C14.3406 18.8831 14.362 18.5768 14.5641 18.4011C14.7661 18.2254 15.0723 18.2467 15.2481 18.4488C15.6455 18.9059 16.3548 18.9053 16.7518 18.4488C16.9276 18.2467 17.2338 18.2254 17.4358 18.4011C17.6379 18.5768 17.6592 18.8831 17.4836 19.0851C16.6996 19.9866 15.2994 19.9856 14.5163 19.0851Z" fill="#423E4F"/>
<path d="M21.2893 19.2349C21.0387 19.2349 20.8083 19.0413 20.8039 18.7422C20.8003 18.518 20.6147 18.3357 20.3901 18.3357C20.1619 18.3357 19.9763 18.5216 19.9763 18.75C19.9763 19.0178 19.7593 19.2349 19.4915 19.2349C19.2237 19.2349 19.0066 19.0178 19.0066 18.75C19.0066 17.9868 19.6272 17.366 20.39 17.366C21.1524 17.366 21.7741 17.993 21.7741 18.75C21.7742 19.0179 21.5572 19.2349 21.2893 19.2349Z" fill="#423E4F"/>
</g>
<defs>
<clipPath id="clip0_127_1468">
<rect width="32" height="32" fill="white"/>
</clipPath>
</defs>
</svg>
