<svg width="24" height="24" viewBox="0 0 24 24" fill="none" xmlns="http://www.w3.org/2000/svg">
<g clip-path="url(#clip0_193_1207)">
<path d="M12.0005 24.0001C13.9328 24.0001 15.4991 22.8651 15.4991 21.4649C15.4991 20.0647 13.9328 18.9297 12.0005 18.9297C10.0683 18.9297 8.50195 20.0647 8.50195 21.4649C8.50195 22.8651 10.0683 24.0001 12.0005 24.0001Z" fill="#FFDAAA"/>
<path d="M13.9995 19.3846C13.4328 19.0982 12.7441 18.9297 12.0007 18.9297C10.0684 18.9297 8.50195 20.0648 8.50195 21.4651C8.50195 22.8653 10.0684 24.0004 12.0007 24.0004C12.0943 24.0004 12.1867 23.9969 12.2785 23.9917C11.2072 22.2925 12.5515 20.5814 13.9995 19.3846Z" fill="#FFC477"/>
<path d="M14.2135 2.59334L13.5246 0.963172C12.982 -0.321057 11.162 -0.321057 10.6193 0.963172L9.95203 2.54229C9.63464 3.29341 8.99597 3.86064 8.21386 4.09136C3.78532 5.39795 0.611328 8.93241 0.611328 13.0877C0.611328 18.3542 5.70981 22.6235 11.999 22.6235C18.2883 22.6235 23.3868 18.3542 23.3868 13.0877C23.3868 8.97567 20.2784 5.47211 15.9219 4.13355C15.1529 3.89721 14.5267 3.33452 14.2135 2.59334Z" fill="#E2B6FF"/>
<path d="M15.9237 4.13355C15.1546 3.89721 14.5285 3.33452 14.2153 2.59334L13.5264 0.963172C12.9837 -0.321057 11.1638 -0.321057 10.6211 0.963172L9.9538 2.54229C9.63641 3.29346 8.99774 3.86064 8.21564 4.09141C8.21559 4.09141 8.21554 4.09146 8.21545 4.09146C8.21297 4.096 1.50645 16.3906 8.8701 22.2584C9.86484 22.4961 10.9151 22.6235 12.0009 22.6235C13.2123 22.6235 14.3793 22.4645 15.4744 22.171C15.4744 22.171 15.4744 22.171 15.4744 22.171C22.2838 16.1983 15.9237 4.13355 15.9237 4.13355Z" fill="#C392EA"/>
<path d="M2.5804 13.4455C2.5804 7.06268 8.20505 4.09625 8.21353 4.0918C3.78513 5.39839 0.611328 8.93279 0.611328 13.0879C0.611328 17.4451 4.1013 21.1196 8.86819 22.2586C8.85726 22.2545 2.5804 19.8276 2.5804 13.4455Z" fill="#EDD7FF"/>
<path d="M23.3869 13.088C23.3869 8.97605 20.2784 5.47248 15.922 4.13393C15.8459 4.11054 21.4178 7.06281 21.4178 13.4457C21.4178 19.8278 15.4835 22.1673 15.4727 22.1715C15.4727 22.1715 15.4727 22.1715 15.4728 22.1715C20.0631 20.9415 23.3869 17.3401 23.3869 13.088Z" fill="#EDD7FF"/>
<path d="M12.019 15.4541C11.2696 15.4541 10.6621 14.8466 10.6621 14.0972V13.1106C10.6621 12.906 10.828 12.7402 11.0326 12.7402H13.0056C13.2102 12.7402 13.376 12.9061 13.376 13.1106V14.0972C13.376 14.8466 12.7685 15.4541 12.019 15.4541Z" fill="#57565C"/>
<path d="M7.4806 15.2495C8.27998 15.2495 8.928 14.7335 8.928 14.0969C8.928 13.4604 8.27998 12.9443 7.4806 12.9443C6.68123 12.9443 6.0332 13.4604 6.0332 14.0969C6.0332 14.7335 6.68123 15.2495 7.4806 15.2495Z" fill="#FFA6BB"/>
<path d="M16.5587 15.2495C17.3581 15.2495 18.0061 14.7335 18.0061 14.0969C18.0061 13.4604 17.3581 12.9443 16.5587 12.9443C15.7594 12.9443 15.1113 13.4604 15.1113 14.0969C15.1113 14.7335 15.7594 15.2495 16.5587 15.2495Z" fill="#FFA6BB"/>
<path d="M15.9129 13.4642C15.7129 13.4642 15.5508 13.3021 15.5508 13.1021V12.5008C15.5508 12.3008 15.7129 12.1387 15.9129 12.1387C16.113 12.1387 16.2751 12.3008 16.2751 12.5008V13.1021C16.2751 13.3021 16.113 13.4642 15.9129 13.4642Z" fill="#57565C"/>
<path d="M8.12387 13.4642C7.92381 13.4642 7.76172 13.3021 7.76172 13.1021V12.5008C7.76172 12.3008 7.92381 12.1387 8.12387 12.1387C8.32394 12.1387 8.48603 12.3008 8.48603 12.5008V13.1021C8.48608 13.3021 8.32389 13.4642 8.12387 13.4642Z" fill="#57565C"/>
</g>
<defs>
<clipPath id="clip0_193_1207">
<rect width="24" height="24" fill="white"/>
</clipPath>
</defs>
</svg>
