<svg width="24" height="24" viewBox="0 0 24 24" fill="none" xmlns="http://www.w3.org/2000/svg">
<g clip-path="url(#clip0_127_1839)">
<path d="M7.55938 1.48279C7.11023 1.26633 6.61476 1.13048 6.09547 1.095C4.98468 1.01887 4.06733 1.93622 4.14346 3.04701C4.18251 3.61701 4.34291 4.18003 4.62496 4.69415C7.27147 6.03614 9.76968 4.69373 7.55938 1.48279Z" fill="#A0CF76"/>
<path d="M8.68567 2.29563C8.3649 1.96254 7.98278 1.68696 7.5595 1.48291C7.51534 1.75872 7.51365 2.04705 7.56245 2.34035C7.56072 2.35188 7.87459 3.48452 6.85633 3.78185C6.07262 4.01069 5.32562 4.31819 4.62512 4.69432C4.79462 5.00327 5.00804 5.29455 5.26553 5.55916C7.86273 8.36355 12.0001 6.90902 8.68567 2.29563Z" fill="#8CC357"/>
<path d="M15.7389 4.69393C16.0209 4.1799 16.1812 3.61707 16.2202 3.04726C16.2963 1.93646 15.379 1.01912 14.2682 1.09524C13.749 1.13073 13.2537 1.26648 12.8049 1.48271C10.8001 4.2346 12.9334 6.19393 15.7389 4.69393Z" fill="#A0CF76"/>
<path d="M15.0983 5.5592C15.3559 5.29445 15.5694 5.00298 15.739 4.69388C15.0328 4.3149 14.2849 4.00881 13.5076 3.78184C12.4777 3.48118 12.8018 2.34718 12.8011 2.34235C12.8506 2.04835 12.8493 1.75923 12.805 1.48267C12.3813 1.68681 11.9989 1.96257 11.6782 2.29571C8.52531 5.99588 12.0001 8.65159 15.0983 5.5592Z" fill="#8CC357"/>
<path d="M13.9185 3.91103L14.439 3.39053C14.581 3.24854 14.581 3.01829 14.439 2.87626C14.297 2.73428 14.0667 2.73428 13.9247 2.87626L13.1732 3.62776C12.9643 4.04228 13.4168 4.27862 13.9185 3.91103Z" fill="#8CC357"/>
<path d="M11.4991 5.81619C11.5701 5.8872 11.6632 5.92269 11.7562 5.92269C11.8493 5.92269 11.9424 5.88715 12.0133 5.81619L13.9185 3.91095C13.7824 3.86567 13.6456 3.82198 13.5075 3.78167C13.3746 3.74286 13.2647 3.69003 13.1732 3.62769L11.4991 5.30192C11.3571 5.4439 11.3571 5.6742 11.4991 5.81619Z" fill="#7EAD3E"/>
<path d="M7.18978 3.62703L6.43903 2.87628C6.29704 2.73425 6.06679 2.7343 5.92476 2.87628C5.78273 3.01827 5.78273 3.24852 5.92476 3.39055L6.44531 3.91109C6.94818 4.35941 7.52596 4.16281 7.18978 3.62703Z" fill="#8CC357"/>
<path d="M8.60752 5.9229C8.70056 5.9229 8.79366 5.88737 8.86463 5.8164C9.00666 5.67442 9.00666 5.44417 8.86463 5.30213L7.18973 3.6272C7.09861 3.69001 6.98897 3.74321 6.85627 3.78193C6.71798 3.82229 6.58125 3.86603 6.44531 3.91126L8.35045 5.8164C8.42142 5.88742 8.51447 5.9229 8.60752 5.9229Z" fill="#7EAD3E"/>
<path d="M11.4975 3.38064C11.5757 2.91099 11.6461 2.48893 11.7014 2.15696C11.8581 1.22692 11.1404 0.363525 10.1819 0.363525C9.23012 0.363525 8.50623 1.21834 8.66237 2.15696C9.08823 4.7117 8.35614 0.318432 8.86646 3.38064C9.41415 4.42365 10.9818 4.42365 11.4975 3.38064Z" fill="#CD8A5D"/>
<path d="M10.1819 6.90906C10.6018 6.90906 10.9596 6.60555 11.0289 6.1915C11.1831 5.26741 11.3538 4.24356 11.4975 3.38073C11.0639 3.3333 10.6249 3.30859 10.1819 3.30859C9.73899 3.30859 9.30005 3.3333 8.86646 3.38073C8.96756 3.98758 9.11747 4.88697 9.33488 6.1915C9.40421 6.60555 9.762 6.90906 10.1819 6.90906Z" fill="#C77C48"/>
<path d="M20.3231 14.8847C20.3495 14.6031 20.3637 14.3181 20.3637 14.0299C20.3637 8.72446 15.8051 4.42358 10.1819 4.42358C4.55859 4.42358 0 8.72451 0 14.0299C0 19.3353 4.55859 23.6362 10.1819 23.6362C10.7892 23.6362 11.3839 23.5858 11.962 23.4897L20.3231 14.8847Z" fill="#EEA849"/>
<path d="M20.3231 14.8848H10.2541C8.75017 14.8848 7.61233 16.2602 7.9105 17.7374C8.3043 19.6907 9.37117 21.4694 10.9146 22.7461C11.2492 23.0228 11.5995 23.2704 11.962 23.4897C16.4458 22.7437 19.917 19.2295 20.3231 14.8848Z" fill="#EB9C32"/>
<path d="M23.9748 17.5171C24.1329 16.7317 23.5249 16 22.7239 16C22.1907 16 18.324 16 15.0323 16C12 16 11.0807 16.7316 11.2393 17.5171C11.7846 20.2218 14.4 23.2546 18.8787 23.2546C21.4578 22.4056 23.4301 20.2198 23.9748 17.5171Z" fill="#EFD15E"/>
<path d="M13.7819 17.5171C13.6234 16.7317 14.2313 16 15.0323 16C12.5987 16 10.4793 16 10.2541 16C9.45314 16 8.84513 16.7316 9.00366 17.5171C9.708 21.0107 12.7954 23.6364 16.4893 23.6364C17.3238 23.6364 18.127 23.5021 18.8787 23.2546C16.3011 22.406 14.3272 20.2218 13.7819 17.5171Z" fill="#E9B746"/>
<path d="M14.0431 9.16553C14.83 9.16553 15.4681 9.67365 15.4681 10.3001C15.4681 10.9265 14.83 11.4347 14.0431 11.4347C13.2562 11.4347 12.6187 10.9265 12.6187 10.3001C12.6187 9.67365 13.2562 9.16553 14.0431 9.16553Z" fill="white"/>
<path d="M10.1818 8.65161C10.8165 8.65161 11.3305 8.7185 11.3305 9.42833C11.3305 10.1382 10.8165 10.7137 10.1818 10.7137C9.54714 10.7137 9.0332 10.1382 9.0332 9.42833C9.0332 8.7185 9.54714 8.65161 10.1818 8.65161Z" fill="#495560"/>
<path d="M6.32046 9.16553C7.10735 9.16553 7.74495 9.67365 7.74495 10.3001C7.74495 10.9265 7.10735 11.4347 6.32046 11.4347C5.53357 11.4347 4.89551 10.9265 4.89551 10.3001C4.89551 9.67365 5.53357 9.16553 6.32046 9.16553Z" fill="white"/>
<path d="M6.5586 9.30912C6.35779 9.30912 6.19495 9.14633 6.19495 8.94547V8.36366C6.19495 8.16284 6.35774 8 6.5586 8C6.75941 8 6.92226 8.1628 6.92226 8.36366V8.94547C6.92226 9.14628 6.75946 9.30912 6.5586 9.30912Z" fill="#495560"/>
<path d="M13.8052 9.30912C13.6044 9.30912 13.4415 9.14633 13.4415 8.94547V8.36366C13.4415 8.16284 13.6043 8 13.8052 8C14.006 8 14.1688 8.1628 14.1688 8.36366V8.94547C14.1688 9.14628 14.006 9.30912 13.8052 9.30912Z" fill="#495560"/>
<path d="M17.0394 21.5865C18.149 21.4792 19.1896 21.0482 20.0504 20.3393C20.1279 20.2755 20.1336 20.1587 20.0627 20.0878L17.1427 17.1675C17.0358 17.0606 16.853 17.1363 16.853 17.2875V21.4173C16.853 21.5175 16.9396 21.5961 17.0394 21.5865Z" fill="#EEA849"/>
<path d="M18.0201 17.0166C18.8006 17.7972 19.796 18.7927 20.5772 19.574C20.6482 19.645 20.7648 19.6388 20.8287 19.5613C21.4573 18.7984 21.8674 17.8937 22.0272 16.9247C22.0442 16.8213 21.9642 16.7271 21.8594 16.7271H18.1403C17.9891 16.7271 17.9132 16.9096 18.0201 17.0166Z" fill="#EEA849"/>
<path d="M16.0401 21.5646C16.0909 21.5354 16.1256 21.4808 16.1256 21.4173V17.2875C16.1256 17.1363 15.9428 17.0606 15.836 17.1675L14.1739 18.8296C13.5947 20.2085 14.5213 21.3046 16.0401 21.5646Z" fill="#EEA849"/>
<path d="M12.9281 20.339C13.7889 21.0481 14.8295 21.4792 15.9392 21.5866C15.9758 21.5902 16.0106 21.5816 16.0401 21.5647C15.2333 20.8067 14.5915 19.8754 14.1738 18.8296L12.9159 20.0875C12.845 20.1584 12.8507 20.2752 12.9281 20.339Z" fill="#EB9C32"/>
<path d="M13.9134 18.0616L14.9581 17.017C15.065 16.9101 14.9892 16.7273 14.8381 16.7273H13.8796C13.0573 16.9091 13.029 17.9919 13.9134 18.0616Z" fill="#EEA849"/>
<path d="M10.9514 16.9249C11.1111 17.894 11.5213 18.7985 12.1499 19.5611C12.2137 19.6386 12.3306 19.6445 12.4015 19.5735L13.9134 18.0615C13.8634 17.8825 13.819 17.7011 13.7819 17.5171C13.7253 17.2366 13.7669 16.9632 13.8796 16.7273H11.1192C11.0144 16.7272 10.9343 16.8214 10.9514 16.9249Z" fill="#EB9C32"/>
</g>
<defs>
<clipPath id="clip0_127_1839">
<rect width="24" height="24" fill="white"/>
</clipPath>
</defs>
</svg>
