<svg width="24" height="24" viewBox="0 0 24 24" fill="none" xmlns="http://www.w3.org/2000/svg">
<g clip-path="url(#clip0_239_1804)">
<path d="M21.0549 11.5644C20.9969 9.86748 22.9447 8.71906 23.6006 7.15312C24.3826 5.28614 24.0183 3.03873 22.4908 1.51061C20.9661 -0.0148673 18.7239 -0.384912 16.8509 0.400183C15.2882 1.05519 14.1449 3.0073 12.4517 2.94747C10.0294 2.86185 7.57913 3.75724 5.74716 5.63436L2.54849 8.83442C-0.91359 12.3819 -0.838258 18.0139 2.71321 21.4717C6.20364 24.8701 11.7903 24.8439 15.2478 21.3849L18.4464 18.1848C20.2672 16.3633 21.1365 13.9506 21.0549 11.5644V11.5644Z" fill="#5FD9B3"/>
<path d="M21.4661 2.53477C20.7661 1.83442 19.8354 1.44873 18.8456 1.44873C17.4879 1.44873 16.8419 2.03714 16.0476 2.70557C15.2203 3.40171 14.3853 4.0599 13.3636 4.30072C13.0605 4.37214 12.7412 4.4073 12.4005 4.39527C10.3365 4.32245 8.30801 5.08456 6.78394 6.64616L3.57948 9.85226C0.681228 12.8284 0.74555 17.534 3.72387 20.4337C5.78029 22.436 8.71114 23.022 11.2787 22.1771C12.3543 21.8231 13.3662 21.2182 14.2233 20.3607L17.4219 17.1606C18.9026 15.6792 19.6787 13.7093 19.607 11.6138C19.5533 10.0406 20.519 8.88815 21.295 7.96215C21.7023 7.47606 22.0871 7.01692 22.2644 6.59347C22.8489 5.19785 22.5356 3.60467 21.4661 2.53477V2.53477Z" fill="#FF8F71"/>
<path d="M13.3636 4.30078C13.0605 4.3722 12.7412 4.40736 12.4005 4.39533C10.3365 4.32251 8.30801 5.08462 6.78394 6.64621L3.57948 9.85231C0.681228 12.8285 0.74555 17.5341 3.72387 20.4338C5.78029 22.436 8.71114 23.0221 11.2787 22.1772C10.094 19.9608 9.42153 17.4295 9.42153 14.7407C9.42157 10.7385 10.9105 7.08464 13.3636 4.30078Z" fill="#FF6F4D"/>
<path d="M15.1286 6.4397C15.5439 6.02443 15.4578 5.26505 14.9363 4.74359C14.4148 4.22212 13.6555 4.13603 13.2402 4.5513C12.8249 4.96658 12.911 5.72595 13.4325 6.24742C13.9539 6.76889 14.7133 6.85498 15.1286 6.4397Z" fill="#FFB5C0"/>
<path d="M19.447 10.7586C19.8622 10.3433 19.7761 9.5839 19.2547 9.06243C18.7332 8.54097 17.9738 8.45488 17.5586 8.87015C17.1433 9.28543 17.2294 10.0448 17.7508 10.5663C18.2723 11.0877 19.0317 11.1738 19.447 10.7586Z" fill="#FFB5C0"/>
<path d="M15.9426 9.08737C16.28 8.79082 16.2417 8.34694 16.006 8.06063C15.6841 7.66978 15.1374 7.71208 14.8702 8.04571C14.732 7.20291 13.4481 7.2893 13.3901 8.13601C12.9754 7.5295 12.0204 7.864 12.0704 8.59578C11.5722 8.04846 10.6321 8.53223 10.7854 9.25489C10.5435 9.05463 10.1827 9.02802 9.90796 9.22162C9.90796 9.22162 9.90748 9.22162 9.90748 9.2221C9.60127 9.41772 9.49329 9.77888 9.60711 10.0889C8.98258 9.7062 8.24558 10.3971 8.58815 11.0455C7.91282 10.7469 7.2484 11.57 7.68079 12.1688C6.96866 11.9679 6.42665 12.8775 6.94002 13.4084C6.6203 13.3644 6.30559 13.5415 6.17704 13.8444V13.8449C6.05004 14.1462 6.14035 14.4949 6.39628 14.6957C6.07129 14.6977 5.78585 14.9174 5.70091 15.2322V15.2327C5.59385 15.6368 5.76958 15.9644 6.06356 16.1116C6.01527 16.1363 5.77957 16.178 5.62461 16.4598C5.53098 16.6293 5.5092 16.8249 5.56328 17.0103V17.0108C5.70786 17.5183 6.18014 17.6701 6.54115 17.5255C6.38711 17.9847 6.72929 18.4759 7.22976 18.4759C7.55958 18.4759 7.84739 18.2528 7.93045 17.9336C8.27895 18.6083 9.34244 18.3483 9.34244 17.5898C9.8009 18.1684 10.7741 17.7531 10.6699 17.0205C10.9094 17.2479 11.2682 17.2807 11.544 17.1141C11.544 17.1136 11.544 17.1136 11.5444 17.1136C11.8231 16.9441 11.9544 16.609 11.8651 16.2961C12.1277 16.4837 12.4874 16.4767 12.7426 16.2695H12.743C13.0567 16.0103 13.1113 15.6694 12.984 15.3838C13.6535 15.7328 14.3464 14.9349 13.9657 14.3248C14.2637 14.4322 14.6114 14.3306 14.8026 14.0578C14.8026 14.0578 14.8026 14.0578 14.8026 14.0573C14.99 13.7898 14.9745 13.4295 14.7659 13.179C15.0875 13.2458 15.4097 13.091 15.5588 12.8003V12.7998C15.7434 12.4276 15.6484 12.0976 15.4207 11.892C16.1586 11.939 16.4983 10.9379 15.8867 10.5254C16.7281 10.4602 16.7969 9.2305 15.9426 9.08737V9.08737Z" fill="#4C5699"/>
<path d="M13.9245 10.5171C14.3246 10.5171 14.6489 10.1928 14.6489 9.79271C14.6489 9.39266 14.3246 9.06836 13.9245 9.06836C13.5245 9.06836 13.2002 9.39266 13.2002 9.79271C13.2002 10.1928 13.5245 10.5171 13.9245 10.5171Z" fill="#676FB2"/>
<path d="M13.1521 13.4145C13.5521 13.4145 13.8764 13.0902 13.8764 12.6902C13.8764 12.2901 13.5521 11.9658 13.1521 11.9658C12.752 11.9658 12.4277 12.2901 12.4277 12.6902C12.4277 13.0902 12.752 13.4145 13.1521 13.4145Z" fill="#676FB2"/>
<path d="M11.5105 11.4829C11.9105 11.4829 12.2348 11.1586 12.2348 10.7585C12.2348 10.3585 11.9105 10.0342 11.5105 10.0342C11.1104 10.0342 10.7861 10.3585 10.7861 10.7585C10.7861 11.1586 11.1104 11.4829 11.5105 11.4829Z" fill="#676FB2"/>
<path d="M10.5447 13.6074C10.9447 13.6074 11.269 13.2831 11.269 12.883C11.269 12.483 10.9447 12.1587 10.5447 12.1587C10.1446 12.1587 9.82031 12.483 9.82031 12.883C9.82031 13.2831 10.1446 13.6074 10.5447 13.6074Z" fill="#676FB2"/>
<path d="M8.32298 14.8632C8.72302 14.8632 9.04732 14.5389 9.04732 14.1389C9.04732 13.7389 8.72302 13.4146 8.32298 13.4146C7.92293 13.4146 7.59863 13.7389 7.59863 14.1389C7.59863 14.5389 7.92293 14.8632 8.32298 14.8632Z" fill="#676FB2"/>
<path d="M10.448 15.9736C10.848 15.9736 11.1723 15.6493 11.1723 15.2492C11.1723 14.8492 10.848 14.5249 10.448 14.5249C10.0479 14.5249 9.72363 14.8492 9.72363 15.2492C9.72363 15.6493 10.0479 15.9736 10.448 15.9736Z" fill="#676FB2"/>
<path d="M7.79173 17.0844C8.19177 17.0844 8.51607 16.7601 8.51607 16.3601C8.51607 15.96 8.19177 15.6357 7.79173 15.6357C7.39168 15.6357 7.06738 15.96 7.06738 16.3601C7.06738 16.7601 7.39168 17.0844 7.79173 17.0844Z" fill="#676FB2"/>
<path d="M16.1305 4.57041C15.9891 4.42902 15.7597 4.42897 15.6183 4.57046L15.2086 4.9802C15.0672 5.12164 15.0672 5.35097 15.2087 5.49236C15.2794 5.56306 15.3721 5.5984 15.4647 5.5984C15.5574 5.5984 15.6501 5.56306 15.7209 5.49231L16.1306 5.08257C16.272 4.94113 16.272 4.7118 16.1305 4.57041V4.57041Z" fill="#313D40"/>
<path d="M19.4294 7.86929C19.2879 7.72785 19.0586 7.7278 18.9172 7.86924L18.5075 8.27893C18.366 8.42037 18.366 8.6497 18.5074 8.79109C18.5782 8.86184 18.6709 8.89718 18.7636 8.89718C18.8562 8.89718 18.949 8.86184 19.0197 8.79114L19.4294 8.38145C19.5708 8.24006 19.5708 8.01073 19.4294 7.86929Z" fill="#313D40"/>
<path d="M17.6635 7.07446C17.4637 7.08798 17.2674 7.01501 17.126 6.87357C16.9847 6.73223 16.9115 6.53637 16.9252 6.3362C16.9389 6.13662 16.7882 5.96375 16.5887 5.95008C16.389 5.93641 16.2162 6.08703 16.2026 6.28661C16.1745 6.69577 16.3244 7.09643 16.6139 7.38578C16.8804 7.65229 17.2409 7.80049 17.6157 7.80049C17.6481 7.80049 17.6806 7.79938 17.7131 7.79716C17.9126 7.7835 18.0633 7.61062 18.0496 7.41104C18.036 7.21146 17.8629 7.06074 17.6635 7.07446V7.07446Z" fill="#313D40"/>
</g>
<defs>
<clipPath id="clip0_239_1804">
<rect width="24" height="24" fill="white"/>
</clipPath>
</defs>
</svg>
