<svg width="24" height="24" viewBox="0 0 24 24" fill="none" xmlns="http://www.w3.org/2000/svg">
<path d="M2.02722 0.0325339L4.13756 0.874603C4.5306 1.03131 4.95194 1.10459 5.37481 1.08978L7.44791 1.01819C7.92997 1.00123 8.40918 1.09895 8.84612 1.30329L10.1173 1.89833C10.9211 2.27409 11.8487 2.28149 12.6584 1.9186L14.0769 1.2826C14.5014 1.09235 14.9638 1.00162 15.4287 1.01736L17.6823 1.0935C18.0917 1.10745 18.4998 1.03892 18.8823 0.891982L21.1209 0.0300512C21.2709 -0.0276496 21.4408 0.00501533 21.5587 0.11427C21.6767 0.223525 21.7222 0.390352 21.6762 0.544396L20.9955 2.83267C20.8843 3.20717 20.8498 3.60026 20.8941 3.9884L21.1536 6.24688C21.2047 6.69269 21.1516 7.14428 20.9984 7.56605L20.3334 9.39709C20.1188 9.98802 20.1022 10.6327 20.2863 11.2339L21.2156 14.2732C21.3162 14.6015 21.3575 14.9451 21.3377 15.2878L21.1271 18.9102C21.1087 19.2282 21.143 19.5471 21.2285 19.8541L22.1748 23.255C22.2199 23.4163 22.1651 23.589 22.0354 23.695C21.9057 23.8009 21.7255 23.8201 21.5765 23.7437L20.7716 23.3299C20.2445 23.0598 19.6502 22.9487 19.061 23.0101L18.6509 23.0514C17.9579 23.1248 17.2606 22.9583 16.6755 22.5797C15.9195 22.0901 14.9856 21.9598 14.1245 22.2238L11.5461 23.0134C11.1994 23.1193 10.8367 23.1629 10.4748 23.1421L6.90419 22.9352C6.57565 22.9159 6.24616 22.9498 5.92846 23.0357L2.42322 23.9845C2.27502 24.0247 2.11669 23.9812 2.0099 23.8709C1.9031 23.7605 1.86472 23.6009 1.9097 23.4541L2.73729 20.7371C2.8404 20.3987 2.88079 20.0443 2.85646 19.6914L2.67232 17.0312C2.6435 16.6179 2.70376 16.2033 2.84901 15.8154L3.62032 13.7539C3.86088 13.1112 3.86543 12.4039 3.63315 11.7582L2.68019 9.10329C2.55786 8.7629 2.50018 8.40266 2.51012 8.04109L2.60653 4.68233C2.61557 4.35906 2.57054 4.03655 2.47329 3.72812L1.46819 0.551844C1.41857 0.396239 1.46327 0.225975 1.58293 0.114817C1.7026 0.00365926 1.87569 -0.028398 2.02722 0.0325339V0.0325339Z" fill="#9FD4FE"/>
<path d="M18.3495 21.8201C18.1305 21.8181 17.951 21.6458 17.94 21.4271C17.929 21.2083 18.0904 21.0189 18.3081 20.995L18.7112 20.9536C18.873 20.9363 19.0393 20.9272 19.2048 20.9259L19.0608 20.3987C19.0052 20.18 19.1351 19.957 19.3528 19.8975C19.5705 19.8381 19.7958 19.964 19.859 20.1807L20.1541 21.2594C20.1902 21.3919 20.1584 21.5336 20.069 21.6378C19.9796 21.742 19.8444 21.7951 19.708 21.7796C19.4056 21.745 19.1003 21.744 18.7977 21.7767L18.3942 21.818C18.3785 21.8193 18.364 21.8201 18.3495 21.8201Z" fill="#84B5CB"/>
<path d="M7.94037 7.28252C7.83199 7.2824 7.72799 7.23975 7.65071 7.16376L5.29623 4.84652C5.18369 4.74462 5.13598 4.58927 5.17194 4.44177C5.2079 4.29427 5.32175 4.1783 5.46857 4.13963C5.61538 4.10097 5.77159 4.1458 5.87554 4.25645L8.23044 6.5737C8.35016 6.69143 8.38686 6.86983 8.32335 7.02526C8.25983 7.18069 8.10869 7.28233 7.94078 7.28252H7.94037Z" fill="#84B5CB"/>
<path d="M14.6895 19.4484C14.4916 19.448 14.3216 19.3075 14.284 19.1132L13.5677 15.4263C13.529 15.2042 13.6752 14.992 13.8965 14.9491C14.1178 14.9061 14.3328 15.0482 14.38 15.2687L15.0959 18.956C15.1391 19.1801 14.9926 19.3969 14.7686 19.4405C14.7425 19.4458 14.7161 19.4484 14.6895 19.4484V19.4484Z" fill="#84B5CB"/>
<path d="M18.8275 16.1378C18.7497 16.1379 18.6734 16.1158 18.6078 16.074L15.7071 14.2492C15.5762 14.1733 15.4972 14.0319 15.5011 13.8806C15.505 13.7293 15.5912 13.5922 15.7259 13.5232C15.8605 13.4541 16.0222 13.464 16.1473 13.5491L19.048 15.3739C19.2039 15.4722 19.2761 15.6617 19.225 15.8388C19.1738 16.0158 19.0118 16.1377 18.8275 16.1378Z" fill="#84B5CB"/>
<path d="M16.485 5.65229C16.3177 5.65225 16.1668 5.55144 16.1028 5.39684C16.0388 5.24224 16.0741 5.06429 16.1925 4.94594L18.5345 2.60388C18.6384 2.49631 18.7923 2.45317 18.9369 2.49104C19.0816 2.5289 19.1946 2.64189 19.2325 2.78656C19.2703 2.93124 19.2272 3.08509 19.1196 3.18898L16.7776 5.53105C16.7002 5.60893 16.5948 5.65259 16.485 5.65229V5.65229Z" fill="#84B5CB"/>
<g clip-path="url(#clip0_236_1346)">
<path d="M10.5136 15.6203C11.1063 15.0276 11.9092 14.6967 12.7438 14.6967C12.8757 14.6967 12.8852 14.7025 13.0185 14.7025C13.8526 14.7025 14.6549 14.3716 15.2477 13.7788L16.436 12.5904L12.2425 8.39693C9.61505 7.87737 6.66639 13.8866 9.45666 16.0079C9.83503 16.0388 10.224 15.9098 10.5136 15.6203V15.6203Z" fill="#E28F6D"/>
<path d="M7.99906 13.8867L7.01479 14.871C6.23888 15.6469 7.3532 16.7612 8.12911 15.9853L9.11338 15.001L7.99906 13.8867Z" fill="#EAC89C"/>
<path d="M6.25279 15.6327C6.21526 15.6702 6.15402 15.67 6.11672 15.6323L6.11604 15.6316C5.63201 15.1475 4.84729 15.1475 4.36302 15.6316C3.87899 16.1158 3.87899 16.9006 4.36302 17.3846C4.55797 17.5795 4.80184 17.6959 5.05509 17.7337C5.16368 17.7499 5.24991 17.8361 5.26614 17.9447C5.30397 18.198 5.42028 18.4418 5.61521 18.6368C6.09923 19.1208 6.88395 19.1208 7.36823 18.6368C7.85225 18.1525 7.85225 17.3678 7.36823 16.8838L7.36751 16.8831C7.32976 16.8458 7.32956 16.7845 7.36711 16.747L8.1287 15.9854L7.01438 14.8711L6.25279 15.6327Z" fill="#F3DCB4"/>
<path d="M10.748 10.1362C11.186 9.47186 11.6923 8.88942 12.2423 8.39712L10.4096 6.56445L9.2212 7.75284C8.59588 8.37816 8.26184 9.23666 8.30043 10.1199C8.33994 10.9794 8.01748 11.8491 7.37967 12.4869C6.85649 13.0106 6.85654 13.8586 7.37967 14.3817C7.63017 14.6322 8.36492 15.367 8.61847 15.6206C8.8522 15.8543 9.15084 15.9833 9.45642 16.0081C9.07429 14.2094 9.48864 12.0466 10.748 10.1362Z" fill="#D77953"/>
<path d="M16.4355 12.5912C17.5004 11.5263 17.0148 9.3139 15.3508 7.64965C15.0916 7.39048 14.8191 7.15991 14.5397 6.95933C11.924 6.00035 9.84501 8.10536 10.5925 10.3812C10.8368 10.7704 11.1384 11.151 11.494 11.5066C13.1579 13.1705 15.3705 13.6561 16.4355 12.5912V12.5912Z" fill="#D77953"/>
<path d="M14.5397 6.95896C13.0253 5.87169 11.3084 5.66556 10.4093 6.56465C9.57191 7.40203 9.69343 8.949 10.5925 10.3809C10.6429 10.299 10.6943 10.2174 10.7477 10.1364C11.7516 8.61359 13.1145 7.52091 14.5397 6.95896V6.95896Z" fill="#CB6848"/>
<path d="M14.9241 12.1051C15.2637 12.1051 15.5223 12.0187 15.6928 11.8483C16.2524 11.2886 15.9076 9.69187 14.6081 8.3924C14.2472 8.03147 13.8478 7.73019 13.4433 7.50513C11.921 7.05066 10.8979 7.96213 11.2625 9.43164C11.4851 9.87613 11.8093 10.336 12.2369 10.7637C13.0647 11.5912 14.0942 12.1051 14.9241 12.1051V12.1051Z" fill="#E28F6D"/>
<path d="M13.4428 7.50525C12.9198 7.2143 12.3884 7.05078 11.9204 7.05078C11.5809 7.05078 11.3224 7.13719 11.1517 7.30789C10.7763 7.68336 10.8081 8.52562 11.262 9.43176C11.9043 8.63429 12.6502 7.98564 13.4428 7.50525V7.50525Z" fill="#D77953"/>
<path d="M12.0918 8.58914C12.0149 8.51218 12.015 8.38746 12.092 8.31058L12.3149 8.08788C12.3919 8.01099 12.5166 8.01109 12.5935 8.08805C12.6704 8.16501 12.6703 8.28973 12.5933 8.36661L12.3704 8.58931C12.2934 8.66612 12.1688 8.66615 12.0918 8.58914Z" fill="white"/>
<path d="M14.4113 10.9089C14.3343 10.832 14.3342 10.7073 14.4111 10.6303L14.6338 10.4074C14.7107 10.3304 14.8354 10.3303 14.9124 10.4072C14.9894 10.4841 14.9894 10.6088 14.9125 10.6858L14.6898 10.9087C14.613 10.9857 14.4883 10.9858 14.4113 10.9089Z" fill="white"/>
<path d="M12.8954 9.284C12.9029 9.17548 12.9968 9.09337 13.1055 9.10109C13.214 9.10858 13.2959 9.20263 13.2884 9.31117C13.2723 9.54532 13.4674 9.72814 13.69 9.71275C13.7983 9.70536 13.8926 9.78714 13.9001 9.89566C13.9076 10.0042 13.8257 10.0983 13.7172 10.1057C13.2507 10.138 12.8632 9.75068 12.8954 9.284Z" fill="white"/>
</g>
<defs>
<clipPath id="clip0_236_1346">
<rect width="13" height="13" fill="white" transform="translate(4 6)"/>
</clipPath>
</defs>
</svg>
