<svg width="24" height="24" viewBox="0 0 24 24" fill="none" xmlns="http://www.w3.org/2000/svg">
<g clip-path="url(#clip0_193_1237)">
<path d="M19.2471 6.60258C20.0738 12.7515 8.21146 8.07263 14.0422 4.2457C16.2921 3.52819 18.8496 4.65689 19.2471 6.60258V6.60258Z" fill="#EF3F50"/>
<path d="M11.274 4.9413C13.784 8.21744 4.16996 11.6657 4.75417 6.60189C5.05234 5.14248 6.6354 4.0293 8.54378 4.0293C9.61192 4.0293 10.5782 4.37791 11.274 4.9413Z" fill="#E02B45"/>
<path d="M16.3322 0.459927C16.6992 0.948974 16.6202 1.64657 16.1406 2.03957L15.5806 2.49777C14.3447 3.42519 13.4963 4.85999 13.3149 6.46386C13.2611 9.09079 10.8369 8.82411 11.0066 6.40715C11.2053 4.13915 12.3698 2.02846 14.1993 0.656333L14.6832 0.260192C15.1894 -0.15437 15.9394 -0.0631982 16.3322 0.459927V0.459927Z" fill="#8AD171"/>
<path d="M16.2562 6.42772C11.8218 8.68672 11.6564 16.8969 15.4566 22.9186C16.0572 23.592 16.7033 24 17.3761 24C20.5537 24 23.1366 14.902 23.1366 11.711C23.1366 8.07275 19.7873 5.82777 16.2562 6.42772V6.42772Z" fill="#FB7A6E"/>
<path d="M18.9738 11.7109C18.9738 9.54127 17.9536 7.62792 16.2578 6.42773C13.6078 6.87797 11.6172 8.91792 11.6172 11.711C11.6172 14.2255 13.2221 20.4116 15.4581 22.9186C16.5586 21.3405 17.3447 19.2524 17.839 17.6719C18.539 15.4342 18.9738 13.15 18.9738 11.7109Z" fill="#F45B5B"/>
<path d="M7.74284 6.42693C4.19867 5.82492 0.863281 8.08289 0.863281 11.7103C0.863281 14.9002 3.44614 23.9993 6.62375 23.9993C7.29594 23.9993 7.94155 23.592 8.54169 22.9198C12.1457 17.5749 13.5033 8.10417 7.74284 6.42693V6.42693Z" fill="#F45B5B"/>
<path d="M7.74253 6.42773C6.00145 7.65638 5.02734 9.57712 5.02734 11.711C5.02734 13.5884 5.77238 16.8608 6.79889 19.4922C7.34405 20.8897 7.92572 22.0331 8.54142 22.9206C10.7783 20.415 12.384 14.227 12.384 11.7111C12.384 8.91342 10.3892 6.87727 7.74253 6.42773V6.42773Z" fill="#EF3F50"/>
<path d="M13.9269 6.62012C2.09245 6.62012 9.31617 24.8485 13.9272 22.9095C16.1589 20.397 17.76 14.2233 17.76 11.711C17.76 9.2063 16.1611 7.31204 13.9269 6.62012V6.62012Z" fill="#FB7A6E"/>
<path d="M13.9282 6.62006C13.3256 6.43345 12.6769 6.33398 12.0008 6.33398C8.81194 6.33398 6.24023 8.53612 6.24023 11.711C6.24023 14.9009 8.82314 24 12.0008 24C12.6766 24 13.3255 23.5882 13.9284 22.9095C11.6965 20.3967 10.0954 14.2224 10.0954 11.711C10.0954 9.20986 11.6917 7.31273 13.9282 6.62006Z" fill="#F45B5B"/>
<path d="M8.97303 12.3208C8.77222 12.3208 8.60938 12.158 8.60938 11.9572V11.3754C8.60938 11.1746 8.77217 11.0117 8.97303 11.0117C9.17389 11.0117 9.33669 11.1745 9.33669 11.3754V11.9572C9.33664 12.1581 9.17384 12.3208 8.97303 12.3208Z" fill="#495059"/>
<path d="M15.0297 12.3208C14.8289 12.3208 14.666 12.158 14.666 11.9572V11.3754C14.666 11.1746 14.8288 11.0117 15.0297 11.0117C15.2305 11.0117 15.3933 11.1745 15.3933 11.3754V11.9572C15.3933 12.1581 15.2305 12.3208 15.0297 12.3208Z" fill="#495059"/>
<path d="M12.0015 12.6671C11.59 12.6671 11.1991 12.489 10.9291 12.1784C10.7973 12.0269 10.8133 11.7972 10.9649 11.6654C11.1164 11.5337 11.3461 11.5496 11.4779 11.7012C11.7545 12.0194 12.2489 12.0191 12.5252 11.7012C12.6569 11.5496 12.8866 11.5337 13.0382 11.6654C13.1897 11.7972 13.2057 12.0269 13.074 12.1784C12.804 12.489 12.4131 12.6671 12.0015 12.6671Z" fill="#495059"/>
</g>
<defs>
<clipPath id="clip0_193_1237">
<rect width="24" height="24" fill="white"/>
</clipPath>
</defs>
</svg>
