<svg width="24" height="24" viewBox="0 0 24 24" fill="none" xmlns="http://www.w3.org/2000/svg">
<g clip-path="url(#clip0_127_1763)">
<path d="M19.2495 4.32228C19.4814 3.63879 19.5841 2.92104 19.5559 2.20751C19.5244 1.4075 18.8805 0.763623 18.08 0.731654C16.4918 0.668982 14.984 1.24915 13.8629 2.29329C12 4.66784 17.7216 6.88489 19.2495 4.32228Z" fill="#A0CF76"/>
<path d="M8.64473 1.91575C8.41683 1.89531 8.18784 1.88903 7.95928 1.89808C7.2359 1.92667 6.65404 2.50848 6.62545 3.23191C6.62114 3.3393 6.62067 3.44678 6.62287 3.55417C8.49389 5.47061 12.2909 3.48489 8.64473 1.91575Z" fill="#A0CF76"/>
<path d="M12.5688 4.66797C12.4605 5.3538 12.5522 5.94447 12.79 6.4165C12.9518 5.92816 12.9078 5.33111 12.5688 4.66797Z" fill="#E9B746"/>
<path d="M12.5687 4.66776C12.2068 3.95966 11.5088 3.17643 10.367 2.37037L10.3665 2.37083C9.81778 2.12005 9.23489 1.96874 8.64474 1.91577C8.73736 2.11663 8.86275 2.30516 9.02067 2.47279C9.07997 2.53574 9.13707 2.59991 9.19196 2.6654C9.38663 2.89752 9.2145 3.24941 8.91155 3.24913C8.90916 3.24913 8.90677 3.24913 8.90438 3.24913C8.12621 3.24913 7.35966 3.35183 6.62292 3.55419C6.6308 3.93018 6.67824 4.30518 6.76608 4.67291C8.43 8.56719 12.1619 8.3113 12.7899 6.41629C12.9518 5.92794 12.9077 5.3309 12.5687 4.66776Z" fill="#8CC357"/>
<path d="M15.0907 3.24778C14.887 3.24778 14.6832 3.25528 14.48 3.2699C14.3105 3.28209 14.1559 3.17573 14.1082 3.01265C14.0369 2.76857 13.955 2.52862 13.863 2.29321C13.5508 2.58393 13.2687 2.91051 13.0231 3.26929C12.783 3.76949 12.6368 4.23721 12.5688 4.66776C12.4605 5.35359 12.5522 5.94426 12.79 6.41629C13.7018 8.22684 16.7494 8.29738 18.7904 5.34248C18.978 5.01506 19.1305 4.67306 19.2496 4.3222C17.9914 3.61959 16.5563 3.24778 15.0907 3.24778Z" fill="#8CC357"/>
<path d="M13.0837 3.485C12.7711 2.31481 12.1849 1.24147 11.3217 0.319997C10.8984 -0.131878 10.1717 -0.0999092 9.78614 0.382528C9.47193 0.775247 9.48745 1.34206 9.83222 1.70811C10.3331 2.23972 10.7056 2.83812 10.952 3.49381C11.4276 5.29297 13.3168 5.2415 13.0837 3.485Z" fill="#CD8A5D"/>
<path d="M13.2936 4.5795C13.2491 4.2067 13.179 3.84145 13.0838 3.48511C12.9067 3.52734 12.731 3.57478 12.5574 3.62803C12.1946 3.73931 11.8066 3.7394 11.4437 3.62831C11.2816 3.57867 11.1175 3.534 10.952 3.49397C11.1003 3.88875 11.2029 4.30429 11.2601 4.73854C11.5799 8.07281 13.5516 7.45865 13.2936 4.5795Z" fill="#C77C48"/>
<path d="M17.3103 3.49209C17.4523 3.35011 17.4523 3.11986 17.3103 2.97783C17.1683 2.83584 16.938 2.83584 16.796 2.97783L16.4224 3.35142C16.1172 4.00003 16.6707 4.08084 17.2736 3.5287L17.3103 3.49209Z" fill="#8CC357"/>
<path d="M14.7895 5.49852C14.8605 5.56954 14.9536 5.60502 15.0466 5.60502C15.1397 5.60502 15.2328 5.56949 15.3037 5.49852L17.2737 3.5286C16.9937 3.45529 16.7096 3.39608 16.4225 3.35132L14.7895 4.9843C14.6475 5.12629 14.6475 5.35654 14.7895 5.49852Z" fill="#7EAD3E"/>
<path d="M18.7903 5.3426C17.3004 4.48408 15.5677 4.19645 13.9238 4.45389C7.29696 7.297 7.91112 20.5495 13.5031 23.7533C14.0158 23.914 14.5469 24 15.0909 24C19.409 24 22.9091 18.5949 22.9091 13.2727C22.9091 9.60006 21.2426 6.754 18.7903 5.3426Z" fill="#FFA2AD"/>
<path d="M18.1818 13.2727C18.1818 9.3365 16.4774 6.20562 13.9239 4.45386C13.2609 4.55769 12.6123 4.74973 12 5.02934C7.05456 8.70303 6.6212 19.1273 12 23.042C12.4781 23.3489 12.9812 23.5897 13.5031 23.7532C16.4668 21.4103 18.1818 17.1528 18.1818 13.2727Z" fill="#FF8B98"/>
<path d="M16.7274 13.2726C16.7274 8.88504 14.3618 5.76228 11.2602 4.73834C10.7509 4.56959 10.2228 4.45943 9.68955 4.40454C5.88901 4.6729 2.80408 8.90543 2.80408 13.2223C2.80408 17.6945 4.48487 23.5232 10.0075 23.8816C10.7054 23.7317 11.3741 23.4437 12 23.0419C14.7807 21.2567 16.7274 17.2416 16.7274 13.2726Z" fill="#FFC0C8"/>
<path d="M4.70458 13.2225C4.70458 8.90555 6.77219 5.67075 9.6895 4.40471C8.70527 4.30346 7.70294 4.39364 6.7661 4.67302C3.48996 5.64952 1.09094 8.86646 1.09094 13.2728C1.09094 18.5949 4.59105 24 8.90913 24C9.28193 24 9.64849 23.9588 10.0075 23.8817C6.92351 22.222 4.70458 17.6946 4.70458 13.2225Z" fill="#FFA2AD"/>
<path d="M12.7743 12.9033C13.5603 12.9033 14.1974 13.4105 14.1974 14.0364C14.1974 14.6624 13.5603 15.17 12.7743 15.17C11.9884 15.17 11.3508 14.6624 11.3508 14.0364C11.3508 13.4105 11.9884 12.9033 12.7743 12.9033Z" fill="white"/>
<path d="M5.05938 12.9033C5.84581 12.9033 6.48288 13.4105 6.48288 14.0364C6.48288 14.6624 5.84581 15.17 5.05938 15.17C4.27343 15.17 3.63635 14.6624 3.63635 14.0364C3.63635 13.4105 4.27343 12.9033 5.05938 12.9033Z" fill="white"/>
<path d="M5.88892 13.3091C5.68811 13.3091 5.52527 13.1463 5.52527 12.9455V12.3637C5.52527 12.1628 5.68807 12 5.88892 12C6.08974 12 6.25258 12.1628 6.25258 12.3637V12.9455C6.25258 13.1463 6.08978 13.3091 5.88892 13.3091Z" fill="#495560"/>
<path d="M11.9447 13.3091C11.7439 13.3091 11.5811 13.1463 11.5811 12.9455V12.3637C11.5811 12.1628 11.7439 12 11.9447 12C12.1455 12 12.3084 12.1628 12.3084 12.3637V12.9455C12.3083 13.1463 12.1455 13.3091 11.9447 13.3091Z" fill="#495560"/>
<path d="M8.9168 13.6553C8.50524 13.6553 8.11435 13.4772 7.84435 13.1667C7.71259 13.0151 7.72862 12.7854 7.88016 12.6537C8.03166 12.522 8.2614 12.5379 8.39316 12.6895C8.52502 12.8411 8.71585 12.9281 8.9168 12.9281C9.11771 12.9281 9.30887 12.841 9.44119 12.6892C9.57315 12.5378 9.80288 12.522 9.95424 12.654C10.1056 12.7859 10.1214 13.0157 9.98944 13.167C9.71898 13.4773 9.32799 13.6553 8.9168 13.6553Z" fill="#495560"/>
</g>
<defs>
<clipPath id="clip0_127_1763">
<rect width="24" height="24" fill="white"/>
</clipPath>
</defs>
</svg>
