<svg width="24" height="24" viewBox="0 0 24 24" fill="none" xmlns="http://www.w3.org/2000/svg">
<g clip-path="url(#clip0_239_1829)">
<path d="M15.6787 0C13.647 0 12 1.64702 12 3.67871V4.91918H13.1503C15.182 4.91918 16.829 3.27216 16.829 1.24047V1.15026C16.8289 0.51501 16.314 0 15.6787 0V0Z" fill="#00CE8E"/>
<path d="M13.9605 2.95858C13.819 2.81719 13.5897 2.81719 13.4483 2.95858L12.3096 4.0974C11.8763 4.53061 11.6377 5.10666 11.6377 5.71931V6.1078H12.362V5.71931C12.362 5.3001 12.5253 4.90601 12.8217 4.60961L13.9605 3.47084C14.1019 3.3293 14.1019 3.10002 13.9605 2.95858V2.95858Z" fill="#00B27A"/>
<path d="M17.3123 10.5247C16.8074 10.0532 16.4247 9.46948 16.1629 8.83013C15.8825 8.14509 15.4374 7.54514 14.8775 7.07823C14.0977 6.42796 13.0947 6.03613 11.9999 6.03613C10.1191 6.03613 8.50813 7.19084 7.83695 8.82998C7.57628 9.46659 7.1973 10.0497 6.69403 10.5186C5.14736 11.9598 4.18808 14.023 4.21541 16.3101C4.26708 20.6323 7.78557 24.0578 12.1077 23.9992C13.4934 23.9804 14.7915 23.5994 15.912 22.9468C18.228 21.5979 19.7849 19.0883 19.7849 16.2149C19.7849 13.969 18.8337 11.9455 17.3123 10.5247V10.5247Z" fill="#5FD9B3"/>
<path d="M9.34451 16.0435C9.31993 13.9865 10.1827 12.1308 11.5738 10.8346C12.0265 10.4128 12.3673 9.8884 12.6017 9.31583C13.0205 8.2931 13.8463 7.48043 14.8775 7.07832C14.0977 6.42796 13.0947 6.03613 11.9999 6.03613C10.1191 6.03613 8.50813 7.19084 7.83695 8.82998C7.57628 9.46659 7.1973 10.0497 6.69403 10.5186C5.14736 11.9598 4.18808 14.023 4.21541 16.3101C4.26708 20.6323 7.78557 24.0578 12.1077 23.9992C13.4934 23.9804 14.7915 23.5994 15.912 22.9468C12.2714 22.727 9.38884 19.7524 9.34451 16.0435V16.0435Z" fill="#00CE8E"/>
<path d="M8.15778 14.6772C8.94067 14.6772 9.57533 14.1718 9.57533 13.5483C9.57533 12.9248 8.94067 12.4194 8.15778 12.4194C7.37489 12.4194 6.74023 12.9248 6.74023 13.5483C6.74023 14.1718 7.37489 14.6772 8.15778 14.6772Z" fill="#FF8E9E"/>
<path d="M15.8414 14.6772C16.6243 14.6772 17.2589 14.1718 17.2589 13.5483C17.2589 12.9248 16.6243 12.4194 15.8414 12.4194C15.0585 12.4194 14.4238 12.9248 14.4238 13.5483C14.4238 14.1718 15.0585 14.6772 15.8414 14.6772Z" fill="#FF8E9E"/>
<path d="M8.98424 11.52C8.78423 11.52 8.62207 11.6821 8.62207 11.8822V12.4617C8.62207 12.6617 8.78423 12.8238 8.98424 12.8238C9.18426 12.8238 9.34642 12.6617 9.34642 12.4617V11.8822C9.34642 11.6821 9.18426 11.52 8.98424 11.52Z" fill="#313D40"/>
<path d="M15.0155 11.52C14.8155 11.52 14.6533 11.6821 14.6533 11.8822V12.4617C14.6533 12.6617 14.8155 12.8238 15.0155 12.8238C15.2155 12.8238 15.3777 12.6617 15.3777 12.4617V11.8822C15.3777 11.6821 15.2155 11.52 15.0155 11.52Z" fill="#313D40"/>
<path d="M13.033 12.1712C12.8822 12.0398 12.6534 12.0555 12.522 12.2063C12.2456 12.5235 11.7542 12.5232 11.478 12.2063C11.3466 12.0555 11.1178 12.0398 10.967 12.1712C10.8162 12.3026 10.8005 12.5314 10.9319 12.6822C11.497 13.3306 12.5035 13.33 13.0681 12.6822C13.1995 12.5314 13.1838 12.3026 13.033 12.1712V12.1712Z" fill="#313D40"/>
</g>
<defs>
<clipPath id="clip0_239_1829">
<rect width="24" height="24" fill="white"/>
</clipPath>
</defs>
</svg>
