<svg width="24" height="24" viewBox="0 0 24 24" fill="none" xmlns="http://www.w3.org/2000/svg">
<path d="M1.81439 2.08352C1.37347 2.16299 1.00195 2.45761 0.817747 2.86612C0.148679 4.35019 -1.07209 8.08701 1.95392 10.9032L8.27289 3.6C8.27289 3.6 6.92872 1.16067 1.81439 2.08352V2.08352Z" fill="#FFC9D3"/>
<path d="M22.1851 2.08352C22.626 2.16299 22.9975 2.45761 23.1817 2.86612C23.8508 4.35019 25.0714 8.08701 22.0455 10.9032L15.7266 3.6C15.7266 3.6 17.0707 1.16067 22.1851 2.08352V2.08352Z" fill="#FFC9D3"/>
<path d="M23.3981 9.11176C22.8087 7.41218 21.8383 5.8545 20.5289 4.54511C19.6132 3.6294 18.5762 2.87958 17.4543 2.30957C16.1565 2.82062 15.7266 3.60028 15.7266 3.60028L22.0455 10.9035C22.6564 10.3351 23.0938 9.72901 23.3981 9.11176Z" fill="#FF9DB0"/>
<path d="M0.601562 9.11176C0.905884 9.7292 1.34332 10.3351 1.95416 10.9035L8.27314 3.60028C8.27314 3.60028 7.84321 2.82062 6.54536 2.30957C5.42347 2.87958 4.38636 3.6294 3.47083 4.54511C2.16144 5.8545 1.19098 7.41218 0.601562 9.11176Z" fill="#FF9DB0"/>
<path d="M5.77867 4.00098C5.37987 3.85651 4.79521 3.72852 3.97618 3.72852C3.69585 3.72852 3.38823 3.74353 3.05095 3.77795C2.64555 3.81934 2.30241 4.09692 2.17863 4.48529C2.07206 4.81964 1.9752 5.20087 1.91514 5.60901C1.67784 7.22327 2.10338 8.51124 3.21593 9.5467L6.70061 4.58032C6.69072 4.56659 6.45232 4.24487 5.77867 4.00098Z" fill="#FF9DB0"/>
<path d="M18.2208 4.00098C18.6196 3.85651 19.2042 3.72852 20.0233 3.72852C20.3036 3.72852 20.6112 3.74353 20.9485 3.77795C21.3539 3.81934 21.697 4.09692 21.8208 4.48529C21.9274 4.81964 22.0242 5.20087 22.0843 5.60901C22.3216 7.22327 21.8961 8.51124 20.7835 9.5467L17.2988 4.58032C17.3087 4.56659 17.5471 4.24487 18.2208 4.00098V4.00098Z" fill="#FF9DB0"/>
<path d="M20.5295 4.5445C20.2446 4.25958 19.948 3.9906 19.6406 3.73828C19.0186 3.77069 18.5544 3.87964 18.2208 4.00049C17.5471 4.24457 17.3087 4.5661 17.2988 4.57983L20.7835 9.54621C21.6721 8.7193 22.1218 7.7309 22.1464 6.54419C21.6848 5.83026 21.145 5.15991 20.5295 4.5445V4.5445Z" fill="#FF889E"/>
<path d="M1.85352 6.54419C1.87805 7.7309 2.32776 8.7193 3.21637 9.54621L6.70106 4.57983C6.69117 4.56629 6.45276 4.24457 5.77912 4.00049C5.4455 3.87964 4.98133 3.77069 4.35932 3.73828C4.05188 3.9906 3.75525 4.25958 3.47034 4.5445C2.85492 5.15991 2.31513 5.83026 1.85352 6.54419Z" fill="#FF889E"/>
<path d="M22.855 13.074C22.855 19.0692 17.995 22.1818 11.9998 22.1818C6.00452 22.1818 1.14453 19.0692 1.14453 13.074C1.14453 7.07874 6.00452 2.21875 11.9998 2.21875C17.995 2.21875 22.855 7.07874 22.855 13.074Z" fill="#FFC9D3"/>
<path d="M13.3353 11.756C12.491 11.3574 11.509 11.3574 10.6649 11.756C9.73615 12.1945 8.66406 13.0562 8.66406 14.6985C8.66406 16.1978 10.5499 16.3254 11.7 15.7986C11.89 15.7114 12.1101 15.7114 12.3002 15.7986C13.4503 16.3254 15.3361 16.1976 15.3361 14.6985C15.3361 13.0562 14.264 12.1944 13.3353 11.756V11.756Z" fill="#FF889E"/>
<path d="M6.86072 14.7341H5.81335C5.6134 14.7341 5.45117 14.5719 5.45117 14.3719C5.45117 14.172 5.6134 14.0098 5.81335 14.0098H6.86072C7.06067 14.0098 7.2229 14.172 7.2229 14.3719C7.2229 14.5719 7.06067 14.7341 6.86072 14.7341Z" fill="#FF9DB0"/>
<path d="M7.00281 13.4317C6.80267 13.4317 6.64062 13.2697 6.64062 13.0697V12.1835C6.64062 11.9835 6.80267 11.8213 7.00281 11.8213C7.20276 11.8213 7.36481 11.9835 7.36481 12.1835V13.0697C7.36481 13.2697 7.20276 13.4317 7.00281 13.4317Z" fill="#423E4F"/>
<path d="M18.1849 14.7341H17.1376C16.9374 14.7341 16.7754 14.5719 16.7754 14.3719C16.7754 14.172 16.9374 14.0098 17.1376 14.0098H18.1849C18.3849 14.0098 18.5469 14.172 18.5469 14.3719C18.5469 14.5719 18.3849 14.7341 18.1849 14.7341Z" fill="#FF9DB0"/>
<path d="M16.9969 13.4317C16.797 13.4317 16.6348 13.2697 16.6348 13.0697V12.1835C16.6348 11.9835 16.797 11.8213 16.9969 11.8213C17.1971 11.8213 17.3591 11.9835 17.3591 12.1835V13.0697C17.3591 13.2697 17.1971 13.4317 16.9969 13.4317Z" fill="#423E4F"/>
<path d="M11.235 13.1687C10.8869 12.9311 10.3568 13.1017 10.0506 13.5502C9.74467 13.9984 9.77891 14.5543 10.127 14.792C10.4751 15.0296 11.0052 14.8588 11.3113 14.4106C11.6173 13.9623 11.5831 13.4062 11.235 13.1687V13.1687Z" fill="#423E4F"/>
<path d="M13.95 13.55C13.644 13.1017 13.1137 12.9311 12.7656 13.1687C12.4176 13.4062 12.3833 13.9623 12.6895 14.4106C12.9954 14.8588 13.5257 15.0297 13.8738 14.792C14.2219 14.5543 14.2559 13.9984 13.95 13.55V13.55Z" fill="#423E4F"/>
</svg>
