<svg width="24" height="24" viewBox="0 0 24 24" fill="none" xmlns="http://www.w3.org/2000/svg">
<g clip-path="url(#clip0_239_1720)">
<path d="M10.0821 0.687236C10.0395 0.169618 10.6042 -0.177151 11.0463 0.0954448C11.9026 0.623252 12.5546 1.44872 12.8602 2.4361C13.2921 3.83177 12.9615 5.35159 12.0005 6.45202L9.43945 3.88252C9.94437 2.90818 10.1739 1.80142 10.0821 0.687236V0.687236Z" fill="#00B27A"/>
<path d="M13.9188 0.687236C13.9614 0.169618 13.3966 -0.177151 12.9545 0.0954448C12.0983 0.623252 11.4463 1.44872 11.1407 2.4361C10.7088 3.83177 11.0394 5.35159 12.0003 6.45202L14.5614 3.88252C14.0565 2.90818 13.827 1.80142 13.9188 0.687236V0.687236Z" fill="#00C084"/>
<path d="M11.3495 3.23767C10.4957 2.78737 9.51988 2.67287 8.6058 2.88974C8.13382 3.00173 7.98977 3.60371 8.35982 3.9174C9.15626 4.59263 9.73564 5.47513 10.0456 6.45208H13.4396C13.3475 5.09065 12.5565 3.87418 11.3495 3.23767V3.23767Z" fill="#00C084"/>
<path d="M15.6403 3.91763C16.0103 3.60394 15.8663 3.00196 15.3943 2.88998C14.4803 2.67311 13.5045 2.78765 12.6506 3.2379C11.4436 3.87441 10.6526 5.09088 10.5605 6.45231H13.9545C14.2645 5.47536 14.8438 4.59287 15.6403 3.91763V3.91763Z" fill="#00CE8E"/>
<path d="M11.103 5.42099C9.92469 4.79965 8.57823 4.6416 7.3169 4.94085C6.66557 5.09538 6.46686 5.92606 6.97747 6.35892C8.0765 7.29068 8.87599 8.50845 9.30374 9.8565H13.987C13.86 7.97794 12.7685 6.29934 11.103 5.42099Z" fill="#00B27A"/>
<path d="M17.0232 6.35893C17.5338 5.92606 17.3351 5.09538 16.6838 4.94085C15.4225 4.6416 14.076 4.79965 12.8977 5.42099C11.2322 6.29929 10.1408 7.97794 10.0137 9.85655H14.697C15.1247 8.50845 15.9242 7.29068 17.0232 6.35893V6.35893Z" fill="#00C084"/>
<path d="M18.8608 16.2737L19.1707 15.2153C19.3086 14.7442 19.2502 14.246 19.0055 13.8086L18.3845 12.6981L18.18 11.7251C18.0499 11.106 17.6008 10.5722 16.9602 10.2754L15.9459 9.80531L15.1102 9.11622C15.0426 9.06045 14.9715 9.00868 14.8977 8.96068C14.4002 8.63719 13.7727 8.49294 13.149 8.56596L12.0003 8.7004L10.8517 8.56596C10.1354 8.48213 9.41392 8.68456 8.89041 9.11622L8.05471 9.80531L7.04043 10.2754C6.39987 10.5722 5.95073 11.106 5.82063 11.7251L5.61618 12.6981L4.99512 13.8086C4.75049 14.246 4.69201 14.7442 4.82992 15.2153L5.1398 16.2737L4.82992 17.332C4.69201 17.8032 4.75049 18.3013 4.99512 18.7387L5.61618 19.8493L5.82063 20.8223C5.95073 21.4414 6.39987 21.9752 7.04043 22.272L8.05471 22.742L8.89041 23.4311C9.41392 23.8628 10.1354 24.0652 10.8517 23.9814L12.0003 23.847L13.149 23.9814C13.7727 24.0544 14.4003 23.9102 14.8977 23.5867C14.9715 23.5387 15.0426 23.4869 15.1102 23.4311L15.9459 22.742L16.9602 22.272C17.6008 21.9751 18.0499 21.4414 18.18 20.8223L18.3845 19.8493L19.0055 18.7387C19.2502 18.3013 19.3086 17.8031 19.1707 17.332L18.8608 16.2737Z" fill="#FFCE71"/>
<path d="M13.8495 22.7421L12.8352 22.272C12.1946 21.9752 11.7455 21.4414 11.6154 20.8223L11.4109 19.8493L10.7899 18.7388C10.5453 18.3014 10.4868 17.8032 10.6247 17.3321L10.9346 16.2737L10.6247 15.2153C10.4868 14.7442 10.5453 14.246 10.7899 13.8086L11.4109 12.6981L11.6154 11.7251C11.7455 11.106 12.1946 10.5722 12.8352 10.2754L13.8495 9.80531L14.6852 9.11622C14.7528 9.06045 14.8239 9.00868 14.8977 8.96068C14.4002 8.63719 13.7727 8.49294 13.149 8.56596L12.0003 8.7004L10.8517 8.56596C10.1354 8.48213 9.41392 8.68456 8.89041 9.11622L8.05471 9.80531L7.04043 10.2754C6.39987 10.5722 5.95073 11.106 5.82063 11.7251L5.61618 12.6981L4.99512 13.8086C4.75049 14.246 4.69201 14.7442 4.82992 15.2153L5.1398 16.2737L4.82992 17.332C4.69201 17.8032 4.75049 18.3013 4.99512 18.7387L5.61618 19.8493L5.82063 20.8223C5.95073 21.4414 6.39987 21.9752 7.04043 22.272L8.05471 22.742L8.89041 23.4311C9.41392 23.8628 10.1354 24.0652 10.8517 23.9814L12.0003 23.847L13.149 23.9814C13.7727 24.0544 14.4003 23.9102 14.8977 23.5867C14.8239 23.5387 14.7528 23.4869 14.6852 23.4311L13.8495 22.7421Z" fill="#FFB357"/>
<path d="M8.15876 16.7778C8.94164 16.7778 9.5763 16.2723 9.5763 15.6489C9.5763 15.0254 8.94164 14.52 8.15876 14.52C7.37587 14.52 6.74121 15.0254 6.74121 15.6489C6.74121 16.2723 7.37587 16.7778 8.15876 16.7778Z" fill="#FF8E9E"/>
<path d="M15.8424 16.7778C16.6252 16.7778 17.2599 16.2723 17.2599 15.6489C17.2599 15.0254 16.6252 14.52 15.8424 14.52C15.0595 14.52 14.4248 15.0254 14.4248 15.6489C14.4248 16.2723 15.0595 16.7778 15.8424 16.7778Z" fill="#FF8E9E"/>
<path d="M8.98424 13.6206C8.78423 13.6206 8.62207 13.7827 8.62207 13.9828V14.5623C8.62207 14.7623 8.78423 14.9244 8.98424 14.9244C9.18426 14.9244 9.34642 14.7623 9.34642 14.5623V13.9828C9.34642 13.7827 9.18426 13.6206 8.98424 13.6206Z" fill="#313D40"/>
<path d="M15.0155 13.6206C14.8155 13.6206 14.6533 13.7827 14.6533 13.9828V14.5623C14.6533 14.7623 14.8155 14.9244 15.0155 14.9244C15.2155 14.9244 15.3777 14.7623 15.3777 14.5623V13.9828C15.3777 13.7827 15.2155 13.6206 15.0155 13.6206Z" fill="#313D40"/>
<path d="M13.033 14.272C12.8822 14.1406 12.6535 14.1563 12.522 14.3071C12.2458 14.6241 11.7544 14.6243 11.478 14.3071C11.3466 14.1564 11.1178 14.1407 10.967 14.272C10.8162 14.4035 10.8005 14.6322 10.9319 14.783C11.4965 15.4309 12.503 15.4315 13.0681 14.783C13.1995 14.6322 13.1838 14.4035 13.033 14.272Z" fill="#313D40"/>
<path d="M9.83503 12.2315L9.11068 11.7486C8.98899 11.6675 8.83055 11.6675 8.70891 11.7486L7.98457 12.2315C7.81811 12.3425 7.77315 12.5673 7.88412 12.7337C7.99509 12.9002 8.22003 12.9452 8.38634 12.8341L8.9098 12.4852L9.43326 12.8341C9.49502 12.8753 9.5648 12.895 9.63381 12.895C9.75081 12.895 9.86569 12.8384 9.93547 12.7337C10.0464 12.5673 10.0015 12.3425 9.83503 12.2315Z" fill="#F9973E"/>
<path d="M15.6139 12.8341C15.6757 12.8753 15.7455 12.895 15.8145 12.895C15.9315 12.895 16.0464 12.8384 16.1161 12.7337C16.2271 12.5673 16.1821 12.3424 16.0157 12.2315L15.2913 11.7486C15.1697 11.6675 15.0112 11.6675 14.8896 11.7486L14.1652 12.2315C13.9988 12.3425 13.9538 12.5673 14.0648 12.7337C14.1758 12.9002 14.4007 12.9452 14.567 12.8341L15.0905 12.4852L15.6139 12.8341Z" fill="#F9973E"/>
<path d="M12.9258 10.7828L12.2015 10.2999C12.0798 10.2187 11.9214 10.2187 11.7997 10.2999L11.0754 10.7828C10.9089 10.8937 10.864 11.1186 10.9749 11.285C11.0859 11.4514 11.3108 11.4964 11.4772 11.3854L12.0006 11.0364L12.5241 11.3854C12.5858 11.4266 12.6556 11.4463 12.7246 11.4463C12.8416 11.4463 12.9565 11.3897 13.0263 11.285C13.1373 11.1186 13.0923 10.8937 12.9258 10.7828V10.7828Z" fill="#F9973E"/>
<path d="M8.86921 18.992L8.14486 18.5091C8.02317 18.428 7.86473 18.428 7.74309 18.5091L7.01875 18.992C6.85229 19.103 6.80733 19.3278 6.9183 19.4942C7.02927 19.6607 7.25416 19.7057 7.42052 19.5946L7.94398 19.2457L8.46744 19.5946C8.5292 19.6358 8.59898 19.6555 8.66799 19.6555C8.78499 19.6555 8.89987 19.5989 8.96965 19.4942C9.08062 19.3278 9.03566 19.103 8.86921 18.992Z" fill="#F9973E"/>
<path d="M16.9815 18.992L16.2572 18.5091C16.1355 18.428 15.977 18.428 15.8554 18.5091L15.1311 18.992C14.9646 19.103 14.9196 19.3278 15.0306 19.4942C15.1416 19.6607 15.3665 19.7057 15.5328 19.5946L16.0563 19.2457L16.5797 19.5946C16.6415 19.6358 16.7113 19.6555 16.7803 19.6555C16.8973 19.6555 17.0122 19.5989 17.082 19.4942C17.1929 19.3278 17.148 19.103 16.9815 18.992Z" fill="#F9973E"/>
<path d="M12.9258 17.0603L12.2015 16.5774C12.0798 16.4963 11.9214 16.4963 11.7997 16.5774L11.0754 17.0603C10.9089 17.1713 10.864 17.3962 10.9749 17.5626C11.0859 17.729 11.3108 17.7741 11.4772 17.663L12.0006 17.314L12.5241 17.663C12.5858 17.7042 12.6556 17.7239 12.7246 17.7239C12.8416 17.7239 12.9565 17.6672 13.0263 17.5626C13.1373 17.3962 13.0923 17.1713 12.9258 17.0603V17.0603Z" fill="#F9973E"/>
<path d="M12.9258 21.4065L12.2015 20.9236C12.0798 20.8425 11.9214 20.8425 11.7997 20.9236L11.0754 21.4065C10.9089 21.5175 10.864 21.7423 10.9749 21.9087C11.0859 22.0752 11.3108 22.1202 11.4772 22.0092L12.0006 21.6602L12.5241 22.0092C12.5858 22.0504 12.6556 22.0701 12.7246 22.0701C12.8416 22.0701 12.9565 22.0134 13.0263 21.9087C13.1373 21.7423 13.0923 21.5175 12.9258 21.4065V21.4065Z" fill="#F9973E"/>
</g>
<defs>
<clipPath id="clip0_239_1720">
<rect width="24" height="24" fill="white"/>
</clipPath>
</defs>
</svg>
