<svg width="24" height="24" viewBox="0 0 24 24" fill="none" xmlns="http://www.w3.org/2000/svg">
<g clip-path="url(#clip0_239_2149)">
<path d="M16.8973 2.03288C16.5693 0.873194 15.4077 0.174428 14.2296 0.427366C13.4418 0.596303 12.6996 0.954756 12.0818 1.46344C11.2989 2.45223 11.5218 3.89804 12.5662 4.60505L13.7573 5.41135C14.8161 6.12816 16.2622 5.77777 16.8755 4.65573L16.9744 4.47479C17.0553 4.10223 17.0922 3.72502 17.0877 3.35026C17.0825 2.90368 17.0183 2.46052 16.8973 2.03288V2.03288Z" fill="#A2D176"/>
<path d="M12.5662 4.60502L13.7573 5.41131C14.8162 6.12813 16.2622 5.77774 16.8755 4.65569L16.9744 4.47475C17.0553 4.10219 17.0922 3.72499 17.0878 3.35022C16.6023 3.22455 15.98 3.09681 15.2163 3.04703C14.5884 3.00611 14.0307 2.6306 13.7533 2.0658C13.5435 1.63863 13.2965 1.23386 13.0174 0.854736C12.6866 1.02114 12.3723 1.2243 12.0819 1.46341C11.2989 2.45219 11.5218 3.898 12.5662 4.60502V4.60502Z" fill="#8EC557"/>
<path d="M13.3697 4.36039L13.319 4.21943C13.0112 2.69759 12.1834 1.28736 10.9362 0.270871C10.3377 -0.217145 9.4402 -0.0223321 9.09224 0.667293C8.83682 1.17425 8.9654 1.79089 9.40288 2.14728C10.0578 2.68034 10.5618 3.40911 10.8257 4.23978V4.24025L11.0976 5.11986C11.2752 5.6945 11.8513 6.0484 12.4441 5.94711C13.1792 5.82153 13.6222 5.06211 13.3697 4.36039V4.36039Z" fill="#CF8C5D"/>
<path d="M15.383 2.00398C15.2855 1.82853 15.0642 1.76548 14.8887 1.86303C14.5727 2.03881 14.2996 2.26447 14.0655 2.51051C13.2305 3.38844 12.8924 4.52637 12.8747 4.58736C12.8083 4.81686 12.9804 5.05175 13.2239 5.05175C13.3804 5.05175 13.5262 4.94923 13.5728 4.79009C13.5767 4.77669 13.9064 3.67878 14.6791 2.92451C14.8458 2.76176 15.0328 2.61467 15.242 2.49828C15.4175 2.40069 15.4806 2.17939 15.383 2.00398V2.00398Z" fill="#8EC557"/>
<path d="M13.5728 4.79003C13.5767 4.77662 13.9063 3.67872 14.679 2.92445C14.4476 2.83164 14.2384 2.6904 14.0655 2.5105C13.2304 3.38842 12.8923 4.52636 12.8747 4.58734C12.8514 4.66773 12.8575 4.74948 12.8861 4.82172L13.2256 5.05159C13.3823 5.0508 13.5265 4.948 13.5728 4.79003Z" fill="#77BD3F"/>
<path d="M10.8253 4.24022L11.0972 5.11983C11.2748 5.69447 11.8509 6.04838 12.4437 5.94708C13.1788 5.82146 13.6218 5.06204 13.3693 4.36036L13.3186 4.21941C13.2439 3.85008 13.1388 3.48896 13.0056 3.13936C12.8417 3.16397 12.6788 3.19168 12.518 3.22416C12.1751 3.29339 11.8229 3.29339 11.48 3.22425C11.0756 3.14274 10.6612 3.08668 10.2422 3.05518C10.4941 3.41836 10.6912 3.81764 10.8254 4.23975V4.24022H10.8253Z" fill="#C97C48"/>
<path d="M11.912 4.47538V4.47491C10.3841 4.03715 8.57517 4.01123 6.93807 4.50107H6.9376C3.55118 5.5129 1.09668 8.61821 1.09668 13.3692C1.09668 18.1198 3.55118 22.143 6.9376 23.5052H6.93807C8.03686 23.9472 9.20563 24.0977 10.3753 23.9378C14.5731 23.364 17.8416 18.8514 17.8416 13.3692C17.8416 8.57706 15.3444 5.45909 11.912 4.47538V4.47538Z" fill="#635AC4"/>
<path d="M17.8413 13.3691C17.8413 8.57683 15.3442 5.45891 11.9117 4.47515V4.47468C11.2837 4.29473 10.6242 4.18748 9.94325 4.15308C8.73135 4.81129 7.69495 5.74035 6.89287 6.89801C5.68327 8.64391 5.04395 10.8816 5.04395 13.3691C5.04395 15.8706 5.66757 18.2573 6.8474 20.2711C7.77435 21.8533 8.97852 23.1009 10.375 23.9376C14.5728 23.3639 17.8413 18.8513 17.8413 13.3691Z" fill="#5149BD"/>
<path d="M16.974 4.47527V4.4748C15.4297 4.03291 13.7225 4.78483 12.0955 5.27162C8.70913 6.28346 7.65332 8.7291 7.65332 13.4801C7.65332 18.2307 9.56872 21.6744 12.9551 23.0366L14.3503 23.3404C15.5353 23.6703 16.7955 23.6061 16.7955 23.6061C20.3194 22.352 22.9036 18.2438 22.9036 13.3692C22.9036 8.57695 20.4065 5.45898 16.974 4.47527V4.47527Z" fill="#908AD6"/>
<path d="M15.6215 23.2602C12.2351 21.9333 9.78058 18.0146 9.78058 13.3874C9.78058 8.75971 12.2351 5.73502 15.6215 4.74943H15.622C16.0595 4.62189 16.5004 4.53147 16.9654 4.4724C15.4272 4.03356 13.6269 4.01439 12.0006 4.501H12.0001C8.61368 5.51284 6.15918 8.61815 6.15918 13.3692C6.15918 18.1198 8.61368 22.143 12.0001 23.5051H12.0006C13.5623 24.1334 15.2409 24.1596 16.796 23.6062C16.3944 23.5251 16.0023 23.4092 15.622 23.2602H15.6215Z" fill="#736ACA"/>
<path d="M18.391 13.3367C19.1776 13.3367 19.8148 13.844 19.8148 14.4706C19.8148 15.0967 19.1776 15.6046 18.391 15.6046C17.6045 15.6046 16.9668 15.0967 16.9668 14.4706C16.9668 13.844 17.6045 13.3367 18.391 13.3367Z" fill="white"/>
<path d="M14.5308 12.823C15.1652 12.823 15.6794 12.8894 15.6794 13.5993C15.6794 14.3088 15.1652 14.884 14.5308 14.884C13.897 14.884 13.3828 14.3088 13.3828 13.5993C13.3828 12.8894 13.897 12.823 14.5308 12.823Z" fill="#4E5660"/>
<path d="M10.6723 13.3367C11.4588 13.3367 12.0961 13.844 12.0961 14.4706C12.0961 15.0967 11.4588 15.6046 10.6723 15.6046C9.88578 15.6046 9.24805 15.0967 9.24805 14.4706C9.24805 13.844 9.88578 13.3367 10.6723 13.3367V13.3367Z" fill="white"/>
<path d="M10.9103 13.4801C10.7096 13.4801 10.5469 13.3174 10.5469 13.1166V12.5351C10.5469 12.3343 10.7096 12.1716 10.9103 12.1716C11.1111 12.1716 11.2738 12.3343 11.2738 12.5351V13.1166C11.2738 13.3174 11.1111 13.4801 10.9103 13.4801Z" fill="#4E5660"/>
<path d="M18.1535 13.4801C17.9528 13.4801 17.79 13.3174 17.79 13.1166V12.5351C17.79 12.3343 17.9528 12.1716 18.1535 12.1716C18.3542 12.1716 18.517 12.3343 18.517 12.5351V13.1166C18.517 13.3174 18.3542 13.4801 18.1535 13.4801Z" fill="#4E5660"/>
</g>
<defs>
<clipPath id="clip0_239_2149">
<rect width="24" height="24" fill="white"/>
</clipPath>
</defs>
</svg>
