<svg width="24" height="24" viewBox="0 0 24 24" fill="none" xmlns="http://www.w3.org/2000/svg">
<g clip-path="url(#clip0_239_1847)">
<path d="M21.7966 9.61772C21.7966 9.61768 21.7966 9.61763 21.7967 9.61758C22.4313 8.983 22.8143 7.57111 22.1797 6.93653C21.7494 6.50622 20.962 6.54413 20.3016 6.81074C20.339 6.67389 20.3594 6.52998 20.3594 6.3813C20.3594 5.48383 19.6318 4.75635 18.7344 4.75635C17.837 4.75635 16.5678 5.48388 16.5678 6.3813C16.5678 6.5776 16.6285 6.76578 16.7328 6.94001H15.3779V13.7341H21.2449V13.3131C22.1424 13.3131 22.8699 12.0439 22.8699 11.1465C22.8698 10.4427 22.4224 9.84362 21.7966 9.61772V9.61772Z" fill="#D34459"/>
<path d="M22.8959 13.4975C22.5286 12.9771 21.8663 12.7548 21.2593 12.948L20.1122 13.3133L19.8974 12.3312C19.7513 11.6628 19.2292 11.1408 18.5609 10.9947L17.5787 10.7799L17.8838 9.82184C18.0914 9.16998 17.9003 8.45693 17.3946 7.99615L16.6514 7.31903L17.3732 6.66142C17.8139 6.25994 18.0386 5.66521 17.9454 5.07636C17.8398 4.40953 17.3669 3.87245 16.7375 3.67557C16.4352 3.58102 16.1263 3.50091 15.8115 3.43601C15.4567 3.36285 15.2597 2.98175 15.4098 2.65193C15.8431 1.69956 14.8921 0.705948 13.9805 1.15866L13.2835 1.50485L13.0249 0.745062C12.8607 0.262696 12.4235 -4.82831e-05 12.0002 6.65518e-09C11.5771 4.82964e-05 11.1678 0.262841 11.0037 0.745159L10.7451 1.50495L10.048 1.15876C9.13644 0.706044 8.18548 1.69965 8.61878 2.65202L8.61888 2.65227C8.77364 2.99247 8.57541 3.38777 8.21068 3.46918C3.54208 4.51147 0.19589 8.91313 0.693564 13.8898L0.832011 15.2741C1.32737 20.2277 5.49574 24 10.4741 24H13.6997C13.9674 24 14.2326 23.9884 14.4952 23.967C19.1155 23.5902 22.873 19.9614 23.3418 15.2742L23.3478 15.2136C23.3997 14.6953 23.1963 13.923 22.8959 13.4975V13.4975Z" fill="#EA5B70"/>
<path d="M8.40012 13.2685C8.68629 8.80539 11.5998 4.94014 15.8116 3.43606C15.4568 3.3629 15.2598 2.98179 15.4098 2.65198C15.8431 1.69961 14.8921 0.705996 13.9806 1.15871L13.2835 1.5049L13.0249 0.745111C12.8607 0.262841 12.4234 0 12.0002 0C11.577 0 11.1679 0.262744 11.0037 0.745159L10.7451 1.50495L10.048 1.15876C9.13645 0.706044 8.18548 1.69965 8.61878 2.65202L8.61888 2.65227C8.77364 2.99247 8.57542 3.38777 8.21068 3.46918C3.54208 4.51147 0.19589 8.91313 0.693564 13.8898L0.832011 15.2741C1.32737 20.2277 5.49574 24 10.4741 24H13.6997C13.9674 24 14.2326 23.9884 14.4952 23.967C10.51 21.9373 8.11396 17.7317 8.40012 13.2685V13.2685Z" fill="#D34459"/>
<path d="M14.5234 11.9696C14.5231 12.6185 15.1834 13.1449 15.9983 13.1453C16.8131 13.1457 17.4739 12.62 17.4743 11.9711C17.4746 11.3222 16.8143 10.7958 15.9995 10.7954C15.1846 10.795 14.5238 11.3207 14.5234 11.9696V11.9696Z" fill="#FF8E9E"/>
<path d="M9.47721 11.9672C9.47687 12.6161 8.81607 13.1418 8.00118 13.1414C7.18634 13.141 6.52603 12.6146 6.52637 11.9657C6.52671 11.3168 7.1875 10.7911 8.00239 10.7915C8.81723 10.7919 9.47755 11.3183 9.47721 11.9672V11.9672Z" fill="#FF8E9E"/>
<path d="M12.0014 10.4595C11.2026 10.4591 10.5551 10.5427 10.5547 11.4365C10.5543 12.3303 11.2014 13.0552 12.0001 13.0556C12.7989 13.056 13.4468 12.3318 13.4472 11.438C13.4476 10.5442 12.8001 10.4599 12.0014 10.4595V10.4595Z" fill="#495560"/>
<path d="M8.82702 9.68115C8.82678 9.68115 8.82658 9.68115 8.82634 9.68115C8.62628 9.68154 8.46446 9.84398 8.46484 10.044L8.46591 10.6235C8.46629 10.8233 8.62835 10.985 8.82808 10.985H8.82876C9.02882 10.9846 9.19064 10.8221 9.19025 10.6221L9.18919 10.0426C9.18885 9.84287 9.02674 9.68115 8.82702 9.68115Z" fill="#313D40"/>
<path d="M14.8949 9.52686C14.894 9.52686 14.8933 9.52686 14.8925 9.52686C14.3184 9.52811 13.8523 9.99623 13.8535 10.5703C13.854 10.7701 14.016 10.9317 14.2157 10.9317H14.2165C14.4165 10.9313 14.5783 10.7688 14.5779 10.5688C14.5775 10.394 14.7194 10.2516 14.8941 10.2512H14.8948C15.0692 10.2512 15.2114 10.3929 15.2118 10.5675C15.2122 10.7672 15.3743 10.9288 15.5739 10.9288H15.5748C15.7748 10.9284 15.9366 10.7658 15.9361 10.5658C15.9348 9.99247 15.4679 9.52686 14.8949 9.52686V9.52686Z" fill="#313D40"/>
</g>
<defs>
<clipPath id="clip0_239_1847">
<rect width="24" height="24" fill="white"/>
</clipPath>
</defs>
</svg>
