<svg width="24" height="24" viewBox="0 0 24 24" fill="none" xmlns="http://www.w3.org/2000/svg">
<g clip-path="url(#clip0_189_1112)">
<path d="M23.9978 8.02768C23.9896 7.65189 23.9562 7.28194 23.8992 6.91943C23.6946 5.61719 23.1861 4.41187 22.4476 3.38436C20.966 1.32286 18.5601 -0.0230256 15.83 0.000298392C14.7326 0.00966664 13.6876 0.237692 12.7357 0.642168C12.3436 0.808769 11.9676 1.00565 11.6101 1.22942C10.3394 2.02456 9.30446 3.1616 8.63599 4.51265C8.54684 4.69278 8.45176 4.86932 8.35151 5.0423C8.22784 5.25564 8.09586 5.46339 7.95602 5.66505C7.59944 6.17919 7.19154 6.65398 6.7393 7.08265C6.54996 7.26214 6.35274 7.43352 6.14833 7.59635C5.64467 7.99755 5.09706 8.34688 4.51261 8.63604C1.85845 9.94923 0.0272435 12.6744 0.000297754 15.83C-0.0386239 20.391 3.74344 24.0483 8.3011 23.9993C8.31017 23.9992 8.31916 23.9994 8.32824 23.9993C10.391 23.9705 12.3962 23.5499 14.292 22.7481C16.1865 21.9468 17.8861 20.8014 19.3437 19.3437C20.1057 18.5818 20.7813 17.7532 21.3681 16.8658C21.5163 16.6417 21.6587 16.4138 21.7953 16.1822C22.1527 15.5765 22.4714 14.9462 22.748 14.2921C23.5498 12.3963 23.9705 10.3911 23.9993 8.32828C24.0007 8.22765 24 8.12749 23.9978 8.02768V8.02768Z" fill="#E79869"/>
<path d="M11.2732 12.0163C13.0638 11.1304 14.5107 9.68344 15.3966 7.8929C16.6899 5.27897 19.3529 3.46457 22.4476 3.38436C20.966 1.32286 18.56 -0.0230256 15.8299 0.000298392C14.7326 0.00966664 13.6875 0.237692 12.7356 0.642168C12.3435 0.808768 11.9676 1.00565 11.61 1.22942C10.3393 2.02456 9.30442 3.1616 8.63594 4.51265C8.5468 4.69278 8.45171 4.86932 8.35146 5.0423C8.22779 5.25564 8.09582 5.46339 7.95597 5.66505C7.59939 6.17919 7.19149 6.65397 6.73925 7.08264C6.54991 7.26214 6.35269 7.43352 6.14828 7.59635C5.64462 7.99755 5.09701 8.34687 4.51256 8.63604C1.85845 9.94918 0.0272435 12.6743 0.000297754 15.8299C-0.0386239 20.391 3.74344 24.0483 8.3011 23.9993C7.32076 22.656 6.74563 21.0029 6.76089 19.2103C6.78783 16.0546 8.61904 13.3295 11.2732 12.0163V12.0163Z" fill="#DA7B41"/>
<path d="M22.7977 5.73671C22.655 5.59648 22.4257 5.59846 22.2855 5.7411C22.1453 5.88375 22.1473 6.11308 22.2899 6.25327C22.7879 6.74254 23.2559 7.26137 23.6916 7.8068L23.8557 8.01232C23.8905 8.05579 23.9538 8.06288 23.9973 8.02816C23.9891 7.65237 23.9557 7.28242 23.8987 6.91991C23.5493 6.50954 23.1806 6.11298 22.7977 5.73671Z" fill="#BC6D3E"/>
<path d="M14.9711 1.88759C15.1627 1.94501 15.3646 1.83621 15.422 1.64459V1.64455C15.4793 1.45293 15.3705 1.25108 15.1789 1.19371H15.1789C14.3802 0.954483 13.5611 0.770112 12.735 0.642578C12.3429 0.809178 11.9669 1.00606 11.6094 1.22983L11.8714 1.25861C12.9192 1.37378 13.9621 1.58539 14.9711 1.88759Z" fill="#BC6D3E"/>
<path d="M19.6987 13.8486C19.5407 13.9713 19.5121 14.1988 19.6347 14.3568C20.2213 15.1121 20.7741 15.9073 21.2776 16.7204L21.368 16.8663C21.5162 16.6422 21.6586 16.4142 21.7952 16.1827C21.3047 15.4024 20.7713 14.6393 20.2068 13.9124C20.0842 13.7545 19.8567 13.7259 19.6987 13.8486V13.8486Z" fill="#BC6D3E"/>
<path d="M9.4462 6.2932C9.62815 6.37625 9.84299 6.29614 9.9261 6.11418C10.0092 5.93223 9.92905 5.71739 9.74709 5.63433C9.2893 5.42523 8.82041 5.22671 8.35253 5.04297C8.22886 5.25631 8.09688 5.46406 7.95703 5.66572L8.03048 5.69435C8.50517 5.8795 8.9815 6.08096 9.4462 6.2932V6.2932Z" fill="#BC6D3E"/>
<path d="M8.19868 8.33999C8.30516 8.17006 8.25354 7.9458 8.08322 7.83995C7.74664 7.63086 7.32589 7.37951 6.73941 7.08301C6.55006 7.2625 6.35285 7.43388 6.14844 7.59672C6.86192 7.95001 7.21169 8.15229 7.70023 8.45541C7.86978 8.56058 8.09274 8.50911 8.19868 8.33999V8.33999Z" fill="#BC6D3E"/>
<path d="M10.9906 10.1236L10.4731 9.65286C10.3251 9.51827 10.0961 9.52909 9.96145 9.67705C9.82687 9.82501 9.83768 10.0541 9.98564 10.1887L10.4804 10.6387C10.488 10.6457 10.4952 10.6528 10.5022 10.6604L10.9578 11.1515C11.0938 11.2982 11.3229 11.3068 11.4696 11.1708C11.6163 11.0348 11.6249 10.8056 11.4889 10.659L11.0124 10.1453C11.0054 10.1377 10.9982 10.1305 10.9906 10.1236Z" fill="#BC6D3E"/>
<path d="M11.8321 8.85694C12.1439 8.31702 11.847 7.562 11.169 7.17056C10.491 6.77911 9.68867 6.89947 9.37694 7.43939C9.06521 7.9793 9.36211 8.73432 10.0401 9.12577C10.7181 9.51721 11.5204 9.39685 11.8321 8.85694Z" fill="#FF8E9E"/>
<path d="M18.4864 12.6987C18.7982 12.1588 18.5013 11.4038 17.8233 11.0124C17.1453 10.6209 16.343 10.7413 16.0312 11.2812C15.7195 11.8211 16.0164 12.5761 16.6944 12.9676C17.3724 13.359 18.1747 13.2387 18.4864 12.6987Z" fill="#FF8E9E"/>
<path d="M12.335 6.80443C12.1616 6.70447 11.9402 6.76372 11.8403 6.93699L11.5505 7.43886C11.4505 7.61208 11.5099 7.83359 11.6831 7.93359C11.7402 7.96653 11.8024 7.98217 11.8638 7.98217C11.989 7.98217 12.1107 7.91722 12.1778 7.80104L12.4676 7.29916C12.5676 7.12594 12.5082 6.90444 12.335 6.80443V6.80443Z" fill="#313D40"/>
<path d="M17.5577 9.82007C17.3843 9.72011 17.1629 9.77931 17.0629 9.95262L16.7732 10.4545C16.6732 10.6277 16.7325 10.8492 16.9057 10.9492C16.9628 10.9822 17.0251 10.9978 17.0865 10.9978C17.2117 10.9978 17.3334 10.9329 17.4005 10.8167L17.6902 10.3148C17.7902 10.1416 17.7309 9.92007 17.5577 9.82007Z" fill="#313D40"/>
<path d="M15.0554 9.16732C14.8656 9.23246 14.6574 9.21237 14.4843 9.11241C14.3112 9.01245 14.1898 8.84213 14.1513 8.6453C14.1129 8.4491 13.9228 8.32084 13.7263 8.35938C13.53 8.39777 13.402 8.58803 13.4404 8.78433C13.5191 9.18678 13.7676 9.535 14.1222 9.7397C14.3397 9.8653 14.584 9.92928 14.83 9.92928C14.9849 9.92928 15.1405 9.90393 15.2903 9.8525C15.4795 9.7876 15.5804 9.58164 15.5155 9.39244C15.4506 9.2032 15.2444 9.10251 15.0554 9.16732V9.16732Z" fill="#313D40"/>
<path d="M14.6968 15.6519L14.6968 15.6519C14.62 15.4672 14.408 15.3798 14.2233 15.4566L14.2232 15.4566C14.0386 15.5334 13.9511 15.7453 14.0278 15.93C14.3837 16.7859 14.667 17.678 14.87 18.5817V18.5817C14.9139 18.7769 15.1076 18.8996 15.3027 18.8557H15.3028C15.4979 18.8119 15.6206 18.6181 15.5767 18.423C15.3647 17.4786 15.0686 16.5463 14.6968 15.6519V15.6519Z" fill="#BC6D3E"/>
<path d="M9.56869 15.6284C9.47892 15.4496 9.26123 15.3775 9.08251 15.4673C8.90379 15.5571 8.83164 15.7748 8.92141 15.9535C9.4413 16.9885 9.86442 18.0782 10.1792 19.1922C10.2335 19.3847 10.4337 19.4967 10.6262 19.4423H10.6262C10.8187 19.3879 10.9307 19.1878 10.8763 18.9953C10.549 17.8372 10.1091 16.7044 9.56869 15.6284V15.6284Z" fill="#BC6D3E"/>
<path d="M5.21627 9.95688L5.21622 9.95684C5.06682 9.82389 4.83787 9.83722 4.70493 9.98663L4.70488 9.98668C4.57194 10.1361 4.58527 10.365 4.73468 10.498C5.08096 10.8061 5.41948 11.1313 5.74075 11.4644C5.87958 11.6084 6.10886 11.6126 6.25282 11.4737C6.39677 11.3349 6.40092 11.1056 6.26209 10.9617C5.92816 10.6152 5.57627 10.2772 5.21627 9.95688V9.95688Z" fill="#BC6D3E"/>
<path d="M3.53781 14.5744C3.42955 14.4062 3.20543 14.3576 3.03724 14.4659C2.86904 14.5742 2.82051 14.7983 2.92883 14.9665C3.62744 16.0517 4.2018 17.2183 4.63597 18.4339V18.434C4.70324 18.6223 4.91045 18.7205 5.09883 18.6532L5.09893 18.6532C5.28726 18.5859 5.38543 18.3787 5.31816 18.1903V18.1902C4.86535 16.9226 4.26641 15.706 3.53781 14.5744V14.5744Z" fill="#BC6D3E"/>
<path d="M15.332 4.09551C15.1523 4.00762 14.9354 4.08204 14.8475 4.26172C14.7596 4.44141 14.834 4.65828 15.0136 4.74622C15.9246 5.19184 16.8084 5.71163 17.6404 6.2912C17.8045 6.40555 18.0303 6.36518 18.1446 6.20105C18.259 6.03691 18.2186 5.8112 18.0544 5.69685C17.1921 5.09612 16.2762 4.5574 15.332 4.09551V4.09551Z" fill="#BC6D3E"/>
</g>
<defs>
<clipPath id="clip0_189_1112">
<rect width="24" height="24" fill="white"/>
</clipPath>
</defs>
</svg>
