<svg width="24" height="24" viewBox="0 0 24 24" fill="none" xmlns="http://www.w3.org/2000/svg">
<g clip-path="url(#clip0_207_1249)">
<path d="M20.7275 21.5939L12.007 20.6465L3.28637 21.5939L2.98187 22.8811C2.84673 23.4524 3.28015 24.0002 3.86718 24.0002H20.1467C20.7338 24.0002 21.1672 23.4524 21.0321 22.8811L20.7275 21.5939Z" fill="#F4E74D"/>
<path d="M8.25714 21.5937V21.0537L3.28637 21.5937L2.98187 22.8809C2.84673 23.4522 3.28015 24.0001 3.86718 24.0001H7.76623C7.49231 22.9549 8.25714 21.5937 8.25714 21.5937Z" fill="#EEDB00"/>
<path d="M21.3366 9.48829C21.6175 2.74469 19.1534 2.35156 19.1534 2.35156H4.86093C4.86093 2.35156 2.39688 2.74469 2.67795 9.48829C2.95883 16.2319 1.41342 18.1038 3.28659 21.5934H20.7278C22.6009 18.1038 21.0555 16.2319 21.3366 9.48829Z" fill="#73DA8C"/>
<path d="M8.11234 13.0585C8.44596 12.0642 8.49357 10.705 8.439 9.49012C8.37107 7.98114 9.46164 6.67359 10.9578 6.46631C14.6368 5.95673 16.8683 4.31262 16.8683 4.31262V2.35156H4.86093C4.86093 2.35156 2.39688 2.74469 2.67795 9.48829C2.95883 16.2319 1.41342 18.1038 3.28659 21.5934H8.25736C6.33457 18.6613 7.48136 14.9388 8.11234 13.0585V13.0585Z" fill="#29CE69"/>
<path d="M12.0067 1.42383C8.96059 1.42383 6.48848 1.90778 4.86049 2.35217C4.12202 2.55359 4.12202 3.6026 4.86049 3.8042C6.48848 4.2486 8.96059 4.73255 12.0067 4.73255C15.0531 4.73255 17.5252 4.2486 19.153 3.8042C19.8914 3.6026 19.8914 2.55359 19.153 2.35217C17.5252 1.90778 15.0531 1.42383 12.0067 1.42383V1.42383Z" fill="#6B7D8E"/>
<path d="M12.0079 4.73188C12.2705 4.73188 12.5283 4.7284 12.7821 4.72144C12.7821 2.94733 11.268 3.25056 10.6548 1.24152C9.93387 -1.11944 7.69247 1.02784 7.69247 1.02784C7.69247 1.02784 6.29153 2.15375 7.02102 4.29005C8.41318 4.54163 10.0976 4.73188 12.0079 4.73188Z" fill="#EEDB00"/>
<path d="M11.1008 2.19043L11.092 2.20416C11.092 2.20416 10.5687 3.36285 9.4043 4.6131C10.2142 4.68744 11.0839 4.73175 12.0066 4.73175C12.2692 4.73175 12.527 4.72827 12.7808 4.72132C12.7808 3.29565 11.803 3.21106 11.1008 2.19043Z" fill="#DFCA00"/>
<path d="M12.0067 4.73219C13.8601 4.73219 15.5004 4.55312 16.8678 4.31288C17.2336 0.843031 14.9782 0.233473 14.9782 0.233473C14.9782 0.233473 13.2266 -0.558825 12.4343 0.775649C11.691 2.02754 12.0851 3.57332 11.3105 4.72377C11.5392 4.72926 11.7711 4.73219 12.0067 4.73219V4.73219Z" fill="#F9EE80"/>
<path d="M12.0074 11.2306C11.2579 11.2306 10.6504 10.623 10.6504 9.8736V8.88702C10.6504 8.6825 10.8163 8.5166 11.021 8.5166H12.994C13.1987 8.5166 13.3644 8.6825 13.3644 8.88702V9.8736C13.3644 10.623 12.7568 11.2306 12.0074 11.2306Z" fill="#454545"/>
<path d="M8.91638 9.87433C8.91638 9.23785 8.26837 8.72168 7.46893 8.72168C6.6695 8.72168 6.02148 9.23785 6.02148 9.87433C6.02148 10.511 6.6695 11.027 7.46893 11.027C8.26837 11.027 8.91638 10.511 8.91638 9.87433Z" fill="#FFD2E3"/>
<path d="M17.9943 9.87433C17.9943 9.23785 17.3463 8.72168 16.5469 8.72168C15.7476 8.72168 15.0996 9.23785 15.0996 9.87433C15.0996 10.511 15.7476 11.027 16.5469 11.027C17.3463 11.027 17.9943 10.511 17.9943 9.87433V9.87433Z" fill="#FFD2E3"/>
<path d="M15.9012 9.2417C15.7011 9.2417 15.5391 9.07947 15.5391 8.87952V8.2782C15.5391 8.07825 15.7011 7.91602 15.9012 7.91602C16.1012 7.91602 16.2634 8.07825 16.2634 8.2782V8.87952C16.2634 9.07947 16.1012 9.2417 15.9012 9.2417Z" fill="#454545"/>
<path d="M8.11218 9.2417C7.91205 9.2417 7.75 9.07947 7.75 8.87952V8.2782C7.75 8.07825 7.91205 7.91602 8.11218 7.91602C8.31213 7.91602 8.47437 8.07825 8.47437 8.2782V8.87952C8.47437 9.07947 8.31213 9.2417 8.11218 9.2417Z" fill="#454545"/>
<path d="M7.27576 17.952C7.10419 17.8491 6.88172 17.9049 6.77899 18.0765C6.63287 18.3204 6.37616 18.4659 6.09235 18.4659C5.65143 18.4659 5.29273 18.1074 5.29273 17.6663V16.1656C5.29273 15.7247 5.65143 15.366 6.09235 15.366C6.3584 15.366 6.60632 15.4978 6.75556 15.7188C6.86762 15.8843 7.09284 15.9281 7.25855 15.816C7.42426 15.7042 7.46784 15.4789 7.35578 15.3132C7.07178 14.8926 6.59937 14.6416 6.09235 14.6416C5.25208 14.6416 4.56836 15.3251 4.56836 16.1656V17.6663C4.56836 18.5068 5.25208 19.1903 6.09235 19.1903C6.62518 19.1903 7.12634 18.9061 7.40045 18.4487C7.50318 18.2772 7.44733 18.0547 7.27576 17.952V17.952Z" fill="#FFFCDC"/>
<path d="M12.1298 14.6416C11.9296 14.6416 11.7676 14.8038 11.7676 15.0038V18.8281C11.7676 19.0283 11.9296 19.1903 12.1298 19.1903C12.3297 19.1903 12.4919 19.0283 12.4919 18.8281V15.0038C12.4919 14.8038 12.3297 14.6416 12.1298 14.6416Z" fill="#FFFCDC"/>
<path d="M10.4739 14.6416C10.2739 14.6416 10.1117 14.8038 10.1117 15.0038V16.5538H8.94312V15.0038C8.94312 14.8038 8.78088 14.6416 8.58093 14.6416C8.3808 14.6416 8.21875 14.8038 8.21875 15.0038V18.8281C8.21875 19.0283 8.3808 19.1903 8.58093 19.1903C8.78088 19.1903 8.94312 19.0283 8.94312 18.8281V17.2781H10.1117V18.8281C10.1117 19.0283 10.2739 19.1903 10.4739 19.1903C10.6738 19.1903 10.8361 19.0283 10.8361 18.8281V15.0038C10.8361 14.8038 10.6738 14.6416 10.4739 14.6416Z" fill="#FFFCDC"/>
<path d="M14.5524 14.6416H13.7841C13.5841 14.6416 13.4219 14.8038 13.4219 15.0038V18.8281C13.4219 19.0283 13.5841 19.1903 13.7841 19.1903C13.9842 19.1903 14.1462 19.0283 14.1462 18.8281V17.7716H14.5524C15.4152 17.7716 16.1172 17.0696 16.1172 16.2066C16.1172 15.3436 15.4152 14.6416 14.5524 14.6416ZM14.5524 17.0472H14.1462V15.366H14.5524C15.0158 15.366 15.393 15.743 15.393 16.2066C15.393 16.6702 15.0158 17.0472 14.5524 17.0472V17.0472Z" fill="#FFFCDC"/>
<path d="M18.2199 16.5538H17.8953C17.619 16.5538 17.3943 16.2874 17.3943 15.96C17.3943 15.6324 17.619 15.366 17.8953 15.366H19.0831C19.283 15.366 19.4453 15.2039 19.4453 15.0038C19.4453 14.8038 19.283 14.6416 19.0831 14.6416H17.8953C17.2196 14.6416 16.6699 15.233 16.6699 15.96C16.6699 16.6869 17.2196 17.2781 17.8953 17.2781H18.2199C18.4962 17.2781 18.7209 17.5447 18.7209 17.8721C18.7209 18.1997 18.4962 18.4659 18.2199 18.4659H17.0321C16.832 18.4659 16.6699 18.6282 16.6699 18.8281C16.6699 19.0283 16.832 19.1903 17.0321 19.1903H18.2199C18.8956 19.1903 19.4453 18.5991 19.4453 17.8721C19.4453 17.1452 18.8956 16.5538 18.2199 16.5538V16.5538Z" fill="#FFFCDC"/>
</g>
<defs>
<clipPath id="clip0_207_1249">
<rect width="24" height="24" fill="white"/>
</clipPath>
</defs>
</svg>
