<svg width="24" height="24" viewBox="0 0 24 24" fill="none" xmlns="http://www.w3.org/2000/svg">
<g clip-path="url(#clip0_194_1311)">
<path d="M12.6025 16.5124H11.185C9.32109 16.5124 7.80469 14.996 7.80469 13.1321V10.7148C7.80469 10.1814 8.23706 9.74902 8.7705 9.74902C9.30394 9.74902 9.73631 10.1814 9.73631 10.7148V13.1321C9.73631 13.9309 10.3862 14.5808 11.185 14.5808H12.6025C13.1359 14.5808 13.5683 15.0131 13.5683 15.5466C13.5683 16.08 13.1359 16.5124 12.6025 16.5124V16.5124Z" fill="#EDA1AB"/>
<path d="M10.1606 14.1564L10.1611 14.156C9.89878 13.8937 9.73631 13.5315 9.73631 13.1321V10.7148C9.73631 10.1814 9.30394 9.74902 8.7705 9.74902C8.23706 9.74902 7.80469 10.1814 7.80469 10.7148V13.1321C7.80469 14.0426 8.16727 14.8696 8.75475 15.4781C8.41917 15.0988 8.43178 14.5194 8.79473 14.1565C9.17194 13.7793 9.78347 13.7793 10.1606 14.1564Z" fill="#E58996"/>
<path d="M19.3567 16.6122C18.997 15.8038 17.774 15.5075 16.2075 16.1114C12.9138 17.3813 11.4668 19.6542 11.4668 19.6542C11.4668 19.6542 14.2166 20.309 17.5103 19.0391C19.0768 18.4351 19.7165 17.4207 19.3567 16.6122V16.6122Z" fill="#D6586D"/>
<path d="M19.3567 23.1785C19.7165 22.3701 19.0768 21.3556 17.5103 20.7516C14.2166 19.4818 11.4668 20.1366 11.4668 20.1366C11.4668 20.1366 12.9138 22.4094 16.2075 23.6794C17.7739 24.2833 18.9969 23.987 19.3567 23.1785V23.1785Z" fill="#DE7082"/>
<path d="M3.06641 0.724359C3.06641 1.12439 3.39069 1.44872 3.79077 1.44872H21.7814C22.2066 1.44872 22.5513 1.79339 22.5513 2.21859C22.5513 2.6438 22.2066 2.98847 21.7814 2.98847H20.1368L19.6539 4.43714H21.7814C23.0067 4.43714 24 3.44386 24 2.21859C24 0.993281 23.0067 0 21.7814 0H3.79072C3.39069 0 3.06641 0.324281 3.06641 0.724359V0.724359Z" fill="#E58996"/>
<path d="M24.0004 2.21875C24.0004 2.61878 23.6761 2.94311 23.276 2.94311C22.876 2.94311 22.5517 2.61883 22.5517 2.21875C22.5517 2.64395 22.207 2.98862 21.7818 2.98862H20.1372L19.6543 4.4373H21.7818C23.0071 4.4373 24.0004 3.44402 24.0004 2.21875V2.21875Z" fill="#DE7082"/>
<path d="M20.1377 4.43695V2.98828H9.7373L8.77148 7.81725L9.7373 12.6462H11.9285C16.4623 12.6462 20.1377 8.9708 20.1377 4.43695V4.43695Z" fill="#EDA1AB"/>
<path d="M11.6689 2.98828H9.7373L8.77148 7.81725L9.7373 12.6462H11.9285C14.8661 12.6462 17.4429 11.1029 18.8935 8.78306H17.4636C14.2633 8.78302 11.6689 6.18863 11.6689 2.98828V2.98828Z" fill="#E58996"/>
<path d="M5.74633 18.9849L6.65289 17.6059C6.65289 17.6059 6.65317 17.606 6.65327 17.606C6.12316 17.0805 5.79466 16.3519 5.79466 15.5465L2.98895 14.9102L0.642578 15.5465C1.3668 17.3736 2.66092 18.9124 4.30534 19.9446L5.74633 18.9849Z" fill="#DE7082"/>
<path d="M1.0392 7.92108L3.18809 11.9998L6.63533 13.5045L6.63514 13.5049C7.16066 12.9747 7.88923 12.6462 8.69473 12.6462H9.7362V2.98828H9.17764C5.64055 2.98828 2.57131 4.98952 1.03906 7.92117L1.0392 7.92108Z" fill="#DE7082"/>
<path d="M18.6883 18.4463H16.323L15.9922 19.895L16.3193 21.3436H18.6883C19.4884 21.3436 20.137 20.695 20.137 19.895C20.137 19.0949 19.4884 18.4463 18.6883 18.4463V18.4463Z" fill="#DE7082"/>
<path d="M12.9575 19.8887L12.5086 18.4463H8.69461L8.41406 19.8722L8.69461 21.3311C8.85455 21.3394 9.01552 21.3437 9.17752 21.3437H12.5137L12.9575 19.8887Z" fill="#DE7082"/>
<path d="M6.63445 13.5046L6.63427 13.5051C7.15978 12.9749 7.88836 12.6463 8.69386 12.6463H9.73533V7.81738H8.93531C6.24778 7.81738 3.97069 9.57313 3.1875 12.0001L6.63445 13.5046Z" fill="#D6586D"/>
<path d="M20.135 19.895C20.135 19.0949 19.4864 18.4463 18.6863 18.4463H16.3211L15.9902 19.895H20.135Z" fill="#D6586D"/>
<path d="M12.9575 19.8887L12.5086 18.4463H8.69461L8.41406 19.8722V19.8723C8.58614 19.887 8.76014 19.895 8.93602 19.895H12.9555L12.9575 19.8887Z" fill="#D6586D"/>
<path d="M5.79384 15.5465L2.98828 14.9102C3.29062 16.6281 4.31925 18.0955 5.7457 18.9847L6.65213 17.6059C6.65213 17.6059 6.65241 17.606 6.6525 17.606C6.12234 17.0805 5.79384 16.3519 5.79384 15.5465Z" fill="#D6586D"/>
<path d="M13.5679 7.71472C14.3508 7.71472 14.9855 7.20932 14.9855 6.58588C14.9855 5.96243 14.3508 5.45703 13.5679 5.45703C12.785 5.45703 12.1504 5.96243 12.1504 6.58588C12.1504 7.20932 12.785 7.71472 13.5679 7.71472Z" fill="white"/>
<path d="M14.3945 5.85095C14.2004 5.85095 14.043 5.69355 14.043 5.49939V4.91992C14.043 4.72577 14.2004 4.56836 14.3945 4.56836C14.5887 4.56836 14.7461 4.72577 14.7461 4.91992V5.49939C14.7461 5.69355 14.5887 5.85095 14.3945 5.85095Z" fill="#4E5660"/>
<path d="M17.4103 6.19621C17.004 6.19621 16.6176 6.02025 16.3502 5.71345C16.2226 5.56706 16.2379 5.34501 16.3842 5.21742C16.5306 5.08982 16.7527 5.10506 16.8803 5.25145C17.0141 5.40501 17.2073 5.49309 17.4103 5.49309C17.6133 5.49309 17.8065 5.40501 17.9404 5.25145C18.0679 5.1051 18.29 5.08987 18.4364 5.21742C18.5827 5.34501 18.598 5.56706 18.4704 5.71345C18.2029 6.02025 17.8166 6.19621 17.4103 6.19621Z" fill="#4E5660"/>
<path d="M6.6442 13.4958L1.04977 7.90137C0.379734 9.17571 0 10.6265 0 12.1662C0 13.36 0.228047 14.5004 0.64275 15.5465H5.79478C5.79478 14.7457 6.11939 14.0206 6.6442 13.4958Z" fill="#EDA1AB"/>
<path d="M2.89648 13.8561C2.89648 14.4429 2.98048 15.0099 3.13653 15.5462H5.79383C5.79383 14.7454 6.11844 14.0204 6.64325 13.4956L3.8098 10.6621C3.23122 11.5887 2.89648 12.6832 2.89648 13.8561V13.8561Z" fill="#E58996"/>
<path d="M8.69555 21.3319V18.4471C7.89469 18.4471 7.16967 18.1225 6.64486 17.5977L4.30078 19.9417C5.58623 20.7498 7.08586 21.2484 8.69555 21.3319Z" fill="#EDA1AB"/>
<path d="M8.69394 19.8905V18.4471C7.89308 18.4471 7.16806 18.1225 6.64325 17.5977L5.45117 18.7897C6.37423 19.4429 7.48873 19.8432 8.69394 19.8905V19.8905Z" fill="#E58996"/>
<path d="M12.5098 18.4463H16.3238V21.3437H12.5098V18.4463Z" fill="#EDA1AB"/>
<path d="M12.5098 18.4463H16.3238V19.895H12.5098V18.4463Z" fill="#E58996"/>
</g>
<defs>
<clipPath id="clip0_194_1311">
<rect width="24" height="24" fill="white"/>
</clipPath>
</defs>
</svg>
