<svg width="24" height="24" viewBox="0 0 24 24" fill="none" xmlns="http://www.w3.org/2000/svg">
<g clip-path="url(#clip0_171_1246)">
<path d="M23.9991 7.27302C23.9991 5.59766 23.3601 3.92282 22.0817 2.6444C19.5259 0.0885859 15.3812 0.0885859 12.8254 2.6444C10.2691 5.20068 10.2691 9.34495 12.8254 11.9012L14.0849 13.161C14.795 13.8711 15.9463 13.8712 16.6563 13.1611C17.3663 12.4512 17.3664 11.3001 16.6565 10.59L15.3967 9.32995C14.2608 8.19402 14.2608 6.35202 15.3967 5.21563C16.5326 4.07971 18.3746 4.07971 19.5105 5.21563C20.079 5.78409 20.363 6.52832 20.363 7.27302C20.363 8.90395 20.0104 10.4349 19.3613 11.7582C19.1942 12.0987 19.0078 12.4252 18.8025 12.7362L22.7251 16.6588C22.8994 16.313 23.0573 15.9585 23.1974 15.5943C23.7151 14.2536 23.9991 12.7966 23.9991 11.2729V7.27302Z" fill="#E7896E"/>
<path d="M23.1983 15.5944L19.3622 11.7583C18.9927 12.5121 18.5272 13.1994 17.9756 13.7992V13.7997C17.1957 14.6483 16.2452 15.322 15.1532 15.7653C14.2028 16.1522 13.1451 16.3637 12 16.3637C10.8549 16.3637 9.79725 16.1522 8.84677 15.7653C6.98255 15.0085 5.52984 13.5794 4.63781 11.7583C3.98873 10.4349 3.63614 8.90399 3.63614 7.27307C3.63614 6.9007 3.70716 6.52837 3.84914 6.17821C3.99112 5.82805 4.20412 5.49965 4.48856 5.21568C5.62448 4.07976 7.46648 4.07976 8.60236 5.21568C9.73828 6.35207 9.73828 8.19407 8.60236 9.32999L8.05711 9.87576L7.34283 10.59C6.63286 11.3 6.63286 12.4514 7.34283 13.1613C7.69781 13.5163 8.16338 13.6935 8.62847 13.6935C9.09356 13.6935 9.55913 13.5163 9.91411 13.1613L10.6284 12.447L11.1736 11.9012C13.7299 9.34495 13.7299 5.20068 11.1736 2.6444C8.61783 0.0885859 4.47309 0.0885859 1.91733 2.6444C0.638953 3.92277 0 5.59766 0 7.27307V11.2729C0 12.7966 0.283969 14.2537 0.801703 15.5944C1.52616 17.4702 2.70792 19.1186 4.21088 20.4013C6.30689 22.1921 9.02691 23.2729 12 23.2729C14.9731 23.2729 17.6931 22.1921 19.7891 20.4013C20.6516 19.6649 21.4088 18.8082 22.0332 17.8574L22.0334 17.8575C22.498 17.1514 22.8897 16.3937 23.1983 15.5944V15.5944Z" fill="#E37858"/>
<path d="M22.0325 17.8576C21.4076 18.8085 20.6508 19.6653 19.7882 20.4013L15.1523 15.7654C16.2443 15.3221 17.1948 14.6483 17.9747 13.7998L22.0325 17.8576Z" fill="#DD6642"/>
<path d="M8.84584 15.7659L4.20995 20.4017C2.707 19.119 1.52519 17.4707 0.800781 15.5949L4.63689 11.7588C5.52892 13.58 6.98167 15.0091 8.84584 15.7659Z" fill="#DD6642"/>
<path d="M23.9966 18.6831C23.9966 19.1487 23.8193 19.6138 23.4639 19.9688C22.7539 20.6787 21.6026 20.6787 20.8927 19.9688L13.3711 12.4472L15.9423 9.87598L18.8029 12.7365L22.7255 16.6591L23.4639 17.3975C23.8193 17.7525 23.9966 18.218 23.9966 18.6831V18.6831Z" fill="#E7896E"/>
<path d="M8.0563 9.87598L0.534641 17.3976C0.179187 17.7526 0.00195312 18.2182 0.00195312 18.6833C0.00195312 19.1488 0.179187 19.6139 0.534641 19.9689C1.24461 20.6788 2.39595 20.6788 3.10588 19.9689L10.6275 12.4473L8.0563 9.87598Z" fill="#E37858"/>
<path d="M21.1982 11.3805L20.8346 11.7441C20.6931 11.8855 20.6931 12.1149 20.8346 12.2564C20.9054 12.3271 20.998 12.3625 21.0907 12.3625C21.1835 12.3625 21.2761 12.3271 21.3469 12.2564L21.7105 11.8928C21.8519 11.7513 21.8519 11.522 21.7105 11.3805C21.5691 11.239 21.3397 11.239 21.1982 11.3805Z" fill="#FFF1CF"/>
<path d="M22.4371 6.65332L22.0734 6.28966C21.932 6.14824 21.7026 6.14824 21.5612 6.28966C21.4197 6.43108 21.4197 6.66044 21.5612 6.80191L21.9248 7.16557C21.9956 7.2363 22.0882 7.27164 22.181 7.27164C22.2737 7.27164 22.3664 7.23625 22.4371 7.16557C22.5786 7.0241 22.5786 6.79474 22.4371 6.65332Z" fill="#FFF1CF"/>
<path d="M6.43671 2.28966C6.29529 2.14824 6.06593 2.14824 5.92446 2.28966C5.78299 2.43108 5.78299 2.66044 5.92446 2.80191L6.28807 3.16552C6.3588 3.23625 6.45148 3.2716 6.54419 3.2716C6.63691 3.2716 6.72959 3.23621 6.80032 3.16552C6.94179 3.0241 6.94179 2.79474 6.80032 2.65327L6.43671 2.28966Z" fill="#FFF1CF"/>
<path d="M2.01937 9.1311L1.2921 9.49476C1.11318 9.58424 1.04066 9.80179 1.1301 9.98071C1.19357 10.1076 1.32145 10.181 1.45434 10.181C1.50876 10.181 1.56407 10.1687 1.61605 10.1427L2.34332 9.77901C2.52224 9.68952 2.59476 9.47197 2.50532 9.29305C2.41588 9.11418 2.19824 9.04162 2.01937 9.1311V9.1311Z" fill="#FFF1CF"/>
<path d="M8.92757 10.9495L8.2003 11.3131C8.02138 11.4025 7.94887 11.6201 8.0383 11.799C8.10177 11.926 8.22965 11.9993 8.36254 11.9993C8.41696 11.9993 8.47223 11.987 8.52426 11.961L9.25152 11.5974C9.43045 11.5079 9.50296 11.2903 9.41352 11.1114C9.32404 10.9325 9.10654 10.86 8.92757 10.9495V10.9495Z" fill="#FFF1CF"/>
<path d="M16.2551 12.108C16.1136 11.9666 15.8843 11.9666 15.7428 12.108C15.6014 12.2494 15.6014 12.4788 15.7428 12.6203L16.1064 12.9839C16.1772 13.0546 16.2698 13.09 16.3626 13.09C16.4553 13.09 16.5479 13.0546 16.6187 12.9839C16.7601 12.8425 16.7601 12.6131 16.6187 12.4716L16.2551 12.108Z" fill="#FFF1CF"/>
<path d="M8.15366 21.0916C8.9375 21.0916 9.57294 20.5855 9.57294 19.9613C9.57294 19.3371 8.9375 18.8311 8.15366 18.8311C7.36981 18.8311 6.73438 19.3371 6.73438 19.9613C6.73438 20.5855 7.36981 21.0916 8.15366 21.0916Z" fill="white"/>
<path d="M15.847 21.0916C16.6309 21.0916 17.2663 20.5855 17.2663 19.9613C17.2663 19.3371 16.6309 18.8311 15.847 18.8311C15.0632 18.8311 14.4277 19.3371 14.4277 19.9613C14.4277 20.5855 15.0632 21.0916 15.847 21.0916Z" fill="white"/>
<path d="M13.144 19.093C13.144 18.3858 12.6318 18.3193 11.9998 18.3193C11.3678 18.3193 10.8555 18.3858 10.8555 19.093C10.8555 19.8001 11.3678 20.3734 11.9998 20.3734C12.6317 20.3734 13.144 19.8001 13.144 19.093Z" fill="#495560"/>
<path d="M8.3915 18.9739C8.19144 18.9739 8.0293 18.8117 8.0293 18.6117V18.0321C8.0293 17.8321 8.19148 17.6699 8.3915 17.6699C8.59156 17.6699 8.7537 17.8321 8.7537 18.0321V18.6117C8.75375 18.8117 8.59156 18.9739 8.3915 18.9739Z" fill="#455059"/>
<path d="M15.6103 18.9739C15.4102 18.9739 15.248 18.8117 15.248 18.6117V18.0321C15.248 17.8321 15.4102 17.6699 15.6103 17.6699C15.8103 17.6699 15.9725 17.8321 15.9725 18.0321V18.6117C15.9725 18.8117 15.8103 18.9739 15.6103 18.9739Z" fill="#455059"/>
</g>
<defs>
<clipPath id="clip0_171_1246">
<rect width="24" height="24" fill="white"/>
</clipPath>
</defs>
</svg>
