<svg width="24" height="24" viewBox="0 0 24 24" fill="none" xmlns="http://www.w3.org/2000/svg">
<g clip-path="url(#clip0_239_1926)">
<path d="M11.9996 0C11.3995 0 10.9131 0.486471 10.9131 1.08652V5.36538H13.0861V1.08652C13.0861 0.486471 12.5997 0 11.9996 0Z" fill="#00B27A"/>
<path d="M14.0537 4.9034L13.3253 5.24959L13.0552 4.4898C12.7018 3.49624 11.2967 3.49624 10.9434 4.4898L10.6732 5.24959L9.94492 4.9034C8.99255 4.45069 7.99899 5.44425 8.45166 6.39667L8.79785 7.12497L11.9992 10.0224L15.2006 7.12497L15.5468 6.39671C15.9996 5.44425 15.0061 4.45069 14.0537 4.9034Z" fill="#00CE8E"/>
<path d="M20.5228 13.6603C20.5228 12.0744 19.2832 10.7732 17.7221 10.6732C18.1419 9.38281 17.6379 7.89182 16.3701 7.15979C14.6722 6.17941 12.4823 7.06669 11.9756 8.99654C11.4746 7.08871 9.29789 6.1684 7.581 7.15979C6.32459 7.88525 5.80335 9.37088 6.23009 10.6768C4.69134 10.7998 3.47656 12.0904 3.47656 13.6603C3.47656 15.1093 4.51141 16.3209 5.88081 16.5956C5.58344 17.2323 5.51931 17.9459 5.7034 18.6328C6.09729 20.1026 7.51484 20.824 8.99091 20.824C8.85981 22.5799 10.2793 23.9998 11.9997 23.9998C13.7223 23.9998 15.09 22.5781 14.9603 20.8259C16.4016 20.8259 17.8511 20.113 18.2477 18.6328C18.431 17.9488 18.3683 17.2382 18.0741 16.6036C19.4654 16.3464 20.5228 15.1248 20.5228 13.6603V13.6603Z" fill="#EA5B70"/>
<path d="M11.7463 8.39272C10.9915 6.90626 9.10517 6.27966 7.581 7.15978C6.32459 7.88524 5.80336 9.37088 6.23009 10.6768C4.69134 10.7998 3.47656 12.0904 3.47656 13.6603C3.47656 15.1093 4.51141 16.3209 5.88081 16.5956C5.58344 17.2323 5.51931 17.9459 5.7034 18.6328C6.09729 20.1026 7.51484 20.824 8.99091 20.824C8.85981 22.5799 10.2793 23.9998 11.9997 23.9998C13.7223 23.9998 15.09 22.5781 14.9603 20.8259C13.3655 20.8259 11.892 20.1026 11.4981 18.6328C11.314 17.9459 11.3782 17.2323 11.6755 16.5956C10.3062 16.3209 9.27133 15.1093 9.27133 13.6603C9.27133 12.0904 10.4861 10.7998 12.0249 10.6768C11.8447 10.1255 11.8338 9.54114 11.9756 8.99653C11.9223 8.79386 11.8445 8.59148 11.7463 8.39272V8.39272Z" fill="#D34459"/>
<path d="M8.15778 16.8744C8.94067 16.8744 9.57533 16.369 9.57533 15.7456C9.57533 15.1221 8.94067 14.6167 8.15778 14.6167C7.37489 14.6167 6.74023 15.1221 6.74023 15.7456C6.74023 16.369 7.37489 16.8744 8.15778 16.8744Z" fill="#EA5B70"/>
<path d="M15.8414 16.8744C16.6243 16.8744 17.2589 16.369 17.2589 15.7456C17.2589 15.1221 16.6243 14.6167 15.8414 14.6167C15.0585 14.6167 14.4238 15.1221 14.4238 15.7456C14.4238 16.369 15.0585 16.8744 15.8414 16.8744Z" fill="#FF8E9E"/>
<path d="M8.98424 13.7173C8.78418 13.7173 8.62207 13.8794 8.62207 14.0795V14.6589C8.62207 14.859 8.78418 15.0211 8.98424 15.0211C9.18431 15.0211 9.34642 14.859 9.34642 14.6589V14.0795C9.34642 13.8794 9.18426 13.7173 8.98424 13.7173Z" fill="#313D40"/>
<path d="M15.0155 13.7173C14.8154 13.7173 14.6533 13.8794 14.6533 14.0795V14.6589C14.6533 14.859 14.8154 15.0211 15.0155 15.0211C15.2156 15.0211 15.3777 14.859 15.3777 14.6589V14.0795C15.3777 13.8794 15.2156 13.7173 15.0155 13.7173Z" fill="#313D40"/>
<path d="M13.033 14.3684C12.8822 14.237 12.6534 14.2527 12.522 14.4036C12.3902 14.5548 12.2 14.6415 12 14.6415C11.8 14.6415 11.6098 14.5548 11.478 14.4036C11.3466 14.2527 11.1178 14.2371 10.967 14.3684C10.8162 14.4998 10.8005 14.7286 10.9319 14.8794C11.2012 15.1885 11.5906 15.3658 12 15.3658C12.4094 15.3658 12.7987 15.1885 13.068 14.8794C13.1995 14.7286 13.1838 14.4998 13.033 14.3684Z" fill="#313D40"/>
</g>
<defs>
<clipPath id="clip0_239_1926">
<rect width="24" height="24" fill="white"/>
</clipPath>
</defs>
</svg>
