<svg width="24" height="24" viewBox="0 0 24 24" fill="none" xmlns="http://www.w3.org/2000/svg">
<g clip-path="url(#clip0_237_1673)">
<path d="M20.1991 2.63792H19.4884L19.0994 0.96103C18.9691 0.398274 18.4679 0 17.8901 0H6.0588C5.48105 0 4.97984 0.398274 4.8495 0.96103L4.46054 2.63792H3.80157C3.25899 2.63792 2.81934 3.07757 2.81934 3.62016V4.5005C2.81934 5.04308 3.25899 5.48274 3.80157 5.48274H4.42226L5.56898 21.5539C5.61553 22.2035 6.15605 22.7068 6.80725 22.7068L6.91794 23.3652C6.97897 23.7314 7.29604 23.9997 7.66742 23.9997H9.03965C9.41103 23.9997 9.72862 23.7314 9.78965 23.3647L9.89931 22.7068H17.1417C17.7929 22.7068 18.3334 22.2035 18.38 21.5539L19.5267 5.48274H20.1991C20.7417 5.48274 21.1813 5.04308 21.1813 4.5005V3.62016C21.1813 3.07757 20.7417 2.63792 20.1991 2.63792V2.63792Z" fill="#92DD7A"/>
<path d="M21.1813 3.62042V4.50076C21.1813 5.04335 20.7417 5.483 20.1991 5.483H3.80157C3.25899 5.483 2.81934 5.04335 2.81934 4.50076V3.62042C2.81934 3.07784 3.25899 2.63818 3.80157 2.63818H20.1991C20.7417 2.63818 21.1813 3.07784 21.1813 3.62042Z" fill="#CBE3FA"/>
<path d="M9.11928 18.0895H8.60318C7.71922 18.0895 7 17.3704 7 16.4864V12.6032C7 11.7192 7.71917 11 8.60318 11H9.11928C10.0033 11 10.7225 11.7192 10.7225 12.6032V16.4864C10.7225 17.3703 10.0033 18.0895 9.11928 18.0895ZM8.60318 11.8276C8.17553 11.8276 7.82758 12.1755 7.82758 12.6032V16.4864C7.82758 16.914 8.17553 17.262 8.60318 17.262H9.11928C9.54699 17.262 9.89488 16.914 9.89488 16.4864V12.6032C9.89488 12.1755 9.54694 11.8276 9.11928 11.8276H8.60318Z" fill="white"/>
<path d="M16.074 11.6651C15.8726 11.557 15.6218 11.6324 15.5136 11.8337L12.8106 16.8643C12.6612 17.1424 12.8665 17.474 13.1748 17.474C13.3223 17.474 13.465 17.395 13.5397 17.256L16.2426 12.2254C16.3508 12.0241 16.2753 11.7733 16.074 11.6651V11.6651Z" fill="white"/>
<path d="M12.8715 13.431C13.3286 13.431 13.6991 13.0605 13.6991 12.6035C13.6991 12.1464 13.3286 11.7759 12.8715 11.7759C12.4145 11.7759 12.0439 12.1464 12.0439 12.6035C12.0439 13.0605 12.4145 13.431 12.8715 13.431Z" fill="white"/>
<path d="M16.1694 17.3139C16.6264 17.3139 16.997 16.9433 16.997 16.4863C16.997 16.0292 16.6264 15.6587 16.1694 15.6587C15.7123 15.6587 15.3418 16.0292 15.3418 16.4863C15.3418 16.9433 15.7123 17.3139 16.1694 17.3139Z" fill="white"/>
<path d="M17.1984 24.0002C18.7409 24.0002 19.9915 22.7497 19.9915 21.2072C19.9915 19.6646 18.7409 18.4141 17.1984 18.4141C15.6558 18.4141 14.4053 19.6646 14.4053 21.2072C14.4053 22.7497 15.6558 24.0002 17.1984 24.0002Z" fill="#585966"/>
<path d="M17.1978 21.8795C17.5692 21.8795 17.8702 21.5784 17.8702 21.2071C17.8702 20.8357 17.5692 20.5347 17.1978 20.5347C16.8264 20.5347 16.5254 20.8357 16.5254 21.2071C16.5254 21.5784 16.8264 21.8795 17.1978 21.8795Z" fill="#42434D"/>
<path d="M15.5364 22.4551C15.6443 22.8536 15.1021 23.0978 14.873 22.7544C13.6741 20.9571 14.9045 18.5319 17.045 18.4176C17.4589 18.3955 17.588 18.9734 17.2031 19.1271C15.8715 19.6588 15.1668 21.0893 15.5364 22.4551V22.4551Z" fill="#6E6F80"/>
<path d="M20.2124 3.67266H5.35329C4.81081 3.67266 4.37105 4.11242 4.37105 4.6549V4.91352C4.37105 5.22805 4.11611 5.483 3.80157 5.483C3.25909 5.483 2.81934 5.04324 2.81934 4.50076V3.62042C2.81934 3.07794 3.25909 2.63818 3.80157 2.63818H20.1991C20.932 2.63818 20.8798 3.67266 20.2124 3.67266V3.67266Z" fill="white"/>
<path d="M17.9512 0.00159398C18.5707 0.0321111 18.5389 0.997641 17.9186 1.00162H7.60995C7.03219 1.00162 6.53099 1.43285 6.40064 1.9956L6.32595 2.31769C6.28245 2.50524 6.11538 2.63801 5.92287 2.63801H4.45996L4.84892 0.961124C4.97927 0.398368 5.48047 9.39838e-05 6.05823 9.39838e-05C13.4629 0.000249156 17.9033 -0.000785323 17.9512 0.00159398V0.00159398Z" fill="#B1EF97"/>
<path d="M8.4792 23.4152C8.54908 23.7122 8.33753 23.9998 8.03236 23.9999H7.66703C7.29566 24.0001 6.97859 23.7316 6.91755 23.3654L6.80687 22.707C6.15566 22.707 5.61515 22.2037 5.56859 21.554L4.42188 5.48291H5.97359L7.12031 21.554C7.15957 22.1022 7.55055 22.5461 8.06288 22.6715C8.24365 22.7157 8.38393 22.8577 8.41475 23.0413C8.4147 23.0412 8.47532 23.3988 8.4792 23.4152V23.4152Z" fill="#B1EF97"/>
<path d="M19.5263 5.48291L19.4947 5.92613C19.4793 6.1427 19.2991 6.31049 19.082 6.31049H4.86624C4.6491 6.31049 4.46894 6.1427 4.45348 5.92613L4.42188 5.48291H19.5263Z" fill="#9CEB63"/>
<path d="M9.35156 8.28259C9.15741 8.28259 9 8.12519 9 7.93103V7.35156C9 7.15741 9.15741 7 9.35156 7C9.54572 7 9.70312 7.15741 9.70312 7.35156V7.93103C9.70312 8.12519 9.54572 8.28259 9.35156 8.28259Z" fill="#604949"/>
<path d="M15.3828 8.28259C15.1887 8.28259 15.0312 8.12519 15.0312 7.93103V7.35156C15.0312 7.15741 15.1887 7 15.3828 7C15.577 7 15.7344 7.15741 15.7344 7.35156V7.93103C15.7344 8.12519 15.577 8.28259 15.3828 8.28259Z" fill="#604949"/>
<path d="M12.3673 8.6274C11.961 8.6274 11.5746 8.45144 11.3072 8.1446C11.1797 7.99821 11.1949 7.77616 11.3413 7.64857C11.4877 7.52098 11.7097 7.53626 11.8373 7.68265C11.9711 7.83616 12.1643 7.92424 12.3673 7.92424C12.5704 7.92424 12.7635 7.83616 12.8974 7.6826C13.025 7.53621 13.247 7.52098 13.3934 7.64857C13.5398 7.77611 13.5551 7.99821 13.4275 8.14459C13.16 8.45144 12.7736 8.6274 12.3673 8.6274V8.6274Z" fill="#604949"/>
</g>
<defs>
<clipPath id="clip0_237_1673">
<rect width="24" height="24" fill="white"/>
</clipPath>
</defs>
</svg>
