<svg width="186" height="186" viewBox="0 0 186 186" fill="none" xmlns="http://www.w3.org/2000/svg">
<g clip-path="url(#clip0_125_1256)">
<path d="M31.3889 20.7136L28.6338 56.1368H157.366L154.611 20.7136C153.702 9.02282 143.95 0 132.224 0H53.7761C42.0501 0 32.2982 9.02282 31.3889 20.7136Z" fill="#DDD97A"/>
<path d="M93 44.9096C88.8662 44.9096 85.5149 41.5583 85.5149 37.4245C85.5149 33.2907 88.8662 29.9395 93 29.9395V0H53.7761C42.0501 0 32.2982 9.02282 31.3889 20.7136L28.6338 56.1368H93V44.9096Z" fill="#C4C66A"/>
<path d="M149.608 155.883L157.366 56.1367H28.6338L36.392 155.883L93 170.941L149.608 155.883Z" fill="#DDD97A"/>
<path d="M155.328 82.334L157.366 56.1367H28.6338L36.392 155.883L57.4373 161.481L51.2815 82.334H155.328Z" fill="#C4C66A"/>
<path d="M156.622 67.3643H29.3781C23.1772 67.3643 18.1509 62.3376 18.1509 56.1371C18.1509 49.9363 23.1776 44.9099 29.3781 44.9099H156.622C162.823 44.9099 167.849 49.9366 167.849 56.1371C167.849 62.3376 162.822 67.3643 156.622 67.3643Z" fill="#EDEF97"/>
<path d="M68.7218 56.1369C68.7218 49.936 73.7485 44.9097 79.949 44.9097H29.3781C23.1772 44.9097 18.1509 49.9364 18.1509 56.1369C18.1509 62.3374 23.1776 67.3641 29.3781 67.3641H79.949C73.7485 67.3644 68.7218 62.3377 68.7218 56.1369Z" fill="#DDD97A"/>
<path d="M129.646 19.583L131.169 0H54.8306L56.3538 19.583C56.8086 25.4282 61.6842 29.9398 67.5472 29.9398H118.452C124.315 29.9395 129.191 25.4282 129.646 19.583Z" fill="#B7AE58"/>
<path d="M36.3918 155.883L37.1231 165.287C38.0324 176.977 47.7843 186 59.5103 186H126.49C138.216 186 147.968 176.977 148.877 165.286L149.608 155.883H36.3918V155.883Z" fill="#C4C66A"/>
<path d="M37.1231 165.286C38.0324 176.977 47.7843 186 59.5103 186H80.1204C68.3944 186 58.6425 176.977 57.7332 165.286L57.0019 155.883H36.3918L37.1231 165.286Z" fill="#B7AE58"/>
<path d="M69.6289 18.6032C68.1242 18.6032 66.9043 17.3833 66.9043 15.8786V11.3877C66.9043 9.88298 68.1242 8.66309 69.6289 8.66309C71.1336 8.66309 72.3535 9.88298 72.3535 11.3877V15.8786C72.3535 17.3833 71.1336 18.6032 69.6289 18.6032Z" fill="#495560"/>
<path d="M83.0001 21.7246C83.0001 20.2199 85.3737 19 88.3016 19L97.0398 19C99.9677 19 102.341 20.2199 102.341 21.7246C102.341 23.2293 99.9677 24.4492 97.0398 24.4492L88.3016 24.4492C85.3737 24.4492 83.0001 23.2293 83.0001 21.7246Z" fill="#495560"/>
<path d="M116.371 18.6032C114.866 18.6032 113.646 17.3833 113.646 15.8786V11.3877C113.646 9.88298 114.866 8.66309 116.371 8.66309C117.876 8.66309 119.095 9.88298 119.095 11.3877V15.8786C119.095 17.3833 117.876 18.6032 116.371 18.6032Z" fill="#495560"/>
<path d="M97.2901 89.7747L101.777 97.5457L99.3601 96.4929C97.9804 95.8909 96.375 96.5231 95.7742 97.9024C95.1729 99.2818 95.8043 100.888 97.1837 101.488L107.184 105.846C107.532 105.997 107.903 106.073 108.272 106.073C108.744 106.073 109.215 105.95 109.634 105.708C110.383 105.275 110.882 104.513 110.98 103.654L112.206 92.815C112.376 91.3198 111.301 89.9706 109.806 89.8013C108.311 89.632 106.961 90.7069 106.792 92.2022L106.495 94.8207L102.009 87.0501C100.163 83.854 96.8582 81.9457 93.1673 81.9453C89.4767 81.9453 86.1712 83.8536 84.3257 87.0501L79.4712 95.459C78.7188 96.7621 79.1653 98.4285 80.4684 99.1808C81.7711 99.9332 83.4379 99.4863 84.1902 98.1836L89.0447 89.7747C89.9054 88.2842 91.4464 87.3945 93.1676 87.3945C94.8885 87.3949 96.4295 88.2846 97.2901 89.7747Z" fill="white"/>
<path d="M120.747 119.505L115.892 111.097C115.14 109.793 113.473 109.347 112.171 110.099C110.867 110.852 110.421 112.518 111.173 113.821L116.028 122.23C116.888 123.72 116.888 125.5 116.028 126.99C115.168 128.481 113.626 129.37 111.905 129.37H102.933L105.052 127.804C106.263 126.91 106.519 125.204 105.625 123.994C104.731 122.783 103.025 122.527 101.814 123.421L93.0405 129.903C92.3452 130.417 91.9351 131.23 91.9351 132.095C91.9351 132.959 92.3452 133.772 93.0405 134.286L101.814 140.768C102.302 141.128 102.869 141.301 103.431 141.301C104.266 141.301 105.091 140.919 105.625 140.195C106.519 138.985 106.263 137.279 105.052 136.385L102.933 134.819H111.905C115.596 134.819 118.902 132.911 120.747 129.714C122.592 126.518 122.592 122.702 120.747 119.505Z" fill="white"/>
<path d="M84.1674 129.37H74.458C72.7371 129.37 71.1957 128.48 70.3355 126.99C69.4748 125.499 69.4748 123.72 70.3355 122.229L74.822 114.459L75.1184 117.078C75.2761 118.469 76.4549 119.496 77.8223 119.496C77.9248 119.496 78.0279 119.49 78.1322 119.479C79.6275 119.309 80.7024 117.96 80.5331 116.465L79.3063 105.625C79.209 104.766 78.7098 104.004 77.9611 103.572C77.2127 103.14 76.3034 103.088 75.5104 103.434L65.5096 107.791C64.1302 108.392 63.4989 109.998 64.1001 111.377C64.7013 112.757 66.3074 113.389 67.686 112.787L70.1026 111.734L65.6161 119.505C63.7706 122.702 63.7706 126.518 65.6161 129.715C67.4615 132.911 70.767 134.82 74.458 134.82H84.1674C85.6721 134.82 86.892 133.6 86.892 132.095C86.892 130.59 85.6721 129.37 84.1674 129.37Z" fill="white"/>
</g>
<defs>
<clipPath id="clip0_125_1256">
<rect width="186" height="186" fill="white"/>
</clipPath>
</defs>
</svg>
