<svg width="24" height="24" viewBox="0 0 24 24" fill="none" xmlns="http://www.w3.org/2000/svg">
<path d="M20.8279 6.20261C20.4361 6.59466 19.9533 6.88345 19.4225 7.04314C18.8918 7.20282 18.3297 7.22841 17.7867 7.11761C17.6437 7.09419 17.5031 7.05779 17.3667 7.00886C17.3177 6.87118 17.2813 6.72935 17.2579 6.58511C17.1409 6.006 17.1788 5.40626 17.3676 4.84645C17.5565 4.28663 17.8897 3.78654 18.3336 3.39665C18.7775 3.00676 19.3164 2.74087 19.8959 2.62582C20.4754 2.51077 21.075 2.55062 21.6342 2.74136C21.8355 3.33613 21.8667 3.97532 21.7242 4.58687C21.5818 5.19842 21.2714 5.75803 20.8279 6.20261V6.20261Z" fill="#00CCB3"/>
<path d="M15.045 10.1249H9.70502C9.32472 9.46757 9.0917 8.73551 9.02209 7.97931C8.95247 7.22311 9.04791 6.46081 9.30181 5.74511C9.55571 5.02941 9.96201 4.3774 10.4926 3.83413C11.0232 3.29087 11.6655 2.86932 12.375 2.59863C13.0845 2.86932 13.7268 3.29087 14.2574 3.83413C14.788 4.3774 15.1943 5.02941 15.4482 5.74511C15.7021 6.46081 15.7976 7.22311 15.728 7.97931C15.6583 8.73551 15.4253 9.46757 15.045 10.1249V10.1249Z" fill="#00CCB3"/>
<path d="M18.375 20.625H5.625V22.875H18.375V20.625Z" fill="#787680"/>
<path d="M22.875 12.375V16.125C22.875 17.3185 22.4009 18.4631 21.557 19.307C20.7131 20.1509 19.5685 20.625 18.375 20.625H5.625C4.43153 20.625 3.28693 20.1509 2.44302 19.307C1.59911 18.4631 1.125 17.3185 1.125 16.125V12.375H22.875Z" fill="#898890"/>
<path d="M22.875 10.125V12.375H1.125V10.125H2.68125H7.61625H9.705H12.375H15.045H22.875Z" fill="white"/>
<path d="M7.61661 10.125H2.68161L2.59536 9.37502L1.94286 3.57752C1.88686 3.07263 2.02506 2.56535 2.3294 2.15864C2.63375 1.75192 3.08143 1.47623 3.58161 1.38752C3.69663 1.36637 3.81342 1.35633 3.93036 1.35752C4.37777 1.358 4.81206 1.5087 5.16361 1.78545C5.51516 2.0622 5.7636 2.44897 5.86911 2.88377L7.43661 9.37502L7.61661 10.125Z" fill="white"/>
<path d="M18.375 20.625H5.625V21.375H18.375V20.625Z" fill="#57565C"/>
<path d="M14.5254 7.77487L13.9951 7.24463L12.7505 8.48925V4.875H12.0005V7.34475L10.7656 6.10987L10.2354 6.64013L12.0005 8.40525V10.125H12.7505V9.54975L14.5254 7.77487Z" fill="#00665A"/>
<path d="M19.6091 5.29535H20.2953V6.04535H18.8591L17.7866 7.11785C17.6436 7.09443 17.503 7.05803 17.3666 7.0091C17.3176 6.87142 17.2812 6.72959 17.2578 6.58535L18.8591 4.9841V3.54785H19.6091V4.2341L20.2953 3.54785L20.8278 4.08035L19.6091 5.29535Z" fill="#00665A"/>
</svg>
