<svg width="24" height="24" viewBox="0 0 24 24" fill="none" xmlns="http://www.w3.org/2000/svg">
<g clip-path="url(#clip0_193_1166)">
<path d="M12.4257 0.525696C12.3192 0.400635 12.1641 0.328125 12 0.328125C11.8359 0.328125 11.6808 0.400635 11.5743 0.525696C11.1918 0.974854 10.337 2.26227 9.96094 5.10938H14.0391C13.663 2.26245 12.8082 0.974854 12.4257 0.525696Z" fill="#0096D0"/>
<path d="M1.2951 17.6917C0.492737 16.4377 0 15.0029 0 13.4062C0 9.65625 4.5 3.89062 12 3.89062C19.5 3.89062 24 9.65625 24 13.4062C24 15.0027 23.5073 16.4376 22.7049 17.6917H1.2951Z" fill="#34B5E1"/>
<path d="M2.74384 17.6917C1.94128 16.4377 1.44873 15.0029 1.44873 13.4062C1.44873 9.77875 5.65997 4.26508 12.7242 3.90912C12.6068 3.90326 12.4887 3.89868 12.3697 3.89557C12.3679 3.89557 12.366 3.89557 12.3642 3.89539C12.2435 3.89227 12.1221 3.89062 12 3.89062C4.5 3.89062 0 9.65625 0 13.4062C0 14.9262 0.479004 16.4163 1.2951 17.6917H2.74384Z" fill="#0096D0"/>
<path d="M22.7047 17.6917C20.2808 21.4814 15.0289 23.625 11.9998 23.625C8.9707 23.625 3.71887 21.4814 1.29492 17.6917C3.1236 13.8126 7.22882 11.1094 11.9998 11.1094C16.7708 11.1094 20.876 13.8126 22.7047 17.6917Z" fill="white"/>
<path d="M12.0011 23.6251C12.1119 23.6251 12.2227 23.622 12.3333 23.6167C12.4638 23.6103 12.594 23.6008 12.7242 23.5883C9.64014 23.291 4.98413 21.1946 2.74365 17.6918C2.47229 17.2677 2.23663 16.8229 2.04309 16.3584C1.76331 16.7845 1.51282 17.2296 1.29492 17.6918C2.77917 20.0123 5.20935 21.6633 7.73364 22.6735C9.29425 23.2981 10.8166 23.6251 12.0011 23.6251Z" fill="white"/>
<path d="M12.0009 13.2774C11.4754 13.2774 10.9823 13.0581 10.6481 12.6757C10.5164 12.5252 10.5318 12.2963 10.6823 12.1647C10.833 12.033 11.0617 12.0484 11.1934 12.1991C11.3902 12.4241 11.6845 12.5531 12.0009 12.5531C12.3173 12.5531 12.6117 12.4241 12.8084 12.1991C12.94 12.0484 13.1687 12.033 13.3194 12.1647C13.4699 12.2963 13.4853 12.5252 13.3537 12.6757C13.0195 13.0581 12.5264 13.2774 12.0009 13.2774Z" fill="#423E4F"/>
<path d="M5.65137 12.1824H4.78015C4.5802 12.1824 4.41797 12.0201 4.41797 11.8202C4.41797 11.6201 4.5802 11.458 4.78015 11.458H5.65137C5.85132 11.458 6.01355 11.6201 6.01355 11.8202C6.01355 12.0201 5.8515 12.1824 5.65137 12.1824Z" fill="#FF9DB0"/>
<path d="M6.50671 11.2153C6.30676 11.2153 6.14453 11.053 6.14453 10.8531V10.0546C6.14453 9.85461 6.30676 9.69238 6.50671 9.69238C6.70667 9.69238 6.8689 9.85461 6.8689 10.0546V10.8531C6.8689 11.053 6.70667 11.2153 6.50671 11.2153Z" fill="#423E4F"/>
<path d="M19.2197 12.1824H18.3485C18.1486 12.1824 17.9863 12.0201 17.9863 11.8202C17.9863 11.6201 18.1486 11.458 18.3485 11.458H19.2197C19.4197 11.458 19.5819 11.6201 19.5819 11.8202C19.5819 12.0201 19.4197 12.1824 19.2197 12.1824Z" fill="#FF9DB0"/>
<path d="M17.493 11.2153C17.2929 11.2153 17.1309 11.053 17.1309 10.8531V10.0546C17.1309 9.85461 17.2929 9.69238 17.493 9.69238C17.693 9.69238 17.8552 9.85461 17.8552 10.0546V10.8531C17.8552 11.053 17.693 11.2153 17.493 11.2153Z" fill="#423E4F"/>
</g>
<defs>
<clipPath id="clip0_193_1166">
<rect width="24" height="24" fill="white"/>
</clipPath>
</defs>
</svg>
