<svg width="24" height="24" viewBox="0 0 24 24" fill="none" xmlns="http://www.w3.org/2000/svg">
<g clip-path="url(#clip0_192_1113)">
<path d="M23.9982 3.77976C23.9622 3.07993 23.4625 2.46194 22.7473 2.31473C20.3898 1.83005 19.3164 4.31113 19.3164 4.31113L20.2107 5.73093L23.9982 3.77976Z" fill="#F0F0F0"/>
<path d="M0.00195312 3.77976C0.0380249 3.07993 0.53772 2.46194 1.25293 2.31473C3.61042 1.83005 4.68378 4.31113 4.68378 4.31113L3.78949 5.73093L0.00195312 3.77976Z" fill="#F0F0F0"/>
<path d="M21.0696 3.02307C20.9471 2.9057 20.8197 2.79565 20.6879 2.69238C19.7551 3.29736 19.3164 4.3114 19.3164 4.3114L20.2107 5.73139L22.2195 4.69647C21.9583 4.06989 21.5701 3.50281 21.0696 3.02307V3.02307Z" fill="#EAE9F0"/>
<path d="M1.78125 4.69629L3.7901 5.7312L4.68439 4.3114C4.68439 4.3114 4.24549 3.29718 3.31293 2.69238C3.18109 2.79565 3.05365 2.9057 2.93134 3.02307C2.43091 3.50263 2.04254 4.06989 1.78125 4.69629Z" fill="#EAE9F0"/>
<path d="M3.78975 5.73148V5.73203L2.86854 7.19523C0.9051 6.73271 0.243723 5.26749 0.0291227 4.16428C0.00422034 4.03538 -0.00456873 3.90629 0.00220618 3.78031C1.14094 3.75962 2.8517 4.04416 3.78975 5.73148Z" fill="#FFC9D3"/>
<path d="M20.2109 5.73148V5.73203L21.1321 7.19523C23.0956 6.73271 23.7568 5.26749 23.9716 4.16428C23.9965 4.03538 24.0053 3.90629 23.9985 3.78031C22.8597 3.75962 21.149 4.04416 20.2109 5.73148V5.73148Z" fill="#FFC9D3"/>
<path d="M23.1937 5.93744C22.9555 5.64667 22.6847 5.38355 22.3844 5.15247C22.2767 4.80145 22.1312 4.46564 21.9504 4.14941C21.2916 4.43414 20.6619 4.92047 20.2109 5.73181V5.73236L21.1321 7.19556C22.1039 6.96668 22.7563 6.49207 23.1937 5.93744V5.93744Z" fill="#FF9DB0"/>
<path d="M2.04993 4.14941C1.8692 4.46564 1.72363 4.80127 1.61597 5.15247C1.31567 5.38336 1.04486 5.64649 0.806641 5.93744C1.24408 6.49207 1.89649 6.96668 2.86823 7.19556L3.78943 5.73236V5.73181C3.33826 4.92066 2.70856 4.43414 2.04993 4.14941Z" fill="#FF9DB0"/>
<path d="M22.7809 14.1197L22.7811 14.1193C23.7089 12.8682 23.7089 11.1572 22.7811 9.90606L22.7809 9.90569C23.1362 8.38885 22.4568 6.81817 21.1085 6.03795L21.1075 6.03759L21.1039 6.01562C20.8384 4.49108 19.6127 3.31627 18.0782 3.1154L18.0553 3.11229L18.0381 3.08483C17.2182 1.778 15.6457 1.15324 14.1524 1.54125L14.1206 1.54949L14.0836 1.52257C12.842 0.617477 11.1583 0.617477 9.91667 1.52257L9.87968 1.54949L9.84782 1.54125C8.35459 1.15324 6.78226 1.778 5.96232 3.08483L5.94492 3.11229L5.92203 3.1154C4.38779 3.31627 3.16208 4.49108 2.89658 6.01562L2.89273 6.03759L2.892 6.03795C1.54361 6.81817 0.864289 8.38885 1.21951 9.90569L1.21915 9.90606C0.291534 11.1572 0.291534 12.8682 1.21915 14.1193L1.21951 14.1197C0.864289 15.6365 1.54361 17.2072 2.892 17.9874L2.89273 17.988L2.89658 18.01C3.16208 19.5343 4.38779 20.7093 5.92203 20.91L5.9451 20.9131L5.96232 20.9406C6.78226 22.2476 8.35459 22.8721 9.84782 22.4841L9.87968 22.4759L9.91667 22.5028C11.1583 23.4079 12.8421 23.4079 14.0836 22.5028L14.1206 22.4759L14.1524 22.4841C15.6457 22.8721 17.2182 22.2476 18.0381 20.9406L18.0553 20.9131L18.0782 20.9102C19.6127 20.7093 20.8382 19.5343 21.1039 18.01L21.1075 17.988L21.1085 17.9876C22.4568 17.2072 23.1362 15.6365 22.7809 14.1197V14.1197Z" fill="#F0F0F0"/>
<path d="M4.8283 19.0319L4.82445 19.0062L4.82372 19.0057C3.47533 18.0924 2.79601 16.2542 3.15123 14.4786L3.15087 14.4782C2.22325 13.0137 2.22325 11.0113 3.15087 9.54682L3.15123 9.54645V9.54627C2.79601 7.77088 3.47533 5.9325 4.82372 5.01935L4.82445 5.0188L4.8283 4.99317C4.92791 4.3241 5.16228 3.71271 5.49755 3.19727C4.16564 3.54041 3.13732 4.63446 2.89672 6.01526L2.89287 6.03723L2.89214 6.03778C1.54375 6.818 0.864426 8.38868 1.21947 9.90552L1.21928 9.90589C0.291488 11.1571 0.291488 12.868 1.21928 14.1192L1.21947 14.1195C0.864426 15.6364 1.54356 17.207 2.89214 17.9873L2.89287 17.9876L2.89672 18.0096C3.13732 19.3906 4.16564 20.4846 5.49755 20.8278C5.16228 20.3123 4.92791 19.7008 4.8283 19.0319Z" fill="#EAE9F0"/>
<path d="M19.9606 9.90299C19.8938 9.58292 19.5314 9.43405 19.2527 9.60507C18.8946 9.8248 18.4731 9.95151 18.0221 9.95151C17.0161 9.95151 16.1579 9.32126 15.8199 8.43393C15.7256 8.18619 15.4483 8.05527 15.2046 8.16C14.9197 8.28232 14.6057 8.35007 14.2759 8.35007C13.4935 8.35007 12.8003 7.96866 12.3714 7.38181C12.1898 7.13315 11.8111 7.13315 11.6293 7.38181C11.2007 7.96884 10.5074 8.35007 9.72483 8.35007C9.39506 8.35007 9.08122 8.28232 8.79612 8.16C8.55241 8.05527 8.27537 8.18619 8.18089 8.43393C7.84287 9.32126 6.98466 9.95151 5.97886 9.95151C5.52768 9.95151 5.10636 9.82498 4.7482 9.60507C4.46933 9.43405 4.10715 9.58292 4.04032 9.90299C3.60636 11.9818 3.1821 18.7552 12.0005 18.7552C20.8188 18.7552 20.3946 11.9818 19.9606 9.90299V9.90299Z" fill="#FFC9D3"/>
<path d="M5.48905 9.90283C5.48923 9.9021 5.48942 9.90137 5.4896 9.90045C5.223 9.84424 4.97306 9.74298 4.7482 9.60492C4.46933 9.4339 4.10715 9.58277 4.04032 9.90283C3.60636 11.9816 3.1821 18.7551 12.0005 18.7551C12.2493 18.7551 12.4905 18.7494 12.7248 18.7388C4.655 18.3762 5.06736 11.9229 5.48905 9.90283V9.90283Z" fill="#FF9DB0"/>
<path d="M12.8118 12.9336H11.1884C11.0177 12.9336 10.8566 13.103 10.9143 13.2637C11.0787 13.722 11.5132 14.0276 12.0001 14.0276C12.487 14.0276 12.9215 13.722 13.0859 13.2637C13.1438 13.103 12.9825 12.9336 12.8118 12.9336Z" fill="#423E4F"/>
<path d="M13.6013 14.8101C13.4508 14.6787 13.2219 14.6938 13.0902 14.8445C12.9917 14.9575 12.8427 15.0222 12.6816 15.0222C12.5206 15.0222 12.3716 14.9575 12.2729 14.8445C12.2049 14.7667 12.1039 14.7211 12.0006 14.7211C11.8971 14.7211 11.7957 14.7665 11.7276 14.8445C11.6289 14.9575 11.48 15.0222 11.3189 15.0222C11.1577 15.0222 11.0089 14.9575 10.9102 14.8445C10.7785 14.6938 10.5497 14.6787 10.3991 14.8101C10.2486 14.9418 10.2332 15.1707 10.3649 15.3214C10.6011 15.5916 10.9488 15.7465 11.3189 15.7465C11.5646 15.7465 11.8003 15.6779 12.0002 15.5528C12.2002 15.6779 12.4358 15.7465 12.6816 15.7465C13.0518 15.7465 13.3995 15.5916 13.6357 15.3214C13.7674 15.1707 13.752 14.9418 13.6013 14.8101Z" fill="#423E4F"/>
<path d="M7.98474 13.4873H7.1864C6.98627 13.4873 6.82422 13.6494 6.82422 13.8495C6.82422 14.0494 6.98627 14.2117 7.1864 14.2117H7.98474C8.18469 14.2117 8.34693 14.0494 8.34693 13.8495C8.34693 13.6494 8.18469 13.4873 7.98474 13.4873Z" fill="#FF9DB0"/>
<path d="M8.09265 11.8193C7.8927 11.8193 7.73047 11.9816 7.73047 12.1815V12.857C7.73047 13.0571 7.8927 13.2192 8.09265 13.2192C8.2926 13.2192 8.45483 13.0571 8.45483 12.857V12.1815C8.45483 11.9816 8.2926 11.8193 8.09265 11.8193V11.8193Z" fill="#423E4F"/>
<path d="M16.8129 13.4873H16.0145C15.8146 13.4873 15.6523 13.6494 15.6523 13.8495C15.6523 14.0494 15.8146 14.2117 16.0145 14.2117H16.8129C17.013 14.2117 17.1751 14.0494 17.1751 13.8495C17.1751 13.6494 17.013 13.4873 16.8129 13.4873Z" fill="#FF9DB0"/>
<path d="M16.2693 12.857V12.1815C16.2693 11.9816 16.1071 11.8193 15.9071 11.8193C15.7072 11.8193 15.5449 11.9816 15.5449 12.1815V12.857C15.5449 13.0571 15.7072 13.2192 15.9071 13.2192C16.1071 13.2192 16.2693 13.0571 16.2693 12.857Z" fill="#423E4F"/>
</g>
<defs>
<clipPath id="clip0_192_1113">
<rect width="24" height="24" fill="white"/>
</clipPath>
</defs>
</svg>
