<svg width="24" height="24" viewBox="0 0 24 24" fill="none" xmlns="http://www.w3.org/2000/svg">
<g clip-path="url(#clip0_234_1094)">
<path d="M19.793 13.1881L22.3239 11.4576C22.1626 11.1461 21.925 10.8737 21.6266 10.67L19.793 9.41699V13.1881H19.793Z" fill="#FFB25A"/>
<path d="M4.33176 9.33203L2.37407 10.6698C2.07562 10.8736 1.83805 11.146 1.67676 11.4574L4.33176 13.2728V9.33203Z" fill="#FF9C20"/>
<path d="M21.7657 23.5191C21.3954 23.8199 20.9236 23.9996 20.4098 23.9996H8.02877C6.99345 22.8828 6.54462 21.3629 6.84035 19.7897L7.38363 19.3498L12.0001 17.6553L16.8131 19.7544L21.7657 23.5191Z" fill="#FFB25A"/>
<path d="M8.02864 23.9999H3.59033C3.07653 23.9999 2.60473 23.8203 2.23438 23.5195L6.84027 19.79C7.07731 21.3372 7.47622 22.7864 8.02864 23.9999Z" fill="#FF9C20"/>
<path d="M20.1664 1.13189V10.9222L12.0002 16.5142L3.95801 10.9965V1.13189C3.95801 0.507047 4.46454 0 5.0899 0H19.0345C19.6594 0 20.1664 0.507047 20.1664 1.13189V1.13189Z" fill="#FFF4E5"/>
<path d="M20.1664 10.9219V17.6554H3.95801V10.9963L11.8013 15.7054C11.9237 15.7789 12.0766 15.7789 12.199 15.7054L20.1664 10.9219Z" fill="#FFE0B7"/>
<path d="M8.9834 7.51465L9.81655 10.9481H14.0985C14.5652 10.9481 14.9716 10.6294 15.0829 10.1762L15.5603 8.23202C15.65 7.86705 15.3737 7.51465 14.9978 7.51465H8.9834Z" fill="#8CE09F"/>
<path d="M14.904 12.1526H9.8879C9.80043 12.1526 9.75538 12.0949 9.74005 12.0701C9.72102 12.0393 9.69477 11.9764 9.73251 11.9011L10.1307 11.1055C10.1676 11.0319 10.1773 10.9456 10.158 10.8655L9.10776 6.52342C9.00745 6.10366 8.63601 5.81055 8.20443 5.81055H7.38379C7.18963 5.81055 7.03223 5.96795 7.03223 6.16211C7.03223 6.35627 7.18963 6.51367 7.38379 6.51367H8.20443C8.30924 6.51367 8.39952 6.58492 8.42413 6.68781L9.44441 10.9058L9.10373 11.5864C8.96666 11.8602 8.98091 12.1793 9.14184 12.4398C9.30276 12.7003 9.58166 12.8558 9.88785 12.8558H14.9039C15.0981 12.8558 15.2555 12.6984 15.2555 12.5042C15.2555 12.3101 15.0982 12.1526 14.904 12.1526Z" fill="#55D47B"/>
<path d="M10.4638 14.1933C10.9303 14.1933 11.3085 13.8151 11.3085 13.3486C11.3085 12.8821 10.9303 12.5039 10.4638 12.5039C9.99732 12.5039 9.61914 12.8821 9.61914 13.3486C9.61914 13.8151 9.99732 14.1933 10.4638 14.1933Z" fill="#7A8FA5"/>
<path d="M13.7099 14.1933C14.1764 14.1933 14.5546 13.8151 14.5546 13.3486C14.5546 12.8821 14.1764 12.5039 13.7099 12.5039C13.2434 12.5039 12.8652 12.8821 12.8652 13.3486C12.8652 13.8151 13.2434 14.1933 13.7099 14.1933Z" fill="#7A8FA5"/>
<path d="M12.0006 17.6557L6.99398 20.6622C5.99249 19.0335 5.85431 16.5646 6.6651 14.4521L12.0006 17.6557Z" fill="#FFCA8B"/>
<path d="M6.99371 20.6621L2.23473 23.5194C2.2299 23.5155 2.2246 23.5112 2.21926 23.5073C1.73973 23.1118 1.43457 22.5135 1.43457 21.8437V12.4499C1.43457 12.0998 1.51955 11.7613 1.67555 11.4595C1.67602 11.4585 1.67654 11.458 1.67701 11.457L6.66484 14.452C6.48859 16.5299 6.60498 18.7015 6.99371 20.6621Z" fill="#FFB25A"/>
<path d="M22.5658 12.4498V21.8436C22.5658 22.5095 22.264 23.105 21.7893 23.5004C21.7811 23.5067 21.7734 23.513 21.7657 23.5193L12 17.6555L22.3234 11.457C22.3244 11.459 22.3253 11.4604 22.3267 11.4623C22.4813 11.7636 22.5658 12.1007 22.5658 12.4498V12.4498Z" fill="#FFCA8B"/>
<path d="M9.64944 3.75961C9.64752 4.38005 9.01433 4.881 8.23527 4.87856C7.45621 4.87613 6.82621 4.37119 6.82813 3.7508C6.83005 3.13036 7.46319 2.62941 8.2423 2.63184C9.02141 2.63428 9.65136 3.13922 9.64944 3.75961Z" fill="#FFA1AC"/>
<path d="M14.4746 3.77526C14.4727 4.39565 15.1026 4.90059 15.8817 4.90302C16.6608 4.90546 17.2939 4.40451 17.2959 3.78407C17.2978 3.16363 16.6678 2.65874 15.8887 2.65626C15.1097 2.65387 14.4766 3.15482 14.4746 3.77526V3.77526Z" fill="#FFA1AC"/>
<path d="M13.0303 1.94616C12.7706 1.81346 12.4576 1.78548 12.0676 1.78426C11.584 1.78313 10.5787 1.77962 10.5752 2.90007C10.5724 3.79566 11.2381 4.52635 12.059 4.52893H12.0635C12.467 4.52893 12.8445 4.3562 13.1269 4.04223C13.4004 3.7382 13.5517 3.33587 13.553 2.9094C13.5548 2.33495 13.2698 2.06851 13.0303 1.94616V1.94616Z" fill="#495560"/>
<path d="M9.73643 2.88941C9.54115 2.8888 9.38421 2.73093 9.38487 2.53677C9.38543 2.36038 9.24237 2.21643 9.06602 2.21587C8.97996 2.21587 8.8999 2.24887 8.83952 2.30887C8.77892 2.3691 8.7454 2.4493 8.74512 2.53471C8.74451 2.72849 8.5872 2.8852 8.39356 2.8852C8.19828 2.88459 8.04138 2.72671 8.04199 2.53255C8.04284 2.25927 8.15004 2.00273 8.34387 1.81007C8.53695 1.61826 8.79288 1.5127 9.0649 1.5127H9.06813C9.63223 1.51448 10.0897 1.97484 10.0879 2.53893C10.0873 2.73276 9.93007 2.88941 9.73643 2.88941V2.88941Z" fill="#495560"/>
<path d="M15.7385 2.90792C15.5432 2.90731 15.3863 2.74944 15.3869 2.55528C15.3874 2.37889 15.2444 2.23494 15.068 2.23438C14.8911 2.23438 14.7476 2.3772 14.7471 2.55327C14.7464 2.74705 14.5892 2.9037 14.3956 2.9037C14.2002 2.90309 14.0433 2.74517 14.0439 2.55102C14.0458 1.98805 14.5044 1.53125 15.0669 1.53125H15.0701C15.6342 1.53303 16.0917 1.99334 16.0899 2.55744C16.0894 2.75122 15.9321 2.90788 15.7385 2.90792V2.90792Z" fill="#495560"/>
</g>
<defs>
<clipPath id="clip0_234_1094">
<rect width="24" height="24" fill="white"/>
</clipPath>
</defs>
</svg>
