<svg width="24" height="24" viewBox="0 0 24 24" fill="none" xmlns="http://www.w3.org/2000/svg">
<g clip-path="url(#clip0_236_1620)">
<path d="M18.3921 18.7369C19.4526 19.7676 18.4711 21.3003 15.9332 24H8.06586C5.93802 21.7614 4.29332 20.0706 5.60694 18.7369C5.97847 18.3597 5.82181 18.0241 6.18641 17.8677C9.15622 18.0357 14.8428 18.0357 17.8126 17.8677C18.1773 18.0241 18.0125 18.3679 18.3921 18.7369V18.7369Z" fill="#FFF1CF"/>
<path d="M19.7157 17.6148C19.2811 18.1204 18.7557 18.6067 18.1482 19.0592C16.2982 20.4364 14.0576 21.2265 11.9999 21.2265C9.94232 21.2265 7.7017 20.4364 5.85168 19.0592C5.24418 18.6067 4.7188 18.1204 4.28418 17.6148C5.43112 13.9844 8.45263 10.7476 12 10.7476C15.5474 10.7476 18.5689 13.9844 19.7157 17.6148Z" fill="#FFEAB7"/>
<path d="M8.08855 8.58306C6.62174 8.58306 5.43262 6.62617 5.43262 4.90047C5.43262 2.61873 7.04179 0.819527 7.75504 0.134121C7.94113 -0.044707 8.23598 -0.044707 8.42212 0.134121C9.13537 0.819527 10.7445 2.61873 10.7445 4.90047C10.7445 6.62612 9.55541 8.58306 8.08855 8.58306Z" fill="#858586"/>
<path d="M8.0891 7.13447C7.69155 7.13447 6.88184 6.10046 6.88184 4.9006C6.88184 4.17821 7.1133 3.42539 7.56977 2.66307C7.67435 2.48846 7.78437 2.3243 7.89476 2.17238C7.99034 2.04085 8.18782 2.04085 8.2834 2.17238C8.39379 2.32435 8.5038 2.48846 8.60838 2.66307C9.06485 3.42539 9.29632 4.17816 9.29632 4.9006C9.29637 6.10046 8.48665 7.13447 8.0891 7.13447V7.13447Z" fill="#EC9EB0"/>
<path d="M15.9118 8.58306C14.445 8.58306 13.2559 6.62617 13.2559 4.90047C13.2559 2.61873 14.865 0.819527 15.5783 0.134121C15.7644 -0.044707 16.0592 -0.044707 16.2454 0.134121C16.9586 0.819527 18.5678 2.61873 18.5678 4.90047C18.5677 6.62612 17.3786 8.58306 15.9118 8.58306Z" fill="#919191"/>
<path d="M15.9123 7.13447C15.5148 7.13447 14.7051 6.10046 14.7051 4.9006C14.7051 4.17821 14.9365 3.42539 15.393 2.66307C15.4976 2.48846 15.6076 2.3243 15.718 2.17238C15.8136 2.04085 16.0111 2.04085 16.1066 2.17238C16.217 2.32435 16.327 2.48846 16.4316 2.66307C16.8881 3.42539 17.1196 4.17816 17.1196 4.9006C17.1196 6.10046 16.3099 7.13447 15.9123 7.13447V7.13447Z" fill="#F1B3C1"/>
<path d="M20.2036 14.0126C20.2036 16.0355 12.8433 16.657 7.98438 15.9394C8.15837 13.2931 9.29594 7.13427 12.0363 3.6665C14.9767 3.68825 18.2855 6.35286 18.2855 6.35286C19.1017 8.47813 20.2036 12.0125 20.2036 14.0126V14.0126Z" fill="#919191"/>
<path d="M7.9837 15.9393C5.58998 15.5854 3.80371 14.9064 3.80371 13.9102C3.80371 11.9101 5.15727 8.55391 5.71452 6.35289C5.71452 6.35289 6.54848 5.68117 7.75138 5.00945C8.95377 4.33773 10.5252 3.66602 11.9999 3.66602C11.9999 3.67811 12.0231 3.66648 12.0351 3.66648C12.0356 3.66602 12.0356 3.66602 12.0361 3.66648C9.79616 7.5707 12.0458 12.1735 16.6416 13.811C17.1831 14.0039 12.3578 15.2647 7.9837 15.9393V15.9393Z" fill="#858586"/>
<path d="M5.65219 18.9066C6.02208 20.0288 7.96623 21.6152 8.06668 24.0002H4.82162C4.43433 24.0002 4.08324 23.7694 3.93258 23.413C3.85918 23.2401 3.79304 23.0619 3.73365 22.8784C3.69793 22.7674 3.57282 22.7128 3.46707 22.763C3.32799 22.8297 3.19083 22.8837 3.06577 22.9267C2.86585 22.9957 2.67994 22.7958 2.76446 22.6022C2.90837 22.2724 3.08026 21.776 3.17832 21.1308C3.20148 20.9791 3.04843 20.8623 2.90837 20.9246C2.82966 20.9593 2.75288 20.9898 2.67948 21.0168C2.47037 21.0941 2.27771 20.8744 2.38154 20.6773C2.64423 20.1795 2.99387 19.3049 3.14837 17.9847C3.21648 17.4048 3.3459 16.9243 3.50715 16.5278C4.40466 16.9271 5.02327 17.7697 5.65219 18.9066V18.9066Z" fill="#919191"/>
<path d="M21.3218 21.0168C21.2484 20.9898 21.1716 20.9593 21.0929 20.9246C20.9528 20.8623 20.7998 20.9791 20.8229 21.1308C20.9209 21.7759 21.0929 22.2723 21.2368 22.6022C21.3213 22.7958 21.1354 22.9957 20.9355 22.9267C20.8104 22.8837 20.6733 22.8296 20.5342 22.763C20.4284 22.7128 20.3034 22.7674 20.2676 22.8784C20.2082 23.0619 20.1421 23.2401 20.0687 23.413C19.918 23.7694 19.5669 24.0002 19.1796 24.0002H15.9346C16.035 21.6151 17.9792 20.0288 18.3491 18.9066C18.9638 17.6008 19.6535 16.7218 20.4941 16.5278C20.6554 16.9243 20.7848 17.4048 20.8529 17.9847C21.0074 19.3049 21.357 20.1795 21.6197 20.6773C21.7235 20.8744 21.5308 21.0941 21.3218 21.0168V21.0168Z" fill="#919191"/>
<path d="M7.11602 16.9927C7.11602 18.0246 5.39787 17.6055 5.60745 18.7369C5.61757 18.7924 5.63257 18.8489 5.65188 18.9064C4.71602 18.1758 3.9888 17.364 3.50684 16.5276C4.0617 15.1577 4.98837 14.7887 5.01977 14.7767C6.00734 13.0923 7.11602 16.3422 7.11602 16.9927V16.9927Z" fill="#858586"/>
<path d="M20.493 16.5277C20.0111 17.3641 19.2838 18.1758 18.3479 18.9065C18.3672 18.849 18.3822 18.7925 18.3924 18.737C18.6019 17.6055 16.8838 18.0247 16.8838 16.9927C16.8838 16.6677 17.0514 16.2766 17.3174 15.8787C17.5835 15.4808 18.0418 13.1764 18.98 14.7767C19.0114 14.7888 19.9381 15.1577 20.493 16.5277V16.5277Z" fill="#858586"/>
<path d="M20.2097 14.1958C20.2097 17.012 15.9119 20.2605 12.0004 20.2605C11.8657 20.2605 11.7309 20.2567 11.5957 20.2494H11.5952C7.78093 18.4405 3.86097 14.0267 9.13103 7.57093C9.24836 7.54918 9.36765 7.5376 9.48934 7.5376H9.50481C10.2634 7.54388 10.8796 8.15522 10.9119 8.91338L11.0346 11.8064H12.9662L13.0889 8.91338C13.1212 8.15522 13.7374 7.54388 14.496 7.5376H14.5115C15.5038 7.5376 16.3634 8.29768 16.7792 9.40547C16.8704 9.64791 17.0534 9.84347 17.2891 9.95114C19.0072 10.7401 20.2097 12.6428 20.2097 14.1958V14.1958Z" fill="#FFF8E6"/>
<path d="M11.5956 20.2493C7.79813 20.0373 3.79102 16.9149 3.79102 14.1957C3.79102 12.6427 4.99345 10.7401 6.71156 9.95102C6.9472 9.8433 7.13025 9.64774 7.22152 9.40535C7.58658 8.4333 8.29308 7.72872 9.13087 7.5708C4.80567 13.899 8.41064 18.3555 11.5956 20.2493V20.2493Z" fill="#FFF1CF"/>
<path d="M8.15876 13.2933C8.94165 13.2933 9.57631 12.7879 9.57631 12.1645C9.57631 11.541 8.94165 11.0356 8.15876 11.0356C7.37587 11.0356 6.74121 11.541 6.74121 12.1645C6.74121 12.7879 7.37587 13.2933 8.15876 13.2933Z" fill="#FFA1AC"/>
<path d="M15.8424 13.2933C16.6252 13.2933 17.2599 12.7879 17.2599 12.1645C17.2599 11.541 16.6252 11.0356 15.8424 11.0356C15.0595 11.0356 14.4248 11.541 14.4248 12.1645C14.4248 12.7879 15.0595 13.2933 15.8424 13.2933Z" fill="#FFA1AC"/>
<path d="M8.9852 11.44C8.78519 11.44 8.62305 11.2779 8.62305 11.0779V10.4984C8.62305 10.2984 8.78519 10.1362 8.9852 10.1362C9.18522 10.1362 9.34736 10.2984 9.34736 10.4984V11.0779C9.34736 11.2779 9.18522 11.44 8.9852 11.44Z" fill="#666667"/>
<path d="M15.0165 11.44C14.8164 11.44 14.6543 11.2779 14.6543 11.0779V10.4984C14.6543 10.2984 14.8164 10.1362 15.0165 10.1362C15.2165 10.1362 15.3786 10.2984 15.3786 10.4984V11.0779C15.3786 11.2779 15.2165 11.44 15.0165 11.44Z" fill="#666667"/>
<path d="M12.3624 17.6375C12.3624 17.6375 12.2894 17.1131 12.2533 17.0899C12.0992 16.9924 11.9008 16.9924 11.7472 17.0899C11.711 17.1126 11.6381 17.637 11.6381 17.637C9.71422 18.6975 7.17463 15.9401 9.63885 12.6279C11.2131 10.623 12.7873 10.6225 14.3616 12.6279C16.8292 15.9455 14.2809 18.6946 12.3624 17.6375V17.6375Z" fill="#FFF1CF"/>
<path d="M12.363 15.6644V17.6375C12.3263 17.6172 12.29 17.596 12.2539 17.5728C12.0998 17.4752 11.9014 17.4752 11.7478 17.5728C11.7116 17.5955 11.6754 17.6172 11.6387 17.637V15.6644C11.6387 15.4645 11.8009 15.3022 12.0008 15.3022C12.2007 15.3022 12.363 15.4645 12.363 15.6644V15.6644Z" fill="#858586"/>
<path d="M10.5518 14.7962C10.5518 15.4762 11.2004 16.2738 12.0004 16.2738C12.8005 16.2738 13.4491 15.4763 13.4491 14.7962C13.4491 14.1161 12.8005 13.811 12.0004 13.811C11.2004 13.811 10.5518 14.1161 10.5518 14.7962Z" fill="#666667"/>
</g>
<defs>
<clipPath id="clip0_236_1620">
<rect width="24" height="24" fill="white"/>
</clipPath>
</defs>
</svg>
