<svg width="24" height="24" viewBox="0 0 24 24" fill="none" xmlns="http://www.w3.org/2000/svg">
<g clip-path="url(#clip0_236_1565)">
<path d="M4.04984 2.67272L3.69434 7.24345H20.305L19.9495 2.67272C19.8321 1.16423 18.5738 0 17.0608 0H6.93851C5.42548 0 4.16716 1.16423 4.04984 2.67272V2.67272Z" fill="#92DD7A"/>
<path d="M11.9996 5.79478C11.4663 5.79478 11.0338 5.36236 11.0338 4.82897C11.0338 4.29558 11.4663 3.86316 11.9996 3.86316V0H6.93851C5.42548 0 4.16716 1.16423 4.04984 2.67272L3.69434 7.24345H11.9996V5.79478Z" fill="#7EC66A"/>
<path d="M19.3039 20.1141L20.305 7.24365H3.69434L4.6954 20.1141L11.9996 22.0571L19.3039 20.1141Z" fill="#92DD7A"/>
<path d="M20.042 10.6239L20.305 7.24365H3.69434L4.6954 20.1141L7.41091 20.8365L6.61662 10.6239H20.042Z" fill="#7EC66A"/>
<path d="M20.209 8.69227H3.79047C2.99036 8.69227 2.3418 8.04366 2.3418 7.24359C2.3418 6.44348 2.99041 5.79492 3.79047 5.79492H20.209C21.0091 5.79492 21.6577 6.44353 21.6577 7.24359C21.6577 8.04366 21.0091 8.69227 20.209 8.69227Z" fill="#B1EF97"/>
<path d="M8.86708 7.24359C8.86708 6.44348 9.51569 5.79492 10.3157 5.79492H3.79047C2.99036 5.79492 2.3418 6.44353 2.3418 7.24359C2.3418 8.04366 2.99041 8.69227 3.79047 8.69227H10.3157C9.51569 8.69231 8.86708 8.0437 8.86708 7.24359Z" fill="#92DD7A"/>
<path d="M16.7278 2.52684L16.9243 0H7.07422L7.27077 2.52684C7.32945 3.28106 7.95856 3.8632 8.71508 3.8632H15.2834C16.04 3.86316 16.6691 3.28106 16.7278 2.52684V2.52684Z" fill="#67B758"/>
<path d="M4.69531 20.1138L4.78967 21.3272C4.907 22.8357 6.16531 23.9999 7.67834 23.9999H16.3208C17.8339 23.9999 19.0922 22.8357 19.2095 21.3272L19.3039 20.1138H4.69531V20.1138Z" fill="#7EC66A"/>
<path d="M4.78967 21.3272C4.907 22.8357 6.16531 23.9999 7.67834 23.9999H10.3377C8.82467 23.9999 7.56636 22.8357 7.44903 21.3272L7.35467 20.1138H4.69531L4.78967 21.3272Z" fill="#67B758"/>
<path d="M8.98438 2.40027C8.79022 2.40027 8.63281 2.24286 8.63281 2.04871V1.46924C8.63281 1.27508 8.79022 1.11768 8.98438 1.11768C9.17853 1.11768 9.33594 1.27508 9.33594 1.46924V2.04871C9.33594 2.24286 9.17853 2.40027 8.98438 2.40027Z" fill="#495560"/>
<path d="M15.0156 2.40027C14.8215 2.40027 14.6641 2.24286 14.6641 2.04871V1.46924C14.6641 1.27508 14.8215 1.11768 15.0156 1.11768C15.2098 1.11768 15.3672 1.27508 15.3672 1.46924V2.04871C15.3672 2.24286 15.2098 2.40027 15.0156 2.40027Z" fill="#495560"/>
<path d="M12.0001 2.74508C11.5938 2.74508 11.2074 2.56911 10.94 2.26227C10.8125 2.11588 10.8277 1.89384 10.9741 1.76624C11.1205 1.63865 11.3425 1.65393 11.4701 1.80032C11.6039 1.95384 11.7971 2.04191 12.0002 2.04191C12.2032 2.04191 12.3963 1.95384 12.5302 1.80027C12.6578 1.65389 12.8798 1.63865 13.0262 1.76624C13.1726 1.89379 13.1879 2.11588 13.0603 2.26227C12.7928 2.56911 12.4064 2.74508 12.0001 2.74508V2.74508Z" fill="#495560"/>
<path d="M12.5534 11.584L13.1323 12.5867L12.8205 12.4508C12.6425 12.3732 12.4353 12.4547 12.3578 12.6327C12.2802 12.8107 12.3617 13.0179 12.5397 13.0954L13.83 13.6576C13.875 13.6772 13.9228 13.6869 13.9704 13.6869C14.0314 13.6869 14.0921 13.6711 14.1462 13.6398C14.2428 13.584 14.3072 13.4857 14.3198 13.3749L14.4781 11.9763C14.4999 11.7833 14.3612 11.6092 14.1683 11.5874C13.9755 11.5656 13.8013 11.7043 13.7794 11.8972L13.7412 12.2351L13.1623 11.2324C12.9241 10.82 12.4977 10.5738 12.0214 10.5737C11.5452 10.5737 11.1187 10.82 10.8806 11.2324L10.2542 12.3174C10.1571 12.4856 10.2147 12.7006 10.3829 12.7977C10.551 12.8947 10.766 12.8371 10.8631 12.669L11.4895 11.584C11.6005 11.3917 11.7994 11.2769 12.0215 11.2769C12.2435 11.2769 12.4424 11.3917 12.5534 11.584V11.584Z" fill="white"/>
<path d="M15.58 15.42L14.9536 14.335C14.8565 14.1669 14.6414 14.1093 14.4733 14.2063C14.3052 14.3034 14.2476 14.5184 14.3447 14.6866L14.9711 15.7715C15.0821 15.9639 15.0821 16.1935 14.9711 16.3858C14.8601 16.5781 14.6612 16.6929 14.4391 16.6929H13.2814L13.5549 16.4908C13.7111 16.3755 13.7441 16.1554 13.6287 15.9992C13.5134 15.8429 13.2932 15.8099 13.1371 15.9253L12.0049 16.7617C11.9152 16.828 11.8623 16.9329 11.8623 17.0444C11.8623 17.156 11.9152 17.2609 12.0049 17.3272L13.1371 18.1636C13.1999 18.21 13.2731 18.2324 13.3457 18.2324C13.4534 18.2324 13.5598 18.183 13.6287 18.0897C13.7441 17.9335 13.7111 17.7134 13.5549 17.598L13.2814 17.3959H14.4391C14.9154 17.3959 15.3419 17.1497 15.58 16.7373C15.8181 16.3249 15.8181 15.8324 15.58 15.42V15.42Z" fill="white"/>
<path d="M10.8599 16.6932H9.60707C9.38502 16.6932 9.18613 16.5784 9.07513 16.3861C8.96409 16.1938 8.96409 15.9642 9.07513 15.7719L9.65404 14.7692L9.69229 15.1071C9.71263 15.2867 9.86474 15.4192 10.0412 15.4192C10.0544 15.4192 10.0677 15.4184 10.0812 15.4169C10.2741 15.3951 10.4128 15.221 10.391 15.0281L10.2327 13.6294C10.2201 13.5185 10.1557 13.4202 10.0591 13.3645C9.96252 13.3087 9.8452 13.3021 9.74287 13.3467L8.45245 13.9089C8.27446 13.9864 8.19299 14.1936 8.27057 14.3716C8.34815 14.5497 8.55538 14.6311 8.73327 14.5535L9.04509 14.4177L8.46618 15.4204C8.22805 15.8328 8.22805 16.3253 8.46618 16.7377C8.70431 17.1502 9.13082 17.3964 9.60707 17.3964H10.8599C11.0541 17.3964 11.2115 17.239 11.2115 17.0449C11.2115 16.8507 11.0541 16.6932 10.8599 16.6932Z" fill="white"/>
</g>
<defs>
<clipPath id="clip0_236_1565">
<rect width="24" height="24" fill="white"/>
</clipPath>
</defs>
</svg>
