<svg width="24" height="24" viewBox="0 0 24 24" fill="none" xmlns="http://www.w3.org/2000/svg">
<g clip-path="url(#clip0_239_1862)">
<path d="M15.3798 5.82658C14.352 5.35001 13.207 5.0835 11.9996 5.0835C7.55618 5.0835 3.9541 8.68557 3.9541 13.129C3.9541 14.8928 4.5217 16.5241 5.48421 17.8501L8.74188 22.3379C9.47299 23.3452 10.6598 24.0001 11.9996 24.0001C13.3393 24.0001 14.5261 23.3452 15.2572 22.338L15.3798 22.1691L18.5149 17.8501C19.4774 16.5241 20.045 14.8928 20.045 13.129C20.045 9.89306 18.1343 7.10379 15.3798 5.82658V5.82658Z" fill="#FF7B94"/>
<path d="M15.9683 21.3583C14.8935 20.9363 13.9619 20.2155 13.2835 19.281L12.2448 17.8501C11.2823 16.524 10.7147 14.8928 10.7147 13.1289C10.7147 9.89299 12.6254 7.10377 15.3798 5.82656C14.3459 5.34709 13.1932 5.08029 11.9777 5.08353C7.56367 5.09531 3.95763 8.70839 3.9541 13.1224C3.9527 14.8888 4.52054 16.5224 5.48421 17.8501L8.74189 22.3379C9.47304 23.3452 10.6599 24.0001 11.9996 24.0001C13.3394 24.0001 14.5262 23.3452 15.2573 22.338L15.3799 22.1691L15.9683 21.3583Z" fill="#EA5B70"/>
<path d="M8.15778 18.0331C8.94067 18.0331 9.57533 17.5277 9.57533 16.9043C9.57533 16.2808 8.94067 15.7754 8.15778 15.7754C7.37489 15.7754 6.74023 16.2808 6.74023 16.9043C6.74023 17.5277 7.37489 18.0331 8.15778 18.0331Z" fill="#FF8E9E"/>
<path d="M15.8414 18.0331C16.6243 18.0331 17.2589 17.5277 17.2589 16.9043C17.2589 16.2808 16.6243 15.7754 15.8414 15.7754C15.0585 15.7754 14.4238 16.2808 14.4238 16.9043C14.4238 17.5277 15.0585 18.0331 15.8414 18.0331Z" fill="#FFB5C0"/>
<path d="M8.98424 14.9727C8.78418 14.9727 8.62207 15.1348 8.62207 15.3348V15.9143C8.62207 16.1143 8.78418 16.2765 8.98424 16.2765C9.18431 16.2765 9.34642 16.1143 9.34642 15.9143V15.3348C9.34642 15.1348 9.18426 14.9727 8.98424 14.9727Z" fill="#313D40"/>
<path d="M15.0155 14.9727C14.8154 14.9727 14.6533 15.1348 14.6533 15.3348V15.9143C14.6533 16.1143 14.8154 16.2765 15.0155 16.2765C15.2156 16.2765 15.3777 16.1143 15.3777 15.9143V15.3348C15.3777 15.1348 15.2156 14.9727 15.0155 14.9727Z" fill="#313D40"/>
<path d="M13.033 15.6238C12.8821 15.4924 12.6534 15.5081 12.522 15.6589C12.3902 15.8101 12.2 15.8969 12 15.8969C11.8 15.8969 11.6098 15.8101 11.478 15.6589C11.3466 15.5081 11.1178 15.4924 10.967 15.6238C10.8162 15.7552 10.8005 15.984 10.9319 16.1348C11.2013 16.4439 11.5906 16.6212 12 16.6212C12.4093 16.6212 12.7986 16.444 13.068 16.1348C13.1995 15.984 13.1838 15.7552 13.033 15.6238Z" fill="#313D40"/>
<path d="M11.9996 0C11.3995 0 10.9131 0.486471 10.9131 1.08652V5.36538H13.0861V1.08652C13.0861 0.486471 12.5997 0 11.9996 0Z" fill="#00B27A"/>
<path d="M16.7249 5.66704C16.1694 5.30878 15.5707 5.0119 14.9383 4.78585C14.02 4.45763 13.0307 4.27881 11.9997 4.27881C10.2585 4.27881 8.63641 4.7886 7.27445 5.66704C6.14408 6.39612 7.59833 8.14971 9.06469 7.45265L10.1052 6.95807L10.4912 8.04357C10.7156 8.67457 11.237 9.02434 11.7912 9.09436C12.4838 9.18186 13.2278 8.8321 13.5082 8.04357L13.8942 6.95807L14.9347 7.4527C16.4012 8.14981 17.8555 6.39627 16.7249 5.66704V5.66704Z" fill="#00CE8E"/>
<path d="M14.9383 4.78585C14.02 4.45763 13.0307 4.27881 11.9997 4.27881C10.2585 4.27881 8.63641 4.7886 7.27445 5.66704C6.14408 6.39612 7.59833 8.14971 9.06469 7.45265L10.1052 6.95807L10.4912 8.04357C10.7156 8.67458 11.237 9.02434 11.7912 9.09436C11.8934 7.15919 13.1301 5.4705 14.9383 4.78585V4.78585Z" fill="#00B27A"/>
<path d="M6.68821 11.2758C7.08826 11.2758 7.41256 10.8434 7.41256 10.31C7.41256 9.77664 7.08826 9.34424 6.68821 9.34424C6.28817 9.34424 5.96387 9.77664 5.96387 10.31C5.96387 10.8434 6.28817 11.2758 6.68821 11.2758Z" fill="#FFCE71"/>
<path d="M10.2292 11.7587C10.6293 11.7587 10.9536 11.3263 10.9536 10.7929C10.9536 10.2595 10.6293 9.82715 10.2292 9.82715C9.82918 9.82715 9.50488 10.2595 9.50488 10.7929C9.50488 11.3263 9.82918 11.7587 10.2292 11.7587Z" fill="#FFCE71"/>
<path d="M13.7702 11.7587C14.1703 11.7587 14.4946 11.3263 14.4946 10.7929C14.4946 10.2595 14.1703 9.82715 13.7702 9.82715C13.3702 9.82715 13.0459 10.2595 13.0459 10.7929C13.0459 11.3263 13.3702 11.7587 13.7702 11.7587Z" fill="#FCE3A0"/>
<path d="M17.3122 11.2758C17.7123 11.2758 18.0366 10.8434 18.0366 10.31C18.0366 9.77664 17.7123 9.34424 17.3122 9.34424C16.9122 9.34424 16.5879 9.77664 16.5879 10.31C16.5879 10.8434 16.9122 11.2758 17.3122 11.2758Z" fill="#FCE3A0"/>
<path d="M10.2292 22.4306C10.6293 22.4306 10.9536 21.9982 10.9536 21.4648C10.9536 20.9314 10.6293 20.499 10.2292 20.499C9.82918 20.499 9.50488 20.9314 9.50488 21.4648C9.50488 21.9982 9.82918 22.4306 10.2292 22.4306Z" fill="#FFCE71"/>
<path d="M13.7702 22.4306C14.1703 22.4306 14.4946 21.9982 14.4946 21.4648C14.4946 20.9314 14.1703 20.499 13.7702 20.499C13.3702 20.499 13.0459 20.9314 13.0459 21.4648C13.0459 21.9982 13.3702 22.4306 13.7702 22.4306Z" fill="#FFCE71"/>
<path d="M8.45872 19.5332C8.85877 19.5332 9.18307 19.1008 9.18307 18.5674C9.18307 18.034 8.85877 17.6016 8.45872 17.6016C8.05868 17.6016 7.73438 18.034 7.73438 18.5674C7.73438 19.1008 8.05868 19.5332 8.45872 19.5332Z" fill="#FFCE71"/>
<path d="M11.9997 20.0161C12.3998 20.0161 12.7241 19.5837 12.7241 19.0503C12.7241 18.5169 12.3998 18.0845 11.9997 18.0845C11.5997 18.0845 11.2754 18.5169 11.2754 19.0503C11.2754 19.5837 11.5997 20.0161 11.9997 20.0161Z" fill="#FFCE71"/>
<path d="M15.5408 19.5332C15.9408 19.5332 16.2651 19.1008 16.2651 18.5674C16.2651 18.034 15.9408 17.6016 15.5408 17.6016C15.1407 17.6016 14.8164 18.034 14.8164 18.5674C14.8164 19.1008 15.1407 19.5332 15.5408 19.5332Z" fill="#FCE3A0"/>
<path d="M6.12474 15.2114C6.52478 15.2114 6.84908 14.779 6.84908 14.2456C6.84908 13.7122 6.52478 13.2798 6.12474 13.2798C5.72469 13.2798 5.40039 13.7122 5.40039 14.2456C5.40039 14.779 5.72469 15.2114 6.12474 15.2114Z" fill="#FFCE71"/>
<path d="M11.9997 12.7969C11.5997 12.7969 11.2754 13.2293 11.2754 13.7627C11.2754 14.2961 11.5997 14.7285 11.9997 14.7285C12.3998 14.7285 12.7241 14.2961 12.7241 13.7627C12.7241 13.2293 12.3998 12.7969 11.9997 12.7969Z" fill="#FCE3A0"/>
<path d="M17.8757 15.2114C18.2758 15.2114 18.6001 14.779 18.6001 14.2456C18.6001 13.7122 18.2758 13.2798 17.8757 13.2798C17.4757 13.2798 17.1514 13.7122 17.1514 14.2456C17.1514 14.779 17.4757 15.2114 17.8757 15.2114Z" fill="#FCE3A0"/>
</g>
<defs>
<clipPath id="clip0_239_1862">
<rect width="24" height="24" fill="white"/>
</clipPath>
</defs>
</svg>
