<svg width="24" height="24" viewBox="0 0 24 24" fill="none" xmlns="http://www.w3.org/2000/svg">
<path d="M13.3378 0C11.3061 0 9.6591 1.64702 9.6591 3.67871V4.17489C9.6591 2.95586 8.6709 1.96766 7.45188 1.96766C7.07073 1.96766 6.76172 2.27667 6.76172 2.65782V2.71195C6.76172 3.93098 7.74992 4.91918 8.96895 4.91918H9.6591H10.8094C12.8411 4.91918 14.4881 3.27216 14.4881 1.24047V1.15026C14.488 0.51501 13.9731 0 13.3378 0V0Z" fill="#00CE8E"/>
<path d="M11.6245 2.9537C11.483 2.81231 11.2537 2.81231 11.1123 2.9537L9.65879 4.40717L8.91223 3.66057C8.77075 3.51917 8.54147 3.51917 8.40003 3.66057C8.25859 3.80205 8.25859 4.03133 8.40003 4.17277L9.29662 5.06937V6.55771H10.021V5.06937L11.6244 3.46591C11.7659 3.32447 11.7659 3.09519 11.6245 2.9537V2.9537Z" fill="#009D6B"/>
<path d="M10.5136 6.19336C10.1869 6.19336 9.88859 6.31288 9.65839 6.50975C9.42814 6.31292 9.12981 6.19336 8.80313 6.19336C8.07535 6.19336 7.48535 6.78336 7.48535 7.51114C7.48535 8.23891 8.07535 8.82892 8.80313 8.82892H10.5136C11.2414 8.82892 11.8314 8.23891 11.8314 7.51114C11.8314 6.78336 11.2414 6.19336 10.5136 6.19336V6.19336Z" fill="#F58133"/>
<path d="M12.7228 7.30469C12.2719 7.30469 11.8316 7.3496 11.4061 7.43497C11.266 7.46308 10.6397 7.76185 10.503 7.79859C9.63491 8.03188 9.20963 7.77257 8.34215 7.53711C8.33017 7.53387 8.3182 7.53063 8.30622 7.52745C7.75987 7.38248 7.18566 7.30469 6.59305 7.30469C2.95181 7.30469 0 10.2234 0 13.8238C0 17.4242 2.95181 20.3429 6.59305 20.3429C7.04373 20.3429 7.48365 20.2977 7.90889 20.2124C8.0428 20.1855 8.17536 20.1549 8.30622 20.1202C8.3182 20.117 8.33017 20.1138 8.34215 20.1105C9.20963 19.875 10.1227 19.882 10.9908 20.1153C11.5427 20.2637 12.1234 20.3429 12.7229 20.3429C16.3596 20.3429 19.3159 17.4273 19.3159 13.8238C19.3159 10.2207 16.3601 7.30469 12.7228 7.30469V7.30469Z" fill="#F9973E"/>
<path d="M6.62622 13.0304C7.30228 10.5673 9.05375 8.49532 11.4061 7.43497C11.266 7.46308 11.1275 7.49553 10.9908 7.53228C10.1227 7.76556 9.20963 7.77262 8.3421 7.53711C8.33012 7.53387 8.31815 7.53063 8.30617 7.52745C7.75982 7.38248 7.18561 7.30469 6.593 7.30469C2.95181 7.30469 0 10.2234 0 13.8238C0 17.4242 2.95181 20.3429 6.59305 20.3429C7.04373 20.3429 7.48365 20.2977 7.90889 20.2124C6.42027 18.1257 5.95021 15.4935 6.62622 13.0304Z" fill="#F58133"/>
<path d="M23.6274 14.0224C23.2828 13.0734 22.3906 12.4335 21.381 12.4112C20.3725 12.3896 19.4518 12.9889 19.0656 13.9217C18.7816 14.6075 18.3938 15.9938 17.1962 17.1897C15.9591 18.4224 14.5303 18.8108 13.9164 19.0665C12.9862 19.454 12.3886 20.3719 12.4108 21.3791C12.4329 22.3864 13.0704 23.2771 14.0168 23.6232C16.5174 24.5378 19.594 23.7507 21.672 21.6682C23.748 19.5904 24.5338 16.5177 23.6274 14.0224V14.0224Z" fill="#FFB357"/>
<path d="M15.8866 19.3887C15.6866 19.3887 15.5244 19.5508 15.5244 19.7508V22.6482C15.5244 22.8482 15.6866 23.0104 15.8866 23.0104C16.0866 23.0104 16.2488 22.8482 16.2488 22.6482V19.7508C16.2488 19.5508 16.0866 19.3887 15.8866 19.3887Z" fill="#F9973E"/>
<path d="M22.6473 15.5254H19.7499C19.5499 15.5254 19.3877 15.6875 19.3877 15.8876C19.3877 16.0876 19.5499 16.2497 19.7499 16.2497H22.6473C22.8473 16.2497 23.0094 16.0876 23.0094 15.8876C23.0094 15.6875 22.8473 15.5254 22.6473 15.5254Z" fill="#F9973E"/>
<path d="M18.5333 18.0221C18.3918 17.8807 18.1625 17.8807 18.0211 18.0221C17.8797 18.1635 17.8797 18.3929 18.0211 18.5343L20.4119 20.925C20.4826 20.9957 20.5753 21.0311 20.668 21.0311C20.7606 21.0311 20.8534 20.9958 20.9241 20.925C21.0655 20.7836 21.0655 20.5543 20.9241 20.4129L18.5333 18.0221Z" fill="#F9973E"/>
<path d="M5.81598 14.8608C6.59887 14.8608 7.23353 14.3554 7.23353 13.7319C7.23353 13.1084 6.59887 12.603 5.81598 12.603C5.03309 12.603 4.39844 13.1084 4.39844 13.7319C4.39844 14.3554 5.03309 14.8608 5.81598 14.8608Z" fill="#FF8E9E"/>
<path d="M13.4996 14.8608C14.2825 14.8608 14.9171 14.3554 14.9171 13.7319C14.9171 13.1084 14.2825 12.603 13.4996 12.603C12.7167 12.603 12.082 13.1084 12.082 13.7319C12.082 14.3554 12.7167 14.8608 13.4996 14.8608Z" fill="#FF8E9E"/>
<path d="M6.64245 11.7031C6.44243 11.7031 6.28027 11.8653 6.28027 12.0653V12.6448C6.28027 12.8448 6.44243 13.0069 6.64245 13.0069C6.84246 13.0069 7.00462 12.8448 7.00462 12.6448V12.0653C7.00462 11.8653 6.84246 11.7031 6.64245 11.7031Z" fill="#313D40"/>
<path d="M12.6737 11.7031C12.4737 11.7031 12.3115 11.8653 12.3115 12.0653V12.6448C12.3115 12.8448 12.4737 13.0069 12.6737 13.0069C12.8737 13.0069 13.0359 12.8448 13.0359 12.6448V12.0653C13.0359 11.8653 12.8737 11.7031 12.6737 11.7031Z" fill="#313D40"/>
<path d="M10.6913 12.3543C10.5406 12.2229 10.3118 12.2385 10.1803 12.3894C10.0485 12.5406 9.85823 12.6274 9.65827 12.6274C9.4583 12.6274 9.26804 12.5406 9.13621 12.3894C9.00476 12.2386 8.77601 12.2229 8.62521 12.3543C8.4744 12.4858 8.4587 12.7145 8.59015 12.8653C8.85956 13.1744 9.24887 13.3517 9.65822 13.3517C10.0676 13.3517 10.4569 13.1745 10.7263 12.8653C10.8578 12.7145 10.8421 12.4857 10.6913 12.3543Z" fill="#313D40"/>
<path d="M9.91198 16.8181C10.112 16.8181 10.2742 16.6559 10.2742 16.4559C10.2742 16.2559 10.112 16.0938 9.91198 16.0938C9.71196 16.0938 9.5498 16.2559 9.5498 16.4559C9.5498 16.6559 9.71196 16.8181 9.91198 16.8181Z" fill="#FFB357"/>
<path d="M16.1893 15.0315C16.3893 15.0315 16.5515 14.8693 16.5515 14.6693C16.5515 14.4693 16.3893 14.3071 16.1893 14.3071C15.9893 14.3071 15.8271 14.4693 15.8271 14.6693C15.8271 14.8693 15.9893 15.0315 16.1893 15.0315Z" fill="#FFB357"/>
<path d="M12.8094 17.9289C13.0095 17.9289 13.1716 17.7668 13.1716 17.5668C13.1716 17.3667 13.0095 17.2046 12.8094 17.2046C12.6094 17.2046 12.4473 17.3667 12.4473 17.5668C12.4473 17.7668 12.6094 17.9289 12.8094 17.9289Z" fill="#FFB357"/>
<path d="M6.48327 18.8948C6.68329 18.8948 6.84544 18.7326 6.84544 18.5326C6.84544 18.3326 6.68329 18.1704 6.48327 18.1704C6.28324 18.1704 6.12109 18.3326 6.12109 18.5326C6.12109 18.7326 6.28324 18.8948 6.48327 18.8948Z" fill="#F9973E"/>
<path d="M2.61999 16.4802C2.82001 16.4802 2.98216 16.3181 2.98216 16.118C2.98216 15.918 2.82001 15.7559 2.61999 15.7559C2.41996 15.7559 2.25781 15.918 2.25781 16.118C2.25781 16.3181 2.41996 16.4802 2.61999 16.4802Z" fill="#F9973E"/>
<path d="M5.51745 15.9973C5.71747 15.9973 5.87962 15.8351 5.87962 15.6351C5.87962 15.4351 5.71747 15.2729 5.51745 15.2729C5.31742 15.2729 5.15527 15.4351 5.15527 15.6351C5.15527 15.8351 5.31742 15.9973 5.51745 15.9973Z" fill="#F9973E"/>
<path d="M2.61999 12.6169C2.82001 12.6169 2.98216 12.4548 2.98216 12.2548C2.98216 12.0547 2.82001 11.8926 2.61999 11.8926C2.41996 11.8926 2.25781 12.0547 2.25781 12.2548C2.25781 12.4548 2.41996 12.6169 2.61999 12.6169Z" fill="#F9973E"/>
<path d="M15.1756 11.6511C15.3757 11.6511 15.5378 11.489 15.5378 11.2889C15.5378 11.0889 15.3757 10.9268 15.1756 10.9268C14.9756 10.9268 14.8135 11.0889 14.8135 11.2889C14.8135 11.489 14.9756 11.6511 15.1756 11.6511Z" fill="#FFB357"/>
</svg>
