<svg width="24" height="24" viewBox="0 0 24 24" fill="none" xmlns="http://www.w3.org/2000/svg">
<g clip-path="url(#clip0_184_1284)">
<path d="M23.0698 8.43996L21.6323 7.09705C21.0882 6.58874 20.2434 6.58874 19.6992 7.09705L18.2618 8.43996C17.9751 8.70769 17.8125 9.08232 17.8125 9.47455V13.1953C17.8125 13.9773 18.4464 14.6111 19.2283 14.6111H22.1032C22.8852 14.6111 23.519 13.9772 23.519 13.1953V9.47455C23.519 9.08237 23.3563 8.70769 23.0698 8.43996V8.43996ZM20.6658 10.6371C20.1508 10.6371 19.7332 10.2195 19.7332 9.70451C19.7332 9.1895 20.1508 8.77196 20.6658 8.77196C21.1808 8.77196 21.5983 9.1895 21.5983 9.70451C21.5983 10.2196 21.1808 10.6371 20.6658 10.6371Z" fill="#BCE098"/>
<path d="M11.5652 23.9997H14.0206C15.0615 23.9997 15.9055 23.1236 15.9055 22.0428V11.9165C15.9055 11.49 15.7713 11.0752 15.5233 10.7352L12.615 6.74729C12.2587 6.25873 11.7025 5.97168 11.1122 5.97168H9.14432L5.79336 7.28305L2.60742 14.6107L7.10962 23.5046L11.5652 23.9997Z" fill="#BCE098"/>
<path d="M6.91861 13.5622C6.91861 10.7659 7.7358 8.16065 9.14402 5.97168H5.27371C4.68344 5.97168 4.12728 6.25873 3.77097 6.74734L0.862613 10.7353C0.614669 11.0753 0.480469 11.4901 0.480469 11.9165V22.0429C0.480469 23.1237 1.32435 23.9998 2.36536 23.9998H11.5648C8.71226 21.4285 6.91861 17.705 6.91861 13.5622V13.5622Z" fill="#A5D476"/>
<path d="M6.95702 14.6113H11.8031C12.7557 14.6113 13.5279 15.3836 13.5279 16.3361V19.8554C13.5279 20.808 12.7557 21.5802 11.8031 21.5802H9.43028L7.20963 21.0939L5.5293 15.6576L6.95702 14.6113Z" fill="#FFFDDE"/>
<path d="M6.95764 14.6113H4.58223C3.62966 14.6113 2.85742 15.3836 2.85742 16.3361V19.8554C2.85742 20.808 3.62966 21.5802 4.58223 21.5802H9.4309C8.03514 19.5756 7.14797 17.1906 6.95764 14.6113Z" fill="#FBF6B2"/>
<path d="M8.39589 19.5731C7.93658 19.0304 8.28562 18.0584 9.09743 17.6352C9.10362 17.632 9.1098 17.6288 9.11599 17.6256C9.67814 17.3304 10.3853 17.2247 11.0535 17.4082C11.17 17.4403 11.2556 17.5413 11.2679 17.6616C11.3385 18.3508 11.1174 19.0308 10.7332 19.5365C10.7291 19.5421 10.7249 19.5476 10.7207 19.5532C10.1693 20.2839 9.15285 20.4674 8.69355 19.9248L8.39589 19.5731Z" fill="#BCE098"/>
<path d="M8.04953 19.9725C7.34123 20.5719 6.07254 20.1164 5.52033 19.0568C5.51614 19.0488 5.51195 19.0407 5.50782 19.0326C5.12244 18.2989 4.98443 17.3759 5.22405 16.5039C5.26587 16.3518 5.39773 16.2402 5.55467 16.2241C6.45431 16.1319 7.34181 16.4206 8.00172 16.9219C8.009 16.9273 8.01628 16.9327 8.02351 16.9382C8.97723 17.6579 9.2168 18.9845 8.50851 19.5839L8.04953 19.9725Z" fill="#8EC853"/>
<path d="M4.68053 13.5872C5.39616 13.5872 5.97629 13.1252 5.97629 12.5553C5.97629 11.9854 5.39616 11.5234 4.68053 11.5234C3.9649 11.5234 3.38477 11.9854 3.38477 12.5553C3.38477 13.1252 3.9649 13.5872 4.68053 13.5872Z" fill="white"/>
<path d="M11.704 13.5872C12.4196 13.5872 12.9997 13.1252 12.9997 12.5553C12.9997 11.9854 12.4196 11.5234 11.704 11.5234C10.9883 11.5234 10.4082 11.9854 10.4082 12.5553C10.4082 13.1252 10.9883 13.5872 11.704 13.5872Z" fill="white"/>
<path d="M14.429 0C10.7932 0 7.83532 2.95792 7.83532 6.59365V8.41508H6.87632C6.67928 8.41508 6.51953 8.57478 6.51953 8.77187C6.51953 8.96896 6.67928 9.12866 6.87632 9.12866H9.50785C9.70489 9.12866 9.86464 8.96896 9.86464 8.77187C9.86464 8.57478 9.70489 8.41508 9.50785 8.41508H8.54885V6.59365C8.54895 3.35134 11.1867 0.713578 14.429 0.713578C17.6712 0.713578 20.309 3.35134 20.309 6.59365V8.77187C20.309 8.96896 20.4688 9.12866 20.6658 9.12866C20.8629 9.12866 21.0226 8.96896 21.0226 8.77187V6.59365C21.0226 2.95792 18.0647 0 14.429 0V0Z" fill="#CB8A5A"/>
<path d="M5.43687 11.9191C5.23982 11.9191 5.08008 11.7594 5.08008 11.5623V11.0326C5.08008 10.8355 5.23982 10.6758 5.43687 10.6758C5.63391 10.6758 5.79366 10.8355 5.79366 11.0326V11.5623C5.79366 11.7593 5.63396 11.9191 5.43687 11.9191Z" fill="#4F5C6F"/>
<path d="M10.9505 11.9191C10.7535 11.9191 10.5938 11.7594 10.5938 11.5623V11.0326C10.5938 10.8355 10.7535 10.6758 10.9505 10.6758C11.1476 10.6758 11.3073 10.8355 11.3073 11.0326V11.5623C11.3073 11.7593 11.1476 11.9191 10.9505 11.9191Z" fill="#4F5C6F"/>
<path d="M8.19291 12.2341C7.81124 12.2341 7.44831 12.0688 7.19718 11.7806C7.06774 11.6321 7.0832 11.4067 7.23176 11.2773C7.38033 11.1478 7.60568 11.1633 7.73517 11.3119C7.85077 11.4445 8.0176 11.5206 8.19295 11.5206C8.3683 11.5206 8.53514 11.4445 8.65074 11.3118C8.78023 11.1633 9.00558 11.1479 9.15414 11.2773C9.30271 11.4067 9.31817 11.6321 9.18873 11.7807C8.9375 12.0688 8.57453 12.2341 8.19291 12.2341V12.2341Z" fill="#4F5C6F"/>
</g>
<defs>
<clipPath id="clip0_184_1284">
<rect width="24" height="24" fill="white"/>
</clipPath>
</defs>
</svg>
