<svg width="24" height="24" viewBox="0 0 24 24" fill="none" xmlns="http://www.w3.org/2000/svg">
<g clip-path="url(#clip0_193_1177)">
<path d="M12.8935 5.45298C12.7238 5.45298 12.5527 5.40142 12.4049 5.29427C12.0322 5.02408 11.9491 4.50288 12.2193 4.13022C12.3035 4.01397 12.3873 3.90086 12.4703 3.78883C13.0224 3.04356 13.4992 2.39997 13.8766 1.10542C14.0055 0.663438 14.4684 0.409469 14.9101 0.538469C15.3521 0.667282 15.6059 1.13003 15.4771 1.57197C15.0162 3.15278 14.403 3.98059 13.8099 4.78117C13.7302 4.8887 13.6499 4.99713 13.569 5.10864C13.4059 5.33355 13.1515 5.45298 12.8935 5.45298Z" fill="#6BB48C"/>
<path opacity="0.1" d="M13.8686 3.56598C13.7427 3.61 13.6071 3.53092 13.5834 3.39972C13.5301 3.10337 13.4325 2.79991 13.3168 2.51172C13.0606 2.99228 12.7772 3.37539 12.4703 3.78958C12.3873 3.90166 12.3036 4.01472 12.2193 4.13097C11.9491 4.50363 12.0322 5.02488 12.4049 5.29502C12.5527 5.40217 12.7238 5.45373 12.8935 5.45373C13.1515 5.45373 13.406 5.3343 13.569 5.10934C13.6499 4.99783 13.7302 4.88936 13.8099 4.78187C14.1294 4.35062 14.4547 3.91122 14.7589 3.35069C14.4419 3.40136 14.1396 3.4712 13.8686 3.56598Z" fill="black"/>
<path d="M6.41929 4.03279C6.17488 4.05468 6.06412 4.34943 6.23441 4.52611C6.69154 5.00043 7.52202 5.76853 8.56645 6.32376C10.1833 7.18331 11.9991 6.56826 11.9991 6.56826C11.9991 6.56826 13.8149 7.18331 15.4319 6.32376C16.4762 5.76853 17.3067 5.00039 17.7639 4.52611C17.9342 4.34943 17.8234 4.05468 17.579 4.03279C16.617 3.94659 14.6596 3.84632 13.3884 4.29098C13.2625 4.335 13.1269 4.25592 13.1032 4.12471C12.9658 3.36061 12.5351 2.5477 12.2541 2.07736C12.1387 1.88437 11.8596 1.88437 11.7442 2.07736C11.4632 2.5477 11.0325 3.36061 10.8951 4.12471C10.8714 4.25592 10.7358 4.335 10.6099 4.29098C9.33866 3.84637 7.38131 3.94659 6.41929 4.03279Z" fill="#6BB48C"/>
<path d="M6.41929 4.03279C6.17488 4.05468 6.06412 4.34943 6.23441 4.52611C6.69154 5.00043 7.52202 5.76853 8.56645 6.32376C10.1833 7.18331 11.9991 6.56826 11.9991 6.56826C11.9991 6.56826 13.8149 7.18331 15.4319 6.32376C16.4762 5.76853 17.3067 5.00039 17.7639 4.52611C17.9342 4.34943 17.8234 4.05468 17.579 4.03279C16.617 3.94659 14.6596 3.84632 13.3884 4.29098C13.2625 4.335 13.1269 4.25592 13.1032 4.12471C12.9658 3.36061 12.5351 2.5477 12.2541 2.07736C12.1387 1.88437 11.8596 1.88437 11.7442 2.07736C11.4632 2.5477 11.0325 3.36061 10.8951 4.12471C10.8714 4.25592 10.7358 4.335 10.6099 4.29098C9.33866 3.84637 7.38131 3.94659 6.41929 4.03279Z" fill="#8CD4A2"/>
<path opacity="0.1" d="M16.9803 5.25968C16.4059 5.13879 15.8113 5.07419 15.2026 5.07213C14.6308 5.07016 14.0717 5.12271 13.53 5.22471C12.5171 5.41549 11.4605 5.50404 10.4684 5.22476C9.80431 5.03782 9.10775 4.55341 9.29314 4.01922C8.2302 3.90649 7.08584 3.97282 6.41928 4.03258C6.17492 4.05447 6.06411 4.34922 6.2344 4.5259C6.69153 5.00022 7.52201 5.76836 8.56644 6.32355C10.1833 7.1831 11.9991 6.56805 11.9991 6.56805C11.9991 6.56805 13.8149 7.1831 15.4318 6.32355C16.0276 6.00677 16.5534 5.6209 16.9803 5.25968Z" fill="black"/>
<path d="M15.2035 5.8399C14.6317 5.83793 14.0725 5.89048 13.5309 5.99248C12.5187 6.18312 11.4815 6.18317 10.4694 5.99252C9.92753 5.89048 9.36822 5.83788 8.79621 5.8399C3.91741 5.85687 -0.00968518 9.80651 1.79423e-05 14.6854C0.00972107 19.5524 3.95819 23.4949 8.82752 23.4949C9.32308 23.4949 9.80903 23.454 10.2823 23.3754C11.419 23.1866 12.5809 23.1866 13.7177 23.3754C14.191 23.454 14.6769 23.4949 15.1725 23.4949C20.0419 23.4949 23.9905 19.5522 24 14.6848C24.0094 9.80609 20.0822 5.85668 15.2035 5.8399Z" fill="#EA5E57"/>
<path d="M6.85547 15.6533C7.90395 15.6533 8.75391 14.9765 8.75391 14.1416C8.75391 13.3067 7.90395 12.6299 6.85547 12.6299C5.80699 12.6299 4.95703 13.3067 4.95703 14.1416C4.95703 14.9765 5.80699 15.6533 6.85547 15.6533Z" fill="#F298B8"/>
<path d="M17.1445 15.6533C18.193 15.6533 19.043 14.9765 19.043 14.1416C19.043 13.3067 18.193 12.6299 17.1445 12.6299C16.0961 12.6299 15.2461 13.3067 15.2461 14.1416C15.2461 14.9765 16.0961 15.6533 17.1445 15.6533Z" fill="#F298B8"/>
<path d="M8.86581 12.8479C8.67161 12.8479 8.51425 12.6905 8.51425 12.4964C8.51425 12.192 8.26661 11.9443 7.9622 11.9443C7.6578 11.9443 7.41016 12.192 7.41016 12.4964C7.41016 12.6905 7.2528 12.8479 7.05859 12.8479C6.86439 12.8479 6.70703 12.6905 6.70703 12.4964C6.70703 11.8043 7.27014 11.2412 7.9622 11.2412C8.65431 11.2412 9.21738 11.8043 9.21738 12.4964C9.21738 12.6905 9.06002 12.8479 8.86581 12.8479Z" fill="#495059"/>
<path d="M16.9439 12.8479C16.7497 12.8479 16.5924 12.6905 16.5924 12.4964C16.5924 12.192 16.3447 11.9443 16.0403 11.9443C15.7359 11.9443 15.4883 12.192 15.4883 12.4964C15.4883 12.6905 15.3309 12.8479 15.1367 12.8479C14.9425 12.8479 14.7852 12.6905 14.7852 12.4964C14.7852 11.8043 15.3483 11.2412 16.0403 11.2412C16.7324 11.2412 17.2955 11.8043 17.2955 12.4964C17.2955 12.6905 17.1381 12.8479 16.9439 12.8479Z" fill="#495059"/>
<path d="M12.0015 14.341C11.5325 14.341 11.0866 14.1379 10.7779 13.7837C10.6503 13.6373 10.6657 13.4153 10.812 13.2877C10.9583 13.1601 11.1804 13.1754 11.308 13.3218C11.4831 13.5226 11.7359 13.6378 12.0015 13.6378C12.2671 13.6378 12.5199 13.5226 12.695 13.3218C12.8226 13.1754 13.0445 13.1602 13.191 13.2877C13.3374 13.4153 13.3526 13.6373 13.225 13.7837C12.9165 14.1379 12.4705 14.341 12.0015 14.341Z" fill="#495059"/>
<path opacity="0.1" d="M10.4693 5.99252C9.92746 5.89048 9.36815 5.83793 8.79613 5.8399C3.91949 5.85691 -0.049226 9.88273 0.000461526 14.7591C0.0496803 19.5921 3.98282 23.4949 8.82749 23.4949C9.32306 23.4949 9.80906 23.4539 10.2823 23.3753C11.419 23.1865 12.5809 23.1865 13.7177 23.3753C14.1909 23.4539 14.6769 23.4949 15.1725 23.4949C17.2561 23.4949 19.1708 22.7725 20.6807 21.5651C-0.620726 22.1985 6.15327 8.01485 10.4693 5.99252Z" fill="black"/>
</g>
<defs>
<clipPath id="clip0_193_1177">
<rect width="24" height="24" fill="white"/>
</clipPath>
</defs>
</svg>
