<svg width="24" height="24" viewBox="0 0 24 24" fill="none" xmlns="http://www.w3.org/2000/svg">
<path d="M24.0008 13.4888C24.0008 19.159 19.4041 23.7557 13.7339 23.7557C8.06348 23.7557 3.4668 19.159 3.4668 13.4888C3.4668 7.81836 8.06348 3.22168 13.7339 3.22168C19.4041 3.22168 24.0008 7.81836 24.0008 13.4888V13.4888Z" fill="#FAB659"/>
<path d="M21.9833 10.5477C21.9833 9.15338 21.7409 7.79639 21.2767 6.52435C19.401 4.49371 16.7161 3.22168 13.7339 3.22168C8.06366 3.22168 3.4668 7.81854 3.4668 13.4888C3.4668 17.0703 5.30133 20.2232 8.0816 22.0603C8.79517 22.1942 9.52612 22.2634 10.2677 22.2634C13.397 22.2634 16.3391 21.0448 18.5519 18.832C20.7648 16.6191 21.9833 13.677 21.9833 10.5477V10.5477Z" fill="#F59E18"/>
<path d="M0.00732422 10.1565C0.00256348 10.2867 0 10.4169 0 10.5482C0 16.2184 4.59668 20.8152 10.2669 20.8152C15.9371 20.8152 20.534 16.2184 20.534 10.5482C20.534 4.87793 15.9371 0.28125 10.2669 0.28125C9.42151 0.28125 8.59955 0.383606 7.81348 0.576416V0.576965L4.41504 5.57593L0.00732422 10.1565Z" fill="#FBE29F"/>
<path d="M10.2715 4.06171C10.2715 2.75085 9.9505 1.47021 9.33984 0.323242C8.81891 0.369934 8.30896 0.455261 7.81329 0.576843V0.577393L4.41504 5.57635L0.00732422 10.1569C0.00256348 10.2871 0 10.4173 0 10.5486C0 10.9388 0.022522 11.3237 0.0648193 11.7025C0.791016 11.9158 1.5434 12.024 2.30914 12.024C6.69965 12.024 10.2715 8.45221 10.2715 4.06171Z" fill="#FAB659"/>
<path d="M8.82324 4.06146C8.82324 7.65894 5.9071 10.5751 2.30963 10.5751C1.49939 10.5751 0.723755 10.4271 0.0078125 10.1567C0.0078125 10.1567 0.0078125 10.1567 0.0078125 10.1561L7.81378 0.577148C8.453 1.58496 8.82324 2.78009 8.82324 4.06146Z" fill="#FBE29F"/>
<path d="M5.71765 13.0976C5.5177 13.0976 5.35547 12.9355 5.35547 12.7354V11.912C5.35547 11.712 5.5177 11.5498 5.71765 11.5498C5.91779 11.5498 6.07983 11.712 6.07983 11.912V12.7354C6.07983 12.9355 5.91779 13.0976 5.71765 13.0976Z" fill="#423E4F"/>
<path d="M14.8173 13.0976C14.6173 13.0976 14.4551 12.9355 14.4551 12.7354V11.912C14.4551 11.712 14.6173 11.5498 14.8173 11.5498C15.0174 11.5498 15.1794 11.712 15.1794 11.912V12.7354C15.1794 12.9355 15.0174 13.0976 14.8173 13.0976Z" fill="#423E4F"/>
<path d="M10.2664 13.5377C9.72421 13.5377 9.21555 13.3114 8.87076 12.9169C8.73911 12.7664 8.75449 12.5376 8.905 12.4059C9.0557 12.2742 9.28458 12.2896 9.41605 12.4403C9.62332 12.6773 9.93332 12.8133 10.2664 12.8133C10.5996 12.8133 10.9095 12.6774 11.1167 12.4403C11.2484 12.2896 11.4773 12.2742 11.6278 12.4059C11.7783 12.5376 11.7939 12.7664 11.6622 12.9169C11.3174 13.3114 10.8086 13.5377 10.2664 13.5377Z" fill="#423E4F"/>
<path d="M16.2808 5.70789C16.2808 6.25885 15.834 6.70563 15.2829 6.70563C14.7319 6.70563 14.2852 6.25885 14.2852 5.70789C14.2852 5.15674 14.7319 4.70996 15.2829 4.70996C15.834 4.70996 16.2808 5.15674 16.2808 5.70789Z" fill="#FAB659"/>
<path d="M6.12848 15.569C6.12848 16.1202 5.6817 16.567 5.13055 16.567C4.57959 16.567 4.13281 16.1202 4.13281 15.569C4.13281 15.0181 4.57959 14.5713 5.13055 14.5713C5.6817 14.5713 6.12848 15.0181 6.12848 15.569Z" fill="#FAB659"/>
<path d="M13.7848 17.1658C13.7848 17.5862 13.4438 17.9272 13.0233 17.9272C12.6027 17.9272 12.2617 17.5862 12.2617 17.1658C12.2617 16.7452 12.6027 16.4043 13.0233 16.4043C13.4438 16.4043 13.7848 16.7452 13.7848 17.1658V17.1658Z" fill="#FAB659"/>
<path d="M22.7067 14.2506C22.7067 14.6712 22.3657 15.0121 21.9451 15.0121C21.5245 15.0121 21.1836 14.6712 21.1836 14.2506C21.1836 13.8302 21.5245 13.4893 21.9451 13.4893C22.3657 13.4893 22.7067 13.8302 22.7067 14.2506V14.2506Z" fill="#FBE29F"/>
<path d="M18.0035 20.8152C18.0035 21.2357 17.6626 21.5766 17.242 21.5766C16.8214 21.5766 16.4805 21.2357 16.4805 20.8152C16.4805 20.3947 16.8214 20.0537 17.242 20.0537C17.6626 20.0537 18.0035 20.3947 18.0035 20.8152V20.8152Z" fill="#FBE29F"/>
</svg>
