<svg width="24" height="24" viewBox="0 0 24 24" fill="none" xmlns="http://www.w3.org/2000/svg">
<g clip-path="url(#clip0_127_1646)">
<path d="M20.3554 11.9976C20.3554 12.3161 20.3448 12.6312 20.3239 12.9434C18.9671 18.1992 16.2729 22.3472 11.1098 23.9453C10.2056 24.0416 9.33394 23.9949 8.51147 23.8343C3.68771 22.8944 0.00891113 17.9523 0.00891113 11.9976C0.00891113 6.04296 3.68771 1.10088 8.51147 0.160946C9.03549 0.0586647 9.57357 0.00386781 10.1218 0.000492814C10.1472 -0.000116561 10.205 -0.000210311 10.2275 0.000492814C10.7753 0.00293031 11.3128 0.0567428 11.8368 0.15804C16.6684 1.08973 20.3554 6.03612 20.3554 11.9976Z" fill="#AACF8A"/>
<path d="M20.324 12.9431L8.85333 16.7555C7.35423 17.2532 6.68068 18.9987 7.46368 20.3678C8.34427 21.9071 9.6196 23.1272 11.1095 23.9451C16.0297 23.4206 19.9391 18.7656 20.324 12.9431Z" fill="#94C368"/>
<path d="M14.9259 14.7374C15.1406 13.8579 15.5079 12.951 15.5079 11.9977C15.5079 10.8217 14.949 9.71639 14.8069 8.64609C14.6484 7.44731 14.8796 6.23302 14.5714 5.23247C14.1937 4.00702 13.2809 3.15239 12.7293 2.3385C11.9348 1.16583 11.1912 0 10.1756 0C9.1601 0 8.41648 1.16583 7.62199 2.33845C7.07037 3.15234 6.15757 4.00697 5.77995 5.23242C5.47165 6.23344 5.70288 7.44727 5.54435 8.64605C5.40232 9.71639 4.84338 10.8216 4.84338 11.9976C4.84338 13.1736 5.40232 14.2789 5.54435 15.3492C5.70288 16.548 5.47165 17.7623 5.77995 18.7628C6.15757 19.9883 7.07037 20.8429 7.62199 21.6568C8.41652 22.8294 9.1601 23.9952 10.1756 23.9952C10.4204 23.9952 10.6492 23.9266 10.867 23.8073C12.8358 21.865 13.9803 18.4758 14.9259 14.7374Z" fill="#94C368"/>
<path d="M11.7486 23.0238C12.9814 21.3567 14.0039 19.0656 14.755 15.9687C14.7761 15.4712 14.8268 15.1429 14.9258 14.7373L8.85333 16.7555C7.35423 17.2532 6.68068 18.9988 7.46368 20.3679C8.29608 21.8229 9.48123 22.9928 10.8669 23.8074C11.1796 23.6361 11.4691 23.3595 11.7486 23.0238Z" fill="#82AD4B"/>
<path d="M23.9295 14.6638C23.8233 13.7961 22.9421 13.2479 22.1127 13.5237L21.0932 13.8626L14.8287 17.381C12.1874 19.2725 13.2538 23.9452 17.6064 23.7679C21.8169 22.7515 24.4317 18.7601 23.9295 14.6638Z" fill="#AACF8A"/>
<path d="M14.8287 17.3809L10.2241 17.4748L9.2047 17.8137C8.3753 18.089 7.99767 19.0557 8.43155 19.8143C10.2519 22.9963 13.9927 24.6402 17.6064 23.7678C15.7615 22.23 14.6897 19.8982 14.8287 17.3809Z" fill="#94C368"/>
<path d="M21.0932 13.8625C20.7381 13.9806 17.7984 14.9575 15.0635 15.8665C12.3651 17.1845 11.9935 20.6905 15.6929 21.3966C16.2804 21.393 16.8772 21.2986 17.4648 21.1033C20.4664 20.1057 22.0908 16.8641 21.0932 13.8625Z" fill="#FF8B98"/>
<path d="M15.0636 15.8665C12.6729 16.661 10.4387 17.4035 10.2241 17.4749C11.0264 19.8884 13.28 21.4114 15.6929 21.3965C14.7775 19.6443 14.599 17.6598 15.0636 15.8665Z" fill="#F95B5C"/>
<path d="M18.8755 17.4779C19.0306 17.8482 18.8561 18.2743 18.4853 18.4294C18.1149 18.5845 17.6888 18.41 17.5342 18.0397C17.3791 17.6689 17.413 16.9078 17.7833 16.7527C18.1542 16.5975 18.7204 17.1075 18.8755 17.4779Z" fill="#77728C"/>
<path d="M15.6035 18.5685C15.4871 18.2908 15.1396 17.9345 14.8167 17.8391C14.175 18.1742 14.2112 19.3053 15.0165 19.5712C15.5011 19.5145 15.7889 19.0113 15.6035 18.5685Z" fill="#77728C"/>
<path d="M14.5112 17.8432C14.1409 17.9984 14.1069 18.7594 14.2621 19.1302C14.3898 19.4361 14.7027 19.6078 15.0164 19.5711C14.8874 19.0144 14.8185 18.4346 14.8166 17.839C14.709 17.8073 14.604 17.8045 14.5112 17.8432Z" fill="#5C576E"/>
<path d="M7.14835 12.2158C6.94759 12.2158 6.78479 12.0531 6.78479 11.8523V11.2705C6.78479 11.0698 6.94759 10.907 7.14835 10.907C7.34912 10.907 7.51192 11.0698 7.51192 11.2705V11.8523C7.51192 12.0531 7.34912 12.2158 7.14835 12.2158Z" fill="white"/>
<path d="M13.2029 12.2158C13.0022 12.2158 12.8394 12.0531 12.8394 11.8523V11.2705C12.8394 11.0698 13.0022 10.907 13.2029 10.907C13.4037 10.907 13.5665 11.0698 13.5665 11.2705V11.8523C13.5665 12.0531 13.4037 12.2158 13.2029 12.2158Z" fill="white"/>
<path d="M10.1757 12.5619C10.1756 12.5619 10.1757 12.5619 10.1757 12.5619C9.76419 12.5619 9.37339 12.3838 9.10339 12.0733C8.97162 11.9218 8.98765 11.6922 9.13915 11.5604C9.29061 11.4287 9.5203 11.4447 9.65206 11.5962C9.92862 11.9143 10.4229 11.9139 10.6992 11.5962C10.831 11.4447 11.0606 11.4287 11.2121 11.5604C11.3636 11.6922 11.3796 11.9218 11.2478 12.0733C10.9779 12.3837 10.587 12.5619 10.1757 12.5619Z" fill="white"/>
</g>
<defs>
<clipPath id="clip0_127_1646">
<rect width="24" height="24" fill="white"/>
</clipPath>
</defs>
</svg>
