<svg width="24" height="24" viewBox="0 0 24 24" fill="none" xmlns="http://www.w3.org/2000/svg">
<path d="M10.332 1.9082H14.5443V4.59426H10.332V1.9082Z" fill="#95CBEC"/>
<path d="M14.5401 2.49464H10.3349C9.94176 2.49464 9.62305 2.20073 9.62305 1.83811V1.61406C9.6231 0.722667 10.4066 0 11.373 0H13.5019C14.4684 0 15.2519 0.722667 15.2519 1.61411V1.83816C15.2519 2.20073 14.9332 2.49464 14.5401 2.49464Z" fill="#8E9CAF"/>
<path d="M15.6976 13.4355H8.87109V15.753L12.2844 16.6586L15.6976 15.753V13.4355Z" fill="#95CBEC"/>
<path d="M7.87109 13.4357H16.972L16.4809 11.1182L12.4377 9.88867L8.3944 11.1182L7.87109 13.4357Z" fill="#95CBEC"/>
<path d="M17.7428 13.7995H7.13448C6.91675 13.7995 6.74023 13.6367 6.74023 13.4359C6.74023 13.2351 6.91675 13.0723 7.13448 13.0723H17.7429C17.9607 13.0723 18.1371 13.2351 18.1371 13.4359C18.1371 13.6367 17.9606 13.7995 17.7428 13.7995Z" fill="#6FB6E1"/>
<path d="M17.7441 13.4355H14.8477L15.0555 15.753H17.7441C18.3709 15.753 18.8789 15.2844 18.8789 14.7063V14.4822C18.8789 13.9042 18.3709 13.4355 17.7441 13.4355V13.4355Z" fill="#6FB6E1"/>
<path d="M17.7438 11.1182H16.0395C15.2548 11.5182 14.747 12.3167 14.8265 13.2043L14.8473 13.4356H17.7438C18.3705 13.4356 18.8786 12.967 18.8786 12.3889V12.1649C18.8786 11.5868 18.3705 11.1182 17.7438 11.1182V11.1182Z" fill="#6FB6E1"/>
<path d="M9.50862 13.4355H7.13481C6.50806 13.4355 6 13.9042 6 14.4822V14.7063C6 15.2844 6.50806 15.753 7.13481 15.753H9.50862V13.4355Z" fill="#6FB6E1"/>
<path d="M9.50862 11.1182H7.13481C6.50806 11.1182 6 11.5868 6 12.1649V12.3889C6 12.967 6.50806 13.4356 7.13481 13.4356H9.50862V11.1182Z" fill="#6FB6E1"/>
<path d="M12.9791 3.98047H13.5248C16.481 3.98047 18.8776 6.19089 18.8776 8.91763C18.8776 10.138 17.805 11.1273 16.4819 11.1273H9.50822L7.75391 10.3527L9.75512 4.90168L12.9791 3.98047Z" fill="#CEEAFB"/>
<path d="M9.50867 11.0819C9.50867 8.25475 10.8511 5.7172 12.9795 3.98047H11.3528C8.39657 3.98047 6 6.19089 6 8.91763C6 10.138 7.07262 11.1273 8.39573 11.1273H9.50862V11.0819H9.50867Z" fill="#A7D4F1"/>
<path d="M15.8181 23.8286C15.4211 23.9397 15 23.9995 14.5636 23.9995H14.4673L11.0156 23.5516L7.87109 17.2685L9.50729 15.7529H15.0531L17.6622 19.1568L15.8181 23.8286Z" fill="#CEEAFB"/>
<path d="M16.5381 15.7529H15.0547L15.7433 23.4311C15.7556 23.5676 15.7816 23.7003 15.8195 23.8281C17.5896 23.3325 18.8781 21.816 18.8781 20.0215V17.9113C18.8781 16.7192 17.8304 15.7529 16.5381 15.7529V15.7529Z" fill="#A7D4F1"/>
<path d="M9.50862 15.8864V15.7529H8.34006C7.04765 15.7529 6 16.7193 6 17.9113V20.0215C6 22.2185 7.93099 23.9995 10.3129 23.9995H14.4687C11.4956 22.3384 9.50862 19.3265 9.50862 15.8864V15.8864Z" fill="#A7D4F1"/>
<path d="M8.78933 9.27321C9.53269 9.27321 10.1353 8.83057 10.1353 8.28455C10.1353 7.73853 9.53269 7.2959 8.78933 7.2959C8.04597 7.2959 7.44336 7.73853 7.44336 8.28455C7.44336 8.83057 8.04597 9.27321 8.78933 9.27321Z" fill="#E89FA9"/>
<path d="M16.0843 9.27321C16.8276 9.27321 17.4302 8.83057 17.4302 8.28455C17.4302 7.73853 16.8276 7.2959 16.0843 7.2959C15.3409 7.2959 14.7383 7.73853 14.7383 8.28455C14.7383 8.83057 15.3409 9.27321 16.0843 9.27321Z" fill="#E89FA9"/>
<path d="M9.57394 7.69673C9.35621 7.69673 9.17969 7.53391 9.17969 7.33309V6.82555C9.17969 6.62473 9.35621 6.46191 9.57394 6.46191C9.79167 6.46191 9.96819 6.62473 9.96819 6.82555V7.33304C9.96819 7.53391 9.79172 7.69673 9.57394 7.69673V7.69673Z" fill="#4F5C6F"/>
<path d="M15.3005 7.69673C15.0828 7.69673 14.9062 7.53391 14.9062 7.33309V6.82555C14.9062 6.62473 15.0828 6.46191 15.3005 6.46191C15.5182 6.46191 15.6948 6.62473 15.6948 6.82555V7.33304C15.6948 7.53391 15.5182 7.69673 15.3005 7.69673V7.69673Z" fill="#4F5C6F"/>
<path d="M12.4383 7.99869C12.035 7.99869 11.6515 7.83762 11.3861 7.5567C11.2431 7.40528 11.2601 7.17561 11.4243 7.04363C11.5884 6.9117 11.8375 6.92746 11.9806 7.07888C12.0962 7.20121 12.263 7.27137 12.4383 7.27137C12.6135 7.27137 12.7804 7.20121 12.896 7.07883C13.0391 6.92741 13.2881 6.91166 13.4523 7.04363C13.6164 7.17556 13.6335 7.40528 13.4904 7.5567C13.225 7.83757 12.8415 7.99869 12.4383 7.99869V7.99869Z" fill="#4F5C6F"/>
</svg>
