<svg width="24" height="24" viewBox="0 0 24 24" fill="none" xmlns="http://www.w3.org/2000/svg">
<g clip-path="url(#clip0_175_1095)">
<path d="M5.18359 22.4001L5.2517 23.2631C5.28456 23.6792 5.63181 24.0001 6.04923 24.0001H14.7508C15.1682 24.0001 15.5155 23.6792 15.5483 23.2631L15.6164 22.4001V22.1104H5.18359V22.4001Z" fill="#F9EFDA"/>
<path d="M14.5063 22.1104V22.4001L14.4382 23.2631C14.4053 23.6792 14.058 24.0001 13.6406 24.0001H14.7513C15.1687 24.0001 15.516 23.6792 15.5488 23.2631L15.6169 22.4001V22.1104H14.5063Z" fill="#F4DDB1"/>
<path d="M4.37718 5.60002L5.75732 5.95669L7.2757 5.60002L4.86459 0.831003C4.47253 0.0555497 3.50953 -0.231325 2.75704 0.203112C2.00451 0.637597 1.77149 1.61499 2.24704 2.34225L4.37718 5.60002Z" fill="#9DC6FB"/>
<path d="M3.75473 0.831684L6.28275 5.83414L7.27645 5.6007L4.86539 0.831684C4.5075 0.123824 3.67397 -0.176551 2.95898 0.106809C3.29152 0.237684 3.57994 0.485981 3.75473 0.831684V0.831684Z" fill="#80B4FB"/>
<path d="M9.86818 5.60002L9.62012 3.3675C9.53003 2.5567 9.77045 1.74375 10.2871 1.11234C10.9033 0.359156 11.7775 -0.00426563 12.6456 4.6875e-05L20.0016 0V6.39998L9.86818 5.60002Z" fill="#DDEAFB"/>
<path d="M18.3053 8.40517L18.5194 8.38571C20.4548 8.20979 22.1338 6.97698 22.8812 5.18307C23.3761 3.99535 23.292 2.64526 22.6537 1.52809C21.5987 -0.318225 19.0204 -0.533475 17.6738 1.11235C17.1572 1.74376 16.9167 2.55667 17.0068 3.36751L17.2549 5.60003L18.3053 8.40517Z" fill="#80B4FB"/>
<path d="M17.2808 15.0351L17.245 14.8005L17.318 14.5653L17.9464 6.6377H2.40039V7.20052L2.81092 12.4006L3.71627 14.8124L3.18986 17.2005L3.47406 20.8005L10.4004 21.6005L16.8191 20.8591L17.2808 15.0351Z" fill="#9DC6FB"/>
<path d="M22.6533 1.52779C22.0771 0.519514 21.0467 -0.00103323 20.0107 0.000982394C20.6279 0.250826 21.1769 0.715967 21.5427 1.38679C22.1811 2.5575 22.2651 3.97223 21.7702 5.21686C21.141 6.79936 19.8515 7.965 18.3047 8.40417L18.3049 8.40487L18.519 8.38542C20.4544 8.2095 22.1334 6.97669 22.8808 5.18283C23.3758 3.99506 23.2917 2.64497 22.6533 1.52779V1.52779Z" fill="#74A4FC"/>
<path d="M17.328 20.8006L17.6122 17.2006L17.2463 14.8006L17.9911 12.4006C17.9895 12.4008 17.9899 12.4003 17.9912 12.3995L18.4017 7.20052V6.6377H17.291V7.20057L16.2074 20.9265C16.2073 20.9277 16.2071 20.9289 16.207 20.9301L17.328 20.8006Z" fill="#80B4FB"/>
<path d="M18.4281 5.60059C18.2823 5.60059 1.74667 5.60059 1.6008 5.60059C1.15895 5.60059 0.800781 5.95876 0.800781 6.4006C0.800781 6.84245 1.15895 7.20062 1.6008 7.20062H18.4281C18.87 7.20062 19.2281 6.84245 19.2281 6.4006C19.2281 5.95876 18.87 5.60059 18.4281 5.60059V5.60059Z" fill="#F9EFDA"/>
<path d="M19.2005 5.60059C19.1786 5.60059 18.7694 5.60059 18.0898 5.60059C18.5317 5.60059 18.8899 5.95876 18.8899 6.4006C18.8899 6.84245 18.5317 7.20062 18.0898 7.20062H19.2005C19.6423 7.20062 20.0005 6.84245 20.0005 6.4006C20.0005 5.95876 19.6423 5.60059 19.2005 5.60059V5.60059Z" fill="#F4DDB1"/>
<path d="M3.47461 20.7998L3.48455 20.9257C3.55027 21.7579 4.24477 22.3998 5.07956 22.3998H15.7222C16.557 22.3998 17.2516 21.7579 17.3173 20.9257L17.3272 20.7998H3.47461Z" fill="#80B4FB"/>
<path d="M16.2163 20.7998L16.2063 20.9257C16.1406 21.7579 15.4461 22.3998 14.6113 22.3998H15.722C16.5568 22.3998 17.2513 21.7579 17.317 20.9257L17.3269 20.7998H16.2163Z" fill="#74A4FC"/>
<path d="M2.81055 12.4004H6.61623C6.87278 12.4004 7.11395 12.2775 7.26391 12.0693C7.99656 11.0526 9.12897 10.4004 10.4 10.4004C11.671 10.4004 12.8035 11.0527 13.5362 12.0693C13.6861 12.2775 13.9273 12.4004 14.1838 12.4004H17.9895L17.6106 17.2004H14.1838C13.9273 17.2004 13.6861 17.3233 13.5362 17.5314C12.8035 18.5481 11.6711 19.2003 10.4 19.2003C9.12897 19.2003 7.99656 18.5481 7.26391 17.5314C7.11391 17.3233 6.87273 17.2004 6.61623 17.2004H3.18948L2.81055 12.4004Z" fill="#F9EFDA"/>
<path d="M17.9082 13.4298L16.8789 12.4004H14.1838C13.9273 12.4004 13.6861 12.2775 13.5362 12.0694C12.8035 11.0527 11.6711 10.4004 10.4 10.4004C9.12897 10.4004 7.99656 11.0527 7.26391 12.0693C7.11395 12.2775 6.87278 12.4004 6.61623 12.4004H2.81055L3.18948 17.2004H6.61623C6.87278 17.2004 7.11395 17.3233 7.26391 17.5314C7.99656 18.5481 9.12897 19.2003 10.4 19.2003C11.671 19.2003 12.8035 18.5481 13.5362 17.5314C13.6861 17.3233 13.9273 17.2004 14.1838 17.2004H16.4999L17.6546 16.6426L17.9082 13.4298Z" fill="#F9EFDA"/>
<path d="M16.5 17.2004H17.6107L17.9896 12.4004H16.8789L16.5 17.2004Z" fill="#F4DDB1"/>
<path d="M5.53026 16.0673C5.23741 16.0673 5 15.8299 5 15.537V14.6885C5 14.3956 5.23741 14.1582 5.53026 14.1582C5.82312 14.1582 6.0606 14.3956 6.0606 14.6885V15.537C6.0606 15.8299 5.82318 16.0673 5.53026 16.0673Z" fill="#423E4F"/>
<path d="M8.54613 15.8803C8.35398 15.6592 8.37735 15.3243 8.59836 15.1321C8.8193 14.9399 9.15426 14.9633 9.34649 15.1843C9.78118 15.6842 10.557 15.6836 10.9912 15.1843C11.1834 14.9633 11.5184 14.9399 11.7393 15.1321C11.9603 15.3243 11.9837 15.6592 11.7916 15.8803C10.9341 16.8662 9.40261 16.8652 8.54613 15.8803V15.8803Z" fill="#423E4F"/>
<path d="M15.9538 16.0441C15.6796 16.0441 15.4277 15.8324 15.4228 15.5053C15.4189 15.2601 15.2159 15.0606 14.9702 15.0606C14.7207 15.0606 14.5177 15.264 14.5177 15.5138C14.5177 15.8067 14.2803 16.0441 13.9874 16.0441C13.6945 16.0441 13.457 15.8067 13.457 15.5138C13.457 14.6791 14.1358 14 14.9702 14C15.804 14 16.484 14.6858 16.484 15.5138C16.4841 15.8068 16.2467 16.0441 15.9538 16.0441V16.0441Z" fill="#423E4F"/>
</g>
<defs>
<clipPath id="clip0_175_1095">
<rect width="24" height="24" fill="white"/>
</clipPath>
</defs>
</svg>
